<?xml version="1.0" encoding="UTF-8" standalone="no"?>
<svg
   inkscape:export-ydpi="500"
   inkscape:export-xdpi="500"
   inkscape:export-filename="/Users/yongrenjie/Desktop/noah_sehsqc_v1.png"
   sodipodi:docname="epsi_opt.svg"
   inkscape:version="1.1 (c4e8f9e, 2021-05-24)"
   id="svg8"
   version="1.1"
   viewBox="0 0 121.06735 58.661575"
   height="58.661575mm"
   width="121.06734mm"
   xmlns:inkscape="http://www.inkscape.org/namespaces/inkscape"
   xmlns:sodipodi="http://sodipodi.sourceforge.net/DTD/sodipodi-0.dtd"
   xmlns="http://www.w3.org/2000/svg"
   xmlns:svg="http://www.w3.org/2000/svg"
   xmlns:rdf="http://www.w3.org/1999/02/22-rdf-syntax-ns#"
   xmlns:cc="http://creativecommons.org/ns#"
   xmlns:dc="http://purl.org/dc/elements/1.1/">
  <defs
     id="defs2">
    <marker
       style="overflow:visible;"
       id="marker2375"
       refX="0.0"
       refY="0.0"
       orient="auto"
       inkscape:stockid="Arrow1Send"
       inkscape:isstock="true">
      <path
         transform="scale(0.2) rotate(180) translate(6,0)"
         style="fill-rule:evenodd;fill:context-stroke;stroke:context-stroke;stroke-width:1.0pt;"
         d="M 0.0,0.0 L 5.0,-5.0 L -12.5,0.0 L 5.0,5.0 L 0.0,0.0 z "
         id="path2120" />
    </marker>
    <marker
       style="overflow:visible"
       id="Arrow1Sstart"
       refX="0.0"
       refY="0.0"
       orient="auto"
       inkscape:stockid="Arrow1Sstart"
       inkscape:isstock="true">
      <path
         transform="scale(0.2) translate(6,0)"
         style="fill-rule:evenodd;fill:context-stroke;stroke:context-stroke;stroke-width:1.0pt"
         d="M 0.0,0.0 L 5.0,-5.0 L -12.5,0.0 L 5.0,5.0 L 0.0,0.0 z "
         id="path2117" />
    </marker>
    <rect
       x="180"
       y="110"
       width="490"
       height="60"
       id="rect44379" />
    <marker
       style="overflow:visible"
       id="Arrow1Send"
       refX="0"
       refY="0"
       orient="auto"
       inkscape:stockid="Arrow1Send"
       inkscape:isstock="true">
      <path
         transform="matrix(-0.2,0,0,-0.2,-1.2,0)"
         style="fill:context-stroke;fill-rule:evenodd;stroke:context-stroke;stroke-width:1pt"
         d="M 0,0 5,-5 -12.5,0 5,5 Z"
         id="path4199" />
    </marker>
    <rect
       x="125.67708"
       y="59.53125"
       width="7.9375"
       height="2.6458333"
       id="rect2417" />
    <rect
       x="66.145836"
       y="30.427082"
       width="11.90625"
       height="7.9375"
       id="rect2405" />
    <rect
       id="rect2417-5"
       height="2.6458333"
       width="7.9375"
       y="59.53125"
       x="125.67708" />
    <rect
       id="rect3112"
       height="2.6458333"
       width="7.9375"
       y="59.53125"
       x="125.67708" />
    <rect
       x="125.67708"
       y="59.53125"
       width="7.9375"
       height="2.6458333"
       id="rect2417-5-4" />
    <rect
       x="125.67708"
       y="59.53125"
       width="7.9375"
       height="2.6458333"
       id="rect1299" />
    <rect
       id="rect2417-2"
       height="2.6458333"
       width="7.9375"
       y="59.53125"
       x="125.67708" />
    <rect
       id="rect1704"
       height="2.6458333"
       width="7.9375"
       y="59.53125"
       x="125.67708" />
    <rect
       x="125.67708"
       y="59.53125"
       width="7.9375"
       height="2.6458333"
       id="rect2417-2-5" />
    <rect
       x="125.67708"
       y="59.53125"
       width="7.9375"
       height="2.6458333"
       id="rect1911" />
    <rect
       id="rect2417-7"
       height="2.6458333"
       width="7.9375"
       y="59.53125"
       x="125.67708" />
    <rect
       id="rect628"
       height="2.6458333"
       width="7.9375"
       y="59.53125"
       x="125.67708" />
    <rect
       x="125.67708"
       y="59.53125"
       width="7.9375"
       height="2.6458333"
       id="rect2417-7-0" />
    <rect
       x="125.67708"
       y="59.53125"
       width="7.9375"
       height="2.6458333"
       id="rect1265" />
    <rect
       id="rect2417-7-0-8"
       height="2.6458333"
       width="7.9375"
       y="59.53125"
       x="125.67708" />
    <rect
       id="rect1352"
       height="2.6458333"
       width="7.9375"
       y="59.53125"
       x="125.67708" />
    <rect
       x="125.67708"
       y="59.53125"
       width="7.9375"
       height="2.6458333"
       id="rect2417-7-2" />
    <rect
       x="125.67708"
       y="59.53125"
       width="7.9375"
       height="2.6458333"
       id="rect1645" />
    <rect
       id="rect2417-7-0-3"
       height="2.6458333"
       width="7.9375"
       y="59.53125"
       x="125.67708" />
    <rect
       id="rect1648"
       height="2.6458333"
       width="7.9375"
       y="59.53125"
       x="125.67708" />
    <rect
       x="125.67708"
       y="59.53125"
       width="7.9375"
       height="2.6458333"
       id="rect2417-7-4" />
    <rect
       x="125.67708"
       y="59.53125"
       width="7.9375"
       height="2.6458333"
       id="rect1937" />
    <rect
       x="125.67708"
       y="59.53125"
       width="7.9375"
       height="2.6458333"
       id="rect2417-7-6" />
    <rect
       x="125.67708"
       y="59.53125"
       width="7.9375"
       height="2.6458333"
       id="rect2315" />
    <rect
       id="rect2417-7-0-0"
       height="2.6458333"
       width="7.9375"
       y="59.53125"
       x="125.67708" />
    <rect
       id="rect2318"
       height="2.6458333"
       width="7.9375"
       y="59.53125"
       x="125.67708" />
    <rect
       id="rect2417-7-4-4"
       height="2.6458333"
       width="7.9375"
       y="59.53125"
       x="125.67708" />
    <rect
       id="rect2321"
       height="2.6458333"
       width="7.9375"
       y="59.53125"
       x="125.67708" />
    <rect
       x="125.67708"
       y="59.53125"
       width="7.9375"
       height="2.6458333"
       id="rect2417-5-7" />
    <rect
       x="125.67708"
       y="59.53125"
       width="7.9375"
       height="2.6458333"
       id="rect1918" />
    <rect
       x="125.67708"
       y="59.53125"
       width="7.9375"
       height="2.6458333"
       id="rect2417-5-7-9" />
    <rect
       x="125.67708"
       y="59.53125"
       width="7.9375"
       height="2.6458333"
       id="rect1827" />
    <rect
       x="125.67708"
       y="59.53125"
       width="7.9375"
       height="2.6458333"
       id="rect2417-5-7-9-5" />
    <rect
       x="125.67708"
       y="59.53125"
       width="7.9375"
       height="2.6458333"
       id="rect2715" />
    <rect
       x="125.67708"
       y="59.53125"
       width="7.9375"
       height="2.6458333"
       id="rect2417-5-7-9-5-0" />
    <rect
       x="125.67708"
       y="59.53125"
       width="7.9375"
       height="2.6458333"
       id="rect3097" />
    <rect
       x="125.67708"
       y="59.53125"
       width="7.9375"
       height="2.6458333"
       id="rect2417-5-7-8" />
    <rect
       x="125.67708"
       y="59.53125"
       width="7.9375"
       height="2.6458333"
       id="rect2046" />
    <rect
       id="rect2417-5-0"
       height="2.6458333"
       width="7.9375"
       y="59.53125"
       x="125.67708" />
    <rect
       id="rect2691"
       height="2.6458333"
       width="7.9375"
       y="59.53125"
       x="125.67708" />
    <rect
       x="125.67708"
       y="59.53125"
       width="7.9375"
       height="2.6458333"
       id="rect2417-5-7-9-7" />
    <marker
       style="overflow:visible"
       id="Arrow1Send-9"
       refX="0"
       refY="0"
       orient="auto"
       inkscape:stockid="Arrow1Send"
       inkscape:isstock="true">
      <path
         transform="matrix(-0.2,0,0,-0.2,-1.2,0)"
         style="fill:context-stroke;fill-rule:evenodd;stroke:context-stroke;stroke-width:1pt"
         d="M 0,0 5,-5 -12.5,0 5,5 Z"
         id="path4199-7" />
    </marker>
    <rect
       x="125.67708"
       y="59.53125"
       width="7.9375"
       height="2.6458333"
       id="rect2417-5-7-2" />
    <rect
       id="rect2417-5-49"
       height="2.6458333"
       width="7.9375"
       y="59.53125"
       x="125.67708" />
    <marker
       style="overflow:visible"
       id="Arrow1Sstart-6"
       refX="0"
       refY="0"
       orient="auto"
       inkscape:stockid="Arrow1Sstart"
       inkscape:isstock="true">
      <path
         transform="matrix(0.2,0,0,0.2,1.2,0)"
         style="fill:context-stroke;fill-rule:evenodd;stroke:context-stroke;stroke-width:1pt"
         d="M 0,0 5,-5 -12.5,0 5,5 Z"
         id="path2117-3" />
    </marker>
    <marker
       style="overflow:visible"
       id="marker2375-1"
       refX="0"
       refY="0"
       orient="auto"
       inkscape:stockid="Arrow1Send"
       inkscape:isstock="true">
      <path
         transform="matrix(-0.2,0,0,-0.2,-1.2,0)"
         style="fill:context-stroke;fill-rule:evenodd;stroke:context-stroke;stroke-width:1pt"
         d="M 0,0 5,-5 -12.5,0 5,5 Z"
         id="path2120-0" />
    </marker>
    <marker
       style="overflow:visible"
       id="Arrow1Sstart-6-1"
       refX="0"
       refY="0"
       orient="auto"
       inkscape:stockid="Arrow1Sstart"
       inkscape:isstock="true">
      <path
         transform="matrix(0.2,0,0,0.2,1.2,0)"
         style="fill:context-stroke;fill-rule:evenodd;stroke:context-stroke;stroke-width:1pt"
         d="M 0,0 5,-5 -12.5,0 5,5 Z"
         id="path2117-3-3" />
    </marker>
    <marker
       style="overflow:visible"
       id="marker2375-1-8"
       refX="0"
       refY="0"
       orient="auto"
       inkscape:stockid="Arrow1Send"
       inkscape:isstock="true">
      <path
         transform="matrix(-0.2,0,0,-0.2,-1.2,0)"
         style="fill:context-stroke;fill-rule:evenodd;stroke:context-stroke;stroke-width:1pt"
         d="M 0,0 5,-5 -12.5,0 5,5 Z"
         id="path2120-0-2" />
    </marker>
  </defs>
  <sodipodi:namedview
     id="base"
     pagecolor="#ffffff"
     bordercolor="#666666"
     borderopacity="1.0"
     inkscape:pageopacity="0.0"
     inkscape:pageshadow="2"
     inkscape:zoom="2.7852197"
     inkscape:cx="113.63556"
     inkscape:cy="108.07047"
     inkscape:document-units="mm"
     inkscape:current-layer="layer1"
     inkscape:document-rotation="0"
     showgrid="true"
     inkscape:window-width="1482"
     inkscape:window-height="726"
     inkscape:window-x="-12"
     inkscape:window-y="25"
     inkscape:window-maximized="0"
     inkscape:snap-object-midpoints="false"
     inkscape:snap-text-baseline="true"
     inkscape:pagecheckerboard="0"
     inkscape:snap-nodes="true">
    <inkscape:grid
       type="xygrid"
       id="grid1346"
       originx="-39.587507"
       originy="-23.7125" />
  </sodipodi:namedview>
  <metadata
     id="metadata5">
    <rdf:RDF>
      <cc:Work
         rdf:about="">
        <dc:format>image/svg+xml</dc:format>
        <dc:type
           rdf:resource="http://purl.org/dc/dcmitype/StillImage" />
        <dc:title />
      </cc:Work>
    </rdf:RDF>
  </metadata>
  <g
     inkscape:label="Layer 1"
     inkscape:groupmode="layer"
     id="layer1"
     transform="translate(-39.587504,-23.7125)">
    <path
       inkscape:export-filename="/Users/yongrenjie/dphil/nbsphinx/sehsqc/spor.png"
       style="fill:none;stroke:#000000;stroke-width:0.264582px;stroke-linecap:butt;stroke-linejoin:miter;stroke-opacity:1"
       d="M 59.531243,51.593754 H 88.63541"
       id="path10-22-2"
       inkscape:export-xdpi="500"
       inkscape:export-ydpi="500" />
    <text
       inkscape:export-filename="/Users/yongrenjie/dphil/nbsphinx/sehsqc/spor.png"
       xml:space="preserve"
       style="font-style:normal;font-weight:normal;font-size:3.52777px;line-height:1.25;font-family:'Fira Sans';fill:#000000;fill-opacity:1;stroke:none;stroke-width:0.264583"
       x="55.440712"
       y="52.916664"
       id="text14-2-7"
       inkscape:export-xdpi="500"
       inkscape:export-ydpi="500"><tspan
         sodipodi:role="line"
         id="tspan12-5-03"
         x="55.440712"
         y="52.916664"
         style="font-style:normal;font-variant:normal;font-weight:normal;font-stretch:normal;font-size:3.52777px;font-family:'Fira Sans';-inkscape-font-specification:'Fira Sans';stroke-width:0.264583"><tspan
   style="font-style:normal;font-variant:normal;font-weight:normal;font-stretch:normal;font-size:2.29306px;font-family:'Fira Sans';-inkscape-font-specification:'Fira Sans';baseline-shift:super;stroke-width:0.264583"
   id="tspan16-1-9">1</tspan>H</tspan></text>
    <text
       inkscape:export-filename="/Users/yongrenjie/dphil/nbsphinx/sehsqc/spor.png"
       xml:space="preserve"
       style="font-style:normal;font-weight:normal;font-size:3.52777px;line-height:1.25;font-family:'Fira Sans';fill:#000000;fill-opacity:1;stroke:none;stroke-width:0.264583"
       x="55.276451"
       y="59.422085"
       id="text24-6-9"
       inkscape:export-xdpi="500"
       inkscape:export-ydpi="500"><tspan
         sodipodi:role="line"
         id="tspan22-4-9"
         x="55.276451"
         y="59.422085"
         style="font-style:italic;font-variant:normal;font-weight:normal;font-stretch:normal;font-size:3.52777px;font-family:'Fira Sans';-inkscape-font-specification:'Fira Sans';stroke-width:0.264583">G<tspan
   style="font-style:italic;font-variant:normal;font-weight:normal;font-stretch:normal;font-size:2.29306px;font-family:'Fira Sans';-inkscape-font-specification:'Fira Sans';baseline-shift:sub;stroke-width:0.264583"
   id="tspan28-4-1">z</tspan></tspan></text>
    <rect
       inkscape:export-filename="/Users/yongrenjie/dphil/nbsphinx/sehsqc/spor.png"
       y="46.302082"
       x="62.177082"
       height="5.2916665"
       width="1.3229166"
       id="rect1348-7-1-8"
       style="fill:#000000;stroke:#000000;stroke-width:0.264999;stroke-miterlimit:4;stroke-dasharray:none"
       inkscape:export-xdpi="500"
       inkscape:export-ydpi="500" />
    <path
       inkscape:export-filename="/Users/yongrenjie/dphil/nbsphinx/sehsqc/spor.png"
       style="fill:none;stroke:#000000;stroke-width:0.264582px;stroke-linecap:butt;stroke-linejoin:miter;stroke-opacity:1"
       d="M 59.531246,58.208333 H 88.63541"
       id="path10-2-8-0-41"
       inkscape:export-xdpi="500"
       inkscape:export-ydpi="500" />
    <text
       xml:space="preserve"
       transform="scale(0.26458333)"
       id="text44377"
       style="font-size:10.6667px;line-height:1.25;font-family:'Source Sans Pro';-inkscape-font-specification:'Source Sans Pro, Normal';white-space:pre;shape-inside:url(#rect44379)" />
    <path
       style="fill:none;stroke:#023eff;stroke-width:0.264583px;stroke-linecap:butt;stroke-linejoin:miter;stroke-opacity:1;marker-start:url(#Arrow1Sstart);marker-end:url(#marker2375)"
       d="m 64.107631,47.624998 h 5.546255"
       id="path1921" />
    <text
       xml:space="preserve"
       style="font-size:2.82223px;line-height:1.25;font-family:'Fira Sans';-inkscape-font-specification:'Fira Sans';fill:#023eff;fill-opacity:1;stroke-width:0.264583"
       x="65.618065"
       y="46.302082"
       id="text3327"><tspan
         sodipodi:role="line"
         id="tspan3325"
         style="font-style:italic;fill:#023eff;fill-opacity:1;stroke-width:0.264583"
         x="65.618065"
         y="46.302082">T<tspan
   style="font-style:normal;font-size:65%;baseline-shift:sub"
   id="tspan2691">a</tspan></tspan></text>
    <path
       style="fill:none;stroke:#023eff;stroke-width:0.264583px;stroke-linecap:butt;stroke-linejoin:miter;stroke-opacity:1;marker-start:url(#Arrow1Sstart-6);marker-end:url(#marker2375-1)"
       d="m 71.971643,42.333333 h 5.546255"
       id="path1921-4" />
    <text
       xml:space="preserve"
       style="font-size:2.82223px;line-height:1.25;font-family:'Fira Sans';-inkscape-font-specification:'Fira Sans';fill:#023eff;fill-opacity:1;stroke-width:0.264583"
       x="73.482079"
       y="41.010418"
       id="text3327-8"><tspan
         sodipodi:role="line"
         id="tspan3325-9"
         style="font-style:italic;fill:#023eff;fill-opacity:1;stroke-width:0.264583"
         x="73.482079"
         y="41.010418">T<tspan
   style="font-style:normal;font-size:65%;baseline-shift:sub"
   id="tspan2691-5">a</tspan></tspan></text>
    <path
       style="fill:none;stroke:#023eff;stroke-width:0.264583px;stroke-linecap:butt;stroke-linejoin:miter;stroke-opacity:1;marker-start:url(#Arrow1Sstart-6-1);marker-end:url(#marker2375-1-8)"
       d="m 78.586263,42.333333 h 5.546255"
       id="path1921-4-7" />
    <text
       xml:space="preserve"
       style="font-size:2.82223px;line-height:1.25;font-family:'Fira Sans';-inkscape-font-specification:'Fira Sans';fill:#023eff;fill-opacity:1;stroke-width:0.264583"
       x="80.096695"
       y="41.010418"
       id="text3327-8-7"><tspan
         sodipodi:role="line"
         id="tspan3325-9-3"
         style="font-style:italic;fill:#023eff;fill-opacity:1;stroke-width:0.264583"
         x="80.096695"
         y="41.010418">T<tspan
   style="font-style:normal;font-size:65%;baseline-shift:sub"
   id="tspan2691-5-3">a</tspan></tspan></text>
    <rect
       style="fill:none;stroke:#000000;stroke-width:0.264999;stop-color:#000000"
       id="rect1119"
       width="6.6145878"
       height="1.3229166"
       x="63.499996"
       y="58.208332" />
    <rect
       style="fill:none;stroke:#000000;stroke-width:0.265;stop-color:#000000"
       id="rect1119-7"
       width="6.6145878"
       height="2.6458347"
       x="71.4375"
       y="55.5625" />
    <rect
       style="fill:none;stroke:#000000;stroke-width:0.265;stop-color:#000000"
       id="rect1119-7-2"
       width="6.6145878"
       height="2.6458347"
       x="78.052078"
       y="58.208332" />
    <path
       style="fill:none;stroke:#000000;stroke-width:0.264999;stop-color:#000000"
       d="m 71.43746,51.61575 v -0.022 c 0.0043,-0.0069 0.0086,-0.0138 0.013,-0.0207 0.0043,-0.0069 0.0086,-0.0138 0.013,-0.0207 0.0043,-0.0068 0.0086,-0.0136 0.01293,-0.0203 0.0044,-0.0067 0.0087,-0.0133 0.013,-0.0198 0.0044,-0.0065 0.0087,-0.013 0.013,-0.0192 0.0044,-0.0063 0.0087,-0.0125 0.013,-0.0185 0.0044,-0.006 0.0087,-0.0119 0.013,-0.0176 0.0044,-0.0057 0.0086,-0.0112 0.013,-0.0166 0.0044,-0.0053 0.0086,-0.0104 0.013,-0.0153 0.0044,-0.0049 0.0086,-0.0096 0.013,-0.0141 0.0044,-0.0045 0.0086,-0.0087 0.013,-0.0127 0.0044,-0.004 0.0086,-0.0077 0.013,-0.0111 0.0043,-0.0035 0.0086,-0.0067 0.013,-0.0096 0.0043,-0.0029 0.0086,-0.0055 0.013,-0.0079 0.0043,-0.0023 0.0086,-0.0043 0.013,-0.0061 0.0043,-0.0017 0.0086,-0.0031 0.013,-0.0043 0.0043,-0.0011 0.0086,-0.0019 0.013,-0.0024 0.0043,-5e-4 0.0086,-6e-4 0.01293,-5e-4 0.0044,2e-4 0.0087,6e-4 0.013,0.0014 0.0044,8e-4 0.0087,0.0019 0.013,0.0034 0.0044,0.0014 0.0087,0.0032 0.013,0.0052 0.0044,0.0021 0.0087,0.0045 0.013,0.0072 0.0044,0.0027 0.0086,0.0057 0.013,0.009 0.0044,0.0034 0.0086,0.007 0.013,0.0109 0.0044,0.0039 0.0086,0.0081 0.013,0.0126 0.0044,0.0044 0.0086,0.0092 0.013,0.0142 0.0044,0.005 0.0086,0.0103 0.013,0.0159 0.0043,0.0055 0.0086,0.0113 0.013,0.0173 0.0043,0.006 0.0086,0.0122 0.013,0.0186 0.0043,0.0065 0.0086,0.0131 0.013,0.0199 0.0043,0.0069 0.0086,0.0139 0.013,0.021 0.0043,0.0072 0.0086,0.0145 0.013,0.022 0.0043,0.0074 0.0086,0.015 0.01293,0.0227 0.0044,0.0077 0.0087,0.0155 0.013,0.0234 0.0044,0.0079 0.0087,0.0159 0.013,0.0239 0.0044,0.008 0.0087,0.0161 0.013,0.0242 0.0044,0.008 0.0087,0.0161 0.013,0.0242 0.0044,0.0081 0.0086,0.0162 0.013,0.0243 0.0044,0.008 0.0086,0.016 0.013,0.024 0.0044,0.0079 0.0086,0.0158 0.013,0.0235 0.0044,0.0078 0.0086,0.0155 0.013,0.023 0.0044,0.0076 0.0086,0.015 0.013,0.0222 0.0043,0.0073 0.0086,0.0144 0.013,0.0213 0.0043,0.0069 0.0086,0.0137 0.013,0.0202 0.0043,0.0065 0.0086,0.0128 0.013,0.0189 0.0043,0.0061 0.0086,0.0119 0.013,0.0175 0.0043,0.0056 0.0086,0.0109 0.013,0.0159 0.0043,0.0051 0.0086,0.0098 0.01293,0.0143 0.0044,0.0044 0.0087,0.0086 0.013,0.0124 0.0044,0.0038 0.0087,0.0073 0.013,0.0105 0.0044,0.0032 0.0087,0.006 0.013,0.0085 0.0044,0.0024 0.0087,0.0046 0.013,0.0063 0.0044,0.0018 0.0086,0.0032 0.013,0.0042 0.0044,0.0011 0.0086,0.0017 0.013,0.002 0.0044,3e-4 0.0086,2e-4 0.013,-3e-4 0.0044,-4e-4 0.0086,-0.0013 0.013,-0.0025 0.0044,-0.0012 0.0086,-0.0029 0.013,-0.0049 0.0043,-0.002 0.0086,-0.0043 0.013,-0.0071 0.0043,-0.0027 0.0086,-0.0059 0.013,-0.0093 0.0043,-0.0035 0.0086,-0.0074 0.013,-0.0116 0.0043,-0.0042 0.0086,-0.0088 0.013,-0.0137 0.0043,-0.0049 0.0086,-0.0102 0.013,-0.0157 0.0043,-0.0056 0.0086,-0.0115 0.01293,-0.0178 0.0044,-0.0062 0.0087,-0.0127 0.013,-0.0195 0.0044,-0.0068 0.0087,-0.0139 0.013,-0.0213 0.0044,-0.0074 0.0087,-0.015 0.013,-0.0229 0.0044,-0.0078 0.0087,-0.0159 0.013,-0.0243 0.0044,-0.0083 0.0086,-0.0168 0.013,-0.0255 0.0044,-0.0088 0.0086,-0.0177 0.013,-0.0267 0.0044,-0.0091 0.0086,-0.0183 0.013,-0.0276 0.0044,-0.0093 0.0086,-0.0188 0.013,-0.0283 0.0044,-0.0095 0.0086,-0.0191 0.013,-0.0288 0.0043,-0.0097 0.0086,-0.0194 0.013,-0.0291 0.0043,-0.0098 0.0086,-0.0195 0.013,-0.0292 0.0043,-0.0098 0.0086,-0.0195 0.013,-0.0291 0.0043,-0.0097 0.0086,-0.0193 0.013,-0.0288 0.0043,-0.0095 0.0086,-0.0189 0.013,-0.0282 0.0043,-0.0093 0.0086,-0.0185 0.01293,-0.0275 0.0044,-0.009 0.0087,-0.0178 0.013,-0.0265 0.0044,-0.0086 0.0087,-0.017 0.013,-0.0253 0.0044,-0.0082 0.0087,-0.0162 0.013,-0.0239 0.0044,-0.0077 0.0087,-0.0151 0.013,-0.0223 0.0044,-0.0072 0.0086,-0.014 0.013,-0.0206 0.0044,-0.0065 0.0086,-0.0128 0.013,-0.0186 0.0044,-0.0059 0.0086,-0.0114 0.013,-0.0166 0.0044,-0.0052 0.0086,-0.0099 0.013,-0.0143 0.0044,-0.0044 0.0086,-0.0084 0.013,-0.012 0.0044,-0.0036 0.0086,-0.0067 0.013,-0.0094 0.0043,-0.0028 0.0086,-0.0051 0.013,-0.0069 0.0043,-0.0019 0.0086,-0.0033 0.013,-0.0042 0.0043,-10e-4 0.0086,-0.0015 0.013,-0.0015 0.0043,-10e-5 0.0086,4e-4 0.013,0.0013 0.0043,9e-4 0.0086,0.0022 0.01293,0.0041 0.0044,0.0018 0.0087,0.0041 0.013,0.0069 0.0044,0.0027 0.0087,0.0059 0.013,0.0096 0.0044,0.0037 0.0087,0.0079 0.013,0.0125 0.0044,0.0046 0.0087,0.0096 0.013,0.0151 0.0044,0.0055 0.0086,0.0114 0.013,0.0178 0.0044,0.0063 0.0086,0.0131 0.013,0.0202 0.0044,0.0072 0.0086,0.0148 0.013,0.0227 0.0044,0.008 0.0086,0.0163 0.013,0.025 0.0044,0.0087 0.0086,0.0177 0.013,0.027 0.0044,0.0094 0.0086,0.0191 0.013,0.0291 0.0043,0.0099 0.0086,0.0202 0.013,0.0307 0.0043,0.0105 0.0086,0.0213 0.013,0.0323 0.0043,0.0111 0.0086,0.0223 0.013,0.0337 0.0043,0.0114 0.0086,0.023 0.013,0.0348 0.0043,0.0117 0.0086,0.0236 0.01293,0.0356 0.0044,0.012 0.0087,0.0241 0.013,0.0362 0.0044,0.0122 0.0087,0.0244 0.013,0.0366 0.0044,0.0123 0.0087,0.0245 0.013,0.0367 0.0044,0.0122 0.0087,0.0244 0.013,0.0365 0.0044,0.0121 0.0086,0.0242 0.013,0.0361 0.0044,0.0119 0.0086,0.0237 0.013,0.0354 0.0044,0.0116 0.0086,0.0231 0.013,0.0343 0.0044,0.0113 0.0086,0.0223 0.013,0.0331 0.0044,0.0108 0.0086,0.0214 0.013,0.0316 0.0044,0.0103 0.0086,0.0202 0.013,0.0298 0.0043,0.0096 0.0086,0.0189 0.013,0.0278 0.0043,0.0089 0.0086,0.0175 0.013,0.0256 0.0043,0.0081 0.0086,0.0158 0.013,0.0231 0.0043,0.0072 0.0086,0.014 0.013,0.0204 0.0043,0.0063 0.0086,0.0121 0.01293,0.0175 0.0044,0.0053 0.0087,0.0102 0.013,0.0145 0.0044,0.0043 0.0087,0.0081 0.013,0.0113 0.0044,0.0032 0.0087,0.0059 0.013,0.008 0.0044,0.002 0.0087,0.0036 0.013,0.0045 0.0044,9e-4 0.0086,0.0013 0.013,0.001 0.0044,-3e-4 0.0086,-0.0011 0.013,-0.0026 0.0044,-0.0014 0.0086,-0.0035 0.013,-0.0062 0.0044,-0.0027 0.0086,-0.0059 0.013,-0.0098 0.0044,-0.0039 0.0086,-0.0084 0.013,-0.0135 0.0044,-0.0051 0.0086,-0.0108 0.013,-0.0171 0.0043,-0.0062 0.0086,-0.0131 0.013,-0.0205 0.0043,-0.0075 0.0086,-0.0155 0.013,-0.0241 0.0043,-0.0085 0.0086,-0.0176 0.013,-0.0273 0.0043,-0.0096 0.0086,-0.0198 0.013,-0.0305 0.0043,-0.0106 0.0086,-0.0218 0.01293,-0.0335 0.0044,-0.0116 0.0087,-0.0237 0.013,-0.0363 0.0044,-0.0125 0.0087,-0.0255 0.013,-0.0388 0.0044,-0.0134 0.0087,-0.0272 0.013,-0.0413 0.0044,-0.0141 0.0087,-0.0285 0.013,-0.0433 0.0044,-0.0147 0.0086,-0.0298 0.013,-0.0451 0.0044,-0.0153 0.0086,-0.0309 0.013,-0.0467 0.0044,-0.0157 0.0086,-0.0317 0.013,-0.0478 0.0044,-0.0161 0.0086,-0.0324 0.013,-0.0487 0.0044,-0.0164 0.0086,-0.0328 0.013,-0.0493 0.0044,-0.0164 0.0086,-0.0329 0.013,-0.0494 0.0043,-0.0165 0.0086,-0.0329 0.013,-0.0493 0.0043,-0.0163 0.0086,-0.0326 0.013,-0.0487 0.0043,-0.0161 0.0086,-0.0321 0.013,-0.0478 0.0043,-0.0158 0.0086,-0.0313 0.013,-0.0466 0.0043,-0.0153 0.0086,-0.0302 0.01293,-0.0449 0.0044,-0.0147 0.0087,-0.029 0.013,-0.0429 0.0044,-0.014 0.0087,-0.0275 0.013,-0.0406 0.0044,-0.0131 0.0087,-0.0258 0.013,-0.0379 0.0044,-0.0122 0.0087,-0.0238 0.013,-0.0349 0.0044,-0.0111 0.0086,-0.0217 0.013,-0.0316 0.0044,-0.0099 0.0086,-0.0193 0.013,-0.0279 0.0044,-0.0087 0.0086,-0.0167 0.013,-0.0241 0.0044,-0.0073 0.0086,-0.0139 0.013,-0.0198 0.0044,-0.0059 0.0086,-0.0111 0.013,-0.0155 0.0044,-0.0044 0.0086,-0.008 0.013,-0.0108 0.0043,-0.0029 0.0086,-0.0049 0.013,-0.0061 0.0043,-0.0012 0.0086,-0.0016 0.013,-0.0011 0.0043,5e-4 0.0086,0.0018 0.013,0.0039 0.0043,0.0022 0.0086,0.0052 0.013,0.0091 0.0043,0.0039 0.0086,0.0087 0.01293,0.0143 0.0044,0.0056 0.0087,0.0121 0.013,0.0195 0.0044,0.0073 0.0087,0.0156 0.013,0.0247 0.0044,0.009 0.0087,0.019 0.013,0.0298 0.0044,0.0108 0.0087,0.0224 0.013,0.0349 0.0044,0.0124 0.0086,0.0257 0.013,0.0398 0.0044,0.014 0.0086,0.0289 0.013,0.0445 0.0044,0.0156 0.0086,0.032 0.013,0.0491 0.0044,0.0171 0.0086,0.035 0.013,0.0535 0.0044,0.0185 0.0086,0.0376 0.013,0.0575 0.0044,0.0198 0.0086,0.0402 0.013,0.0612 0.0043,0.021 0.0086,0.0425 0.013,0.0646 0.0043,0.0221 0.0086,0.0446 0.013,0.0677 0.0043,0.023 0.0086,0.0464 0.013,0.0702 0.0043,0.0239 0.0086,0.0481 0.013,0.0725 0.0043,0.0245 0.0086,0.0493 0.01293,0.0743 0.0044,0.0249 0.0087,0.0501 0.013,0.0755 0.0044,0.0253 0.0087,0.0507 0.013,0.0762 0.0044,0.0255 0.0087,0.051 0.013,0.0765 0.0044,0.0255 0.0087,0.051 0.013,0.0763 0.0044,0.0253 0.0087,0.0504 0.013,0.0753 0.0044,0.025 0.0086,0.0497 0.013,0.074 0.0044,0.0244 0.0086,0.0484 0.013,0.0721 0.0044,0.0236 0.0086,0.0468 0.013,0.0695 0.0044,0.0227 0.0086,0.0448 0.013,0.0664 0.0044,0.0215 0.0086,0.0425 0.013,0.0627 0.0043,0.0203 0.0086,0.0398 0.013,0.0586 0.0043,0.0187 0.0086,0.0367 0.013,0.0537 0.0043,0.0171 0.0086,0.0333 0.013,0.0485 0.0043,0.0152 0.0086,0.0295 0.013,0.0427 0.0043,0.0131 0.0086,0.0253 0.01293,0.0363 0.0044,0.011 0.0087,0.0208 0.013,0.0295 0.0044,0.0087 0.0087,0.0161 0.013,0.0223 0.0044,0.0061 0.0087,0.011 0.013,0.0146 0.0044,0.0035 0.0087,0.0057 0.013,0.0065 0.0044,8e-4 0.0087,2e-4 0.013,-0.0019 0.0044,-0.002 0.0086,-0.0056 0.013,-0.0106 0.0044,-0.005 0.0086,-0.0115 0.013,-0.0196 0.0044,-0.0081 0.0086,-0.0177 0.013,-0.0289 0.0044,-0.0111 0.0086,-0.0239 0.013,-0.0383 0.0044,-0.0143 0.0086,-0.0303 0.013,-0.0479 0.0043,-0.0175 0.0086,-0.0367 0.013,-0.0575 0.0043,-0.0208 0.0086,-0.0433 0.013,-0.0673 0.0043,-0.0241 0.0086,-0.0498 0.013,-0.0771 0.0043,-0.0273 0.0086,-0.0562 0.013,-0.0867 0.0043,-0.0305 0.0086,-0.0626 0.01293,-0.0963 0.0044,-0.0337 0.0087,-0.0689 0.013,-0.1057 0.0044,-0.0368 0.0087,-0.0752 0.013,-0.115 0.0044,-0.0399 0.0087,-0.0812 0.013,-0.124 0.0044,-0.0428 0.0087,-0.087 0.013,-0.1326 0.0044,-0.0457 0.0087,-0.0927 0.013,-0.141 0.0044,-0.0483 0.0086,-0.098 0.013,-0.1489 0.0044,-0.0509 0.0086,-0.1031 0.013,-0.1564 0.0044,-0.0533 0.0086,-0.1078 0.013,-0.1634 0.0044,-0.0556 0.0086,-0.1122 0.013,-0.1699 0.0044,-0.0576 0.0086,-0.1162 0.013,-0.1757 0.0043,-0.0596 0.0086,-0.1199 0.013,-0.1811 0.0043,-0.0612 0.0086,-0.1231 0.013,-0.1857 0.0043,-0.0626 0.0086,-0.1259 0.013,-0.1897 0.0043,-0.0638 0.0086,-0.1282 0.013,-0.193 0.0043,-0.0647 0.0086,-0.13 0.01293,-0.1955 0.0044,-0.0655 0.0087,-0.1313 0.013,-0.1973 0.0044,-0.0659 0.0087,-0.1321 0.013,-0.1983 0.0044,-0.0662 0.0087,-0.1324 0.013,-0.1986 0.0044,-0.0661 0.0087,-0.1322 0.013,-0.198 0.0044,-0.0658 0.0087,-0.1314 0.013,-0.1967 0.0044,-0.0652 0.0086,-0.1301 0.013,-0.1945 0.0044,-0.0644 0.0086,-0.1283 0.013,-0.1915 0.0044,-0.0633 0.0086,-0.126 0.013,-0.1879 0.0044,-0.0619 0.0086,-0.123 0.013,-0.1833 0.0044,-0.0602 0.0086,-0.1196 0.013,-0.1779 0.0043,-0.0584 0.0086,-0.1157 0.013,-0.172 0.0043,-0.0562 0.0086,-0.1113 0.013,-0.1651 0.0043,-0.0538 0.0086,-0.1064 0.013,-0.1576 0.0043,-0.0512 0.0086,-0.1011 0.013,-0.1495 0.0043,-0.0484 0.0086,-0.0953 0.01293,-0.1406 0.0044,-0.0453 0.0087,-0.0891 0.013,-0.1312 0.0044,-0.0421 0.0087,-0.0825 0.013,-0.1211 0.0044,-0.0387 0.0087,-0.0756 0.013,-0.1107 0.0044,-0.035 0.0087,-0.0683 0.013,-0.0996 0.0044,-0.0313 0.0087,-0.0607 0.013,-0.0881 0.0044,-0.0274 0.0086,-0.0529 0.013,-0.0763 0.0044,-0.0234 0.0086,-0.0448 0.013,-0.0641 0.0044,-0.0193 0.0086,-0.0365 0.013,-0.0516 0.0044,-0.0151 0.0086,-0.0281 0.013,-0.0389 0.0044,-0.0109 0.0086,-0.0195 0.013,-0.0261 0.0043,-0.0065 0.0086,-0.0108 0.013,-0.013 0.0043,-0.0022 0.0086,-0.0022 0.013,0 0.0043,0.0022 0.0086,0.0065 0.013,0.013 0.0043,0.0066 0.0086,0.0152 0.013,0.0261 0.0043,0.0108 0.0086,0.0238 0.01293,0.0389 0.0044,0.0151 0.0087,0.0323 0.013,0.0516 0.0044,0.0193 0.0087,0.0407 0.013,0.0641 0.0044,0.0234 0.0087,0.0489 0.013,0.0763 0.0044,0.0274 0.0087,0.0568 0.013,0.0881 0.0044,0.0313 0.0087,0.0646 0.013,0.0996 0.0044,0.0351 0.0086,0.072 0.013,0.1107 0.0044,0.0386 0.0086,0.079 0.013,0.1211 0.0044,0.0421 0.0086,0.0859 0.013,0.1312 0.0044,0.0453 0.0086,0.0923 0.013,0.1406 0.0044,0.0484 0.0086,0.0983 0.013,0.1495 0.0043,0.0512 0.0086,0.1038 0.013,0.1576 0.0043,0.0538 0.0086,0.1089 0.013,0.1651 0.0043,0.0563 0.0086,0.1136 0.013,0.172 0.0043,0.0583 0.0086,0.1177 0.013,0.1779 0.0043,0.0603 0.0086,0.1214 0.01293,0.1833 0.0044,0.0619 0.0087,0.1246 0.013,0.1879 0.0044,0.0632 0.0087,0.1271 0.013,0.1915 0.0044,0.0644 0.0087,0.1293 0.013,0.1945 0.0044,0.0653 0.0087,0.1309 0.013,0.1967 0.0044,0.0658 0.0087,0.1319 0.013,0.198 0.0044,0.0662 0.0086,0.1324 0.013,0.1986 0.0044,0.0662 0.0086,0.1324 0.013,0.1983 0.0044,0.066 0.0086,0.1318 0.013,0.1973 0.0044,0.0655 0.0086,0.1308 0.013,0.1955 0.0044,0.0648 0.0086,0.1292 0.013,0.193 0.0043,0.0638 0.0086,0.1271 0.013,0.1897 0.0043,0.0626 0.0086,0.1245 0.013,0.1857 0.0043,0.0612 0.0086,0.1215 0.013,0.1811 0.0043,0.0595 0.0086,0.1181 0.013,0.1757 0.0043,0.0577 0.0086,0.1143 0.01293,0.1699 0.0044,0.0556 0.0087,0.1101 0.013,0.1634 0.0044,0.0533 0.0087,0.1055 0.013,0.1564 0.0044,0.0509 0.0087,0.1006 0.013,0.1489 0.0044,0.0483 0.0087,0.0953 0.013,0.141 0.0044,0.0456 0.0087,0.0898 0.013,0.1326 0.0044,0.0428 0.0086,0.0841 0.013,0.124 0.0044,0.0398 0.0086,0.0781 0.013,0.115 0.0044,0.0368 0.0086,0.072 0.013,0.1057 0.0044,0.0337 0.0086,0.0658 0.013,0.0963 0.0044,0.0305 0.0086,0.0594 0.013,0.0867 0.0043,0.0273 0.0086,0.053 0.013,0.0771 0.0043,0.024 0.0086,0.0465 0.013,0.0673 0.0043,0.0208 0.0086,0.04 0.013,0.0575 0.0043,0.0176 0.0086,0.0336 0.013,0.0479 0.0043,0.0144 0.0086,0.0272 0.013,0.0383 0.0043,0.0112 0.0086,0.0208 0.01293,0.0289 0.0044,0.0081 0.0087,0.0146 0.013,0.0196 0.0044,0.005 0.0087,0.0086 0.013,0.0106 0.0044,0.0021 0.0087,0.0027 0.013,0.0019 0.0044,-8e-4 0.0087,-0.003 0.013,-0.0065 0.0044,-0.0036 0.0086,-0.0085 0.013,-0.0146 0.0044,-0.0062 0.0086,-0.0136 0.013,-0.0223 0.0044,-0.0087 0.0086,-0.0185 0.013,-0.0295 0.0044,-0.011 0.0086,-0.0232 0.013,-0.0363 0.0044,-0.0132 0.0086,-0.0275 0.013,-0.0427 0.0043,-0.0152 0.0086,-0.0314 0.013,-0.0485 0.0043,-0.017 0.0086,-0.035 0.013,-0.0537 0.0043,-0.0188 0.0086,-0.0383 0.013,-0.0586 0.0043,-0.0202 0.0086,-0.0412 0.013,-0.0627 0.0043,-0.0216 0.0086,-0.0437 0.013,-0.0664 0.0043,-0.0227 0.0086,-0.0459 0.01293,-0.0695 0.0044,-0.0237 0.0087,-0.0477 0.013,-0.0721 0.0044,-0.0243 0.0087,-0.049 0.013,-0.074 0.0044,-0.0249 0.0087,-0.05 0.013,-0.0753 0.0044,-0.0253 0.0087,-0.0508 0.013,-0.0763 0.0044,-0.0255 0.0086,-0.051 0.013,-0.0765 0.0044,-0.0255 0.0086,-0.0509 0.013,-0.0762 0.0044,-0.0254 0.0086,-0.0506 0.013,-0.0755 0.0044,-0.025 0.0086,-0.0498 0.013,-0.0743 0.0044,-0.0244 0.0086,-0.0486 0.013,-0.0725 0.0043,-0.0238 0.0086,-0.0472 0.013,-0.0702 0.0043,-0.0231 0.0086,-0.0456 0.013,-0.0677 0.0043,-0.0221 0.0086,-0.0436 0.013,-0.0646 0.0043,-0.021 0.0086,-0.0414 0.013,-0.0612 0.0043,-0.0199 0.0086,-0.039 0.013,-0.0575 0.0043,-0.0185 0.0086,-0.0364 0.01293,-0.0535 0.0044,-0.0171 0.0087,-0.0335 0.013,-0.0491 0.0044,-0.0156 0.0087,-0.0305 0.013,-0.0445 0.0044,-0.0141 0.0087,-0.0274 0.013,-0.0398 0.0044,-0.0125 0.0087,-0.0241 0.013,-0.0349 0.0044,-0.0108 0.0086,-0.0208 0.013,-0.0298 0.0044,-0.0091 0.0086,-0.0174 0.013,-0.0247 0.0044,-0.0074 0.0086,-0.0139 0.013,-0.0195 0.0044,-0.0056 0.0086,-0.0104 0.013,-0.0143 0.0044,-0.0039 0.0086,-0.0069 0.013,-0.0091 0.0043,-0.0021 0.0086,-0.0034 0.013,-0.0039 0.0043,-5e-4 0.0086,-1e-4 0.013,0.0011 0.0043,0.0012 0.0086,0.0033 0.013,0.0061 0.0043,0.0028 0.0086,0.0064 0.013,0.0108 0.0043,0.0044 0.0086,0.0096 0.013,0.0155 0.0043,0.0059 0.0086,0.0125 0.01293,0.0198 0.0044,0.0074 0.0087,0.0154 0.013,0.0241 0.0044,0.0086 0.0087,0.018 0.013,0.0279 0.0044,0.0099 0.0087,0.0205 0.013,0.0316 0.0044,0.011 0.0087,0.0227 0.013,0.0349 0.0044,0.0121 0.0086,0.0248 0.013,0.0379 0.0044,0.0131 0.0086,0.0266 0.013,0.0406 0.0044,0.0139 0.0086,0.0282 0.013,0.0429 0.0044,0.0147 0.0086,0.0296 0.013,0.0449 0.0044,0.0153 0.0086,0.0308 0.013,0.0466 0.0043,0.0157 0.0086,0.0317 0.013,0.0478 0.0043,0.0161 0.0086,0.0324 0.013,0.0487 0.0043,0.0164 0.0086,0.0328 0.013,0.0493 0.0043,0.0165 0.0086,0.033 0.013,0.0494 0.0043,0.0165 0.0086,0.0329 0.013,0.0493 0.0043,0.0163 0.0086,0.0326 0.01293,0.0487 0.0044,0.0161 0.0087,0.0321 0.013,0.0478 0.0044,0.0158 0.0087,0.0314 0.013,0.0467 0.0044,0.0153 0.0087,0.0304 0.013,0.0451 0.0044,0.0148 0.0087,0.0292 0.013,0.0433 0.0044,0.0141 0.0086,0.0279 0.013,0.0413 0.0044,0.0133 0.0086,0.0263 0.013,0.0388 0.0044,0.0126 0.0086,0.0247 0.013,0.0363 0.0044,0.0117 0.0086,0.0229 0.013,0.0335 0.0044,0.0107 0.0086,0.0209 0.013,0.0305 0.0043,0.0097 0.0086,0.0188 0.013,0.0273 0.0043,0.0086 0.0086,0.0166 0.013,0.0241 0.0043,0.0074 0.0086,0.0143 0.013,0.0205 0.0043,0.0063 0.0086,0.012 0.013,0.0171 0.0043,0.0051 0.0086,0.0096 0.013,0.0135 0.0043,0.0039 0.0086,0.0071 0.01293,0.0098 0.0044,0.0027 0.0087,0.0048 0.013,0.0062 0.0044,0.0015 0.0087,0.0023 0.013,0.0026 0.0044,3e-4 0.0087,-1e-4 0.013,-0.001 0.0044,-9e-4 0.0087,-0.0025 0.013,-0.0045 0.0044,-0.0021 0.0086,-0.0048 0.013,-0.008 0.0044,-0.0032 0.0086,-0.007 0.013,-0.0113 0.0044,-0.0043 0.0086,-0.0092 0.013,-0.0145 0.0044,-0.0053 0.0086,-0.0112 0.013,-0.0175 0.0044,-0.0064 0.0086,-0.0132 0.013,-0.0204 0.0043,-0.0073 0.0086,-0.015 0.013,-0.0231 0.0043,-0.0081 0.0086,-0.0167 0.013,-0.0256 0.0043,-0.0089 0.0086,-0.0182 0.013,-0.0278 0.0043,-0.0096 0.0086,-0.0195 0.013,-0.0298 0.0043,-0.0102 0.0086,-0.0208 0.013,-0.0316 0.0043,-0.0108 0.0086,-0.0218 0.01293,-0.0331 0.0044,-0.0112 0.0087,-0.0227 0.013,-0.0343 0.0044,-0.0117 0.0087,-0.0235 0.013,-0.0354 0.0044,-0.0119 0.0087,-0.024 0.013,-0.0361 0.0044,-0.0121 0.0087,-0.0243 0.013,-0.0365 0.0044,-0.0122 0.0086,-0.0244 0.013,-0.0367 0.0044,-0.0122 0.0086,-0.0244 0.013,-0.0366 0.0044,-0.0121 0.0086,-0.0242 0.013,-0.0362 0.0044,-0.012 0.0086,-0.0239 0.013,-0.0356 0.0044,-0.0118 0.0086,-0.0234 0.013,-0.0348 0.0043,-0.0114 0.0086,-0.0226 0.013,-0.0337 0.0043,-0.011 0.0086,-0.0218 0.013,-0.0323 0.0043,-0.0105 0.0086,-0.0208 0.013,-0.0307 0.0043,-0.01 0.0086,-0.0197 0.013,-0.0291 0.0043,-0.0093 0.0086,-0.0183 0.013,-0.027 0.0043,-0.0087 0.0086,-0.017 0.01293,-0.025 0.0044,-0.0079 0.0087,-0.0155 0.013,-0.0227 0.0044,-0.0071 0.0087,-0.0139 0.013,-0.0202 0.0044,-0.0064 0.0087,-0.0123 0.013,-0.0178 0.0044,-0.0055 0.0087,-0.0105 0.013,-0.0151 0.0044,-0.0046 0.0086,-0.0088 0.013,-0.0125 0.0044,-0.0037 0.0086,-0.0069 0.013,-0.0096 0.0044,-0.0028 0.0086,-0.0051 0.013,-0.0069 0.0044,-0.0019 0.0086,-0.0032 0.013,-0.0041 0.0044,-9e-4 0.0086,-0.0014 0.013,-0.0013 0.0044,0 0.0086,5e-4 0.013,0.0015 0.0043,9e-4 0.0086,0.0023 0.013,0.0042 0.0043,0.0018 0.0086,0.0041 0.013,0.0069 0.0043,0.0027 0.0086,0.0058 0.013,0.0094 0.0043,0.0036 0.0086,0.0076 0.013,0.012 0.0043,0.0044 0.0086,0.0091 0.01293,0.0143 0.0044,0.0052 0.0087,0.0107 0.013,0.0166 0.0044,0.0058 0.0087,0.0121 0.013,0.0186 0.0044,0.0066 0.0087,0.0134 0.013,0.0206 0.0044,0.0072 0.0087,0.0146 0.013,0.0223 0.0044,0.0077 0.0086,0.0157 0.013,0.0239 0.0044,0.0083 0.0086,0.0167 0.013,0.0253 0.0044,0.0087 0.0086,0.0175 0.013,0.0265 0.0044,0.009 0.0086,0.0182 0.013,0.0275 0.0044,0.0093 0.0086,0.0187 0.013,0.0282 0.0044,0.0095 0.0086,0.0191 0.013,0.0288 0.0043,0.0096 0.0086,0.0193 0.013,0.0291 0.0043,0.0097 0.0086,0.0194 0.013,0.0292 0.0043,0.0097 0.0086,0.0194 0.013,0.0291 0.0043,0.0097 0.0086,0.0193 0.013,0.0288 0.0043,0.0095 0.0086,0.019 0.01293,0.0283 0.0044,0.0093 0.0087,0.0185 0.013,0.0276 0.0044,0.009 0.0087,0.0179 0.013,0.0267 0.0044,0.0087 0.0087,0.0172 0.013,0.0255 0.0044,0.0084 0.0087,0.0165 0.013,0.0243 0.0044,0.0079 0.0086,0.0155 0.013,0.0229 0.0044,0.0074 0.0086,0.0145 0.013,0.0213 0.0044,0.0068 0.0086,0.0133 0.013,0.0195 0.0044,0.0063 0.0086,0.0122 0.013,0.0178 0.0044,0.0055 0.0086,0.0108 0.013,0.0157 0.0044,0.0049 0.0086,0.0095 0.013,0.0137 0.0043,0.0042 0.0086,0.0081 0.013,0.0116 0.0043,0.0034 0.0086,0.0066 0.013,0.0093 0.0043,0.0028 0.0086,0.0051 0.013,0.0071 0.0043,0.002 0.0086,0.0036 0.013,0.0049 0.0043,0.0012 0.0086,0.0021 0.01293,0.0025 0.0044,5e-4 0.0087,6e-4 0.013,3e-4 0.0044,-3e-4 0.0087,-9e-4 0.013,-0.002 0.0044,-10e-4 0.0087,-0.0024 0.013,-0.0042 0.0044,-0.0017 0.0087,-0.0039 0.013,-0.0063 0.0044,-0.0025 0.0086,-0.0053 0.013,-0.0085 0.0044,-0.0032 0.0086,-0.0067 0.013,-0.0105 0.0044,-0.0038 0.0086,-0.008 0.013,-0.0124 0.0044,-0.0045 0.0086,-0.0092 0.013,-0.0143 0.0044,-0.005 0.0086,-0.0103 0.013,-0.0159 0.0044,-0.0056 0.0086,-0.0114 0.013,-0.0175 0.0043,-0.0061 0.0086,-0.0124 0.013,-0.0189 0.0043,-0.0065 0.0086,-0.0133 0.013,-0.0202 0.0043,-0.0069 0.0086,-0.014 0.013,-0.0213 0.0043,-0.0072 0.0086,-0.0146 0.013,-0.0222 0.0043,-0.0075 0.0086,-0.0152 0.01293,-0.023 0.0044,-0.0077 0.0087,-0.0156 0.013,-0.0235 0.0044,-0.008 0.0087,-0.016 0.013,-0.024 0.0044,-0.0081 0.0087,-0.0162 0.013,-0.0243 0.0044,-0.0081 0.0087,-0.0162 0.013,-0.0242 0.0044,-0.0081 0.0086,-0.0162 0.013,-0.0242 0.0044,-0.008 0.0086,-0.016 0.013,-0.0239 0.0044,-0.0079 0.0086,-0.0157 0.013,-0.0234 0.0044,-0.0077 0.0086,-0.0153 0.013,-0.0227 0.0044,-0.0075 0.0086,-0.0148 0.013,-0.022 0.0044,-0.0071 0.0086,-0.0141 0.013,-0.021 0.0043,-0.0068 0.0086,-0.0134 0.013,-0.0199 0.0043,-0.0064 0.0086,-0.0126 0.013,-0.0186 0.0043,-0.006 0.0086,-0.0118 0.013,-0.0173 0.0043,-0.0056 0.0086,-0.0109 0.013,-0.0159 0.0043,-0.005 0.0086,-0.0098 0.01293,-0.0142 0.0044,-0.0045 0.0087,-0.0087 0.013,-0.0126 0.0044,-0.0039 0.0087,-0.0075 0.013,-0.0109 0.0044,-0.0033 0.0087,-0.0063 0.013,-0.009 0.0044,-0.0027 0.0087,-0.0051 0.013,-0.0072 0.0044,-0.002 0.0086,-0.0038 0.013,-0.0052 0.0044,-0.0015 0.0086,-0.0026 0.013,-0.0034 0.0044,-8e-4 0.0086,-0.0012 0.013,-0.0014 0.0044,-10e-5 0.0086,0 0.013,5e-4 0.0044,5e-4 0.0086,0.0013 0.013,0.0024 0.0044,0.0012 0.0086,0.0026 0.013,0.0043 0.0043,0.0018 0.0086,0.0038 0.013,0.0061 0.0043,0.0024 0.0086,0.005 0.013,0.0079 0.0043,0.0029 0.0086,0.0061 0.013,0.0096 0.0043,0.0034 0.0086,0.0071 0.013,0.0111 0.0043,0.004 0.0086,0.0082 0.01293,0.0127 0.0044,0.0045 0.0087,0.0092 0.013,0.0141 0.0044,0.0049 0.0087,0.01 0.013,0.0153 0.0044,0.0054 0.0087,0.0109 0.013,0.0166 0.0044,0.0057 0.0087,0.0116 0.013,0.0176 0.0044,0.006 0.0086,0.0122 0.013,0.0185 0.0044,0.0062 0.0086,0.0127 0.013,0.0192 0.0044,0.0065 0.0086,0.0131 0.013,0.0198 0.0044,0.0067 0.0086,0.0135 0.013,0.0203 0.0044,0.0069 0.0086,0.0138 0.013,0.0207 0.0044,0.0069 0.0086,0.0138 0.013,0.0207 v 0.022"
       title="sin(x) / x"
       id="path5796" />
    <path
       style="fill:none;stroke:#000000;stroke-width:0.264999;stop-color:#000000"
       d="m 78.05208,51.61575 v -0.022 c 0.0043,-0.0069 0.0086,-0.0138 0.013,-0.0207 0.0043,-0.0069 0.0086,-0.0138 0.013,-0.0207 0.0043,-0.0068 0.0086,-0.0136 0.01293,-0.0203 0.0044,-0.0067 0.0087,-0.0133 0.013,-0.0198 0.0044,-0.0065 0.0087,-0.013 0.013,-0.0192 0.0044,-0.0063 0.0087,-0.0125 0.013,-0.0185 0.0044,-0.006 0.0087,-0.0119 0.013,-0.0176 0.0044,-0.0057 0.0086,-0.0112 0.013,-0.0166 0.0044,-0.0053 0.0086,-0.0104 0.013,-0.0153 0.0044,-0.0049 0.0086,-0.0096 0.013,-0.0141 0.0044,-0.0045 0.0086,-0.0087 0.013,-0.0127 0.0044,-0.004 0.0086,-0.0077 0.013,-0.0111 0.0043,-0.0035 0.0086,-0.0067 0.013,-0.0096 0.0043,-0.0029 0.0086,-0.0055 0.013,-0.0079 0.0043,-0.0023 0.0086,-0.0043 0.013,-0.0061 0.0043,-0.0017 0.0086,-0.0031 0.013,-0.0043 0.0043,-0.0011 0.0086,-0.0019 0.013,-0.0024 0.0043,-5e-4 0.0086,-6e-4 0.01293,-5e-4 0.0044,2e-4 0.0087,6e-4 0.013,0.0014 0.0044,8e-4 0.0087,0.0019 0.013,0.0034 0.0044,0.0014 0.0087,0.0032 0.013,0.0052 0.0044,0.0021 0.0087,0.0045 0.013,0.0072 0.0044,0.0027 0.0086,0.0057 0.013,0.009 0.0044,0.0034 0.0086,0.007 0.013,0.0109 0.0044,0.0039 0.0086,0.0081 0.013,0.0126 0.0044,0.0044 0.0086,0.0092 0.013,0.0142 0.0044,0.005 0.0086,0.0103 0.013,0.0159 0.0043,0.0055 0.0086,0.0113 0.013,0.0173 0.0043,0.006 0.0086,0.0122 0.013,0.0186 0.0043,0.0065 0.0086,0.0131 0.013,0.0199 0.0043,0.0069 0.0086,0.0139 0.013,0.021 0.0043,0.0072 0.0086,0.0145 0.013,0.022 0.0043,0.0074 0.0086,0.015 0.01293,0.0227 0.0044,0.0077 0.0087,0.0155 0.013,0.0234 0.0044,0.0079 0.0087,0.0159 0.013,0.0239 0.0044,0.008 0.0087,0.0161 0.013,0.0242 0.0044,0.008 0.0087,0.0161 0.013,0.0242 0.0044,0.0081 0.0086,0.0162 0.013,0.0243 0.0044,0.008 0.0086,0.016 0.013,0.024 0.0044,0.0079 0.0086,0.0158 0.013,0.0235 0.0044,0.0078 0.0086,0.0155 0.013,0.023 0.0044,0.0076 0.0086,0.015 0.013,0.0222 0.0043,0.0073 0.0086,0.0144 0.013,0.0213 0.0043,0.0069 0.0086,0.0137 0.013,0.0202 0.0043,0.0065 0.0086,0.0128 0.013,0.0189 0.0043,0.0061 0.0086,0.0119 0.013,0.0175 0.0043,0.0056 0.0086,0.0109 0.013,0.0159 0.0043,0.0051 0.0086,0.0098 0.01293,0.0143 0.0044,0.0044 0.0087,0.0086 0.013,0.0124 0.0044,0.0038 0.0087,0.0073 0.013,0.0105 0.0044,0.0032 0.0087,0.006 0.013,0.0085 0.0044,0.0024 0.0087,0.0046 0.013,0.0063 0.0044,0.0018 0.0086,0.0032 0.013,0.0042 0.0044,0.0011 0.0086,0.0017 0.013,0.002 0.0044,3e-4 0.0086,2e-4 0.013,-3e-4 0.0044,-4e-4 0.0086,-0.0013 0.013,-0.0025 0.0044,-0.0012 0.0086,-0.0029 0.013,-0.0049 0.0043,-0.002 0.0086,-0.0043 0.013,-0.0071 0.0043,-0.0027 0.0086,-0.0059 0.013,-0.0093 0.0043,-0.0035 0.0086,-0.0074 0.013,-0.0116 0.0043,-0.0042 0.0086,-0.0088 0.013,-0.0137 0.0043,-0.0049 0.0086,-0.0102 0.013,-0.0157 0.0043,-0.0056 0.0086,-0.0115 0.01293,-0.0178 0.0044,-0.0062 0.0087,-0.0127 0.013,-0.0195 0.0044,-0.0068 0.0087,-0.0139 0.013,-0.0213 0.0044,-0.0074 0.0087,-0.015 0.013,-0.0229 0.0044,-0.0078 0.0087,-0.0159 0.013,-0.0243 0.0044,-0.0083 0.0086,-0.0168 0.013,-0.0255 0.0044,-0.0088 0.0086,-0.0177 0.013,-0.0267 0.0044,-0.0091 0.0086,-0.0183 0.013,-0.0276 0.0044,-0.0093 0.0086,-0.0188 0.013,-0.0283 0.0044,-0.0095 0.0086,-0.0191 0.013,-0.0288 0.0043,-0.0097 0.0086,-0.0194 0.013,-0.0291 0.0043,-0.0098 0.0086,-0.0195 0.013,-0.0292 0.0043,-0.0098 0.0086,-0.0195 0.013,-0.0291 0.0043,-0.0097 0.0086,-0.0193 0.013,-0.0288 0.0043,-0.0095 0.0086,-0.0189 0.013,-0.0282 0.0043,-0.0093 0.0086,-0.0185 0.01293,-0.0275 0.0044,-0.009 0.0087,-0.0178 0.013,-0.0265 0.0044,-0.0086 0.0087,-0.017 0.013,-0.0253 0.0044,-0.0082 0.0087,-0.0162 0.013,-0.0239 0.0044,-0.0077 0.0087,-0.0151 0.013,-0.0223 0.0044,-0.0072 0.0086,-0.014 0.013,-0.0206 0.0044,-0.0065 0.0086,-0.0128 0.013,-0.0186 0.0044,-0.0059 0.0086,-0.0114 0.013,-0.0166 0.0044,-0.0052 0.0086,-0.0099 0.013,-0.0143 0.0044,-0.0044 0.0086,-0.0084 0.013,-0.012 0.0044,-0.0036 0.0086,-0.0067 0.013,-0.0094 0.0043,-0.0028 0.0086,-0.0051 0.013,-0.0069 0.0043,-0.0019 0.0086,-0.0033 0.013,-0.0042 0.0043,-10e-4 0.0086,-0.0015 0.013,-0.0015 0.0043,-10e-5 0.0086,4e-4 0.013,0.0013 0.0043,9e-4 0.0086,0.0022 0.01293,0.0041 0.0044,0.0018 0.0087,0.0041 0.013,0.0069 0.0044,0.0027 0.0087,0.0059 0.013,0.0096 0.0044,0.0037 0.0087,0.0079 0.013,0.0125 0.0044,0.0046 0.0087,0.0096 0.013,0.0151 0.0044,0.0055 0.0086,0.0114 0.013,0.0178 0.0044,0.0063 0.0086,0.0131 0.013,0.0202 0.0044,0.0072 0.0086,0.0148 0.013,0.0227 0.0044,0.008 0.0086,0.0163 0.013,0.025 0.0044,0.0087 0.0086,0.0177 0.013,0.027 0.0044,0.0094 0.0086,0.0191 0.013,0.0291 0.0043,0.0099 0.0086,0.0202 0.013,0.0307 0.0043,0.0105 0.0086,0.0213 0.013,0.0323 0.0043,0.0111 0.0086,0.0223 0.013,0.0337 0.0043,0.0114 0.0086,0.023 0.013,0.0348 0.0043,0.0117 0.0086,0.0236 0.01293,0.0356 0.0044,0.012 0.0087,0.0241 0.013,0.0362 0.0044,0.0122 0.0087,0.0244 0.013,0.0366 0.0044,0.0123 0.0087,0.0245 0.013,0.0367 0.0044,0.0122 0.0087,0.0244 0.013,0.0365 0.0044,0.0121 0.0086,0.0242 0.013,0.0361 0.0044,0.0119 0.0086,0.0237 0.013,0.0354 0.0044,0.0116 0.0086,0.0231 0.013,0.0343 0.0044,0.0113 0.0086,0.0223 0.013,0.0331 0.0044,0.0108 0.0086,0.0214 0.013,0.0316 0.0044,0.0103 0.0086,0.0202 0.013,0.0298 0.0043,0.0096 0.0086,0.0189 0.013,0.0278 0.0043,0.0089 0.0086,0.0175 0.013,0.0256 0.0043,0.0081 0.0086,0.0158 0.013,0.0231 0.0043,0.0072 0.0086,0.014 0.013,0.0204 0.0043,0.0063 0.0086,0.0121 0.01293,0.0175 0.0044,0.0053 0.0087,0.0102 0.013,0.0145 0.0044,0.0043 0.0087,0.0081 0.013,0.0113 0.0044,0.0032 0.0087,0.0059 0.013,0.008 0.0044,0.002 0.0087,0.0036 0.013,0.0045 0.0044,9e-4 0.0086,0.0013 0.013,0.001 0.0044,-3e-4 0.0086,-0.0011 0.013,-0.0026 0.0044,-0.0014 0.0086,-0.0035 0.013,-0.0062 0.0044,-0.0027 0.0086,-0.0059 0.013,-0.0098 0.0044,-0.0039 0.0086,-0.0084 0.013,-0.0135 0.0044,-0.0051 0.0086,-0.0108 0.013,-0.0171 0.0043,-0.0062 0.0086,-0.0131 0.013,-0.0205 0.0043,-0.0075 0.0086,-0.0155 0.013,-0.0241 0.0043,-0.0085 0.0086,-0.0176 0.013,-0.0273 0.0043,-0.0096 0.0086,-0.0198 0.013,-0.0305 0.0043,-0.0106 0.0086,-0.0218 0.01293,-0.0335 0.0044,-0.0116 0.0087,-0.0237 0.013,-0.0363 0.0044,-0.0125 0.0087,-0.0255 0.013,-0.0388 0.0044,-0.0134 0.0087,-0.0272 0.013,-0.0413 0.0044,-0.0141 0.0087,-0.0285 0.013,-0.0433 0.0044,-0.0147 0.0086,-0.0298 0.013,-0.0451 0.0044,-0.0153 0.0086,-0.0309 0.013,-0.0467 0.0044,-0.0157 0.0086,-0.0317 0.013,-0.0478 0.0044,-0.0161 0.0086,-0.0324 0.013,-0.0487 0.0044,-0.0164 0.0086,-0.0328 0.013,-0.0493 0.0044,-0.0164 0.0086,-0.0329 0.013,-0.0494 0.0043,-0.0165 0.0086,-0.0329 0.013,-0.0493 0.0043,-0.0163 0.0086,-0.0326 0.013,-0.0487 0.0043,-0.0161 0.0086,-0.0321 0.013,-0.0478 0.0043,-0.0158 0.0086,-0.0313 0.013,-0.0466 0.0043,-0.0153 0.0086,-0.0302 0.01293,-0.0449 0.0044,-0.0147 0.0087,-0.029 0.013,-0.0429 0.0044,-0.014 0.0087,-0.0275 0.013,-0.0406 0.0044,-0.0131 0.0087,-0.0258 0.013,-0.0379 0.0044,-0.0122 0.0087,-0.0238 0.013,-0.0349 0.0044,-0.0111 0.0086,-0.0217 0.013,-0.0316 0.0044,-0.0099 0.0086,-0.0193 0.013,-0.0279 0.0044,-0.0087 0.0086,-0.0167 0.013,-0.0241 0.0044,-0.0073 0.0086,-0.0139 0.013,-0.0198 0.0044,-0.0059 0.0086,-0.0111 0.013,-0.0155 0.0044,-0.0044 0.0086,-0.008 0.013,-0.0108 0.0043,-0.0029 0.0086,-0.0049 0.013,-0.0061 0.0043,-0.0012 0.0086,-0.0016 0.013,-0.0011 0.0043,5e-4 0.0086,0.0018 0.013,0.0039 0.0043,0.0022 0.0086,0.0052 0.013,0.0091 0.0043,0.0039 0.0086,0.0087 0.01293,0.0143 0.0044,0.0056 0.0087,0.0121 0.013,0.0195 0.0044,0.0073 0.0087,0.0156 0.013,0.0247 0.0044,0.009 0.0087,0.019 0.013,0.0298 0.0044,0.0108 0.0087,0.0224 0.013,0.0349 0.0044,0.0124 0.0086,0.0257 0.013,0.0398 0.0044,0.014 0.0086,0.0289 0.013,0.0445 0.0044,0.0156 0.0086,0.032 0.013,0.0491 0.0044,0.0171 0.0086,0.035 0.013,0.0535 0.0044,0.0185 0.0086,0.0376 0.013,0.0575 0.0044,0.0198 0.0086,0.0402 0.013,0.0612 0.0043,0.021 0.0086,0.0425 0.013,0.0646 0.0043,0.0221 0.0086,0.0446 0.013,0.0677 0.0043,0.023 0.0086,0.0464 0.013,0.0702 0.0043,0.0239 0.0086,0.0481 0.013,0.0725 0.0043,0.0245 0.0086,0.0493 0.01293,0.0743 0.0044,0.0249 0.0087,0.0501 0.013,0.0755 0.0044,0.0253 0.0087,0.0507 0.013,0.0762 0.0044,0.0255 0.0087,0.051 0.013,0.0765 0.0044,0.0255 0.0087,0.051 0.013,0.0763 0.0044,0.0253 0.0087,0.0504 0.013,0.0753 0.0044,0.025 0.0086,0.0497 0.013,0.074 0.0044,0.0244 0.0086,0.0484 0.013,0.0721 0.0044,0.0236 0.0086,0.0468 0.013,0.0695 0.0044,0.0227 0.0086,0.0448 0.013,0.0664 0.0044,0.0215 0.0086,0.0425 0.013,0.0627 0.0043,0.0203 0.0086,0.0398 0.013,0.0586 0.0043,0.0187 0.0086,0.0367 0.013,0.0537 0.0043,0.0171 0.0086,0.0333 0.013,0.0485 0.0043,0.0152 0.0086,0.0295 0.013,0.0427 0.0043,0.0131 0.0086,0.0253 0.01293,0.0363 0.0044,0.011 0.0087,0.0208 0.013,0.0295 0.0044,0.0087 0.0087,0.0161 0.013,0.0223 0.0044,0.0061 0.0087,0.011 0.013,0.0146 0.0044,0.0035 0.0087,0.0057 0.013,0.0065 0.0044,8e-4 0.0087,2e-4 0.013,-0.0019 0.0044,-0.002 0.0086,-0.0056 0.013,-0.0106 0.0044,-0.005 0.0086,-0.0115 0.013,-0.0196 0.0044,-0.0081 0.0086,-0.0177 0.013,-0.0289 0.0044,-0.0111 0.0086,-0.0239 0.013,-0.0383 0.0044,-0.0143 0.0086,-0.0303 0.013,-0.0479 0.0043,-0.0175 0.0086,-0.0367 0.013,-0.0575 0.0043,-0.0208 0.0086,-0.0433 0.013,-0.0673 0.0043,-0.0241 0.0086,-0.0498 0.013,-0.0771 0.0043,-0.0273 0.0086,-0.0562 0.013,-0.0867 0.0043,-0.0305 0.0086,-0.0626 0.01293,-0.0963 0.0044,-0.0337 0.0087,-0.0689 0.013,-0.1057 0.0044,-0.0368 0.0087,-0.0752 0.013,-0.115 0.0044,-0.0399 0.0087,-0.0812 0.013,-0.124 0.0044,-0.0428 0.0087,-0.087 0.013,-0.1326 0.0044,-0.0457 0.0087,-0.0927 0.013,-0.141 0.0044,-0.0483 0.0086,-0.098 0.013,-0.1489 0.0044,-0.0509 0.0086,-0.1031 0.013,-0.1564 0.0044,-0.0533 0.0086,-0.1078 0.013,-0.1634 0.0044,-0.0556 0.0086,-0.1122 0.013,-0.1699 0.0044,-0.0576 0.0086,-0.1162 0.013,-0.1757 0.0043,-0.0596 0.0086,-0.1199 0.013,-0.1811 0.0043,-0.0612 0.0086,-0.1231 0.013,-0.1857 0.0043,-0.0626 0.0086,-0.1259 0.013,-0.1897 0.0043,-0.0638 0.0086,-0.1282 0.013,-0.193 0.0043,-0.0647 0.0086,-0.13 0.01293,-0.1955 0.0044,-0.0655 0.0087,-0.1313 0.013,-0.1973 0.0044,-0.0659 0.0087,-0.1321 0.013,-0.1983 0.0044,-0.0662 0.0087,-0.1324 0.013,-0.1986 0.0044,-0.0661 0.0087,-0.1322 0.013,-0.198 0.0044,-0.0658 0.0087,-0.1314 0.013,-0.1967 0.0044,-0.0652 0.0086,-0.1301 0.013,-0.1945 0.0044,-0.0644 0.0086,-0.1283 0.013,-0.1915 0.0044,-0.0633 0.0086,-0.126 0.013,-0.1879 0.0044,-0.0619 0.0086,-0.123 0.013,-0.1833 0.0044,-0.0602 0.0086,-0.1196 0.013,-0.1779 0.0043,-0.0584 0.0086,-0.1157 0.013,-0.172 0.0043,-0.0562 0.0086,-0.1113 0.013,-0.1651 0.0043,-0.0538 0.0086,-0.1064 0.013,-0.1576 0.0043,-0.0512 0.0086,-0.1011 0.013,-0.1495 0.0043,-0.0484 0.0086,-0.0953 0.01293,-0.1406 0.0044,-0.0453 0.0087,-0.0891 0.013,-0.1312 0.0044,-0.0421 0.0087,-0.0825 0.013,-0.1211 0.0044,-0.0387 0.0087,-0.0756 0.013,-0.1107 0.0044,-0.035 0.0087,-0.0683 0.013,-0.0996 0.0044,-0.0313 0.0087,-0.0607 0.013,-0.0881 0.0044,-0.0274 0.0086,-0.0529 0.013,-0.0763 0.0044,-0.0234 0.0086,-0.0448 0.013,-0.0641 0.0044,-0.0193 0.0086,-0.0365 0.013,-0.0516 0.0044,-0.0151 0.0086,-0.0281 0.013,-0.0389 0.0044,-0.0109 0.0086,-0.0195 0.013,-0.0261 0.0043,-0.0065 0.0086,-0.0108 0.013,-0.013 0.0043,-0.0022 0.0086,-0.0022 0.013,0 0.0043,0.0022 0.0086,0.0065 0.013,0.013 0.0043,0.0066 0.0086,0.0152 0.013,0.0261 0.0043,0.0108 0.0086,0.0238 0.01293,0.0389 0.0044,0.0151 0.0087,0.0323 0.013,0.0516 0.0044,0.0193 0.0087,0.0407 0.013,0.0641 0.0044,0.0234 0.0087,0.0489 0.013,0.0763 0.0044,0.0274 0.0087,0.0568 0.013,0.0881 0.0044,0.0313 0.0087,0.0646 0.013,0.0996 0.0044,0.0351 0.0086,0.072 0.013,0.1107 0.0044,0.0386 0.0086,0.079 0.013,0.1211 0.0044,0.0421 0.0086,0.0859 0.013,0.1312 0.0044,0.0453 0.0086,0.0923 0.013,0.1406 0.0044,0.0484 0.0086,0.0983 0.013,0.1495 0.0043,0.0512 0.0086,0.1038 0.013,0.1576 0.0043,0.0538 0.0086,0.1089 0.013,0.1651 0.0043,0.0563 0.0086,0.1136 0.013,0.172 0.0043,0.0583 0.0086,0.1177 0.013,0.1779 0.0043,0.0603 0.0086,0.1214 0.01293,0.1833 0.0044,0.0619 0.0087,0.1246 0.013,0.1879 0.0044,0.0632 0.0087,0.1271 0.013,0.1915 0.0044,0.0644 0.0087,0.1293 0.013,0.1945 0.0044,0.0653 0.0087,0.1309 0.013,0.1967 0.0044,0.0658 0.0087,0.1319 0.013,0.198 0.0044,0.0662 0.0086,0.1324 0.013,0.1986 0.0044,0.0662 0.0086,0.1324 0.013,0.1983 0.0044,0.066 0.0086,0.1318 0.013,0.1973 0.0044,0.0655 0.0086,0.1308 0.013,0.1955 0.0044,0.0648 0.0086,0.1292 0.013,0.193 0.0043,0.0638 0.0086,0.1271 0.013,0.1897 0.0043,0.0626 0.0086,0.1245 0.013,0.1857 0.0043,0.0612 0.0086,0.1215 0.013,0.1811 0.0043,0.0595 0.0086,0.1181 0.013,0.1757 0.0043,0.0577 0.0086,0.1143 0.01293,0.1699 0.0044,0.0556 0.0087,0.1101 0.013,0.1634 0.0044,0.0533 0.0087,0.1055 0.013,0.1564 0.0044,0.0509 0.0087,0.1006 0.013,0.1489 0.0044,0.0483 0.0087,0.0953 0.013,0.141 0.0044,0.0456 0.0087,0.0898 0.013,0.1326 0.0044,0.0428 0.0086,0.0841 0.013,0.124 0.0044,0.0398 0.0086,0.0781 0.013,0.115 0.0044,0.0368 0.0086,0.072 0.013,0.1057 0.0044,0.0337 0.0086,0.0658 0.013,0.0963 0.0044,0.0305 0.0086,0.0594 0.013,0.0867 0.0043,0.0273 0.0086,0.053 0.013,0.0771 0.0043,0.024 0.0086,0.0465 0.013,0.0673 0.0043,0.0208 0.0086,0.04 0.013,0.0575 0.0043,0.0176 0.0086,0.0336 0.013,0.0479 0.0043,0.0144 0.0086,0.0272 0.013,0.0383 0.0043,0.0112 0.0086,0.0208 0.01293,0.0289 0.0044,0.0081 0.0087,0.0146 0.013,0.0196 0.0044,0.005 0.0087,0.0086 0.013,0.0106 0.0044,0.0021 0.0087,0.0027 0.013,0.0019 0.0044,-8e-4 0.0087,-0.003 0.013,-0.0065 0.0044,-0.0036 0.0086,-0.0085 0.013,-0.0146 0.0044,-0.0062 0.0086,-0.0136 0.013,-0.0223 0.0044,-0.0087 0.0086,-0.0185 0.013,-0.0295 0.0044,-0.011 0.0086,-0.0232 0.013,-0.0363 0.0044,-0.0132 0.0086,-0.0275 0.013,-0.0427 0.0043,-0.0152 0.0086,-0.0314 0.013,-0.0485 0.0043,-0.017 0.0086,-0.035 0.013,-0.0537 0.0043,-0.0188 0.0086,-0.0383 0.013,-0.0586 0.0043,-0.0202 0.0086,-0.0412 0.013,-0.0627 0.0043,-0.0216 0.0086,-0.0437 0.013,-0.0664 0.0043,-0.0227 0.0086,-0.0459 0.01293,-0.0695 0.0044,-0.0237 0.0087,-0.0477 0.013,-0.0721 0.0044,-0.0243 0.0087,-0.049 0.013,-0.074 0.0044,-0.0249 0.0087,-0.05 0.013,-0.0753 0.0044,-0.0253 0.0087,-0.0508 0.013,-0.0763 0.0044,-0.0255 0.0086,-0.051 0.013,-0.0765 0.0044,-0.0255 0.0086,-0.0509 0.013,-0.0762 0.0044,-0.0254 0.0086,-0.0506 0.013,-0.0755 0.0044,-0.025 0.0086,-0.0498 0.013,-0.0743 0.0044,-0.0244 0.0086,-0.0486 0.013,-0.0725 0.0043,-0.0238 0.0086,-0.0472 0.013,-0.0702 0.0043,-0.0231 0.0086,-0.0456 0.013,-0.0677 0.0043,-0.0221 0.0086,-0.0436 0.013,-0.0646 0.0043,-0.021 0.0086,-0.0414 0.013,-0.0612 0.0043,-0.0199 0.0086,-0.039 0.013,-0.0575 0.0043,-0.0185 0.0086,-0.0364 0.01293,-0.0535 0.0044,-0.0171 0.0087,-0.0335 0.013,-0.0491 0.0044,-0.0156 0.0087,-0.0305 0.013,-0.0445 0.0044,-0.0141 0.0087,-0.0274 0.013,-0.0398 0.0044,-0.0125 0.0087,-0.0241 0.013,-0.0349 0.0044,-0.0108 0.0086,-0.0208 0.013,-0.0298 0.0044,-0.0091 0.0086,-0.0174 0.013,-0.0247 0.0044,-0.0074 0.0086,-0.0139 0.013,-0.0195 0.0044,-0.0056 0.0086,-0.0104 0.013,-0.0143 0.0044,-0.0039 0.0086,-0.0069 0.013,-0.0091 0.0043,-0.0021 0.0086,-0.0034 0.013,-0.0039 0.0043,-5e-4 0.0086,-1e-4 0.013,0.0011 0.0043,0.0012 0.0086,0.0033 0.013,0.0061 0.0043,0.0028 0.0086,0.0064 0.013,0.0108 0.0043,0.0044 0.0086,0.0096 0.013,0.0155 0.0043,0.0059 0.0086,0.0125 0.01293,0.0198 0.0044,0.0074 0.0087,0.0154 0.013,0.0241 0.0044,0.0086 0.0087,0.018 0.013,0.0279 0.0044,0.0099 0.0087,0.0205 0.013,0.0316 0.0044,0.011 0.0087,0.0227 0.013,0.0349 0.0044,0.0121 0.0086,0.0248 0.013,0.0379 0.0044,0.0131 0.0086,0.0266 0.013,0.0406 0.0044,0.0139 0.0086,0.0282 0.013,0.0429 0.0044,0.0147 0.0086,0.0296 0.013,0.0449 0.0044,0.0153 0.0086,0.0308 0.013,0.0466 0.0043,0.0157 0.0086,0.0317 0.013,0.0478 0.0043,0.0161 0.0086,0.0324 0.013,0.0487 0.0043,0.0164 0.0086,0.0328 0.013,0.0493 0.0043,0.0165 0.0086,0.033 0.013,0.0494 0.0043,0.0165 0.0086,0.0329 0.013,0.0493 0.0043,0.0163 0.0086,0.0326 0.01293,0.0487 0.0044,0.0161 0.0087,0.0321 0.013,0.0478 0.0044,0.0158 0.0087,0.0314 0.013,0.0467 0.0044,0.0153 0.0087,0.0304 0.013,0.0451 0.0044,0.0148 0.0087,0.0292 0.013,0.0433 0.0044,0.0141 0.0086,0.0279 0.013,0.0413 0.0044,0.0133 0.0086,0.0263 0.013,0.0388 0.0044,0.0126 0.0086,0.0247 0.013,0.0363 0.0044,0.0117 0.0086,0.0229 0.013,0.0335 0.0044,0.0107 0.0086,0.0209 0.013,0.0305 0.0043,0.0097 0.0086,0.0188 0.013,0.0273 0.0043,0.0086 0.0086,0.0166 0.013,0.0241 0.0043,0.0074 0.0086,0.0143 0.013,0.0205 0.0043,0.0063 0.0086,0.012 0.013,0.0171 0.0043,0.0051 0.0086,0.0096 0.013,0.0135 0.0043,0.0039 0.0086,0.0071 0.01293,0.0098 0.0044,0.0027 0.0087,0.0048 0.013,0.0062 0.0044,0.0015 0.0087,0.0023 0.013,0.0026 0.0044,3e-4 0.0087,-1e-4 0.013,-0.001 0.0044,-9e-4 0.0087,-0.0025 0.013,-0.0045 0.0044,-0.0021 0.0086,-0.0048 0.013,-0.008 0.0044,-0.0032 0.0086,-0.007 0.013,-0.0113 0.0044,-0.0043 0.0086,-0.0092 0.013,-0.0145 0.0044,-0.0053 0.0086,-0.0112 0.013,-0.0175 0.0044,-0.0064 0.0086,-0.0132 0.013,-0.0204 0.0043,-0.0073 0.0086,-0.015 0.013,-0.0231 0.0043,-0.0081 0.0086,-0.0167 0.013,-0.0256 0.0043,-0.0089 0.0086,-0.0182 0.013,-0.0278 0.0043,-0.0096 0.0086,-0.0195 0.013,-0.0298 0.0043,-0.0102 0.0086,-0.0208 0.013,-0.0316 0.0043,-0.0108 0.0086,-0.0218 0.01293,-0.0331 0.0044,-0.0112 0.0087,-0.0227 0.013,-0.0343 0.0044,-0.0117 0.0087,-0.0235 0.013,-0.0354 0.0044,-0.0119 0.0087,-0.024 0.013,-0.0361 0.0044,-0.0121 0.0087,-0.0243 0.013,-0.0365 0.0044,-0.0122 0.0086,-0.0244 0.013,-0.0367 0.0044,-0.0122 0.0086,-0.0244 0.013,-0.0366 0.0044,-0.0121 0.0086,-0.0242 0.013,-0.0362 0.0044,-0.012 0.0086,-0.0239 0.013,-0.0356 0.0044,-0.0118 0.0086,-0.0234 0.013,-0.0348 0.0043,-0.0114 0.0086,-0.0226 0.013,-0.0337 0.0043,-0.011 0.0086,-0.0218 0.013,-0.0323 0.0043,-0.0105 0.0086,-0.0208 0.013,-0.0307 0.0043,-0.01 0.0086,-0.0197 0.013,-0.0291 0.0043,-0.0093 0.0086,-0.0183 0.013,-0.027 0.0043,-0.0087 0.0086,-0.017 0.01293,-0.025 0.0044,-0.0079 0.0087,-0.0155 0.013,-0.0227 0.0044,-0.0071 0.0087,-0.0139 0.013,-0.0202 0.0044,-0.0064 0.0087,-0.0123 0.013,-0.0178 0.0044,-0.0055 0.0087,-0.0105 0.013,-0.0151 0.0044,-0.0046 0.0086,-0.0088 0.013,-0.0125 0.0044,-0.0037 0.0086,-0.0069 0.013,-0.0096 0.0044,-0.0028 0.0086,-0.0051 0.013,-0.0069 0.0044,-0.0019 0.0086,-0.0032 0.013,-0.0041 0.0044,-9e-4 0.0086,-0.0014 0.013,-0.0013 0.0044,0 0.0086,5e-4 0.013,0.0015 0.0043,9e-4 0.0086,0.0023 0.013,0.0042 0.0043,0.0018 0.0086,0.0041 0.013,0.0069 0.0043,0.0027 0.0086,0.0058 0.013,0.0094 0.0043,0.0036 0.0086,0.0076 0.013,0.012 0.0043,0.0044 0.0086,0.0091 0.01293,0.0143 0.0044,0.0052 0.0087,0.0107 0.013,0.0166 0.0044,0.0058 0.0087,0.0121 0.013,0.0186 0.0044,0.0066 0.0087,0.0134 0.013,0.0206 0.0044,0.0072 0.0087,0.0146 0.013,0.0223 0.0044,0.0077 0.0086,0.0157 0.013,0.0239 0.0044,0.0083 0.0086,0.0167 0.013,0.0253 0.0044,0.0087 0.0086,0.0175 0.013,0.0265 0.0044,0.009 0.0086,0.0182 0.013,0.0275 0.0044,0.0093 0.0086,0.0187 0.013,0.0282 0.0044,0.0095 0.0086,0.0191 0.013,0.0288 0.0043,0.0096 0.0086,0.0193 0.013,0.0291 0.0043,0.0097 0.0086,0.0194 0.013,0.0292 0.0043,0.0097 0.0086,0.0194 0.013,0.0291 0.0043,0.0097 0.0086,0.0193 0.013,0.0288 0.0043,0.0095 0.0086,0.019 0.01293,0.0283 0.0044,0.0093 0.0087,0.0185 0.013,0.0276 0.0044,0.009 0.0087,0.0179 0.013,0.0267 0.0044,0.0087 0.0087,0.0172 0.013,0.0255 0.0044,0.0084 0.0087,0.0165 0.013,0.0243 0.0044,0.0079 0.0086,0.0155 0.013,0.0229 0.0044,0.0074 0.0086,0.0145 0.013,0.0213 0.0044,0.0068 0.0086,0.0133 0.013,0.0195 0.0044,0.0063 0.0086,0.0122 0.013,0.0178 0.0044,0.0055 0.0086,0.0108 0.013,0.0157 0.0044,0.0049 0.0086,0.0095 0.013,0.0137 0.0043,0.0042 0.0086,0.0081 0.013,0.0116 0.0043,0.0034 0.0086,0.0066 0.013,0.0093 0.0043,0.0028 0.0086,0.0051 0.013,0.0071 0.0043,0.002 0.0086,0.0036 0.013,0.0049 0.0043,0.0012 0.0086,0.0021 0.01293,0.0025 0.0044,5e-4 0.0087,6e-4 0.013,3e-4 0.0044,-3e-4 0.0087,-9e-4 0.013,-0.002 0.0044,-10e-4 0.0087,-0.0024 0.013,-0.0042 0.0044,-0.0017 0.0087,-0.0039 0.013,-0.0063 0.0044,-0.0025 0.0086,-0.0053 0.013,-0.0085 0.0044,-0.0032 0.0086,-0.0067 0.013,-0.0105 0.0044,-0.0038 0.0086,-0.008 0.013,-0.0124 0.0044,-0.0045 0.0086,-0.0092 0.013,-0.0143 0.0044,-0.005 0.0086,-0.0103 0.013,-0.0159 0.0044,-0.0056 0.0086,-0.0114 0.013,-0.0175 0.0043,-0.0061 0.0086,-0.0124 0.013,-0.0189 0.0043,-0.0065 0.0086,-0.0133 0.013,-0.0202 0.0043,-0.0069 0.0086,-0.014 0.013,-0.0213 0.0043,-0.0072 0.0086,-0.0146 0.013,-0.0222 0.0043,-0.0075 0.0086,-0.0152 0.01293,-0.023 0.0044,-0.0077 0.0087,-0.0156 0.013,-0.0235 0.0044,-0.008 0.0087,-0.016 0.013,-0.024 0.0044,-0.0081 0.0087,-0.0162 0.013,-0.0243 0.0044,-0.0081 0.0087,-0.0162 0.013,-0.0242 0.0044,-0.0081 0.0086,-0.0162 0.013,-0.0242 0.0044,-0.008 0.0086,-0.016 0.013,-0.0239 0.0044,-0.0079 0.0086,-0.0157 0.013,-0.0234 0.0044,-0.0077 0.0086,-0.0153 0.013,-0.0227 0.0044,-0.0075 0.0086,-0.0148 0.013,-0.022 0.0044,-0.0071 0.0086,-0.0141 0.013,-0.021 0.0043,-0.0068 0.0086,-0.0134 0.013,-0.0199 0.0043,-0.0064 0.0086,-0.0126 0.013,-0.0186 0.0043,-0.006 0.0086,-0.0118 0.013,-0.0173 0.0043,-0.0056 0.0086,-0.0109 0.013,-0.0159 0.0043,-0.005 0.0086,-0.0098 0.01293,-0.0142 0.0044,-0.0045 0.0087,-0.0087 0.013,-0.0126 0.0044,-0.0039 0.0087,-0.0075 0.013,-0.0109 0.0044,-0.0033 0.0087,-0.0063 0.013,-0.009 0.0044,-0.0027 0.0087,-0.0051 0.013,-0.0072 0.0044,-0.002 0.0086,-0.0038 0.013,-0.0052 0.0044,-0.0015 0.0086,-0.0026 0.013,-0.0034 0.0044,-8e-4 0.0086,-0.0012 0.013,-0.0014 0.0044,-10e-5 0.0086,0 0.013,5e-4 0.0044,5e-4 0.0086,0.0013 0.013,0.0024 0.0044,0.0012 0.0086,0.0026 0.013,0.0043 0.0043,0.0018 0.0086,0.0038 0.013,0.0061 0.0043,0.0024 0.0086,0.005 0.013,0.0079 0.0043,0.0029 0.0086,0.0061 0.013,0.0096 0.0043,0.0034 0.0086,0.0071 0.013,0.0111 0.0043,0.004 0.0086,0.0082 0.01293,0.0127 0.0044,0.0045 0.0087,0.0092 0.013,0.0141 0.0044,0.0049 0.0087,0.01 0.013,0.0153 0.0044,0.0054 0.0087,0.0109 0.013,0.0166 0.0044,0.0057 0.0087,0.0116 0.013,0.0176 0.0044,0.006 0.0086,0.0122 0.013,0.0185 0.0044,0.0062 0.0086,0.0127 0.013,0.0192 0.0044,0.0065 0.0086,0.0131 0.013,0.0198 0.0044,0.0067 0.0086,0.0135 0.013,0.0203 0.0044,0.0069 0.0086,0.0138 0.013,0.0207 0.0044,0.0069 0.0086,0.0138 0.013,0.0207 v 0.022"
       title="sin(x) / x"
       id="path5796-8" />
    <text
       xml:space="preserve"
       style="font-size:2.82223px;line-height:1.25;font-family:'Fira Sans';-inkscape-font-specification:'Fira Sans';stroke-width:0.264583"
       x="65.654373"
       y="62.177082"
       id="text7704"><tspan
         sodipodi:role="line"
         id="tspan7702"
         style="stroke-width:0.264583"
         x="65.654373"
         y="62.177082"><tspan
           style="font-style:italic"
           id="tspan11710">g</tspan><tspan
           style="font-size:65%;baseline-shift:sub"
           id="tspan13940">1</tspan></tspan></text>
    <text
       xml:space="preserve"
       style="font-size:2.82223px;line-height:1.25;font-family:'Fira Sans';-inkscape-font-specification:'Fira Sans';stroke-width:0.264583"
       x="73.479973"
       y="60.854168"
       id="text7704-4"><tspan
         sodipodi:role="line"
         id="tspan7702-4"
         style="stroke-width:0.264583"
         x="73.479973"
         y="60.854168"><tspan
           style="font-style:italic"
           id="tspan11710-9">g</tspan><tspan
           style="font-size:65%;baseline-shift:sub"
           id="tspan13940-5">2</tspan></tspan></text>
    <text
       xml:space="preserve"
       style="font-size:2.82223px;line-height:1.25;font-family:'Fira Sans';-inkscape-font-specification:'Fira Sans';stroke-width:0.264583"
       x="78.501755"
       y="63.5"
       id="text7704-4-0"><tspan
         sodipodi:role="line"
         id="tspan7702-4-3"
         style="stroke-width:0.264583"
         x="78.501755"
         y="63.5"><tspan
           style="font-style:italic"
           id="tspan11710-9-7"><tspan
   style="font-style:normal"
   id="tspan16364"></tspan>g</tspan><tspan
           style="font-size:65%;baseline-shift:sub"
           id="tspan13940-5-0">2</tspan></tspan></text>
    <path
       style="fill:none;stroke:#000000;stroke-width:0.264583px;stroke-linecap:butt;stroke-linejoin:miter;stroke-opacity:1"
       d="M 72.231247,43.65625 H 70.90833 v 21.166667 h 1.322917"
       id="path18431" />
    <path
       style="fill:none;stroke:#000000;stroke-width:0.264583px;stroke-linecap:butt;stroke-linejoin:miter;stroke-opacity:1"
       d="M 83.872913,43.65625 H 85.19583 V 64.822917 H 83.872913"
       id="path18431-2" />
    <text
       xml:space="preserve"
       style="font-size:2.82223px;line-height:1.25;font-family:'Fira Sans';-inkscape-font-specification:'Fira Sans';stroke-width:0.264583"
       x="85.607758"
       y="65.892471"
       id="text19813"><tspan
         sodipodi:role="line"
         id="tspan19811"
         style="stroke-width:0.264583"
         x="85.607758"
         y="65.892471"><tspan
           style="font-style:italic"
           id="tspan19815">N</tspan><tspan
           style="font-size:65%;baseline-shift:sub"
           id="tspan20983">2</tspan></tspan></text>
  </g>
</svg>
