<?xml version="1.0" encoding="UTF-8" standalone="no"?>
<!-- Created with Inkscape (http://www.inkscape.org/) -->

<svg
   width="180mm"
   height="134mm"
   viewBox="0 0 180 134"
   version="1.1"
   id="svg5"
   inkscape:version="1.2.1 (9c6d41e4, 2022-07-14)"
   sodipodi:docname="invrec.svg"
   xmlns:inkscape="http://www.inkscape.org/namespaces/inkscape"
   xmlns:sodipodi="http://sodipodi.sourceforge.net/DTD/sodipodi-0.dtd"
   xmlns="http://www.w3.org/2000/svg"
   xmlns:svg="http://www.w3.org/2000/svg">
  <sodipodi:namedview
     id="namedview7"
     pagecolor="#ffffff"
     bordercolor="#666666"
     borderopacity="1.0"
     inkscape:showpageshadow="2"
     inkscape:pageopacity="0.0"
     inkscape:pagecheckerboard="0"
     inkscape:deskcolor="#d1d1d1"
     inkscape:document-units="mm"
     showgrid="true"
     inkscape:zoom="3.9897538"
     inkscape:cx="217.93325"
     inkscape:cy="95.118652"
     inkscape:window-width="1355"
     inkscape:window-height="530"
     inkscape:window-x="2028"
     inkscape:window-y="73"
     inkscape:window-maximized="0"
     inkscape:current-layer="layer1">
    <inkscape:grid
       type="xygrid"
       id="grid1049"
       units="mm"
       spacingx="0.32"
       spacingy="0.32"
       originx="0"
       originy="0" />
  </sodipodi:namedview>
  <defs
     id="defs2">
    <inkscape:path-effect
       effect="mirror_symmetry"
       start_point="48.947914,82.020831"
       end_point="48.947914,87.312499"
       center_point="48.947914,84.666665"
       id="path-effect4739-9"
       is_visible="true"
       lpeversion="1.1"
       mode="free"
       discard_orig_path="false"
       fuse_paths="false"
       oposite_fuse="false"
       split_items="false"
       split_open="false"
       lpesatellites=""
       link_styles="false" />
  </defs>
  <g
     inkscape:label="Layer 1"
     inkscape:groupmode="layer"
     id="layer1">
    <text
       inkscape:export-filename="/Users/yongrenjie/dphil/nbsphinx/sehsqc/spor.png"
       xml:space="preserve"
       style="font-style:normal;font-weight:normal;font-size:3.52777px;line-height:1.25;font-family:'Fira Sans';fill:#000000;fill-opacity:1;stroke:none;stroke-width:0.264583"
       x="37.50946"
       y="15.725194"
       id="text14-2-7"
       inkscape:export-xdpi="500"
       inkscape:export-ydpi="500"><tspan
         sodipodi:role="line"
         id="tspan12-5-03"
         x="37.50946"
         y="15.725194"
         style="font-style:normal;font-variant:normal;font-weight:normal;font-stretch:normal;font-size:3.52777px;font-family:'Fira Sans';-inkscape-font-specification:'Fira Sans';stroke-width:0.264583"><tspan
   style="font-style:normal;font-variant:normal;font-weight:normal;font-stretch:normal;font-size:2.29306px;font-family:'Fira Sans';-inkscape-font-specification:'Fira Sans';baseline-shift:super;stroke-width:0.264583"
   id="tspan16-1-9">1</tspan>H</tspan></text>
    <path
       inkscape:export-filename="/Users/yongrenjie/dphil/nbsphinx/sehsqc/spor.png"
       style="fill:none;stroke:#000000;stroke-width:0.32;stroke-linecap:butt;stroke-linejoin:miter;stroke-dasharray:none;stroke-opacity:1"
       d="M 41.556153,14.402287 H 81.6"
       id="path10-22-2"
       inkscape:export-xdpi="500"
       inkscape:export-ydpi="500" />
    <text
       inkscape:export-filename="/Users/yongrenjie/dphil/nbsphinx/sehsqc/spor.png"
       xml:space="preserve"
       style="font-style:normal;font-weight:normal;font-size:3.52777px;line-height:1.25;font-family:'Fira Sans';fill:#000000;fill-opacity:1;stroke:none;stroke-width:0.264583"
       x="37.343834"
       y="23.722902"
       id="text14-2-7-5-2-2"
       inkscape:export-xdpi="500"
       inkscape:export-ydpi="500"><tspan
         sodipodi:role="line"
         id="tspan12-5-03-5-5-8"
         x="37.343834"
         y="23.722902"
         style="font-style:italic;font-variant:normal;font-weight:normal;font-stretch:normal;font-size:3.52777px;font-family:'Fira Sans';-inkscape-font-specification:'Fira Sans';stroke-width:0.264583">G<tspan
   style="font-size:65%;baseline-shift:sub"
   id="tspan25204">z</tspan></tspan></text>
    <path
       inkscape:export-filename="/Users/yongrenjie/dphil/nbsphinx/sehsqc/spor.png"
       style="fill:none;stroke:#000000;stroke-width:0.32;stroke-linecap:butt;stroke-linejoin:miter;stroke-dasharray:none;stroke-opacity:1"
       d="M 41.609175,22.399995 H 81.599999"
       id="path10-22-2-8-2-9"
       inkscape:export-xdpi="500"
       inkscape:export-ydpi="500" />
    <rect
       inkscape:export-filename="/Users/yongrenjie/dphil/nbsphinx/sehsqc/spor.png"
       style="fill:none;stroke:#000000;stroke-width:0.32;stroke-miterlimit:4;stroke-dasharray:none"
       id="rect1348-2-65-8"
       width="1.5999991"
       height="6.3999987"
       x="44.799999"
       y="8.000001"
       inkscape:export-xdpi="500"
       inkscape:export-ydpi="500" />
    <path
       inkscape:export-filename="/Users/yongrenjie/Desktop/a.png"
       id="path3919-7-8-6-7"
       title="cos(x)*exp(-x/15)"
       d="m 69.375496,10.494916 c 0.0857,0.0705 0.17123,0.54038 0.25677,1.26223 0.0856,0.72168 0.17123,1.687581 0.25691,2.643621 0.0855,0.95605 0.17122,1.89335 0.25676,2.58929 0.0855,0.69595 0.17122,1.14418 0.25676,1.26017 0.0857,0.11599 0.17122,-0.10074 0.25692,-0.56772 0.0855,-0.46698 0.17109,-1.17961 0.25675,-1.94435 0.0855,-0.76474 0.17122,-1.57461 0.25677,-2.23131 0.0855,-0.656691 0.17121,-1.154341 0.25677,-1.388391 0.0856,-0.2342 0.17122,-0.2029 0.25689,0.0618 0.0855,0.26472 0.17108,0.76014 0.25676,1.346291 0.0855,0.58615 0.17123,1.25746 0.25678,1.8452 0.0856,0.5879 0.17121,1.08681 0.25675,1.38553 0.0857,0.29871 0.17124,0.39484 0.25691,0.28378 0.0855,-0.11091 0.17123,-0.42758 0.25678,-0.85515 0.0855,-0.42758 0.17122,-0.96193 0.25675,-1.4653 0.0857,-0.5032 0.17122,-0.97082 0.25677,-1.29385 0.0856,-0.32318 0.17122,-0.499071 0.2569,-0.499071 0.0855,-1.6e-4 0.17121,0.175411 0.25676,0.468251 0.0855,0.29284 0.17125,0.70007 0.25676,1.11382 0.0856,0.4136 0.17122,0.82973 0.25691,1.14847 0.0855,0.31858 0.17109,0.53705 0.25675,0.61221 0.0855,0.075 0.17124,0.006 0.25677,-0.17653 0.0856,-0.18289 0.17122,-0.4781 0.25678,-0.80447 0.0856,-0.32636 0.17122,-0.68084 0.25691,-0.97606 0.0855,-0.29507 0.17106,-0.52816 0.25674,-0.64907 0.0855,-0.12092 0.17123,-0.12871 0.25678,-0.0319 0.0856,0.0968 0.17122,0.29712 0.25676,0.5434 0.0856,0.24628 0.17123,0.53626 0.25691,0.79652 0.0855,0.26011 0.17123,0.48796 0.25676,0.63207 0.0855,0.14412 0.17123,0.20307 0.25678,0.17065 0.0856,-0.0322 0.17122,-0.15555 0.2569,-0.33192 0.0855,-0.17637 0.17107,-0.4039 0.25675,-0.62365 0.0855,-0.21975 0.17123,-0.42948 0.25678,-0.57979 0.0855,-0.15047 0.17122,-0.24025 0.25675,-0.25343"
       style="fill:none;stroke:#000000;stroke-width:0.264999;stroke-miterlimit:4;stroke-dasharray:none;stroke-dashoffset:0;stroke-opacity:1"
       inkscape:export-xdpi="600"
       inkscape:export-ydpi="600" />
    <text
       xml:space="preserve"
       style="font-size:3.52777px;line-height:1.25;font-family:'Fira Sans';-inkscape-font-specification:'Fira Sans, Normal';word-spacing:0px;fill:#023eff;stroke-width:0.264583"
       x="55.920521"
       y="12.110384"
       id="text16419-7-4"><tspan
         sodipodi:role="line"
         id="tspan16417-1-3"
         style="font-style:italic;fill:#023eff;stroke-width:0.264583"
         x="55.920521"
         y="12.110384">τ</tspan></text>
    <ellipse
       inkscape:export-filename="/Users/yongrenjie/dphil/nbsphinx/sehsqc/spor.png"
       style="fill:none;stroke:#000000;stroke-width:0.32;stroke-miterlimit:4;stroke-dasharray:none;stroke-dashoffset:0"
       id="path1583-6-5-2-5-0-5"
       sodipodi:type="arc"
       sodipodi:cx="49.599998"
       sodipodi:cy="22.4"
       sodipodi:rx="1.2649012"
       sodipodi:ry="6.4000006"
       sodipodi:start="3.1415927"
       sodipodi:end="0"
       sodipodi:arc-type="slice"
       inkscape:export-xdpi="500"
       inkscape:export-ydpi="500"
       d="M 48.335097,22.4 A 1.2649012,6.4000006 0 0 1 49.599998,15.999999 1.2649012,6.4000006 0 0 1 50.8649,22.4 h -1.264902 z" />
    <rect
       inkscape:export-filename="/Users/yongrenjie/dphil/nbsphinx/sehsqc/spor.png"
       style="fill:#000000;stroke:#000000;stroke-width:0.32;stroke-miterlimit:4;stroke-dasharray:none"
       id="rect1348-2-65-7-5-3-5-3"
       width="1.5999991"
       height="6.3999987"
       x="67.190819"
       y="8.0000048"
       inkscape:export-xdpi="500"
       inkscape:export-ydpi="500" />
    <text
       xml:space="preserve"
       style="font-size:3.52777px;line-height:1.25;font-family:'Fira Sans';-inkscape-font-specification:'Fira Sans, Normal';word-spacing:0px;stroke-width:0.264583"
       x="48.158993"
       y="25.6"
       id="text34094-44"><tspan
         sodipodi:role="line"
         id="tspan34092-5"
         style="font-style:italic;stroke-width:0.264583"
         x="48.158993"
         y="25.6">g<tspan
   style="font-style:normal;font-size:65%;baseline-shift:sub"
   id="tspan34096-97">1</tspan></tspan></text>
  </g>
</svg>
