<?xml version="1.0" encoding="UTF-8" standalone="no"?>
<svg
   inkscape:export-ydpi="500"
   inkscape:export-xdpi="500"
   inkscape:export-filename="/Users/yongrenjie/Desktop/noah_sehsqc_v1.png"
   sodipodi:docname="invrec_opt.svg"
   inkscape:version="1.1.1 (c3084ef, 2021-09-22)"
   id="svg8"
   version="1.1"
   viewBox="0 0 121.06735 58.661575"
   height="58.661575mm"
   width="121.06734mm"
   xmlns:inkscape="http://www.inkscape.org/namespaces/inkscape"
   xmlns:sodipodi="http://sodipodi.sourceforge.net/DTD/sodipodi-0.dtd"
   xmlns="http://www.w3.org/2000/svg"
   xmlns:svg="http://www.w3.org/2000/svg"
   xmlns:rdf="http://www.w3.org/1999/02/22-rdf-syntax-ns#"
   xmlns:cc="http://creativecommons.org/ns#"
   xmlns:dc="http://purl.org/dc/elements/1.1/">
  <defs
     id="defs2">
    <marker
       style="overflow:visible;"
       id="marker2375"
       refX="0.0"
       refY="0.0"
       orient="auto"
       inkscape:stockid="Arrow1Send"
       inkscape:isstock="true">
      <path
         transform="scale(0.2) rotate(180) translate(6,0)"
         style="fill-rule:evenodd;fill:context-stroke;stroke:context-stroke;stroke-width:1.0pt;"
         d="M 0.0,0.0 L 5.0,-5.0 L -12.5,0.0 L 5.0,5.0 L 0.0,0.0 z "
         id="path2120" />
    </marker>
    <marker
       style="overflow:visible"
       id="Arrow1Sstart"
       refX="0.0"
       refY="0.0"
       orient="auto"
       inkscape:stockid="Arrow1Sstart"
       inkscape:isstock="true">
      <path
         transform="scale(0.2) translate(6,0)"
         style="fill-rule:evenodd;fill:context-stroke;stroke:context-stroke;stroke-width:1.0pt"
         d="M 0.0,0.0 L 5.0,-5.0 L -12.5,0.0 L 5.0,5.0 L 0.0,0.0 z "
         id="path2117" />
    </marker>
    <rect
       x="180"
       y="110"
       width="490"
       height="60"
       id="rect44379" />
    <marker
       style="overflow:visible"
       id="Arrow1Send"
       refX="0"
       refY="0"
       orient="auto"
       inkscape:stockid="Arrow1Send"
       inkscape:isstock="true">
      <path
         transform="matrix(-0.2,0,0,-0.2,-1.2,0)"
         style="fill:context-stroke;fill-rule:evenodd;stroke:context-stroke;stroke-width:1pt"
         d="M 0,0 5,-5 -12.5,0 5,5 Z"
         id="path4199" />
    </marker>
    <rect
       x="125.67708"
       y="59.53125"
       width="7.9375"
       height="2.6458333"
       id="rect2417" />
    <rect
       x="66.145836"
       y="30.427082"
       width="11.90625"
       height="7.9375"
       id="rect2405" />
    <rect
       id="rect2417-5"
       height="2.6458333"
       width="7.9375"
       y="59.53125"
       x="125.67708" />
    <rect
       id="rect3112"
       height="2.6458333"
       width="7.9375"
       y="59.53125"
       x="125.67708" />
    <rect
       x="125.67708"
       y="59.53125"
       width="7.9375"
       height="2.6458333"
       id="rect2417-5-4" />
    <rect
       x="125.67708"
       y="59.53125"
       width="7.9375"
       height="2.6458333"
       id="rect1299" />
    <rect
       id="rect2417-2"
       height="2.6458333"
       width="7.9375"
       y="59.53125"
       x="125.67708" />
    <rect
       id="rect1704"
       height="2.6458333"
       width="7.9375"
       y="59.53125"
       x="125.67708" />
    <rect
       x="125.67708"
       y="59.53125"
       width="7.9375"
       height="2.6458333"
       id="rect2417-2-5" />
    <rect
       x="125.67708"
       y="59.53125"
       width="7.9375"
       height="2.6458333"
       id="rect1911" />
    <rect
       id="rect2417-7"
       height="2.6458333"
       width="7.9375"
       y="59.53125"
       x="125.67708" />
    <rect
       id="rect628"
       height="2.6458333"
       width="7.9375"
       y="59.53125"
       x="125.67708" />
    <rect
       x="125.67708"
       y="59.53125"
       width="7.9375"
       height="2.6458333"
       id="rect2417-7-0" />
    <rect
       x="125.67708"
       y="59.53125"
       width="7.9375"
       height="2.6458333"
       id="rect1265" />
    <rect
       id="rect2417-7-0-8"
       height="2.6458333"
       width="7.9375"
       y="59.53125"
       x="125.67708" />
    <rect
       id="rect1352"
       height="2.6458333"
       width="7.9375"
       y="59.53125"
       x="125.67708" />
    <rect
       x="125.67708"
       y="59.53125"
       width="7.9375"
       height="2.6458333"
       id="rect2417-7-2" />
    <rect
       x="125.67708"
       y="59.53125"
       width="7.9375"
       height="2.6458333"
       id="rect1645" />
    <rect
       id="rect2417-7-0-3"
       height="2.6458333"
       width="7.9375"
       y="59.53125"
       x="125.67708" />
    <rect
       id="rect1648"
       height="2.6458333"
       width="7.9375"
       y="59.53125"
       x="125.67708" />
    <rect
       x="125.67708"
       y="59.53125"
       width="7.9375"
       height="2.6458333"
       id="rect2417-7-4" />
    <rect
       x="125.67708"
       y="59.53125"
       width="7.9375"
       height="2.6458333"
       id="rect1937" />
    <rect
       x="125.67708"
       y="59.53125"
       width="7.9375"
       height="2.6458333"
       id="rect2417-7-6" />
    <rect
       x="125.67708"
       y="59.53125"
       width="7.9375"
       height="2.6458333"
       id="rect2315" />
    <rect
       id="rect2417-7-0-0"
       height="2.6458333"
       width="7.9375"
       y="59.53125"
       x="125.67708" />
    <rect
       id="rect2318"
       height="2.6458333"
       width="7.9375"
       y="59.53125"
       x="125.67708" />
    <rect
       id="rect2417-7-4-4"
       height="2.6458333"
       width="7.9375"
       y="59.53125"
       x="125.67708" />
    <rect
       id="rect2321"
       height="2.6458333"
       width="7.9375"
       y="59.53125"
       x="125.67708" />
    <rect
       x="125.67708"
       y="59.53125"
       width="7.9375"
       height="2.6458333"
       id="rect2417-5-7" />
    <rect
       x="125.67708"
       y="59.53125"
       width="7.9375"
       height="2.6458333"
       id="rect1918" />
    <rect
       x="125.67708"
       y="59.53125"
       width="7.9375"
       height="2.6458333"
       id="rect2417-5-7-9" />
    <rect
       x="125.67708"
       y="59.53125"
       width="7.9375"
       height="2.6458333"
       id="rect1827" />
    <rect
       x="125.67708"
       y="59.53125"
       width="7.9375"
       height="2.6458333"
       id="rect2417-5-7-9-5" />
    <rect
       x="125.67708"
       y="59.53125"
       width="7.9375"
       height="2.6458333"
       id="rect2715" />
    <rect
       x="125.67708"
       y="59.53125"
       width="7.9375"
       height="2.6458333"
       id="rect2417-5-7-9-5-0" />
    <rect
       x="125.67708"
       y="59.53125"
       width="7.9375"
       height="2.6458333"
       id="rect3097" />
    <rect
       x="125.67708"
       y="59.53125"
       width="7.9375"
       height="2.6458333"
       id="rect2417-5-7-8" />
    <rect
       x="125.67708"
       y="59.53125"
       width="7.9375"
       height="2.6458333"
       id="rect2046" />
    <rect
       id="rect2417-5-0"
       height="2.6458333"
       width="7.9375"
       y="59.53125"
       x="125.67708" />
    <rect
       id="rect2691"
       height="2.6458333"
       width="7.9375"
       y="59.53125"
       x="125.67708" />
    <rect
       x="125.67708"
       y="59.53125"
       width="7.9375"
       height="2.6458333"
       id="rect2417-5-7-9-7" />
    <marker
       style="overflow:visible"
       id="Arrow1Send-9"
       refX="0"
       refY="0"
       orient="auto"
       inkscape:stockid="Arrow1Send"
       inkscape:isstock="true">
      <path
         transform="matrix(-0.2,0,0,-0.2,-1.2,0)"
         style="fill:context-stroke;fill-rule:evenodd;stroke:context-stroke;stroke-width:1pt"
         d="M 0,0 5,-5 -12.5,0 5,5 Z"
         id="path4199-7" />
    </marker>
    <rect
       x="125.67708"
       y="59.53125"
       width="7.9375"
       height="2.6458333"
       id="rect2417-5-7-2" />
    <rect
       id="rect2417-5-49"
       height="2.6458333"
       width="7.9375"
       y="59.53125"
       x="125.67708" />
  </defs>
  <sodipodi:namedview
     id="base"
     pagecolor="#ffffff"
     bordercolor="#666666"
     borderopacity="1.0"
     inkscape:pageopacity="0.0"
     inkscape:pageshadow="2"
     inkscape:zoom="3.3367801"
     inkscape:cx="134.41101"
     inkscape:cy="84.812302"
     inkscape:document-units="mm"
     inkscape:current-layer="layer1"
     inkscape:document-rotation="0"
     showgrid="true"
     inkscape:window-width="1482"
     inkscape:window-height="726"
     inkscape:window-x="74"
     inkscape:window-y="25"
     inkscape:window-maximized="0"
     inkscape:snap-object-midpoints="false"
     inkscape:snap-text-baseline="true"
     inkscape:pagecheckerboard="0">
    <inkscape:grid
       type="xygrid"
       id="grid1346"
       originx="-39.587507"
       originy="-23.7125" />
  </sodipodi:namedview>
  <metadata
     id="metadata5">
    <rdf:RDF>
      <cc:Work
         rdf:about="">
        <dc:format>image/svg+xml</dc:format>
        <dc:type
           rdf:resource="http://purl.org/dc/dcmitype/StillImage" />
        <dc:title />
      </cc:Work>
    </rdf:RDF>
  </metadata>
  <g
     inkscape:label="Layer 1"
     inkscape:groupmode="layer"
     id="layer1"
     transform="translate(-39.587504,-23.7125)">
    <path
       inkscape:export-filename="/Users/yongrenjie/dphil/nbsphinx/sehsqc/spor.png"
       id="path3919-7-8-6"
       title="cos(x)*exp(-x/15)"
       d="m 85.174912,47.686383 c 0.0857,0.0705 0.17123,0.54038 0.25677,1.26223 0.0856,0.72168 0.17123,1.68758 0.25691,2.64362 0.0855,0.95605 0.17122,1.89335 0.25676,2.58929 0.0855,0.69595 0.17122,1.14418 0.25676,1.26017 0.0857,0.11599 0.17122,-0.10074 0.25692,-0.56772 0.0855,-0.46698 0.17109,-1.17961 0.25675,-1.94435 0.0855,-0.76474 0.17122,-1.57461 0.25677,-2.23131 0.0855,-0.65669 0.17121,-1.15434 0.25677,-1.38839 0.0856,-0.2342 0.17122,-0.2029 0.25689,0.0618 0.0855,0.26472 0.17108,0.76014 0.25676,1.34629 0.0855,0.58615 0.17123,1.25746 0.25678,1.8452 0.0856,0.5879 0.17121,1.08681 0.25674,1.38553 0.0857,0.29871 0.17124,0.39484 0.25691,0.28378 0.0855,-0.11091 0.17123,-0.42758 0.25678,-0.85515 0.0855,-0.42758 0.17122,-0.96193 0.25675,-1.4653 0.0857,-0.5032 0.17122,-0.97082 0.25677,-1.29385 0.0856,-0.32318 0.17122,-0.49907 0.2569,-0.49907 0.0855,-1.6e-4 0.17121,0.17541 0.25676,0.46825 0.0855,0.29284 0.17125,0.70007 0.25676,1.11382 0.0856,0.4136 0.17122,0.82973 0.25691,1.14847 0.0855,0.31858 0.17109,0.53705 0.25675,0.61221 0.0855,0.075 0.17124,0.006 0.25677,-0.17653 0.0856,-0.18289 0.17122,-0.4781 0.25678,-0.80447 0.0856,-0.32636 0.17122,-0.68084 0.25691,-0.97606 0.0855,-0.29507 0.17106,-0.52816 0.25674,-0.64907 0.0855,-0.12092 0.17123,-0.12871 0.25678,-0.0319 0.0856,0.0968 0.17122,0.29712 0.25676,0.5434 0.0856,0.24628 0.17123,0.53626 0.25691,0.79652 0.0855,0.26011 0.17123,0.48796 0.25676,0.63207 0.0855,0.14412 0.17123,0.20307 0.25678,0.17065 0.0856,-0.0322 0.17122,-0.15555 0.2569,-0.33192 0.0855,-0.17637 0.17107,-0.4039 0.25675,-0.62365 0.0855,-0.21975 0.17123,-0.42948 0.25678,-0.57979 0.0855,-0.15047 0.17122,-0.24025 0.25675,-0.25343"
       style="fill:none;stroke:#000000;stroke-width:0.264999;stroke-miterlimit:4;stroke-dasharray:none;stroke-dashoffset:0;stroke-opacity:1"
       inkscape:export-xdpi="500"
       inkscape:export-ydpi="500" />
    <path
       inkscape:export-filename="/Users/yongrenjie/dphil/nbsphinx/sehsqc/spor.png"
       style="fill:none;stroke:#000000;stroke-width:0.264582px;stroke-linecap:butt;stroke-linejoin:miter;stroke-opacity:1"
       d="M 59.531247,51.593754 H 95.249998"
       id="path10-22-2"
       inkscape:export-xdpi="500"
       inkscape:export-ydpi="500" />
    <text
       inkscape:export-filename="/Users/yongrenjie/dphil/nbsphinx/sehsqc/spor.png"
       xml:space="preserve"
       style="font-style:normal;font-weight:normal;font-size:3.52777px;line-height:1.25;font-family:'Fira Sans';fill:#000000;fill-opacity:1;stroke:none;stroke-width:0.264583"
       x="55.440712"
       y="52.916664"
       id="text14-2-7"
       inkscape:export-xdpi="500"
       inkscape:export-ydpi="500"><tspan
         sodipodi:role="line"
         id="tspan12-5-03"
         x="55.440712"
         y="52.916664"
         style="font-style:normal;font-variant:normal;font-weight:normal;font-stretch:normal;font-size:3.52777px;font-family:'Fira Sans';-inkscape-font-specification:'Fira Sans';stroke-width:0.264583"><tspan
   style="font-style:normal;font-variant:normal;font-weight:normal;font-stretch:normal;font-size:2.29306px;font-family:'Fira Sans';-inkscape-font-specification:'Fira Sans';baseline-shift:super;stroke-width:0.264583"
   id="tspan16-1-9">1</tspan>H</tspan></text>
    <text
       inkscape:export-filename="/Users/yongrenjie/dphil/nbsphinx/sehsqc/spor.png"
       xml:space="preserve"
       style="font-style:normal;font-weight:normal;font-size:3.52777px;line-height:1.25;font-family:'Fira Sans';fill:#000000;fill-opacity:1;stroke:none;stroke-width:0.264583"
       x="55.276451"
       y="59.422085"
       id="text24-6-9"
       inkscape:export-xdpi="500"
       inkscape:export-ydpi="500"><tspan
         sodipodi:role="line"
         id="tspan22-4-9"
         x="55.276451"
         y="59.422085"
         style="font-style:italic;font-variant:normal;font-weight:normal;font-stretch:normal;font-size:3.52777px;font-family:'Fira Sans';-inkscape-font-specification:'Fira Sans';stroke-width:0.264583">G<tspan
   style="font-style:italic;font-variant:normal;font-weight:normal;font-stretch:normal;font-size:2.29306px;font-family:'Fira Sans';-inkscape-font-specification:'Fira Sans';baseline-shift:sub;stroke-width:0.264583"
   id="tspan28-4-1">z</tspan></tspan></text>
    <rect
       inkscape:export-filename="/Users/yongrenjie/dphil/nbsphinx/sehsqc/spor.png"
       y="46.302082"
       x="83.34375"
       height="5.2916665"
       width="1.3229166"
       id="rect1348-7-1-8"
       style="fill:#000000;stroke:#000000;stroke-width:0.264999;stroke-miterlimit:4;stroke-dasharray:none"
       inkscape:export-xdpi="500"
       inkscape:export-ydpi="500" />
    <path
       inkscape:export-filename="/Users/yongrenjie/dphil/nbsphinx/sehsqc/spor.png"
       style="fill:none;stroke:#000000;stroke-width:0.264582px;stroke-linecap:butt;stroke-linejoin:miter;stroke-opacity:1"
       d="M 59.53125,58.208333 H 95.249998"
       id="path10-2-8-0-41"
       inkscape:export-xdpi="500"
       inkscape:export-ydpi="500" />
    <rect
       inkscape:export-filename="/Users/yongrenjie/dphil/nbsphinx/sehsqc/spor.png"
       style="fill:none;stroke:#000000;stroke-width:0.264999;stroke-miterlimit:4;stroke-dasharray:none"
       id="rect1350-6-5-3"
       width="1.3229166"
       height="5.2916665"
       x="62.177082"
       y="46.302082"
       inkscape:export-xdpi="500"
       inkscape:export-ydpi="500" />
    <text
       inkscape:export-filename="/Users/yongrenjie/dphil/nbsphinx/sehsqc/spor.png"
       id="text2294-2-9-3-3-5-5"
       y="44.979168"
       x="61.760574"
       style="font-size:2.46944px;line-height:1.25;font-family:'Fira Sans';-inkscape-font-specification:'Fira Sans';stroke-width:0.264583"
       xml:space="preserve"
       inkscape:export-xdpi="500"
       inkscape:export-ydpi="500"><tspan
         style="font-style:normal;font-variant:normal;font-weight:normal;font-stretch:normal;font-size:2.46944px;font-family:'Fira Sans';-inkscape-font-specification:'Fira Sans';stroke-width:0.264583"
         y="44.979168"
         x="61.760574"
         id="tspan2292-1-1-7-9-5-5"
         sodipodi:role="line"><tspan
           style="font-style:italic"
           id="tspan25903">ϕ</tspan><tspan
           style="font-size:65%;baseline-shift:sub"
           id="tspan4501">1</tspan></tspan></text>
    <text
       inkscape:export-filename="/Users/yongrenjie/dphil/nbsphinx/sehsqc/spor.png"
       id="text2294-2-9-3-3-5-5-0-1-7"
       y="44.979179"
       x="87.580605"
       style="font-size:2.46944px;line-height:1.25;font-family:'Fira Sans';-inkscape-font-specification:'Fira Sans';stroke-width:0.264583"
       xml:space="preserve"
       inkscape:export-xdpi="500"
       inkscape:export-ydpi="500"><tspan
         style="font-style:normal;font-variant:normal;font-weight:normal;font-stretch:normal;font-size:2.46944px;font-family:'Fira Sans';-inkscape-font-specification:'Fira Sans';stroke-width:0.264583"
         y="44.979179"
         x="87.580605"
         id="tspan2292-1-1-7-9-5-5-0-8-3"
         sodipodi:role="line"><tspan
           style="font-style:italic"
           id="tspan25903-0-6-1">ϕ</tspan><tspan
           style="font-size:65%;baseline-shift:sub"
           id="tspan4501-9-6-7">rec</tspan></tspan></text>
    <text
       xml:space="preserve"
       transform="scale(0.26458333)"
       id="text44377"
       style="font-size:10.6667px;line-height:1.25;font-family:'Source Sans Pro';-inkscape-font-specification:'Source Sans Pro, Normal';white-space:pre;shape-inside:url(#rect44379)" />
    <ellipse
       inkscape:export-filename="/Users/yongrenjie/dphil/nbsphinx/sehsqc/spor.png"
       sodipodi:arc-type="slice"
       sodipodi:end="0"
       sodipodi:start="3.1415927"
       sodipodi:ry="3.3830252"
       sodipodi:rx="0.82300049"
       sodipodi:cy="58.208332"
       sodipodi:cx="68.791664"
       sodipodi:type="arc"
       id="path1583-3-4-8"
       style="fill:none;stroke:#000000;stroke-width:0.264999;stroke-miterlimit:4;stroke-dasharray:none;stroke-dashoffset:0"
       inkscape:export-xdpi="500"
       inkscape:export-ydpi="500"
       d="m 67.968664,58.208332 a 0.82300049,3.3830252 0 0 1 0.823,-3.383025 0.82300049,3.3830252 0 0 1 0.823001,3.383025 h -0.823001 z" />
    <text
       inkscape:export-filename="/Users/yongrenjie/dphil/nbsphinx/sehsqc/spor.png"
       id="text2294-2-9-3-3-5-5-0-7-3"
       y="44.979168"
       x="82.82933"
       style="font-size:2.46944px;line-height:1.25;font-family:'Fira Sans';-inkscape-font-specification:'Fira Sans';stroke-width:0.264583"
       xml:space="preserve"
       inkscape:export-xdpi="500"
       inkscape:export-ydpi="500"><tspan
         style="font-style:normal;font-variant:normal;font-weight:normal;font-stretch:normal;font-size:2.46944px;font-family:'Fira Sans';-inkscape-font-specification:'Fira Sans';stroke-width:0.264583"
         y="44.979168"
         x="82.82933"
         id="tspan2292-1-1-7-9-5-5-0-8-5"
         sodipodi:role="line"><tspan
           style="font-style:italic"
           id="tspan25903-0-9-1">ϕ</tspan><tspan
           style="font-size:65%;baseline-shift:sub"
           id="tspan4501-9-8-3">2</tspan></tspan></text>
    <path
       style="fill:none;stroke:#023eff;stroke-width:0.264583px;stroke-linecap:butt;stroke-linejoin:miter;stroke-opacity:1;marker-start:url(#Arrow1Sstart);marker-end:url(#marker2375)"
       d="M 64.161456,47.625 H 82.68229"
       id="path1921" />
    <text
       xml:space="preserve"
       style="font-size:2.82223px;line-height:1.25;font-family:'Fira Sans';-inkscape-font-specification:'Fira Sans';fill:#023eff;fill-opacity:1;stroke-width:0.264583"
       x="72.721962"
       y="46.302082"
       id="text3327"><tspan
         sodipodi:role="line"
         id="tspan3325"
         style="font-style:italic;fill:#023eff;fill-opacity:1;stroke-width:0.264583"
         x="72.721962"
         y="46.302082">τ</tspan></text>
  </g>
</svg>
