<?xml version="1.0" encoding="UTF-8" standalone="no"?>
<!-- Created with Inkscape (http://www.inkscape.org/) -->

<svg
   width="180mm"
   height="134mm"
   viewBox="0 0 180 134"
   version="1.1"
   id="svg5"
   inkscape:version="1.2.1 (9c6d41e4, 2022-07-14)"
   sodipodi:docname="zg_repeated.svg"
   xmlns:inkscape="http://www.inkscape.org/namespaces/inkscape"
   xmlns:sodipodi="http://sodipodi.sourceforge.net/DTD/sodipodi-0.dtd"
   xmlns="http://www.w3.org/2000/svg"
   xmlns:svg="http://www.w3.org/2000/svg">
  <sodipodi:namedview
     id="namedview7"
     pagecolor="#ffffff"
     bordercolor="#666666"
     borderopacity="1.0"
     inkscape:showpageshadow="2"
     inkscape:pageopacity="0.0"
     inkscape:pagecheckerboard="0"
     inkscape:deskcolor="#d1d1d1"
     inkscape:document-units="mm"
     showgrid="true"
     inkscape:zoom="2.2926052"
     inkscape:cx="310.78182"
     inkscape:cy="152.88284"
     inkscape:window-width="1355"
     inkscape:window-height="474"
     inkscape:window-x="2028"
     inkscape:window-y="25"
     inkscape:window-maximized="0"
     inkscape:current-layer="layer1">
    <inkscape:grid
       type="xygrid"
       id="grid1049"
       units="mm"
       spacingx="0.32"
       spacingy="0.32"
       originx="0"
       originy="0" />
  </sodipodi:namedview>
  <defs
     id="defs2">
    <inkscape:path-effect
       effect="mirror_symmetry"
       start_point="48.947914,82.020831"
       end_point="48.947914,87.312499"
       center_point="48.947914,84.666665"
       id="path-effect4739-9"
       is_visible="true"
       lpeversion="1.1"
       mode="free"
       discard_orig_path="false"
       fuse_paths="false"
       oposite_fuse="false"
       split_items="false"
       split_open="false"
       lpesatellites=""
       link_styles="false" />
    <marker
       style="overflow:visible"
       id="Arrow1L-9"
       refX="0"
       refY="0"
       orient="auto-start-reverse"
       inkscape:stockid="Arrow1L"
       markerWidth="7"
       markerHeight="4"
       viewBox="0 0 8.75 5"
       inkscape:isstock="true"
       inkscape:collect="always"
       preserveAspectRatio="xMidYMid">
      <path
         style="fill:context-stroke;fill-rule:evenodd;stroke:none"
         d="M 0,0 5,-5 -12.5,0 5,5 Z"
         id="arrow1L-7"
         transform="scale(-0.5)" />
    </marker>
    <marker
       style="overflow:visible"
       id="marker43746-0"
       refX="0"
       refY="0"
       orient="auto-start-reverse"
       inkscape:stockid="Arrow1L"
       markerWidth="7"
       markerHeight="4"
       viewBox="0 0 8.75 5"
       inkscape:isstock="true"
       inkscape:collect="always"
       preserveAspectRatio="xMidYMid">
      <path
         style="fill:context-stroke;fill-rule:evenodd;stroke:none"
         d="M 0,0 5,-5 -12.5,0 5,5 Z"
         id="path43744-3"
         transform="scale(-0.5)" />
    </marker>
    <marker
       style="overflow:visible"
       id="Arrow1L-9-5"
       refX="0"
       refY="0"
       orient="auto-start-reverse"
       inkscape:stockid="Arrow1L"
       markerWidth="7"
       markerHeight="4"
       viewBox="0 0 8.75 5"
       inkscape:isstock="true"
       inkscape:collect="always"
       preserveAspectRatio="xMidYMid">
      <path
         style="fill:context-stroke;fill-rule:evenodd;stroke:none"
         d="M 0,0 5,-5 -12.5,0 5,5 Z"
         id="arrow1L-7-7"
         transform="scale(-0.5)" />
    </marker>
    <marker
       style="overflow:visible"
       id="marker43746-0-6"
       refX="0"
       refY="0"
       orient="auto-start-reverse"
       inkscape:stockid="Arrow1L"
       markerWidth="7"
       markerHeight="4"
       viewBox="0 0 8.75 5"
       inkscape:isstock="true"
       inkscape:collect="always"
       preserveAspectRatio="xMidYMid">
      <path
         style="fill:context-stroke;fill-rule:evenodd;stroke:none"
         d="M 0,0 5,-5 -12.5,0 5,5 Z"
         id="path43744-3-2"
         transform="scale(-0.5)" />
    </marker>
    <marker
       style="overflow:visible"
       id="Arrow1L-9-5-1"
       refX="0"
       refY="0"
       orient="auto-start-reverse"
       inkscape:stockid="Arrow1L"
       markerWidth="7"
       markerHeight="4"
       viewBox="0 0 8.75 5"
       inkscape:isstock="true"
       inkscape:collect="always"
       preserveAspectRatio="xMidYMid">
      <path
         style="fill:context-stroke;fill-rule:evenodd;stroke:none"
         d="M 0,0 5,-5 -12.5,0 5,5 Z"
         id="arrow1L-7-7-5"
         transform="scale(-0.5)" />
    </marker>
    <marker
       style="overflow:visible"
       id="marker43746-0-6-3"
       refX="0"
       refY="0"
       orient="auto-start-reverse"
       inkscape:stockid="Arrow1L"
       markerWidth="7"
       markerHeight="4"
       viewBox="0 0 8.75 5"
       inkscape:isstock="true"
       inkscape:collect="always"
       preserveAspectRatio="xMidYMid">
      <path
         style="fill:context-stroke;fill-rule:evenodd;stroke:none"
         d="M 0,0 5,-5 -12.5,0 5,5 Z"
         id="path43744-3-2-5"
         transform="scale(-0.5)" />
    </marker>
    <marker
       style="overflow:visible"
       id="marker43746-7"
       refX="0"
       refY="0"
       orient="auto-start-reverse"
       inkscape:stockid="Arrow1L"
       markerWidth="7"
       markerHeight="4"
       viewBox="0 0 8.75 5"
       inkscape:isstock="true"
       inkscape:collect="always"
       preserveAspectRatio="xMidYMid">
      <path
         style="fill:context-stroke;fill-rule:evenodd;stroke:none"
         d="M 0,0 5,-5 -12.5,0 5,5 Z"
         id="path43744-9"
         transform="scale(-0.5)" />
    </marker>
    <marker
       style="overflow:visible"
       id="marker43746-7-8"
       refX="0"
       refY="0"
       orient="auto-start-reverse"
       inkscape:stockid="Arrow1L"
       markerWidth="7"
       markerHeight="4"
       viewBox="0 0 8.75 5"
       inkscape:isstock="true"
       inkscape:collect="always"
       preserveAspectRatio="xMidYMid">
      <path
         style="fill:context-stroke;fill-rule:evenodd;stroke:none"
         d="M 0,0 5,-5 -12.5,0 5,5 Z"
         id="path43744-9-1"
         transform="scale(-0.5)" />
    </marker>
    <marker
       style="overflow:visible"
       id="marker43746-7-7"
       refX="0"
       refY="0"
       orient="auto-start-reverse"
       inkscape:stockid="Arrow1L"
       markerWidth="7"
       markerHeight="4"
       viewBox="0 0 8.75 5"
       inkscape:isstock="true"
       inkscape:collect="always"
       preserveAspectRatio="xMidYMid">
      <path
         style="fill:context-stroke;fill-rule:evenodd;stroke:none"
         d="M 0,0 5,-5 -12.5,0 5,5 Z"
         id="path43744-9-9"
         transform="scale(-0.5)" />
    </marker>
  </defs>
  <g
     inkscape:label="Layer 1"
     inkscape:groupmode="layer"
     id="layer1">
    <text
       inkscape:export-filename="/Users/yongrenjie/dphil/nbsphinx/sehsqc/spor.png"
       xml:space="preserve"
       style="font-style:normal;font-weight:normal;font-size:3.52777px;line-height:1.25;font-family:'Fira Sans';fill:#000000;fill-opacity:1;stroke:none;stroke-width:0.264583"
       x="53.553303"
       y="39.722919"
       id="text14-2-7-3-1-9"
       inkscape:export-xdpi="500"
       inkscape:export-ydpi="500"><tspan
         sodipodi:role="line"
         id="tspan12-5-03-8-8-0"
         x="53.553303"
         y="39.722919"
         style="font-style:normal;font-variant:normal;font-weight:normal;font-stretch:normal;font-size:3.52777px;font-family:'Fira Sans';-inkscape-font-specification:'Fira Sans';stroke-width:0.264583"><tspan
   style="font-style:normal;font-variant:normal;font-weight:normal;font-stretch:normal;font-size:2.29306px;font-family:'Fira Sans';-inkscape-font-specification:'Fira Sans';baseline-shift:super;stroke-width:0.264583"
   id="tspan16-1-9-0-4-2">1</tspan>H</tspan></text>
    <path
       inkscape:export-filename="/Users/yongrenjie/dphil/nbsphinx/sehsqc/spor.png"
       style="fill:none;stroke:#000000;stroke-width:0.32;stroke-linecap:butt;stroke-linejoin:miter;stroke-dasharray:none;stroke-opacity:1"
       d="M 57.599997,38.4 H 115.2"
       id="path10-22-2-4-7-3"
       inkscape:export-xdpi="500"
       inkscape:export-ydpi="500" />
    <path
       inkscape:export-filename="/Users/yongrenjie/Desktop/a.png"
       id="path3919-7-8-6-4"
       title="cos(x)*exp(-x/15)"
       d="m 67.775487,34.494914 c 0.0857,0.0705 0.17123,0.54038 0.25677,1.26223 0.0856,0.72168 0.17123,1.687581 0.25691,2.643621 0.0855,0.95605 0.17122,1.89335 0.25676,2.58929 0.0855,0.69595 0.17122,1.14418 0.25676,1.26017 0.0857,0.11599 0.17122,-0.10074 0.25692,-0.56772 0.0855,-0.46698 0.17109,-1.17961 0.25675,-1.94435 0.0855,-0.76474 0.17122,-1.57461 0.25677,-2.23131 0.0855,-0.656691 0.17121,-1.154341 0.25677,-1.388391 0.0856,-0.2342 0.17122,-0.2029 0.25689,0.0618 0.0855,0.26472 0.17108,0.76014 0.25676,1.346291 0.0855,0.58615 0.17123,1.25746 0.25678,1.8452 0.0856,0.5879 0.17121,1.08681 0.25675,1.38553 0.0857,0.29871 0.17124,0.39484 0.25691,0.28378 0.0855,-0.11091 0.17123,-0.42758 0.25678,-0.85515 0.0855,-0.42758 0.17122,-0.96193 0.25675,-1.4653 0.0857,-0.5032 0.17122,-0.97082 0.25677,-1.29385 0.0856,-0.32318 0.17122,-0.499071 0.2569,-0.499071 0.0855,-1.6e-4 0.17121,0.175411 0.25676,0.468251 0.0855,0.29284 0.17125,0.70007 0.25676,1.11382 0.0856,0.4136 0.17122,0.82973 0.25691,1.14847 0.0855,0.31858 0.17109,0.53705 0.25675,0.61221 0.0855,0.075 0.17124,0.006 0.25677,-0.17653 0.0856,-0.18289 0.17122,-0.4781 0.25678,-0.80447 0.0856,-0.32636 0.17122,-0.68084 0.25691,-0.97606 0.0855,-0.29507 0.17106,-0.52816 0.25674,-0.64907 0.0855,-0.12092 0.17123,-0.12871 0.25678,-0.0319 0.0856,0.0968 0.17122,0.29712 0.25676,0.5434 0.0856,0.24628 0.17123,0.53626 0.25691,0.79652 0.0855,0.26011 0.17123,0.48796 0.25676,0.63207 0.0855,0.14412 0.17123,0.20307 0.25678,0.17065 0.0856,-0.0322 0.17122,-0.15555 0.2569,-0.33192 0.0855,-0.17637 0.17107,-0.4039 0.25675,-0.62365 0.0855,-0.21975 0.17123,-0.42948 0.25678,-0.57979 0.0855,-0.15047 0.17122,-0.24025 0.25675,-0.25343"
       style="fill:none;stroke:#000000;stroke-width:0.264999;stroke-miterlimit:4;stroke-dasharray:none;stroke-dashoffset:0;stroke-opacity:1"
       inkscape:export-xdpi="600"
       inkscape:export-ydpi="600" />
    <path
       inkscape:export-filename="/Users/yongrenjie/Desktop/a.png"
       id="path3919-7-8-6-4-5"
       title="cos(x)*exp(-x/15)"
       d="m 99.775487,34.494914 c 0.0857,0.0705 0.17123,0.54038 0.256773,1.26223 0.0856,0.72168 0.17123,1.687581 0.25691,2.643621 0.0855,0.95605 0.17122,1.89335 0.25676,2.58929 0.0855,0.69595 0.17122,1.14418 0.25676,1.26017 0.0857,0.11599 0.17122,-0.10074 0.25692,-0.56772 0.0855,-0.46698 0.17109,-1.17961 0.25675,-1.94435 0.0855,-0.76474 0.17122,-1.57461 0.25677,-2.23131 0.0855,-0.656691 0.17121,-1.154341 0.25677,-1.388391 0.0856,-0.2342 0.17122,-0.2029 0.25689,0.0618 0.0855,0.26472 0.17108,0.76014 0.25676,1.346291 0.0855,0.58615 0.17123,1.25746 0.25678,1.8452 0.0856,0.5879 0.17121,1.08681 0.25675,1.38553 0.0857,0.29871 0.17124,0.39484 0.25691,0.28378 0.0855,-0.11091 0.17123,-0.42758 0.25678,-0.85515 0.0855,-0.42758 0.17122,-0.96193 0.25675,-1.4653 0.0857,-0.5032 0.17122,-0.97082 0.25677,-1.29385 0.0856,-0.32318 0.17122,-0.499071 0.2569,-0.499071 0.0855,-1.6e-4 0.17121,0.175411 0.25676,0.468251 0.0855,0.29284 0.17125,0.70007 0.25676,1.11382 0.0856,0.4136 0.17122,0.82973 0.25691,1.14847 0.0855,0.31858 0.17109,0.53705 0.25675,0.61221 0.0855,0.075 0.17124,0.006 0.25677,-0.17653 0.0856,-0.18289 0.17122,-0.4781 0.25678,-0.80447 0.0856,-0.32636 0.17122,-0.68084 0.25691,-0.97606 0.0855,-0.29507 0.17106,-0.52816 0.25674,-0.64907 0.0855,-0.12092 0.17123,-0.12871 0.25678,-0.0319 0.0856,0.0968 0.17122,0.29712 0.25676,0.5434 0.0856,0.24628 0.17123,0.53626 0.25691,0.79652 0.0855,0.26011 0.17123,0.48796 0.25676,0.63207 0.0855,0.14412 0.17123,0.20307 0.25678,0.17065 0.0856,-0.0322 0.17122,-0.15555 0.2569,-0.33192 0.0855,-0.17637 0.17107,-0.4039 0.25675,-0.62365 0.0855,-0.21975 0.17123,-0.42948 0.25678,-0.57979 0.0855,-0.15047 0.17122,-0.24025 0.25675,-0.25343"
       style="fill:none;stroke:#000000;stroke-width:0.264999;stroke-miterlimit:4;stroke-dasharray:none;stroke-dashoffset:0;stroke-opacity:1"
       inkscape:export-xdpi="600"
       inkscape:export-ydpi="600" />
    <text
       xml:space="preserve"
       style="font-size:3.52777px;line-height:1.25;font-family:'Fira Sans';-inkscape-font-specification:'Fira Sans, Normal';word-spacing:0px;stroke-width:0.264583"
       x="110.41251"
       y="36.404732"
       id="text1026"><tspan
         sodipodi:role="line"
         id="tspan1024"
         style="stroke-width:0.264583"
         x="110.41251"
         y="36.404732">•••</tspan></text>
    <text
       xml:space="preserve"
       style="font-size:3.52777px;line-height:1.25;font-family:'Fira Sans';-inkscape-font-specification:'Fira Sans, Normal';word-spacing:0px;stroke-width:0.264583"
       x="59.779175"
       y="36.404732"
       id="text1026-7"><tspan
         sodipodi:role="line"
         id="tspan1024-9"
         style="stroke-width:0.264583"
         x="59.779175"
         y="36.404732">•••</tspan></text>
    <path
       style="fill:#023eff;stroke:#000000;stroke-width:0.32;stroke-linecap:butt;stroke-linejoin:miter;stroke-dasharray:none;stroke-opacity:1;marker-start:url(#Arrow1L-9);marker-end:url(#marker43746-0)"
       d="m 68.8,44.8 h 6.4"
       id="path43533-9" />
    <path
       style="fill:#023eff;stroke:#000000;stroke-width:0.32;stroke-linecap:butt;stroke-linejoin:miter;stroke-dasharray:none;stroke-opacity:1;marker-start:url(#Arrow1L-9-5);marker-end:url(#marker43746-0-6)"
       d="M 78.4,44.8 H 96"
       id="path43533-9-7" />
    <path
       style="fill:#023eff;stroke:#000000;stroke-width:0.32;stroke-linecap:butt;stroke-linejoin:miter;stroke-dasharray:none;stroke-opacity:1;marker-start:url(#Arrow1L-9-5-1);marker-end:url(#marker43746-0-6-3)"
       d="M 68.8,30.4 H 96.000003"
       id="path43533-9-7-4" />
    <text
       xml:space="preserve"
       style="font-size:3.52777px;line-height:1.25;font-family:'Fira Sans';-inkscape-font-specification:'Fira Sans, Normal';word-spacing:0px;fill:#000000;stroke-width:0.264583"
       x="69.869209"
       y="49.599998"
       id="text1852"><tspan
         sodipodi:role="line"
         id="tspan1850"
         style="font-style:normal;font-variant:normal;font-weight:normal;font-stretch:normal;font-family:'Roboto Mono';-inkscape-font-specification:'Roboto Mono';fill:#000000;stroke-width:0.264583"
         x="69.869209"
         y="49.599998">AQ</tspan></text>
    <text
       xml:space="preserve"
       style="font-size:3.52777px;line-height:1.25;font-family:'Fira Sans';-inkscape-font-specification:'Fira Sans, Normal';word-spacing:0px;fill:#000000;stroke-width:0.264583"
       x="85.341377"
       y="49.780678"
       id="text1852-3"><tspan
         sodipodi:role="line"
         id="tspan1850-7"
         style="font-style:normal;font-variant:normal;font-weight:normal;font-stretch:normal;font-family:'Roboto Mono';-inkscape-font-specification:'Roboto Mono';fill:#000000;stroke-width:0.264583"
         x="85.341377"
         y="49.780678">D1</tspan></text>
    <text
       xml:space="preserve"
       style="font-size:3.52777px;line-height:1.25;font-family:'Fira Sans';-inkscape-font-specification:'Fira Sans, Normal';word-spacing:0px;stroke-width:0.264583;fill:#000000"
       x="81.153992"
       y="28.799999"
       id="text2155"><tspan
         sodipodi:role="line"
         id="tspan2153"
         style="fill:#000000;stroke-width:0.264583"
         x="81.153992"
         y="28.799999"><tspan
           style="font-style:italic;fill:#000000"
           id="tspan2159">τ</tspan><tspan
           style="font-size:65%;baseline-shift:sub;fill:#000000"
           id="tspan2157">r</tspan></tspan></text>
    <path
       style="fill:none;stroke:#9f4800;stroke-width:0.32;stroke-linecap:butt;stroke-linejoin:miter;stroke-dasharray:none;stroke-opacity:1;marker-end:url(#marker43746-7)"
       d="m 64,22.4 0.984445,3.364809"
       id="path43533-8" />
    <path
       style="fill:none;stroke:#9f4800;stroke-width:0.32;stroke-linecap:butt;stroke-linejoin:miter;stroke-dasharray:none;stroke-opacity:1;marker-end:url(#marker43746-7-8)"
       d="m 68.48,22.4 -0.984445,3.364809"
       id="path43533-8-4" />
    <text
       xml:space="preserve"
       style="font-size:3.52778px;line-height:1.25;font-family:STIXIntegralsUp;-inkscape-font-specification:STIXIntegralsUp;word-spacing:0px;fill:#9f4800;fill-opacity:1;stroke-width:0.264583"
       x="63.091652"
       y="21.054001"
       id="text4125"><tspan
         sodipodi:role="line"
         id="tspan4123"
         style="font-style:normal;font-variant:normal;font-weight:normal;font-stretch:normal;font-size:3.52778px;font-family:'Fira Sans';-inkscape-font-specification:'Fira Sans';fill:#9f4800;fill-opacity:1;stroke-width:0.264583"
         x="63.091652"
         y="21.054001">1</tspan></text>
    <circle
       style="fill:none;stroke:#9f4800;stroke-width:0.264999;stroke-linejoin:bevel;stop-color:#000000"
       id="path6321"
       cx="64.000008"
       cy="19.873959"
       r="1.984375" />
    <text
       xml:space="preserve"
       style="font-size:3.52778px;line-height:1.25;font-family:STIXIntegralsUp;-inkscape-font-specification:STIXIntegralsUp;word-spacing:0px;fill:#9f4800;fill-opacity:1;stroke-width:0.264583"
       x="67.991692"
       y="21.054001"
       id="text4125-2"><tspan
         sodipodi:role="line"
         id="tspan4123-1"
         style="font-style:normal;font-variant:normal;font-weight:normal;font-stretch:normal;font-size:3.52778px;font-family:'Fira Sans';-inkscape-font-specification:'Fira Sans';fill:#9f4800;fill-opacity:1;stroke-width:0.264583"
         x="67.991692"
         y="21.054001">2</tspan></text>
    <circle
       style="fill:none;stroke:#9f4800;stroke-width:0.264999;stroke-linejoin:bevel;stop-color:#000000"
       id="path6321-5"
       cx="68.800003"
       cy="19.873959"
       r="1.984375" />
    <path
       style="fill:none;stroke:#9f4800;stroke-width:0.32;stroke-linecap:butt;stroke-linejoin:miter;stroke-dasharray:none;stroke-opacity:1;marker-end:url(#marker43746-7-7)"
       d="m 97.6,22.4 v 3.2"
       id="path43533-8-75" />
    <text
       xml:space="preserve"
       style="font-size:3.52778px;line-height:1.25;font-family:STIXIntegralsUp;-inkscape-font-specification:STIXIntegralsUp;word-spacing:0px;fill:#9f4800;fill-opacity:1;stroke-width:0.264583"
       x="96.791687"
       y="21.054001"
       id="text4125-2-7"><tspan
         sodipodi:role="line"
         id="tspan4123-1-7"
         style="font-style:normal;font-variant:normal;font-weight:normal;font-stretch:normal;font-size:3.52778px;font-family:'Fira Sans';-inkscape-font-specification:'Fira Sans';fill:#9f4800;fill-opacity:1;stroke-width:0.264583"
         x="96.791687"
         y="21.054001">3</tspan></text>
    <circle
       style="fill:none;stroke:#9f4800;stroke-width:0.264999;stroke-linejoin:bevel;stop-color:#000000"
       id="path6321-5-2"
       cx="97.599998"
       cy="19.873959"
       r="1.984375" />
    <text
       xml:space="preserve"
       style="font-size:3.52777px;line-height:1.25;font-family:'Fira Sans';-inkscape-font-specification:'Fira Sans, Normal';word-spacing:0px;stroke-width:0.264583"
       x="65.336372"
       y="30.4"
       id="text624"><tspan
         sodipodi:role="line"
         id="tspan622"
         style="font-style:italic;stroke-width:0.264583"
         x="65.336372"
         y="30.4">θ</tspan></text>
    <rect
       inkscape:export-filename="/Users/yongrenjie/dphil/nbsphinx/sehsqc/spor.png"
       style="fill:#000000;stroke:#000000;stroke-width:0.32;stroke-miterlimit:4;stroke-dasharray:none"
       id="rect1348-2-65-7-8-8"
       width="1.5999991"
       height="6.3999987"
       x="97.599998"
       y="32"
       inkscape:export-xdpi="500"
       inkscape:export-ydpi="500" />
    <rect
       inkscape:export-filename="/Users/yongrenjie/dphil/nbsphinx/sehsqc/spor.png"
       style="fill:#cfcfcf;stroke:#000000;stroke-width:0.32;stroke-miterlimit:4;stroke-dasharray:none"
       id="rect1348-2-65-8-1-3"
       width="1.5999991"
       height="6.3999987"
       x="97.599998"
       y="32"
       inkscape:export-xdpi="500"
       inkscape:export-ydpi="500" />
    <text
       xml:space="preserve"
       style="font-size:3.52777px;line-height:1.25;font-family:'Fira Sans';-inkscape-font-specification:'Fira Sans, Normal';word-spacing:0px;stroke-width:0.264583"
       x="97.336372"
       y="30.4"
       id="text624-3"><tspan
         sodipodi:role="line"
         id="tspan622-9"
         style="font-style:italic;stroke-width:0.264583"
         x="97.336372"
         y="30.4">θ</tspan></text>
    <rect
       inkscape:export-filename="/Users/yongrenjie/dphil/nbsphinx/sehsqc/spor.png"
       style="fill:#cfcfcf;stroke:#000000;stroke-width:0.32;stroke-miterlimit:4;stroke-dasharray:none"
       id="rect1348-2-65-8-1"
       width="1.5999991"
       height="6.3999987"
       x="65.599998"
       y="32"
       inkscape:export-xdpi="500"
       inkscape:export-ydpi="500" />
  </g>
</svg>
