<?xml version="1.0" encoding="UTF-8" standalone="no"?>
<!-- Created with Inkscape (http://www.inkscape.org/) -->

<svg
   version="1.1"
   id="svg132"
   width="377.95999"
   height="377.94666"
   viewBox="0 0 377.95999 377.94666"
   sodipodi:docname="ox_brand_special_pos copy.svg"
   inkscape:version="1.2.1 (9c6d41e4, 2022-07-14)"
   xmlns:inkscape="http://www.inkscape.org/namespaces/inkscape"
   xmlns:sodipodi="http://sodipodi.sourceforge.net/DTD/sodipodi-0.dtd"
   xmlns="http://www.w3.org/2000/svg"
   xmlns:svg="http://www.w3.org/2000/svg">
  <defs
     id="defs136" />
  <sodipodi:namedview
     id="namedview134"
     pagecolor="#ffffff"
     bordercolor="#666666"
     borderopacity="1.0"
     inkscape:showpageshadow="2"
     inkscape:pageopacity="0.0"
     inkscape:pagecheckerboard="0"
     inkscape:deskcolor="#d1d1d1"
     showgrid="true"
     inkscape:zoom="1.557733"
     inkscape:cx="284.06665"
     inkscape:cy="219.8708"
     inkscape:window-width="1236"
     inkscape:window-height="698"
     inkscape:window-x="1844"
     inkscape:window-y="105"
     inkscape:window-maximized="0"
     inkscape:current-layer="g140">
    <inkscape:page
       x="0"
       y="0"
       id="page138"
       width="377.95999"
       height="377.94666" />
    <inkscape:grid
       type="xygrid"
       id="grid2662" />
  </sodipodi:namedview>
  <g
     id="g140"
     inkscape:groupmode="layer"
     inkscape:label="Page 1"
     transform="matrix(1.3333333,0,0,-1.3333333,0,377.94667)">
    <path
       d="m 72.831032,211.27001 c 0,2.141 -0.75791,3.869 -2.39708,4.79 -1.02759,0.577 -2.419,0.765 -4.13239,0.765 l -12.47563,0.002 v -24.096 h 13.57745 c 3.12883,0 4.96976,-0.674 5.13075,-3.36 h 0.29898 l -0.002,21.899"
       style="fill:none;fill-opacity:1;fill-rule:nonzero;stroke:#0e2b58;stroke-width:1.59975;stroke-dasharray:none;stroke-opacity:1"
       id="path182" />
    <path
       d="m 72.848842,211.27001 c 0,2.141 0.7567,3.869 2.39652,4.79 1.0274,0.577 2.41746,0.765 4.13255,0.765 l 12.55851,0.002 v -24.096 h -13.66116 c -3.12919,0 -4.96969,-0.674 -5.1296,-3.36 h -0.29891 l 0.002,21.899"
       style="fill:none;fill-opacity:1;fill-rule:nonzero;stroke:#0e2b58;stroke-width:1.59975;stroke-dasharray:none;stroke-opacity:1"
       id="path184" />
    <path
       d="m 94.431002,215.04501 c 0,0 0,-23.91 0,-25.472 -1.518,0 -18.451,0 -18.451,0 l -0.21,-0.521 c -0.322,-0.795 -0.897,-1.53 -2.912,-1.53 -2.012,0 -2.588,0.735 -2.909,1.53 l -0.211,0.521 c 0,0 -16.902,0 -18.421,0 0,1.562 0,25.472 0,25.472 h -1.666 v -0.776 l -1.597,0.491 c -0.186,0.629 -0.761,1.091 -1.45,1.091 -0.836,0 -1.517,-0.679 -1.517,-1.517 0,-0.839 0.681,-1.518 1.517,-1.518 0.367,0 0.699,0.135 0.96,0.351 l 2.087,-0.641 v -2.048 l -1.568,0.282 c -0.232,0.541 -0.77,0.921 -1.396,0.921 -0.836,0 -1.516,-0.679 -1.516,-1.518 0,-0.838 0.68,-1.517 1.516,-1.517 0.433,0 0.822,0.184 1.098,0.474 l 1.866,-0.334 v -2.088 l -1.638,0.072 c -0.266,0.442 -0.745,0.741 -1.297,0.741 -0.837,0 -1.518,-0.68 -1.518,-1.517 0,-0.839 0.681,-1.518 1.518,-1.518 0.505,0 0.95,0.25 1.225,0.63 l 1.71,-0.076 v -2.268 l -1.675,-0.06 c -0.275,0.385 -0.723,0.639 -1.233,0.639 -0.836,0 -1.518,-0.68 -1.518,-1.518 0,-0.838 0.682,-1.517 1.518,-1.517 0.549,0 1.025,0.294 1.292,0.73 l 1.616,0.058 v -2.09 l -1.832,-0.315 c -0.277,0.295 -0.668,0.482 -1.103,0.482 -0.837,0 -1.518,-0.68 -1.518,-1.518 0,-0.838 0.681,-1.517 1.518,-1.517 0.622,0 1.156,0.376 1.389,0.912 l 1.546,0.265 v -2.052 l -2.003,-0.612 c -0.262,0.217 -0.594,0.352 -0.961,0.352 -0.836,0 -1.516,-0.68 -1.516,-1.518 0,-0.838 0.68,-1.517 1.516,-1.517 0.689,0 1.264,0.462 1.45,1.091 l 1.514,0.462 v -1.985 l -2.213,-0.955 c -0.239,0.158 -0.525,0.251 -0.834,0.251 -0.836,0 -1.517,-0.679 -1.517,-1.517 0,-0.838 0.681,-1.518 1.517,-1.518 0.747,0 1.366,0.542 1.491,1.253 l 1.556,0.672 v -1.813 c 0,0 18.178,0 19.061,0 0.774,-1.352 2.114,-2.051 4.146,-2.051 2.034,0 3.374,0.699 4.149,2.051 0.882,0 19.091,0 19.091,0 v 27.138 h -1.667"
       style="fill:#0e2b58;fill-opacity:1;fill-rule:nonzero;stroke:none;stroke-width:0.1"
       id="path186" />
    <path
       d="m 60.319002,223.54001 c -3.852,0 -6.975,-0.599 -6.975,-1.338 0,-0.74 3.123,-1.338 6.975,-1.338 3.852,0 6.975,0.598 6.975,1.338 0,0.739 -3.123,1.338 -6.975,1.338"
       style="fill:#0e2b58;fill-opacity:1;fill-rule:nonzero;stroke:none;stroke-width:0.1"
       id="path188" />
    <path
       d="m 69.924002,231.89701 -4.028,-2.83 -0.034,-0.287 0.957,-0.43 c 0.19,-0.095 0.192,-0.247 0.095,-0.339 l -2.53,-2.135 -0.241,0.021 -1.791,2.641 c -0.124,0.172 -0.079,0.342 0.137,0.378 l 1.203,0.196 v 0.304 l -3.118,4.405 h -0.513 l -3.117,-4.405 v -0.304 l 1.203,-0.196 c 0.215,-0.036 0.26,-0.206 0.137,-0.378 l -1.793,-2.641 -0.24,-0.021 -2.362,2.135 c -0.096,0.092 -0.094,0.244 0.094,0.339 l 0.958,0.43 -0.035,0.287 -4.194,2.83 -0.34,-0.133 2.463,-7.525 c 1.25,0.562 4.121,0.957 7.482,0.973 3.363,-0.016 6.234,-0.411 7.484,-0.973 l 2.463,7.525 -0.34,0.133"
       style="fill:#0e2b58;fill-opacity:1;fill-rule:nonzero;stroke:none;stroke-width:0.1"
       id="path190" />
    <path
       d="m 72.830002,173.08301 c -3.854,0 -6.976,-0.599 -6.976,-1.338 0,-0.739 3.122,-1.338 6.976,-1.338 3.851,0 6.974,0.599 6.974,1.338 0,0.739 -3.123,1.338 -6.974,1.338"
       style="fill:#0e2b58;fill-opacity:1;fill-rule:nonzero;stroke:none;stroke-width:0.1"
       id="path192" />
    <path
       d="m 82.433002,181.44001 -4.027,-2.83 -0.034,-0.287 0.957,-0.43 c 0.189,-0.094 0.191,-0.247 0.095,-0.339 l -2.53,-2.135 -0.24,0.022 -1.792,2.641 c -0.123,0.171 -0.079,0.342 0.138,0.378 l 1.202,0.196 v 0.303 l -3.117,4.406 h -0.514 l -3.117,-4.406 v -0.303 l 1.203,-0.196 c 0.216,-0.036 0.261,-0.207 0.137,-0.378 l -1.792,-2.641 -0.24,-0.022 -2.363,2.135 c -0.096,0.092 -0.094,0.245 0.094,0.339 l 0.958,0.43 -0.035,0.287 -4.193,2.83 -0.34,-0.133 2.462,-7.525 c 1.25,0.562 4.121,0.957 7.483,0.973 3.362,-0.016 6.233,-0.411 7.483,-0.973 l 2.462,7.525 -0.34,0.133"
       style="fill:#0e2b58;fill-opacity:1;fill-rule:nonzero;stroke:none;stroke-width:0.1"
       id="path194" />
    <path
       d="m 85.309002,223.54001 c -3.852,0 -6.975,-0.599 -6.975,-1.338 0,-0.74 3.123,-1.338 6.975,-1.338 3.852,0 6.974,0.598 6.974,1.338 0,0.739 -3.122,1.338 -6.974,1.338"
       style="fill:#0e2b58;fill-opacity:1;fill-rule:nonzero;stroke:none;stroke-width:0.1"
       id="path196" />
    <path
       d="m 94.913002,231.89701 -4.026,-2.83 -0.036,-0.287 0.957,-0.43 c 0.19,-0.095 0.192,-0.247 0.095,-0.339 l -2.529,-2.135 -0.24,0.021 -1.791,2.641 c -0.124,0.172 -0.08,0.342 0.136,0.378 l 1.203,0.196 v 0.304 l -3.118,4.405 h -0.512 l -3.118,-4.405 v -0.304 l 1.204,-0.196 c 0.214,-0.036 0.259,-0.206 0.136,-0.378 l -1.793,-2.641 -0.24,-0.021 -2.361,2.163 c -0.097,0.092 -0.096,0.244 0.093,0.339 l 0.958,0.402 -0.036,0.287 -4.193,2.83 -0.34,-0.133 2.463,-7.525 c 1.249,0.562 4.12,0.957 7.482,0.973 3.363,-0.016 6.234,-0.411 7.484,-0.973 l 2.462,7.525 -0.34,0.133"
       style="fill:#0e2b58;fill-opacity:1;fill-rule:nonzero;stroke:none;stroke-width:0.1"
       id="path198" />
    <path
       d="m 56.647002,210.39501 c 0,-0.472 0.117,-0.563 0.371,-0.563 0.458,0 0.92,0.505 0.92,1.446 0,1.141 -0.579,1.46 -1.03,1.46 -0.123,0 -0.191,-0.017 -0.229,-0.038 -0.027,-0.01 -0.032,-0.133 -0.032,-0.265 z m 0.261,2.609 c 0.653,0 1.195,-0.128 1.55,-0.473 0.25,-0.239 0.458,-0.632 0.458,-1.089 0,-1.323 -1.004,-1.891 -2.232,-1.891 h -1.37 v 0.207 c 0.388,0.032 0.43,0.069 0.43,0.643 v 1.753 c 0,0.573 -0.042,0.611 -0.388,0.642 v 0.208 h 1.552"
       style="fill:#0e2b58;fill-opacity:1;fill-rule:nonzero;stroke:none;stroke-width:0.1"
       id="path200" />
    <path
       d="m 60.365002,211.41001 c 0,-0.962 0.361,-1.663 0.882,-1.663 0.457,0 0.706,0.441 0.706,1.403 0,1.067 -0.382,1.657 -0.839,1.657 -0.409,0 -0.749,-0.467 -0.749,-1.397 z m 2.577,-0.091 c 0,-1.137 -0.776,-1.848 -1.796,-1.848 -1.072,0 -1.768,0.782 -1.768,1.759 0,0.86 0.573,1.853 1.843,1.853 0.971,0 1.721,-0.712 1.721,-1.764"
       style="fill:#0e2b58;fill-opacity:1;fill-rule:nonzero;stroke:none;stroke-width:0.1"
       id="path202" />
    <path
       d="m 67.633002,213.00401 v -0.208 c -0.405,-0.037 -0.426,-0.058 -0.41,-0.616 l 0.053,-1.779 c 0.016,-0.59 0.026,-0.606 0.408,-0.643 v -0.207 h -1.662 v 0.207 c 0.399,0.037 0.415,0.053 0.409,0.643 l -0.015,1.87 h -0.023 l -1.024,-2.662 h -0.286 l -0.973,2.475 h -0.011 l -0.037,-1.179 c -0.016,-0.457 -0.01,-0.711 0.011,-0.875 0.021,-0.198 0.138,-0.246 0.483,-0.272 v -0.207 h -1.312 v 0.207 c 0.256,0.022 0.356,0.074 0.388,0.272 0.027,0.164 0.058,0.445 0.085,0.929 l 0.058,1.073 c 0.037,0.668 -0.005,0.727 -0.425,0.764 v 0.208 h 1.249 l 0.93,-2.104 0.813,2.104 h 1.291"
       style="fill:#0e2b58;fill-opacity:1;fill-rule:nonzero;stroke:none;stroke-width:0.1"
       id="path204" />
    <path
       d="m 69.357002,210.40101 c 0,-0.574 0.043,-0.611 0.409,-0.643 v -0.207 h -1.72 v 0.207 c 0.366,0.032 0.408,0.069 0.408,0.643 v 1.753 c 0,0.573 -0.042,0.611 -0.408,0.642 v 0.208 h 1.72 v -0.208 c -0.366,-0.031 -0.409,-0.069 -0.409,-0.642 v -1.753"
       style="fill:#0e2b58;fill-opacity:1;fill-rule:nonzero;stroke:none;stroke-width:0.1"
       id="path206" />
    <path
       d="m 60.803002,203.14001 h -0.456 l -1.965,2.507 h -0.012 v -0.977 c 0,-0.558 0.022,-0.85 0.043,-1.015 0.027,-0.186 0.17,-0.255 0.52,-0.271 v -0.207 h -1.322 v 0.207 c 0.234,0.011 0.371,0.085 0.399,0.271 0.02,0.165 0.042,0.457 0.042,1.015 v 0.977 c 0,0.393 -0.011,0.463 -0.118,0.611 -0.079,0.112 -0.211,0.148 -0.402,0.165 v 0.207 h 1.173 l 1.768,-2.205 h 0.011 v 0.712 c 0,0.558 -0.021,0.85 -0.042,1.014 -0.027,0.186 -0.171,0.255 -0.52,0.272 v 0.207 h 1.353 v -0.207 c -0.264,-0.011 -0.403,-0.086 -0.429,-0.272 -0.021,-0.164 -0.043,-0.456 -0.043,-1.014 v -1.997"
       style="fill:#0e2b58;fill-opacity:1;fill-rule:nonzero;stroke:none;stroke-width:0.1"
       id="path208" />
    <path
       d="m 62.954002,203.14001 c -0.366,0.956 -0.865,2.268 -1.057,2.767 -0.174,0.457 -0.281,0.484 -0.536,0.516 v 0.207 h 1.716 v -0.207 l -0.181,-0.022 c -0.196,-0.021 -0.196,-0.069 -0.138,-0.255 0.095,-0.296 0.515,-1.344 0.713,-1.864 0.164,0.451 0.503,1.466 0.588,1.715 0.112,0.325 0.08,0.383 -0.159,0.409 l -0.159,0.017 v 0.207 h 1.285 v -0.207 c -0.303,-0.038 -0.377,-0.065 -0.585,-0.548 -0.031,-0.074 -0.679,-1.652 -1.077,-2.735 h -0.41"
       style="fill:#0e2b58;fill-opacity:1;fill-rule:nonzero;stroke:none;stroke-width:0.1"
       id="path210" />
    <path
       d="m 65.350002,204.27101 c 0.112,-0.308 0.425,-0.898 0.946,-0.898 0.276,0 0.488,0.182 0.488,0.527 0,0.313 -0.206,0.488 -0.531,0.637 l -0.079,0.038 c -0.436,0.201 -0.93,0.477 -0.93,1.045 0,0.6 0.436,1.09 1.27,1.09 0.164,0 0.334,-0.021 0.489,-0.065 0.121,-0.031 0.206,-0.052 0.275,-0.074 0.022,-0.207 0.059,-0.467 0.117,-0.828 l -0.234,-0.037 c -0.116,0.35 -0.302,0.727 -0.723,0.727 -0.27,0 -0.462,-0.207 -0.462,-0.462 0,-0.265 0.208,-0.42 0.548,-0.574 l 0.116,-0.053 c 0.49,-0.223 0.909,-0.494 0.909,-1.115 0,-0.654 -0.526,-1.131 -1.349,-1.131 -0.212,0 -0.431,0.042 -0.574,0.09 -0.158,0.053 -0.271,0.096 -0.334,0.127 -0.043,0.245 -0.111,0.531 -0.176,0.887 l 0.234,0.069"
       style="fill:#0e2b58;fill-opacity:1;fill-rule:nonzero;stroke:none;stroke-width:0.1"
       id="path212" />
    <path
       d="m 58.441002,197.65301 c 0,-0.573 0.042,-0.61 0.408,-0.643 v -0.207 h -1.72 v 0.207 c 0.366,0.033 0.409,0.07 0.409,0.643 v 1.754 c 0,0.573 -0.043,0.61 -0.409,0.642 v 0.207 h 1.72 v -0.207 c -0.366,-0.032 -0.408,-0.069 -0.408,-0.642 v -1.754"
       style="fill:#0e2b58;fill-opacity:1;fill-rule:nonzero;stroke:none;stroke-width:0.1"
       id="path214" />
    <path
       d="m 60.545002,197.58401 c 0,-0.276 0.01,-0.408 0.105,-0.456 0.086,-0.043 0.207,-0.048 0.372,-0.048 0.17,0 0.399,0.015 0.51,0.154 0.085,0.1 0.175,0.244 0.261,0.526 l 0.228,-0.038 c -0.032,-0.202 -0.143,-0.754 -0.191,-0.919 h -2.635 v 0.207 c 0.403,0.033 0.446,0.07 0.446,0.643 v 1.754 c 0,0.573 -0.043,0.61 -0.398,0.642 v 0.207 h 1.727 v -0.207 c -0.383,-0.032 -0.425,-0.069 -0.425,-0.642 v -1.823"
       style="fill:#0e2b58;fill-opacity:1;fill-rule:nonzero;stroke:none;stroke-width:0.1"
       id="path216" />
    <path
       d="m 63.509002,197.58401 c 0,-0.276 0.01,-0.408 0.106,-0.456 0.085,-0.043 0.206,-0.048 0.371,-0.048 0.17,0 0.399,0.015 0.51,0.154 0.085,0.1 0.175,0.244 0.261,0.526 l 0.228,-0.038 c -0.031,-0.202 -0.143,-0.754 -0.191,-0.919 h -2.635 v 0.207 c 0.403,0.033 0.446,0.07 0.446,0.643 v 1.754 c 0,0.573 -0.043,0.61 -0.398,0.642 v 0.207 h 1.726 v -0.207 c -0.382,-0.032 -0.424,-0.069 -0.424,-0.642 v -1.823"
       style="fill:#0e2b58;fill-opacity:1;fill-rule:nonzero;stroke:none;stroke-width:0.1"
       id="path218" />
    <path
       d="m 66.047002,196.76601 c -0.367,0.956 -0.866,2.268 -1.057,2.768 -0.176,0.456 -0.281,0.483 -0.537,0.515 v 0.207 h 1.716 v -0.207 l -0.181,-0.021 c -0.196,-0.021 -0.196,-0.069 -0.138,-0.256 0.096,-0.297 0.515,-1.344 0.712,-1.864 0.164,0.452 0.504,1.466 0.59,1.716 0.111,0.324 0.079,0.383 -0.16,0.408 l -0.159,0.017 v 0.207 h 1.285 v -0.207 c -0.303,-0.037 -0.377,-0.064 -0.584,-0.548 -0.032,-0.073 -0.68,-1.651 -1.078,-2.735 h -0.409"
       style="fill:#0e2b58;fill-opacity:1;fill-rule:nonzero;stroke:none;stroke-width:0.1"
       id="path220" />
    <path
       d="m 80.314002,213.00401 v -0.208 c -0.404,-0.037 -0.425,-0.058 -0.41,-0.616 l 0.054,-1.779 c 0.015,-0.59 0.025,-0.606 0.408,-0.643 v -0.207 h -1.662 v 0.207 c 0.398,0.037 0.415,0.053 0.409,0.643 l -0.015,1.87 h -0.023 l -1.024,-2.662 h -0.287 l -0.972,2.475 h -0.011 l -0.037,-1.179 c -0.017,-0.457 -0.011,-0.711 0.011,-0.875 0.02,-0.198 0.137,-0.246 0.483,-0.272 v -0.207 h -1.312 v 0.207 c 0.255,0.022 0.356,0.074 0.387,0.272 0.028,0.164 0.059,0.445 0.085,0.929 l 0.059,1.073 c 0.037,0.668 -0.005,0.727 -0.425,0.764 v 0.208 h 1.248 l 0.93,-2.104 0.813,2.104 h 1.291"
       style="fill:#0e2b58;fill-opacity:1;fill-rule:nonzero;stroke:none;stroke-width:0.1"
       id="path222" />
    <path
       d="m 82.039002,210.40101 c 0,-0.574 0.043,-0.611 0.409,-0.643 v -0.207 h -1.721 v 0.207 c 0.367,0.032 0.409,0.069 0.409,0.643 v 1.753 c 0,0.573 -0.042,0.611 -0.409,0.642 v 0.208 h 1.721 v -0.208 c -0.366,-0.031 -0.409,-0.069 -0.409,-0.642 v -1.753"
       style="fill:#0e2b58;fill-opacity:1;fill-rule:nonzero;stroke:none;stroke-width:0.1"
       id="path224" />
    <path
       d="m 85.991002,209.51401 h -0.457 l -1.965,2.507 h -0.011 v -0.977 c 0,-0.558 0.022,-0.85 0.043,-1.014 0.027,-0.187 0.169,-0.256 0.521,-0.272 v -0.207 h -1.322 v 0.207 c 0.233,0.011 0.371,0.085 0.397,0.272 0.022,0.164 0.042,0.456 0.042,1.014 v 0.977 c 0,0.392 -0.01,0.462 -0.116,0.611 -0.08,0.111 -0.213,0.148 -0.403,0.164 v 0.208 h 1.173 l 1.769,-2.205 h 0.011 v 0.712 c 0,0.558 -0.022,0.849 -0.043,1.015 -0.027,0.185 -0.17,0.254 -0.521,0.27 v 0.208 h 1.355 v -0.208 c -0.265,-0.01 -0.405,-0.085 -0.43,-0.27 -0.021,-0.166 -0.043,-0.457 -0.043,-1.015 v -1.997"
       style="fill:#0e2b58;fill-opacity:1;fill-rule:nonzero;stroke:none;stroke-width:0.1"
       id="path226" />
    <path
       d="m 87.537002,210.91101 h 0.68 l -0.335,1.015 h -0.016 z m 0.674,-1.153 0.16,0.022 c 0.196,0.025 0.207,0.079 0.138,0.271 l -0.192,0.541 h -0.871 l -0.159,-0.51 c -0.069,-0.229 -0.069,-0.281 0.175,-0.308 l 0.154,-0.016 v -0.207 h -1.237 v 0.207 c 0.27,0.037 0.35,0.059 0.526,0.505 l 1.063,2.746 0.366,0.074 0.36,-1.004 c 0.23,-0.632 0.457,-1.259 0.659,-1.801 0.17,-0.461 0.266,-0.488 0.527,-0.52 v -0.207 h -1.669 v 0.207"
       style="fill:#0e2b58;fill-opacity:1;fill-rule:nonzero;stroke:none;stroke-width:0.1"
       id="path228" />
    <path
       d="m 80.271002,204.02701 c 0,-0.573 0.043,-0.611 0.489,-0.643 v -0.207 h -1.859 v 0.207 c 0.425,0.032 0.467,0.07 0.467,0.643 v 2.327 h -0.09 c -0.355,0 -0.499,-0.065 -0.585,-0.16 -0.062,-0.08 -0.127,-0.218 -0.196,-0.515 h -0.223 c 0.022,0.446 0.053,0.812 0.064,1.083 h 0.164 c 0.081,-0.121 0.134,-0.132 0.277,-0.132 h 2.118 c 0.139,0 0.165,0.032 0.25,0.132 h 0.165 c 0.006,-0.223 0.033,-0.674 0.058,-1.067 l -0.233,-0.016 c -0.08,0.318 -0.138,0.456 -0.217,0.547 -0.091,0.096 -0.267,0.128 -0.521,0.128 h -0.128 v -2.327"
       style="fill:#0e2b58;fill-opacity:1;fill-rule:nonzero;stroke:none;stroke-width:0.1"
       id="path230" />
    <path
       d="m 83.053002,204.02701 c 0,-0.573 0.042,-0.611 0.409,-0.643 v -0.207 h -1.721 v 0.207 c 0.366,0.032 0.408,0.07 0.408,0.643 v 1.753 c 0,0.574 -0.042,0.611 -0.408,0.643 v 0.207 h 1.721 v -0.207 c -0.367,-0.032 -0.409,-0.069 -0.409,-0.643 v -1.753"
       style="fill:#0e2b58;fill-opacity:1;fill-rule:nonzero;stroke:none;stroke-width:0.1"
       id="path232" />
    <path
       d="m 84.893002,205.03701 c 0,-0.962 0.361,-1.664 0.881,-1.664 0.458,0 0.707,0.442 0.707,1.403 0,1.068 -0.382,1.657 -0.84,1.657 -0.408,0 -0.748,-0.467 -0.748,-1.396 z m 2.577,-0.091 c 0,-1.137 -0.777,-1.848 -1.795,-1.848 -1.074,0 -1.77,0.781 -1.77,1.758 0,0.86 0.573,1.854 1.843,1.854 0.973,0 1.722,-0.713 1.722,-1.764"
       style="fill:#0e2b58;fill-opacity:1;fill-rule:nonzero;stroke:none;stroke-width:0.1"
       id="path234" />
    <path
       d="m 81.840002,200.25601 v -0.207 c -0.405,-0.037 -0.425,-0.059 -0.41,-0.617 l 0.053,-1.779 c 0.016,-0.589 0.027,-0.606 0.409,-0.643 v -0.207 h -1.663 v 0.207 c 0.399,0.037 0.415,0.054 0.41,0.643 l -0.016,1.87 h -0.022 l -1.025,-2.661 h -0.286 l -0.973,2.475 h -0.011 l -0.037,-1.18 c -0.015,-0.456 -0.01,-0.711 0.011,-0.875 0.022,-0.197 0.138,-0.245 0.484,-0.272 v -0.207 h -1.313 v 0.207 c 0.256,0.022 0.356,0.075 0.388,0.272 0.027,0.164 0.058,0.446 0.085,0.929 l 0.058,1.073 c 0.037,0.669 -0.005,0.728 -0.425,0.765 v 0.207 h 1.249 l 0.93,-2.103 0.813,2.103 h 1.291"
       style="fill:#0e2b58;fill-opacity:1;fill-rule:nonzero;stroke:none;stroke-width:0.1"
       id="path236" />
    <path
       d="m 82.661002,199.40701 c 0,0.573 -0.042,0.61 -0.397,0.642 v 0.207 h 2.517 c 0.005,-0.091 0.032,-0.478 0.059,-0.876 l -0.234,-0.016 c -0.053,0.26 -0.112,0.408 -0.197,0.493 -0.084,0.091 -0.261,0.123 -0.542,0.123 h -0.09 c -0.202,0 -0.212,0 -0.212,-0.186 v -1.025 h 0.265 c 0.457,0 0.473,0.032 0.526,0.435 h 0.234 v -1.253 h -0.234 c -0.053,0.467 -0.069,0.499 -0.526,0.499 h -0.265 v -0.866 c 0,-0.276 0.01,-0.408 0.106,-0.456 0.086,-0.043 0.207,-0.048 0.372,-0.048 0.212,0 0.446,0.032 0.563,0.159 0.09,0.095 0.18,0.291 0.26,0.547 l 0.234,-0.037 c -0.027,-0.26 -0.138,-0.802 -0.186,-0.946 h -2.703 v 0.207 c 0.408,0.033 0.45,0.07 0.45,0.643 v 1.754"
       style="fill:#0e2b58;fill-opacity:1;fill-rule:nonzero;stroke:none;stroke-width:0.1"
       id="path238" />
    <path
       d="m 86.290002,198.16301 h 0.68 l -0.335,1.015 h -0.016 z m 0.675,-1.153 0.159,0.022 c 0.196,0.026 0.207,0.08 0.138,0.271 l -0.192,0.541 h -0.87 l -0.16,-0.51 c -0.069,-0.228 -0.069,-0.281 0.175,-0.308 l 0.154,-0.016 v -0.207 h -1.237 v 0.207 c 0.27,0.037 0.351,0.059 0.526,0.506 l 1.063,2.745 0.366,0.075 0.36,-1.004 c 0.23,-0.633 0.457,-1.259 0.659,-1.802 0.17,-0.461 0.266,-0.487 0.527,-0.52 v -0.207 h -1.668 v 0.207"
       style="fill:#0e2b58;fill-opacity:1;fill-rule:nonzero;stroke:none;stroke-width:0.1"
       id="path240" />
    <path
       d="m 68.039002,154.07 c 0,-0.768 -0.622,-1.39 -1.39,-1.39 -0.766,0 -1.388,0.622 -1.388,1.39 0,0.767 0.622,1.389 1.388,1.389 0.768,0 1.39,-0.622 1.39,-1.389"
       style="fill:#0e2b58;fill-opacity:1;fill-rule:nonzero;stroke:none;stroke-width:0.1"
       id="path242" />
    <path
       d="m 82.126002,151.759 c 0,-0.768 -0.622,-1.389 -1.389,-1.389 -0.766,0 -1.389,0.621 -1.389,1.389 0,0.767 0.623,1.388 1.389,1.388 0.767,0 1.389,-0.621 1.389,-1.388"
       style="fill:#0e2b58;fill-opacity:1;fill-rule:nonzero;stroke:none;stroke-width:0.1"
       id="path244" />
    <path
       d="m 28.145005,229.82301 v 0 0"
       style="fill:#0e2b58;fill-opacity:1;fill-rule:nonzero;stroke:none;stroke-width:0.1"
       id="path246" />
    <path
       d="m 86.515002,254.92801 v 0 0"
       style="fill:#0e2b58;fill-opacity:1;fill-rule:nonzero;stroke:none;stroke-width:0.1"
       id="path248" />
    <path
       d="m 108.931,227.32501 v 0 0"
       style="fill:#0e2b58;fill-opacity:1;fill-rule:nonzero;stroke:none;stroke-width:0.1"
       id="path250" />
    <path
       d="m 119.733,182.14901 v 0 0"
       style="fill:#0e2b58;fill-opacity:1;fill-rule:nonzero;stroke:none;stroke-width:0.1"
       id="path252" />
    <path
       d="m 74.164002,252.15001 c 0,-0.767 -0.622,-1.388 -1.389,-1.388 -0.767,0 -1.389,0.621 -1.389,1.388 0,0.768 0.622,1.389 1.389,1.389 0.767,0 1.389,-0.621 1.389,-1.389"
       style="fill:#0e2b58;fill-opacity:1;fill-rule:nonzero;stroke:none;stroke-width:0.1"
       id="path254" />
    <path
       d="m 107.222,239.14701 c -0.034,-0.766 -0.68,-1.361 -1.447,-1.328 -0.766,0.031 -1.361,0.68 -1.329,1.446 0.031,0.765 0.68,1.36 1.445,1.327 0.767,-0.032 1.363,-0.679 1.331,-1.445"
       style="fill:#0e2b58;fill-opacity:1;fill-rule:nonzero;stroke:none;stroke-width:0.1"
       id="path256" />
    <path
       d="m 37.554005,179.51801 c 0.532997,-0.768 0.801997,-1.59 0.800997,-2.441 -0.002,-0.971 -0.327,-1.758 -2.062997,-2.961 l -5.016,-3.575 -0.924,1.329 c 0,0 5.139,3.659 5.223,3.717 0.886,0.612 1.264,1.06 1.266,1.762 0,0.445 -0.163,0.93 -0.485,1.392 -0.502,0.724 -1.146,0.955 -1.715,0.956 -0.515,0 -1.071,-0.361 -2.058,-1.05 l -4.718,-3.2 -0.905,1.304 4.488,3.041 c 1.249,0.877 2.244,1.479 3.168,1.477 1.349,-0.002 2.333,-0.88 2.938,-1.751"
       style="fill:#0e2b58;fill-opacity:1;fill-rule:nonzero;stroke:none;stroke-width:0.1"
       id="path258" />
    <path
       d="m 21.524005,189.31201 9.544,3.346 0.528,-1.446 -5.46,-6.67 6.899,2.729 0.514,-1.408 -9.433,-3.623 -0.527,1.446 5.486,6.678 -7.037,-2.462 -0.514,1.41"
       style="fill:#0e2b58;fill-opacity:1;fill-rule:nonzero;stroke:none;stroke-width:0.1"
       id="path260" />
    <path
       d="m 20.097005,196.91001 9.989,1.482 0.236,-1.6 -9.989,-1.481 -0.236,1.599"
       style="fill:#0e2b58;fill-opacity:1;fill-rule:nonzero;stroke:none;stroke-width:0.1"
       id="path262" />
    <path
       d="m 19.801005,208.95301 0.039,1.676 9.968,-4.051 -0.07,-1.663 -10.237,-3.053 0.011,1.679 8.3,2.326 -8.011,3.086"
       style="fill:#0e2b58;fill-opacity:1;fill-rule:nonzero;stroke:none;stroke-width:0.1"
       id="path264" />
    <path
       d="m 27.120005,228.48601 c 0.592,1.077 1.014,1.485 1.64,1.482 0.232,0 0.524,-0.058 0.819,-0.22 0.378,-0.21 0.668,-0.559 0.775,-0.934 0.042,-0.146 0.061,-0.291 0.059,-0.436 -0.005,-0.6 -0.339,-1.203 -0.69,-1.834 l -0.206,-0.374 -2.845,1.528 z m 1.796,3.06 c -1.427,-0.002 -2.087,-0.819 -2.998,-2.465 l -1.186,-2.125 8.896,-4.827 0.768,1.389 -3.697,2.017 0.216,0.4 c 0.622,1.125 0.837,1.296 2.424,1.162 l 2.881,-0.256 0.823,1.493 -3.32,0.283 c -0.667,0.062 -1.194,0.111 -1.62,-0.013 -0.142,-0.041 -0.313,-0.128 -0.477,-0.244 0.038,0.181 0.106,0.356 0.108,0.539 0.002,0.285 -0.039,0.566 -0.124,0.823 -0.193,0.593 -0.616,1.073 -1.256,1.428 -0.477,0.263 -0.955,0.397 -1.438,0.396"
       style="fill:#0e2b58;fill-opacity:1;fill-rule:nonzero;stroke:none;stroke-width:0.1"
       id="path266" />
    <path
       d="m 39.968002,245.81701 1.286,0.981 6.128,-8.026 -1.285,-0.981 -6.129,8.026"
       style="fill:#0e2b58;fill-opacity:1;fill-rule:nonzero;stroke:none;stroke-width:0.1"
       id="path268" />
    <path
       d="m 45.514002,249.75501 6.532,3.4 0.637,-1.225 -2.542,-1.324 4.026,-7.733 -1.434,-0.746 -4.026,7.732 -2.556,-1.331 -0.637,1.227"
       style="fill:#0e2b58;fill-opacity:1;fill-rule:nonzero;stroke:none;stroke-width:0.1"
       id="path270" />
    <path
       d="m 61.809002,256.22701 1.704,0.475 -1.373,-6.756 1.111,-3.836 -1.54,-0.444 -1.085,3.807 -4.794,5.003 1.659,0.481 3.451,-3.595 0.867,4.865"
       style="fill:#0e2b58;fill-opacity:1;fill-rule:nonzero;stroke:none;stroke-width:0.1"
       id="path272" />
    <path
       d="m 92.622002,242.42201 5.128,8.699 4.823998,-2.841 -0.701,-1.191 -3.444998,2.03 -1.418,-2.407 3.242998,-1.91 -0.685998,-1.165 -3.243,1.911 -2.32,-3.94 -1.382,0.814"
       style="fill:#0e2b58;fill-opacity:1;fill-rule:nonzero;stroke:none;stroke-width:0.1"
       id="path274" />
    <path
       d="m 118.57,219.92601 3.676,4.4 0.573,-1.742 -2.738,-3.133 4.067,-0.913 0.539,-1.641 -5.563,1.346 -3.952,-4.736 -0.563,1.712 2.983,3.477 -4.46,1.017 -0.543,1.657 5.981,-1.444"
       style="fill:#0e2b58;fill-opacity:1;fill-rule:nonzero;stroke:none;stroke-width:0.1"
       id="path276" />
    <path
       d="m 115.682,210.00401 10.067,0.821 0.456,-5.583 -1.379,-0.112 -0.324,3.985 -2.784,-0.227 0.305,-3.751 -1.346,-0.11 -0.307,3.751 -4.557,-0.371 -0.131,1.597"
       style="fill:#0e2b58;fill-opacity:1;fill-rule:nonzero;stroke:none;stroke-width:0.1"
       id="path278" />
    <path
       d="m 120.929,193.30501 c -1.966,0 -4.264,1.072 -4.264,3.055 0,0.718 0.249,1.683 1.138,2.328 0.599,0.436 1.378,0.668 2.251,0.668 1.002,0 2.808,-0.283 3.756,-1.59 0.326,-0.45 0.493,-0.972 0.491,-1.531 0,-0.773 -0.316,-1.692 -1.145,-2.293 -0.587,-0.425 -1.359,-0.637 -2.227,-0.637 z m -0.795,7.695 c -1.167,0 -2.24,-0.315 -3.087,-0.931 -1.525,-1.104 -1.802,-2.691 -1.802,-3.619 0,-3.414 3.208,-4.779 5.617,-4.779 1.157,-0.002 2.216,0.313 3.051,0.918 1.701,1.232 1.794,3.083 1.794,3.679 0,2.979 -2.739,4.732 -5.573,4.732"
       style="fill:#0e2b58;fill-opacity:1;fill-rule:nonzero;stroke:none;stroke-width:0.1"
       id="path280" />
    <path
       d="m 112.7,226.38901 c -0.906,0 -1.725,0.38 -2.289,1.271 -0.288,0.453 -0.428,0.942 -0.43,1.438 -0.005,1.141 0.718,2.313 2.042,3.155 0.877,0.556 1.738,0.829 2.508,0.826 0.973,0 1.766,-0.429 2.295,-1.263 0.312,-0.491 0.454,-1.015 0.454,-1.538 0,-1.115 -0.706,-2.208 -1.985,-3.019 -0.898,-0.569 -1.801,-0.87 -2.595,-0.87 z m 1.572,8.227 c -1.02,0 -2.107,-0.324 -3.155,-0.988 -1.94,-1.232 -2.647,-2.994 -2.647,-4.281 0,-0.833 0.229,-1.651 0.705,-2.401 1.077,-1.7 2.693,-2.115 3.785,-2.11 1.043,0.005 2.142,0.35 3.179,1.009 1.25,0.792 2.639,2.264 2.639,4.257 0,0.828 -0.236,1.642 -0.713,2.396 -0.884,1.393 -2.269,2.118 -3.793,2.118"
       style="fill:#0e2b58;fill-opacity:1;fill-rule:nonzero;stroke:none;stroke-width:0.1"
       id="path282" />
    <path
       d="m 86.202002,246.40901 c -0.73,0 -1.787,0.357 -2.377,1.435 -0.285,0.522 -0.413,1.156 -0.413,1.811 0,1.809 1.205,4.346 3.406,4.346 1.235,0 2.787,-0.92 2.787,-3.203 0,-1.456 -1.025,-4.389 -3.403,-4.389 z m 0.52,9.006 c -2.105,0 -3.937,-1.417 -4.676,-3.935 -0.164,-0.558 -0.268,-1.113 -0.268,-1.649 0,-1.009 0.17,-1.807 0.582,-2.562 0.935,-1.709 2.645,-2.291 3.945,-2.291 0.733,0 1.441,0.168 2.089,0.522 1.704,0.932 2.829,3.094 2.829,5.164 0,0.898 -0.174,1.745 -0.573,2.469 -0.82,1.49 -2.339,2.282 -3.928,2.282"
       style="fill:#0e2b58;fill-opacity:1;fill-rule:nonzero;stroke:none;stroke-width:0.1"
       id="path284" />
    <path
       d="m 30.788005,218.79201 1.356,-0.383 -1.531,-5.547 -9.772,2.679 1.669,5.612 1.328,-0.376 -1.226,-4.043 2.694,-0.74 1.04,3.673 1.299,-0.369 -1.035,-3.661 3.048,-0.837 1.13,3.992"
       style="fill:#0e2b58;fill-opacity:1;fill-rule:nonzero;stroke:none;stroke-width:0.1"
       id="path286" />
    <path
       d="m 33.350005,239.89001 c 1.404,1.572 2.838,1.464 2.838,1.464 l 0.245,-1.332 c 0,0 -1.106,-0.036 -1.972,-1.006 -0.377,-0.423 -0.567,-0.865 -0.567,-1.261 0,-0.328 0.127,-0.614 0.384,-0.843 0.7,-0.623 1.895,0.07 2.644,0.37 0.575,0.238 1.391997,0.571 2.209997,0.571 0.61,0 1.24,-0.173 1.817,-0.688 0.672,-0.601 1.009,-1.354 1.009,-2.146 0,-0.858 -0.333,-1.62 -1.004,-2.371 -1.288,-1.443 -3.02,-1.6 -3.02,-1.6 l -0.343997,1.351 c 1.020997,0.236 1.792997,0.628 2.260997,1.154 0.369,0.412 0.55,0.874 0.55,1.28 0,0.381 -0.159,0.736 -0.471,1.015 -0.252,0.225 -0.56,0.306 -0.894,0.299 -0.649,0 -1.425997,-0.371 -2.066997,-0.638 -1.227,-0.506 -2.521,-0.915 -3.679,0.12 -0.59,0.526 -0.903,1.188 -0.903,1.924 0,0.777 0.307,1.602 0.963,2.337"
       style="fill:#0e2b58;fill-opacity:1;fill-rule:nonzero;stroke:none;stroke-width:0.1"
       id="path288" />
    <path
       d="m 118.963,181.94401 c -0.456,-0.002 -1.229,0.261 -1.521,1.014 -0.074,0.191 -0.104,0.384 -0.102,0.581 0.005,0.552 0.267,1.127 0.536,1.731 l 0.172,0.389 2.911,-1.308 -0.322,-0.78 c -0.544,-1.234 -0.896,-1.626 -1.674,-1.627 z m -5.962,5.988 3.816,-1.727 -0.188,-0.43 c -0.52,-1.175 -0.719,-1.366 -2.311,-1.373 l -2.891,-0.002 -0.69,-1.559 3.333,0.011 c 0.675,0 1.2,-0.001 1.611,0.157 0.133,0.052 0.286,0.136 0.425,0.25 -0.008,-0.087 -0.038,-0.171 -0.039,-0.257 -0.003,-0.371 0.066,-0.739 0.205,-1.061 0.456,-1.067 1.701,-1.589 2.611,-1.587 1.607,0.002 2.221,0.963 3.002,2.731 0.029,0.066 0.938,2.164 0.938,2.164 l -9.182,4.136 -0.64,-1.453"
       style="fill:#0e2b58;fill-opacity:1;fill-rule:nonzero;stroke:none;stroke-width:0.1"
       id="path290" />
    <path
       d="m 111.281,170.77601 c -0.803,0 -1.556,0.309 -2.34,0.935 -0.795,0.635 -1.637,1.624 -1.637,2.886 0,0.877 0.476,1.713 1.208,2.631 l 0.669,0.838 5.767,-4.603 -0.44,-0.552 c -1.072,-1.342 -1.802,-2.135 -3.227,-2.135 z m -3.599,7.603 c -1.047,-1.311 -1.841,-2.483 -1.841,-3.998 0,-1.285 0.584,-2.747 2.06,-3.926 0.979,-0.78201 2.086,-1.20601 3.227,-1.20601 1.405,0 2.532,0.422 4.281,2.61501 l 1.596,2.006 -7.892,6.301 -1.431,-1.792"
       style="fill:#0e2b58;fill-opacity:1;fill-rule:nonzero;stroke:none;stroke-width:0.1"
       id="path292" />
    <path
       d="m 106.743,159.169 c -9.397998,-3.325 -18.170998,-3.097 -25.652998,-1.425 0.245,3.342 1.626,6.914 3.742,7.578 16.480998,5.11201 28.484998,20.47801 28.484998,38.58801 0,22.276 -18.156998,40.398 -40.472998,40.398 -22.318,0 -40.473997,-18.122 -40.473997,-40.398 0,-12.392 5.787997,-24.163 15.530997,-31.796 -2.313,-1.017 -4.287,-2.66101 -5.714,-4.70901 -0.739,0.503 -1.451,1.025 -2.11,1.566 l -0.368,-0.369 c 0.441,-0.532 1.124,-1.235 1.946,-2.022 -1.2,-2.018 -1.894,-4.367 -1.894,-6.879 0,-0.391 0.026,-0.776 0.058,-1.159 -14.499997,10.568 -23.114997,27.36701 -23.114997,45.36801 0,30.954 25.184997,56.136 56.139997,56.136 30.954998,0 56.138998,-25.182 56.138998,-56.136 0,-17.73 -8.106,-34.01901 -22.24,-44.74101 z M 74.175002,145.918 c -7.757,0 -17.438,2.637 -24.09,6.561 -2.016,1.189 -4.418,3.4 -4.418,7.181 0,1.02 0.2,1.994 0.554,2.89 2.482,-2.053 5.049,-3.977 6.659,-4.858 0.37,-0.203 0.584,-0.302 1.015,-0.302 1.033,0 1.87,0.841 1.87,1.878 0,0.793 -0.429,1.436 -1.14,1.746 -1.375,0.602 -4.255,1.792 -7.355,3.399 1.433,1.892 3.692,3.121 6.236,3.121 1.163,0 2.283,-0.249 3.327,-0.742 l 2.126,-1.239 c 6.76,-4.129 24.151,-14.717 45.148998,-8.899 -7.969998,-7.192 -17.786998,-10.736 -29.932998,-10.736 z m 6.648,-4.725 c -2.133,0 -3.883,-1.51 -3.883,-3.827 0,-2.267 1.774,-3.826 3.883,-3.826 0.321,0 0.627,0.054 0.924,0.132 -0.445,-3.208 -4.181,-6.799 -9,-8.412 -4.781,1.599 -8.516,5.217 -9.01,8.408 0.295,-0.075 0.6,-0.128 0.919,-0.128 2.3,0 3.882,1.61 3.882,3.826 0,2.113 -1.659,3.771 -3.799,3.818 0.653,1.194 1.279,2.462 1.742,3.824 2.652,-0.461 5.264,-0.714 7.694,-0.714 1.991,0 3.925,0.108 5.814,0.3 0.25,-1.095 0.623,-2.239 1.06,-3.421 -0.076,0.004 -0.149,0.02 -0.226,0.02 z m -27.44,30.45401 c 3.99,0 7.724,-2.04701 9.914,-5.32601 -1.917,0.486 -3.8,1.119 -5.637,1.902 l -0.006,-0.011 -0.059,0.034 c -1.285,0.605 -2.66,0.912 -4.089,0.912 -3.18,0 -5.993,-1.559 -7.731,-3.943 -0.732,0.405 -1.463,0.831 -2.18,1.277 2.152,3.11 5.734,5.15501 9.788,5.15501 z m 15.798,-7.96401 c -0.494,-0.367 -0.89,-0.806 -1.172,-1.289 -1.464,0.71 -3.304,1.627 -4.506,2.3 1.703,-0.377 3.928,-0.855 5.678,-1.011 z m 12.287,0.762 c -1.162,-1.658 -1.854,-3.964 -2.06,-6.298 -3.669,0.946 -6.998,2.216 -9.901,3.54 0.551,1.069 2.132,1.825 3.337,1.825 2.96,0 5.842,0.328 8.624,0.933 z m -8.624,0.691 c -2.479,0 -4.92,0.239 -7.313,0.696 -2.308,4.52601 -7.038,7.43901 -12.148,7.43901 -1.256,0 -2.466,-0.184 -3.621,-0.502 -9.823,7.299 -15.680997,18.906 -15.680997,31.141 0,21.38 17.388997,38.774 38.762997,38.774 21.373,0 38.761998,-17.394 38.761998,-38.774 0,-21.38 -17.388998,-38.77401 -38.761998,-38.77401 z m -19.461,-17.379 c -6.569,0 -11.911,5.357 -11.911,11.944 0,2.063 0.524,4.006 1.447,5.702 0.613,-0.557 1.268,-1.135 1.949,-1.718 -0.579,-1.224 -0.912,-2.585 -0.912,-4.025 0,-3.583 1.808,-6.543 5.226,-8.56 1.963,-1.158 4.186,-2.203 6.54,-3.113 -0.765,-0.152 -1.546,-0.23 -2.339,-0.23 z M 130.694,203.91001 c 0,31.849 -25.952,57.76 -57.849998,57.76 -31.899,0 -57.850997,-25.911 -57.850997,-57.76 0,-19.107 9.435,-36.91601 25.242997,-47.70801 1.555,-5.788 6.851,-10.069 13.147,-10.069 1.702,0 3.352,0.321 4.921,0.928 2.117,-0.699 4.303,-1.278 6.484,-1.727 -0.613,-1.754 -1.511,-3.417 -2.364,-4.855 0,0 0.018,0.004 0.047,0.01 -0.016,-0.011 -0.034,-0.019 -0.049,-0.03 l 1.205,-1.205 c 0.307,0.168 0.654,0.273 1.029,0.273 1.191,0 2.159,-0.969 2.159,-2.161 0,-1.19 -0.968,-2.16 -2.159,-2.16 -1.04,0 -1.952,0.667 -2.43,1.379 0,0 -0.281,-0.971 -0.281,-2.252 -0.008,-4.15 4.521,-8.889 10.802,-10.888 6.275,1.953 10.805,6.728 10.802,10.881 0,1.429 -0.282,2.259 -0.282,2.259 -0.483,-0.58 -1.264,-1.379 -2.444,-1.379 -1.191,0 -2.16,0.97 -2.16,2.16 0,1.192 0.969,2.161 2.16,2.161 0.417,0 0.804,-0.125 1.135,-0.331 l 1.169,1.169 c 0.027,-0.007 0.044,-0.011 0.044,-0.011 -0.661,1.581 -1.144,3.035 -1.473,4.431 10.402,1.401 19.177998,5.803 26.156998,13.14 l -0.006,0.007 c 14.519,11.032 22.845,27.76801 22.845,45.97801"
       style="fill:#0e2b58;fill-opacity:1;fill-rule:nonzero;stroke:none;stroke-width:0.1"
       id="path294" />
  </g>
</svg>
