<?xml version="1.0" encoding="utf-8" standalone="no"?>
<!DOCTYPE svg PUBLIC "-//W3C//DTD SVG 1.1//EN"
  "http://www.w3.org/Graphics/SVG/1.1/DTD/svg11.dtd">
<svg xmlns:xlink="http://www.w3.org/1999/xlink" width="360pt" height="164.88pt" viewBox="0 0 360 164.88" xmlns="http://www.w3.org/2000/svg" version="1.1">
 <metadata>
  <rdf:RDF xmlns:dc="http://purl.org/dc/elements/1.1/" xmlns:cc="http://creativecommons.org/ns#" xmlns:rdf="http://www.w3.org/1999/02/22-rdf-syntax-ns#">
   <cc:Work>
    <dc:type rdf:resource="http://purl.org/dc/dcmitype/StillImage"/>
    <dc:date>2022-08-20T23:36:42.902330</dc:date>
    <dc:format>image/svg+xml</dc:format>
    <dc:creator>
     <cc:Agent>
      <dc:title>Matplotlib v3.5.3, https://matplotlib.org/</dc:title>
     </cc:Agent>
    </dc:creator>
   </cc:Work>
  </rdf:RDF>
 </metadata>
 <defs>
  <style type="text/css">*{stroke-linejoin: round; stroke-linecap: butt}</style>
 </defs>
 <g id="figure_1">
  <g id="patch_1">
   <path d="M 0 164.88 
L 360 164.88 
L 360 0 
L 0 0 
L 0 164.88 
z
" style="fill: none"/>
  </g>
  <g id="axes_1">
   <g id="patch_2">
    <path d="M 10.8 119.625625 
L 174.6 119.625625 
L 174.6 10.8 
L 10.8 10.8 
L 10.8 119.625625 
z
" style="fill: none"/>
   </g>
   <g id="matplotlib.axis_1">
    <g id="xtick_1">
     <g id="line2d_1">
      <defs>
       <path id="m02d6484230" d="M 0 0 
L 0 5 
" style="stroke: #000000; stroke-width: 1.3"/>
      </defs>
      <g>
       <use xlink:href="#m02d6484230" x="150.218682" y="119.625625" style="stroke: #000000; stroke-width: 1.3"/>
      </g>
     </g>
     <g id="text_1">
      <!-- 3.8 -->
      <g transform="translate(143.768682 135.625625)scale(0.1 -0.1)">
       <defs>
        <path id="FiraSans-Regular-33" d="M 1440 4346 
C 979 4346 582 4179 218 3840 
L 525 3488 
C 813 3757 1069 3872 1408 3872 
C 1837 3872 2118 3622 2118 3219 
C 2118 2720 1766 2464 1344 2464 
L 1126 2464 
L 1056 2010 
L 1376 2010 
C 1894 2010 2227 1830 2227 1242 
C 2227 736 1901 403 1363 403 
C 1018 403 730 531 448 826 
L 96 499 
C 422 109 870 -77 1382 -77 
C 2272 -77 2842 486 2842 1235 
C 2842 1882 2413 2221 1875 2272 
C 2355 2387 2707 2714 2707 3258 
C 2707 3834 2259 4346 1440 4346 
z
" transform="scale(0.015625)"/>
        <path id="FiraSans-Regular-2e" d="M 762 813 
C 512 813 320 614 320 371 
C 320 122 512 -77 762 -77 
C 1018 -77 1210 122 1210 371 
C 1210 614 1018 813 762 813 
z
" transform="scale(0.015625)"/>
        <path id="FiraSans-Regular-38" d="M 2336 2298 
C 2822 2541 3066 2829 3066 3264 
C 3066 3994 2406 4346 1766 4346 
C 1114 4346 467 3968 467 3245 
C 467 2803 672 2477 1133 2246 
C 608 2016 288 1683 288 1133 
C 288 429 870 -77 1754 -77 
C 2624 -77 3238 429 3238 1146 
C 3238 1683 2925 2061 2336 2298 
z
M 1766 3904 
C 2234 3904 2490 3642 2490 3245 
C 2490 2880 2330 2656 1946 2438 
L 1837 2477 
C 1344 2637 1043 2797 1043 3238 
C 1043 3667 1325 3904 1766 3904 
z
M 1760 390 
C 1229 390 902 666 902 1133 
C 902 1600 1107 1894 1530 2099 
L 1690 2042 
C 2381 1805 2624 1600 2624 1139 
C 2624 691 2298 390 1760 390 
z
" transform="scale(0.015625)"/>
       </defs>
       <use xlink:href="#FiraSans-Regular-33"/>
       <use xlink:href="#FiraSans-Regular-2e" x="49.899994"/>
       <use xlink:href="#FiraSans-Regular-38" x="73.899979"/>
      </g>
     </g>
    </g>
    <g id="xtick_2">
     <g id="line2d_2">
      <g>
       <use xlink:href="#m02d6484230" x="116.375875" y="119.625625" style="stroke: #000000; stroke-width: 1.3"/>
      </g>
     </g>
     <g id="text_2">
      <!-- 4.0 -->
      <g transform="translate(109.725875 135.625625)scale(0.1 -0.1)">
       <defs>
        <path id="FiraSans-Regular-34" d="M 3213 1523 
L 2656 1523 
L 2656 2675 
L 2144 2675 
L 2093 1523 
L 877 1523 
L 2035 4141 
L 1542 4346 
L 256 1478 
L 256 1056 
L 2086 1056 
L 2086 0 
L 2656 0 
L 2656 1056 
L 3213 1056 
L 3213 1523 
z
" transform="scale(0.015625)"/>
        <path id="FiraSans-Regular-30" d="M 1786 4346 
C 826 4346 352 3558 352 2138 
C 352 717 826 -77 1786 -77 
C 2746 -77 3219 717 3219 2138 
C 3219 3552 2746 4346 1786 4346 
z
M 1786 3878 
C 2317 3878 2605 3392 2605 2138 
C 2605 877 2317 390 1786 390 
C 1248 390 966 877 966 2138 
C 966 3392 1248 3878 1786 3878 
z
" transform="scale(0.015625)"/>
       </defs>
       <use xlink:href="#FiraSans-Regular-34"/>
       <use xlink:href="#FiraSans-Regular-2e" x="53.199997"/>
       <use xlink:href="#FiraSans-Regular-30" x="77.199982"/>
      </g>
     </g>
    </g>
    <g id="xtick_3">
     <g id="line2d_3">
      <g>
       <use xlink:href="#m02d6484230" x="82.533068" y="119.625625" style="stroke: #000000; stroke-width: 1.3"/>
      </g>
     </g>
     <g id="text_3">
      <!-- 4.2 -->
      <g transform="translate(76.197912 135.625625)scale(0.1 -0.1)">
       <defs>
        <path id="FiraSans-Regular-32" d="M 1459 4346 
C 922 4346 506 4128 160 3699 
L 557 3392 
C 832 3718 1069 3859 1427 3859 
C 1843 3859 2131 3597 2131 3149 
C 2131 2451 1760 2042 250 467 
L 250 0 
L 2778 0 
L 2848 493 
L 922 493 
C 2234 1805 2746 2374 2746 3174 
C 2746 3840 2246 4346 1459 4346 
z
" transform="scale(0.015625)"/>
       </defs>
       <use xlink:href="#FiraSans-Regular-34"/>
       <use xlink:href="#FiraSans-Regular-2e" x="53.199997"/>
       <use xlink:href="#FiraSans-Regular-32" x="77.199982"/>
      </g>
     </g>
    </g>
    <g id="xtick_4">
     <g id="line2d_4">
      <g>
       <use xlink:href="#m02d6484230" x="48.690261" y="119.625625" style="stroke: #000000; stroke-width: 1.3"/>
      </g>
     </g>
     <g id="text_4">
      <!-- 4.4 -->
      <g transform="translate(42.169948 135.625625)scale(0.1 -0.1)">
       <use xlink:href="#FiraSans-Regular-34"/>
       <use xlink:href="#FiraSans-Regular-2e" x="53.199997"/>
       <use xlink:href="#FiraSans-Regular-34" x="77.199982"/>
      </g>
     </g>
    </g>
    <g id="xtick_5">
     <g id="line2d_5">
      <g>
       <use xlink:href="#m02d6484230" x="14.847454" y="119.625625" style="stroke: #000000; stroke-width: 1.3"/>
      </g>
     </g>
     <g id="text_5">
      <!-- 4.6 -->
      <g transform="translate(8.322454 135.625625)scale(0.1 -0.1)">
       <defs>
        <path id="FiraSans-Regular-36" d="M 1971 2816 
C 1568 2816 1222 2650 941 2253 
C 973 3232 1344 3878 1965 3878 
C 2202 3878 2426 3814 2624 3693 
L 2854 4083 
C 2605 4250 2317 4346 1971 4346 
C 960 4346 352 3411 352 2010 
C 352 781 749 -77 1792 -77 
C 2547 -77 3155 518 3155 1453 
C 3155 2368 2598 2816 1971 2816 
z
M 1792 390 
C 1222 390 973 826 947 1760 
C 1165 2112 1485 2349 1869 2349 
C 2272 2349 2560 2112 2560 1434 
C 2560 806 2298 390 1792 390 
z
" transform="scale(0.015625)"/>
       </defs>
       <use xlink:href="#FiraSans-Regular-34"/>
       <use xlink:href="#FiraSans-Regular-2e" x="53.199997"/>
       <use xlink:href="#FiraSans-Regular-36" x="77.199982"/>
      </g>
     </g>
    </g>
    <g id="xtick_6">
     <g id="line2d_6">
      <defs>
       <path id="m5b7c6ebceb" d="M 0 0 
L 0 3 
" style="stroke: #000000; stroke-width: 1.3"/>
      </defs>
      <g>
       <use xlink:href="#m5b7c6ebceb" x="167.140085" y="119.625625" style="stroke: #000000; stroke-width: 1.3"/>
      </g>
     </g>
    </g>
    <g id="xtick_7">
     <g id="line2d_7">
      <g>
       <use xlink:href="#m5b7c6ebceb" x="158.679383" y="119.625625" style="stroke: #000000; stroke-width: 1.3"/>
      </g>
     </g>
    </g>
    <g id="xtick_8">
     <g id="line2d_8">
      <g>
       <use xlink:href="#m5b7c6ebceb" x="141.75798" y="119.625625" style="stroke: #000000; stroke-width: 1.3"/>
      </g>
     </g>
    </g>
    <g id="xtick_9">
     <g id="line2d_9">
      <g>
       <use xlink:href="#m5b7c6ebceb" x="133.297278" y="119.625625" style="stroke: #000000; stroke-width: 1.3"/>
      </g>
     </g>
    </g>
    <g id="xtick_10">
     <g id="line2d_10">
      <g>
       <use xlink:href="#m5b7c6ebceb" x="124.836576" y="119.625625" style="stroke: #000000; stroke-width: 1.3"/>
      </g>
     </g>
    </g>
    <g id="xtick_11">
     <g id="line2d_11">
      <g>
       <use xlink:href="#m5b7c6ebceb" x="107.915173" y="119.625625" style="stroke: #000000; stroke-width: 1.3"/>
      </g>
     </g>
    </g>
    <g id="xtick_12">
     <g id="line2d_12">
      <g>
       <use xlink:href="#m5b7c6ebceb" x="99.454471" y="119.625625" style="stroke: #000000; stroke-width: 1.3"/>
      </g>
     </g>
    </g>
    <g id="xtick_13">
     <g id="line2d_13">
      <g>
       <use xlink:href="#m5b7c6ebceb" x="90.993769" y="119.625625" style="stroke: #000000; stroke-width: 1.3"/>
      </g>
     </g>
    </g>
    <g id="xtick_14">
     <g id="line2d_14">
      <g>
       <use xlink:href="#m5b7c6ebceb" x="74.072366" y="119.625625" style="stroke: #000000; stroke-width: 1.3"/>
      </g>
     </g>
    </g>
    <g id="xtick_15">
     <g id="line2d_15">
      <g>
       <use xlink:href="#m5b7c6ebceb" x="65.611664" y="119.625625" style="stroke: #000000; stroke-width: 1.3"/>
      </g>
     </g>
    </g>
    <g id="xtick_16">
     <g id="line2d_16">
      <g>
       <use xlink:href="#m5b7c6ebceb" x="57.150963" y="119.625625" style="stroke: #000000; stroke-width: 1.3"/>
      </g>
     </g>
    </g>
    <g id="xtick_17">
     <g id="line2d_17">
      <g>
       <use xlink:href="#m5b7c6ebceb" x="40.229559" y="119.625625" style="stroke: #000000; stroke-width: 1.3"/>
      </g>
     </g>
    </g>
    <g id="xtick_18">
     <g id="line2d_18">
      <g>
       <use xlink:href="#m5b7c6ebceb" x="31.768857" y="119.625625" style="stroke: #000000; stroke-width: 1.3"/>
      </g>
     </g>
    </g>
    <g id="xtick_19">
     <g id="line2d_19">
      <g>
       <use xlink:href="#m5b7c6ebceb" x="23.308156" y="119.625625" style="stroke: #000000; stroke-width: 1.3"/>
      </g>
     </g>
    </g>
    <g id="text_6">
     <!-- $\rm ^{1}H$ (ppm) -->
     <g transform="translate(72.8 150.255313)scale(0.1 -0.1)">
      <defs>
       <path id="FiraSans-Regular-31" d="M 2067 4282 
L 1549 4282 
L 224 3462 
L 480 3046 
L 1478 3654 
L 1478 0 
L 2067 0 
L 2067 4282 
z
" transform="scale(0.015625)"/>
       <path id="FiraSans-Regular-48" d="M 3104 0 
L 3712 0 
L 3712 4410 
L 3104 4410 
L 3104 2566 
L 1248 2566 
L 1248 4410 
L 640 4410 
L 640 0 
L 1248 0 
L 1248 2067 
L 3104 2067 
L 3104 0 
z
" transform="scale(0.015625)"/>
       <path id="FiraSans-Regular-20" transform="scale(0.015625)"/>
       <path id="FiraSans-Regular-28" d="M 1446 5408 
C 819 4518 256 3757 256 2240 
C 256 723 819 -38 1446 -928 
L 1818 -672 
C 1242 179 870 870 870 2240 
C 870 3616 1242 4301 1818 5152 
L 1446 5408 
z
" transform="scale(0.015625)"/>
       <path id="FiraSans-Regular-70" d="M 2157 3450 
C 1773 3450 1408 3264 1158 2918 
L 1114 3373 
L 608 3373 
L 608 -1363 
L 1197 -1293 
L 1197 307 
C 1414 45 1715 -77 2080 -77 
C 2950 -77 3405 666 3405 1690 
C 3405 2752 3053 3450 2157 3450 
z
M 1939 403 
C 1632 403 1370 550 1197 813 
L 1197 2458 
C 1376 2726 1651 2982 2010 2982 
C 2515 2982 2771 2566 2771 1690 
C 2771 806 2477 403 1939 403 
z
" transform="scale(0.015625)"/>
       <path id="FiraSans-Regular-6d" d="M 3994 3450 
C 3539 3450 3232 3206 2989 2842 
C 2861 3226 2554 3450 2138 3450 
C 1696 3450 1389 3219 1165 2880 
L 1114 3373 
L 608 3373 
L 608 0 
L 1197 0 
L 1197 2394 
C 1421 2752 1626 2989 1990 2989 
C 2246 2989 2464 2842 2464 2336 
L 2464 0 
L 3053 0 
L 3053 2394 
C 3283 2752 3482 2989 3846 2989 
C 4102 2989 4320 2842 4320 2336 
L 4320 0 
L 4909 0 
L 4909 2419 
C 4909 3053 4544 3450 3994 3450 
z
" transform="scale(0.015625)"/>
       <path id="FiraSans-Regular-29" d="M 627 5408 
L 256 5152 
C 832 4301 1203 3616 1203 2240 
C 1203 870 832 179 256 -672 
L 627 -928 
C 1254 -38 1818 723 1818 2240 
C 1818 3757 1254 4518 627 5408 
z
" transform="scale(0.015625)"/>
      </defs>
      <use xlink:href="#FiraSans-Regular-31" transform="translate(0.922305 37.392187)scale(0.7)"/>
      <use xlink:href="#FiraSans-Regular-48" transform="translate(33.867452 0.5)"/>
      <use xlink:href="#FiraSans-Regular-20" transform="translate(101.867437 0.5)"/>
      <use xlink:href="#FiraSans-Regular-28" transform="translate(128.367422 0.5)"/>
      <use xlink:href="#FiraSans-Regular-70" transform="translate(160.767416 0.5)"/>
      <use xlink:href="#FiraSans-Regular-70" transform="translate(220.16741 0.5)"/>
      <use xlink:href="#FiraSans-Regular-6d" transform="translate(279.567404 0.5)"/>
      <use xlink:href="#FiraSans-Regular-29" transform="translate(365.267385 0.5)"/>
     </g>
    </g>
   </g>
   <g id="matplotlib.axis_2"/>
   <g id="line2d_20">
    <path d="M 18.245455 114.184313 
L 19.194446 114.269814 
L 19.462639 114.352784 
L 19.58642 114.433574 
L 19.730832 114.443785 
L 19.875244 114.512286 
L 20.122807 114.575928 
L 20.267218 114.561556 
L 20.41163 114.62034 
L 20.473521 114.679006 
L 20.514781 114.636815 
L 20.721084 114.503566 
L 21.071798 114.378898 
L 21.25747 114.364101 
L 21.587554 114.342631 
L 21.731966 114.395078 
L 21.752596 114.377864 
L 22.08268 114.216251 
L 22.350873 114.261351 
L 22.577805 114.196183 
L 22.887259 114.316403 
L 23.237973 114.295119 
L 23.77436 114.319222 
L 24.042553 114.387869 
L 24.207595 114.337427 
L 24.413897 114.372041 
L 24.785241 114.318464 
L 25.115325 114.071701 
L 25.259737 114.11163 
L 25.48667 114.31826 
L 25.713602 114.257216 
L 25.734233 114.289993 
L 25.837384 114.408574 
L 25.899275 114.366928 
L 26.807005 114.097318 
L 26.992677 114.03925 
L 27.095829 114.150883 
L 27.260871 114.260903 
L 27.776627 114.130347 
L 27.941669 114.08259 
L 28.127341 114.062218 
L 28.766878 114.351213 
L 28.870029 114.299874 
L 28.89066 114.324036 
L 28.993811 114.397329 
L 29.014441 114.371227 
L 29.179483 114.303612 
L 29.447676 114.33189 
L 29.612718 114.227748 
L 29.839651 114.130187 
L 30.396667 114.334223 
L 30.912423 113.934323 
L 31.44881 114.035771 
L 32.170868 114.246085 
L 32.33591 114.346899 
L 32.480322 114.398929 
L 32.500952 114.38254 
L 32.686624 114.386158 
L 34.00696 114.401941 
L 34.378304 114.376141 
L 34.646497 114.333115 
L 34.811539 114.301626 
L 35.162253 114.330432 
L 35.306665 114.304061 
L 35.389186 114.314177 
L 35.409816 114.344048 
L 35.574858 114.406508 
L 36.214396 114.493988 
L 36.730152 114.377471 
L 36.936454 114.431458 
L 38.029857 114.2953 
L 38.174269 114.318435 
L 38.380571 114.417277 
L 39.040739 114.413155 
L 39.288302 114.365429 
L 39.391453 114.296772 
L 39.618386 114.139478 
L 39.9691 114.223807 
L 40.154772 114.266866 
L 40.237293 114.261787 
L 40.257923 114.290007 
L 40.443596 114.470617 
L 40.464226 114.453319 
L 40.711789 114.325711 
L 40.897461 114.410042 
L 41.103763 114.444726 
L 41.475108 114.42131 
L 41.619519 114.525907 
L 41.64015 114.51106 
L 41.970234 114.317888 
L 42.155906 114.402198 
L 42.424099 114.316132 
L 42.609771 114.182152 
L 42.898594 114.133034 
L 43.104897 114.188736 
L 43.228678 114.330224 
L 43.41435 114.404365 
L 43.971367 114.065991 
L 44.1983 113.92836 
L 44.322081 113.805992 
L 44.569644 113.543247 
L 44.693426 113.476196 
L 45.10603 112.349876 
L 45.353593 110.434681 
L 45.518635 106.924421 
L 45.724938 96.88374 
L 45.88998 76.284736 
L 46.075652 37.496246 
L 46.137543 44.297248 
L 46.467626 99.429402 
L 46.694559 106.378665 
L 46.900861 107.807825 
L 47.024643 107.784435 
L 47.148424 106.607151 
L 47.292836 103.192214 
L 47.478508 93.215851 
L 47.62292 72.81831 
L 47.808592 28.253101 
L 47.870483 40.92618 
L 48.138676 94.647249 
L 48.283088 99.084459 
L 48.303718 98.956728 
L 48.427499 96.379772 
L 48.592541 84.89338 
L 48.736953 55.970326 
L 48.881365 15.746619 
L 48.922625 22.626704 
L 49.252709 96.231992 
L 49.479642 104.232139 
L 49.685944 105.632259 
L 49.809726 105.502044 
L 49.912877 104.531722 
L 50.057289 101.249731 
L 50.242961 91.26845 
L 50.408003 68.988977 
L 50.593675 32.320584 
L 50.634935 37.087845 
L 51.02691 100.610381 
L 51.274473 106.79887 
L 51.645817 109.848802 
L 52.120313 111.393305 
L 52.264725 111.630752 
L 52.305985 111.60584 
L 52.388506 111.553893 
L 52.429766 111.6233 
L 52.677329 112.121797 
L 52.69796 112.113741 
L 52.801111 111.975555 
L 52.842371 112.042956 
L 53.069304 112.345725 
L 53.399388 112.500366 
L 53.853253 113.176561 
L 54.45153 113.240158 
L 54.534051 113.219624 
L 54.554681 113.245436 
L 54.760984 113.378109 
L 55.029177 113.345677 
L 55.091068 113.294542 
L 55.132328 113.346485 
L 55.318 113.492391 
L 55.503673 113.501932 
L 55.648084 113.508941 
L 55.813126 113.682885 
L 56.081319 113.705629 
L 56.308252 113.699432 
L 56.473294 113.97549 
L 56.514555 113.956492 
L 56.927159 114.021246 
L 57.092201 114.012224 
L 57.463546 113.786066 
L 57.504806 113.896567 
L 57.566697 113.953401 
L 57.607957 113.889646 
L 57.669848 113.850911 
L 57.711109 113.901841 
L 57.917411 114.060981 
L 57.938041 114.040212 
L 58.041192 113.960867 
L 58.082453 114.004652 
L 58.206234 113.96171 
L 58.577579 114.060793 
L 58.804511 114.103788 
L 59.340898 113.948076 
L 60.145477 114.13091 
L 61.713376 114.065999 
L 61.857787 114.132999 
L 61.878418 114.110419 
L 62.06409 114.076757 
L 62.621106 114.067083 
L 62.765518 114.118136 
L 62.90993 114.109726 
L 63.178123 114.099098 
L 63.343165 114.11632 
L 64.354047 114.052472 
L 64.849173 114.149849 
L 65.055475 114.140704 
L 65.158626 114.272411 
L 65.220517 114.204741 
L 65.406189 114.172283 
L 65.839424 114.166721 
L 65.983836 114.183487 
L 66.148878 114.190317 
L 66.582113 114.204529 
L 66.726525 114.23402 
L 66.850306 114.183865 
L 67.077239 114.155006 
L 67.22165 114.060584 
L 67.345432 114.100365 
L 67.489844 114.011844 
L 67.675516 113.972445 
L 68.273793 114.150698 
L 68.768919 114.131721 
L 68.8927 114.107039 
L 69.511607 113.878876 
L 69.614759 113.877568 
L 69.635389 113.905373 
L 69.944842 114.103048 
L 70.171775 114.127635 
L 70.274926 114.153326 
L 70.295557 114.130512 
L 70.687531 113.771712 
L 70.708161 113.792705 
L 70.831943 113.910213 
L 70.893834 113.864798 
L 70.996985 113.975036 
L 71.182657 114.112403 
L 71.203287 114.095463 
L 71.347699 114.117371 
L 72.193539 113.949429 
L 72.420472 113.76328 
L 72.441102 113.784016 
L 72.729925 114.01773 
L 72.998118 114.048615 
L 73.761437 114.078538 
L 74.194672 113.989872 
L 74.277193 114.034105 
L 74.318454 113.977328 
L 74.400975 113.951111 
L 74.421605 113.977098 
L 74.607277 114.057611 
L 74.87547 114.068078 
L 75.184924 114.053048 
L 75.432487 114.063065 
L 76.133915 113.959899 
L 76.608411 113.972252 
L 76.814713 113.843536 
L 76.897234 113.844589 
L 76.917864 113.868419 
L 77.082906 113.896384 
L 77.536772 113.940142 
L 77.619293 114.002026 
L 77.660553 113.959629 
L 77.784335 113.975391 
L 78.361981 113.875175 
L 78.485763 114.033092 
L 78.527023 114.000881 
L 78.733326 113.89948 
L 79.042779 113.812439 
L 79.290342 113.770664 
L 79.702947 113.737632 
L 80.239333 113.653378 
L 80.466266 113.673657 
L 80.858241 113.695466 
L 80.920131 113.727486 
L 80.961392 113.677391 
L 81.085173 113.671506 
L 81.394627 113.555226 
L 81.68345 113.470015 
L 81.827862 113.449633 
L 81.951644 113.467585 
L 82.178576 113.479498 
L 83.519542 113.140546 
L 83.622693 113.040792 
L 83.663954 113.081495 
L 83.808365 113.065433 
L 84.117819 112.991549 
L 84.303491 113.01586 
L 84.509794 112.924378 
L 85.00492 112.727007 
L 85.211222 112.64873 
L 85.541306 112.54026 
L 86.036432 112.027698 
L 86.263364 111.773468 
L 86.283995 111.792614 
L 86.428406 111.781692 
L 86.614078 111.696715 
L 86.861641 111.496832 
L 87.253616 111.517015 
L 87.686851 111.323883 
L 87.893153 111.016532 
L 88.058195 110.918279 
L 88.883405 109.845802 
L 89.172229 109.423472 
L 89.399161 109.140625 
L 90.038699 108.163475 
L 90.18311 107.920378 
L 90.389413 107.689602 
L 90.595715 107.24793 
L 91.235253 105.922629 
L 91.379664 105.528485 
L 92.534958 102.393412 
L 93.463319 100.279843 
L 93.5871 100.089843 
L 94.102856 99.509405 
L 94.659873 99.340895 
L 94.886806 99.425391 
L 95.072478 99.562532 
L 95.712015 100.3746 
L 96.97046 103.073296 
L 98.187645 106.246106 
L 99.673022 108.756406 
L 101.055248 110.482514 
L 102.829449 111.972997 
L 103.015121 112.240341 
L 103.407096 112.303579 
L 103.592768 112.377621 
L 104.087894 112.150547 
L 104.417978 112.210043 
L 105.697053 112.520297 
L 105.882725 112.366859 
L 106.439742 110.699985 
L 106.687304 108.042611 
L 106.893607 103.015455 
L 107.079279 92.341994 
L 107.244321 67.827891 
L 107.429993 23.318659 
L 107.491884 28.98278 
L 107.718817 65.096189 
L 107.760077 64.444885 
L 107.863228 51.639984 
L 108.00764 22.589536 
L 108.069531 28.231661 
L 108.461505 98.356853 
L 108.709068 104.443082 
L 109.018522 107.063551 
L 109.204194 107.384929 
L 109.266085 107.373288 
L 109.286715 107.327204 
L 109.431127 106.498587 
L 109.616799 103.755614 
L 109.802471 97.250019 
L 109.967513 82.836611 
L 110.132555 45.527678 
L 110.235706 27.601549 
L 110.276967 31.165434 
L 110.52453 67.420679 
L 110.56579 66.165248 
L 110.668941 52.395622 
L 110.813353 29.688484 
L 110.854613 34.488747 
L 111.267218 100.138879 
L 111.514781 105.38468 
L 111.927386 108.795645 
L 112.339991 110.127648 
L 112.484403 110.356627 
L 112.690705 110.939741 
L 112.917638 111.311791 
L 113.10331 111.520788 
L 113.330243 111.862844 
L 114.237973 112.752188 
L 114.464906 112.674745 
L 114.568057 112.709471 
L 114.588687 112.684041 
L 114.753729 112.619128 
L 114.980662 112.877209 
L 115.063183 112.974084 
L 115.104443 112.922398 
L 115.166334 112.87138 
L 115.207595 112.915845 
L 115.599569 113.290238 
L 116.094695 113.510972 
L 116.280367 113.55532 
L 116.816754 113.661304 
L 117.023056 113.716617 
L 117.33251 113.850136 
L 117.559442 113.762511 
L 117.786375 113.790098 
L 117.930787 113.836932 
L 118.529064 113.909691 
L 118.590954 113.915596 
L 118.632215 113.964953 
L 118.859148 113.964186 
L 119.08608 113.97015 
L 119.168601 114.005061 
L 119.209862 113.954031 
L 119.313013 113.915203 
L 119.333643 113.934134 
L 119.478055 113.922025 
L 119.601836 113.925496 
L 119.766878 113.942356 
L 120.055702 113.960532 
L 120.695239 113.983772 
L 120.901542 114.020946 
L 121.417298 113.777527 
L 121.912423 113.956915 
L 122.118726 113.9916 
L 122.304398 114.070184 
L 122.49007 114.081944 
L 122.861415 113.99615 
L 122.964566 114.054531 
L 123.047087 114.078081 
L 123.088347 114.033369 
L 123.33591 113.985604 
L 123.624734 114.122834 
L 124.553095 113.83153 
L 125.337044 114.061357 
L 125.440195 114.144707 
L 125.543346 114.209453 
L 125.584607 114.175581 
L 125.83217 114.138251 
L 126.69864 114.188835 
L 126.781161 114.145209 
L 126.822421 114.192373 
L 126.946203 114.16484 
L 128.658513 114.142869 
L 128.782294 114.185187 
L 129.029857 114.179623 
L 129.586874 113.883319 
L 129.834437 113.7305 
L 129.937588 113.787855 
L 130.350193 114.076609 
L 130.618386 114.155144 
L 130.721537 114.206143 
L 130.907209 114.216136 
L 131.278554 114.148354 
L 131.567377 114.190093 
L 131.670528 114.124179 
L 131.753049 114.109546 
L 131.79431 114.145114 
L 131.918091 114.076041 
L 132.289436 113.861952 
L 132.495738 113.895288 
L 132.66078 113.776556 
L 132.784561 113.708125 
L 132.805192 113.731248 
L 132.990864 113.805054 
L 133.52725 114.216968 
L 133.651032 114.20104 
L 133.671662 114.226075 
L 133.836704 114.276334 
L 134.228678 114.164269 
L 134.476241 114.196074 
L 134.950737 114.148615 
L 135.549014 114.232274 
L 135.631535 114.231493 
L 135.652165 114.254235 
L 135.714056 114.261158 
L 135.755316 114.203859 
L 135.837837 114.164051 
L 135.879098 114.20084 
L 136.209182 114.31197 
L 136.436114 114.259406 
L 136.601156 114.242408 
L 136.88998 114.163658 
L 138.086534 113.571041 
L 138.210315 113.496845 
L 138.932374 112.391185 
L 139.44813 110.028949 
L 139.716323 106.976066 
L 139.963886 100.9655 
L 140.190818 88.989671 
L 140.438381 62.490836 
L 140.706574 33.930987 
L 140.747835 34.419286 
L 140.850986 42.867744 
L 141.366742 93.36204 
L 141.676196 101.775275 
L 141.98565 105.070603 
L 142.233212 105.979881 
L 142.336364 106.061983 
L 142.377624 106.022475 
L 142.501406 105.621071 
L 142.728338 103.928396 
L 142.934641 100.658444 
L 143.161573 92.636564 
L 143.388506 75.264488 
L 143.801111 26.220493 
L 143.883632 29.736524 
L 144.131195 64.26106 
L 144.440648 91.329528 
L 144.750102 101.17295 
L 145.080186 105.835541 
L 145.45153 108.531113 
L 145.843505 110.032609 
L 146.359261 111.355794 
L 146.771866 112.156584 
L 146.916277 112.397141 
L 147.12258 112.602961 
L 147.96842 112.862169 
L 148.257243 112.873144 
L 148.546067 113.174126 
L 148.958672 113.368612 
L 149.103083 113.364768 
L 150.052074 113.922126 
L 150.320268 113.8785 
L 150.50594 113.921616 
L 150.650351 113.952332 
L 150.794763 113.922712 
L 150.918545 113.954378 
L 151.104217 114.010682 
L 151.39304 114.153287 
L 151.743754 114.254659 
L 153.827409 114.189466 
L 154.178123 114.388346 
L 154.322535 114.318449 
L 154.405056 114.296233 
L 154.446316 114.334384 
L 154.81766 114.448183 
L 155.725391 114.356285 
L 156.096735 114.33188 
L 156.385559 114.373004 
L 156.736273 114.332213 
L 157.045727 114.294637 
L 157.705894 114.355993 
L 157.829676 114.341151 
L 157.850306 114.360696 
L 157.974088 114.343466 
L 158.139129 114.290488 
L 158.654886 114.428907 
L 158.840558 114.362445 
L 159.04686 114.364839 
L 159.191272 114.326203 
L 159.273793 114.275693 
L 159.315053 114.32074 
L 159.459465 114.303729 
L 159.707028 114.319257 
L 159.87207 114.336426 
L 160.016482 114.2926 
L 160.532238 114.108937 
L 160.656019 114.009442 
L 160.69728 114.049514 
L 160.862321 114.050803 
L 161.254296 114.195433 
L 161.728792 114.338066 
L 161.831943 114.358235 
L 161.852573 114.33308 
L 161.996985 114.322043 
L 162.347699 114.366064 
L 162.739674 114.36245 
L 162.884085 114.379606 
L 163.007867 114.310599 
L 163.152278 114.289078 
L 163.399841 114.197232 
L 163.874337 113.984592 
L 164.060009 114.088216 
L 164.369463 114.266633 
L 165.091521 114.398016 
L 165.442235 114.364652 
L 165.586647 114.402151 
L 167.154545 114.468637 
L 167.154545 114.468637 
" clip-path="url(#p8224750816)" style="fill: none; stroke: #000000; stroke-linecap: square"/>
   </g>
   <g id="patch_3">
    <path d="M 10.8 119.625625 
L 174.6 119.625625 
" style="fill: none; stroke: #000000; stroke-width: 1.3; stroke-linejoin: miter; stroke-linecap: square"/>
   </g>
  </g>
  <g id="axes_2">
   <g id="patch_4">
    <path d="M 185.4 119.625625 
L 349.2 119.625625 
L 349.2 10.8 
L 185.4 10.8 
L 185.4 119.625625 
z
" style="fill: none"/>
   </g>
   <g id="matplotlib.axis_3">
    <g id="xtick_20">
     <g id="line2d_21">
      <g>
       <use xlink:href="#m02d6484230" x="324.818682" y="119.625625" style="stroke: #000000; stroke-width: 1.3"/>
      </g>
     </g>
     <g id="text_7">
      <!-- 3.8 -->
      <g transform="translate(318.368682 135.625625)scale(0.1 -0.1)">
       <use xlink:href="#FiraSans-Regular-33"/>
       <use xlink:href="#FiraSans-Regular-2e" x="49.899994"/>
       <use xlink:href="#FiraSans-Regular-38" x="73.899979"/>
      </g>
     </g>
    </g>
    <g id="xtick_21">
     <g id="line2d_22">
      <g>
       <use xlink:href="#m02d6484230" x="290.975875" y="119.625625" style="stroke: #000000; stroke-width: 1.3"/>
      </g>
     </g>
     <g id="text_8">
      <!-- 4.0 -->
      <g transform="translate(284.325875 135.625625)scale(0.1 -0.1)">
       <use xlink:href="#FiraSans-Regular-34"/>
       <use xlink:href="#FiraSans-Regular-2e" x="53.199997"/>
       <use xlink:href="#FiraSans-Regular-30" x="77.199982"/>
      </g>
     </g>
    </g>
    <g id="xtick_22">
     <g id="line2d_23">
      <g>
       <use xlink:href="#m02d6484230" x="257.133068" y="119.625625" style="stroke: #000000; stroke-width: 1.3"/>
      </g>
     </g>
     <g id="text_9">
      <!-- 4.2 -->
      <g transform="translate(250.797912 135.625625)scale(0.1 -0.1)">
       <use xlink:href="#FiraSans-Regular-34"/>
       <use xlink:href="#FiraSans-Regular-2e" x="53.199997"/>
       <use xlink:href="#FiraSans-Regular-32" x="77.199982"/>
      </g>
     </g>
    </g>
    <g id="xtick_23">
     <g id="line2d_24">
      <g>
       <use xlink:href="#m02d6484230" x="223.290261" y="119.625625" style="stroke: #000000; stroke-width: 1.3"/>
      </g>
     </g>
     <g id="text_10">
      <!-- 4.4 -->
      <g transform="translate(216.769948 135.625625)scale(0.1 -0.1)">
       <use xlink:href="#FiraSans-Regular-34"/>
       <use xlink:href="#FiraSans-Regular-2e" x="53.199997"/>
       <use xlink:href="#FiraSans-Regular-34" x="77.199982"/>
      </g>
     </g>
    </g>
    <g id="xtick_24">
     <g id="line2d_25">
      <g>
       <use xlink:href="#m02d6484230" x="189.447454" y="119.625625" style="stroke: #000000; stroke-width: 1.3"/>
      </g>
     </g>
     <g id="text_11">
      <!-- 4.6 -->
      <g transform="translate(182.922454 135.625625)scale(0.1 -0.1)">
       <use xlink:href="#FiraSans-Regular-34"/>
       <use xlink:href="#FiraSans-Regular-2e" x="53.199997"/>
       <use xlink:href="#FiraSans-Regular-36" x="77.199982"/>
      </g>
     </g>
    </g>
    <g id="xtick_25">
     <g id="line2d_26">
      <g>
       <use xlink:href="#m5b7c6ebceb" x="341.740085" y="119.625625" style="stroke: #000000; stroke-width: 1.3"/>
      </g>
     </g>
    </g>
    <g id="xtick_26">
     <g id="line2d_27">
      <g>
       <use xlink:href="#m5b7c6ebceb" x="333.279383" y="119.625625" style="stroke: #000000; stroke-width: 1.3"/>
      </g>
     </g>
    </g>
    <g id="xtick_27">
     <g id="line2d_28">
      <g>
       <use xlink:href="#m5b7c6ebceb" x="316.35798" y="119.625625" style="stroke: #000000; stroke-width: 1.3"/>
      </g>
     </g>
    </g>
    <g id="xtick_28">
     <g id="line2d_29">
      <g>
       <use xlink:href="#m5b7c6ebceb" x="307.897278" y="119.625625" style="stroke: #000000; stroke-width: 1.3"/>
      </g>
     </g>
    </g>
    <g id="xtick_29">
     <g id="line2d_30">
      <g>
       <use xlink:href="#m5b7c6ebceb" x="299.436576" y="119.625625" style="stroke: #000000; stroke-width: 1.3"/>
      </g>
     </g>
    </g>
    <g id="xtick_30">
     <g id="line2d_31">
      <g>
       <use xlink:href="#m5b7c6ebceb" x="282.515173" y="119.625625" style="stroke: #000000; stroke-width: 1.3"/>
      </g>
     </g>
    </g>
    <g id="xtick_31">
     <g id="line2d_32">
      <g>
       <use xlink:href="#m5b7c6ebceb" x="274.054471" y="119.625625" style="stroke: #000000; stroke-width: 1.3"/>
      </g>
     </g>
    </g>
    <g id="xtick_32">
     <g id="line2d_33">
      <g>
       <use xlink:href="#m5b7c6ebceb" x="265.593769" y="119.625625" style="stroke: #000000; stroke-width: 1.3"/>
      </g>
     </g>
    </g>
    <g id="xtick_33">
     <g id="line2d_34">
      <g>
       <use xlink:href="#m5b7c6ebceb" x="248.672366" y="119.625625" style="stroke: #000000; stroke-width: 1.3"/>
      </g>
     </g>
    </g>
    <g id="xtick_34">
     <g id="line2d_35">
      <g>
       <use xlink:href="#m5b7c6ebceb" x="240.211664" y="119.625625" style="stroke: #000000; stroke-width: 1.3"/>
      </g>
     </g>
    </g>
    <g id="xtick_35">
     <g id="line2d_36">
      <g>
       <use xlink:href="#m5b7c6ebceb" x="231.750963" y="119.625625" style="stroke: #000000; stroke-width: 1.3"/>
      </g>
     </g>
    </g>
    <g id="xtick_36">
     <g id="line2d_37">
      <g>
       <use xlink:href="#m5b7c6ebceb" x="214.829559" y="119.625625" style="stroke: #000000; stroke-width: 1.3"/>
      </g>
     </g>
    </g>
    <g id="xtick_37">
     <g id="line2d_38">
      <g>
       <use xlink:href="#m5b7c6ebceb" x="206.368857" y="119.625625" style="stroke: #000000; stroke-width: 1.3"/>
      </g>
     </g>
    </g>
    <g id="xtick_38">
     <g id="line2d_39">
      <g>
       <use xlink:href="#m5b7c6ebceb" x="197.908156" y="119.625625" style="stroke: #000000; stroke-width: 1.3"/>
      </g>
     </g>
    </g>
    <g id="text_12">
     <!-- $\rm ^{1}H$ (ppm) -->
     <g transform="translate(247.4 150.255313)scale(0.1 -0.1)">
      <use xlink:href="#FiraSans-Regular-31" transform="translate(0.922305 37.392187)scale(0.7)"/>
      <use xlink:href="#FiraSans-Regular-48" transform="translate(33.867452 0.5)"/>
      <use xlink:href="#FiraSans-Regular-20" transform="translate(101.867437 0.5)"/>
      <use xlink:href="#FiraSans-Regular-28" transform="translate(128.367422 0.5)"/>
      <use xlink:href="#FiraSans-Regular-70" transform="translate(160.767416 0.5)"/>
      <use xlink:href="#FiraSans-Regular-70" transform="translate(220.16741 0.5)"/>
      <use xlink:href="#FiraSans-Regular-6d" transform="translate(279.567404 0.5)"/>
      <use xlink:href="#FiraSans-Regular-29" transform="translate(365.267385 0.5)"/>
     </g>
    </g>
   </g>
   <g id="matplotlib.axis_4"/>
   <g id="line2d_40">
    <path d="M 192.845455 113.554252 
L 192.927976 113.684402 
L 192.969236 113.765798 
L 193.010496 113.693067 
L 193.175538 113.003783 
L 193.216799 113.085798 
L 193.361211 113.656214 
L 193.423101 113.498188 
L 193.526253 113.146833 
L 193.567513 113.235485 
L 193.732555 113.353474 
L 193.815076 113.377092 
L 193.897597 113.592263 
L 193.938857 113.499617 
L 194.021378 113.198023 
L 194.062639 113.340498 
L 194.227681 113.809855 
L 194.248311 113.797111 
L 194.351462 113.474651 
L 194.392723 113.657756 
L 194.475244 114.101323 
L 194.516504 113.882558 
L 194.722807 112.755956 
L 194.743437 112.825513 
L 194.867218 113.589632 
L 194.929109 113.341137 
L 194.991 113.16597 
L 195.03226 113.320381 
L 195.156042 114.120427 
L 195.217932 113.951502 
L 195.300453 113.676332 
L 195.341714 113.776501 
L 195.403605 113.88694 
L 195.444865 113.736487 
L 195.527386 113.443499 
L 195.568647 113.531379 
L 195.609907 113.610509 
L 195.651168 113.55007 
L 195.713058 113.448245 
L 195.733689 113.514104 
L 195.85747 114.476065 
L 195.919361 114.248559 
L 196.001882 113.773235 
L 196.063772 113.928616 
L 196.105033 114.003776 
L 196.146293 113.891227 
L 196.249445 113.559751 
L 196.290705 113.605619 
L 196.393856 113.677748 
L 196.414487 113.650272 
L 196.517638 113.483553 
L 196.579528 113.542915 
L 196.641419 113.462205 
L 196.70331 113.370722 
L 196.74457 113.498174 
L 196.806461 113.680148 
L 196.847722 113.562534 
L 196.909612 113.339905 
L 196.950873 113.448926 
L 197.033394 113.728934 
L 197.074654 113.534994 
L 197.157175 113.173838 
L 197.198436 113.28591 
L 197.384108 113.943575 
L 197.425368 113.826098 
L 197.507889 113.506805 
L 197.54915 113.662535 
L 197.611041 113.937656 
L 197.672931 113.809836 
L 197.879234 113.463785 
L 197.982385 113.264883 
L 198.085536 113.057297 
L 198.126797 113.081841 
L 198.209318 113.264005 
L 198.333099 113.90092 
L 198.39499 113.797969 
L 198.621922 113.021986 
L 198.683813 113.123049 
L 198.807595 113.710585 
L 198.869485 113.581412 
L 199.075788 113.335476 
L 199.096418 113.40558 
L 199.178939 113.712834 
L 199.2202 113.569342 
L 199.28209 113.404464 
L 199.323351 113.508311 
L 199.385241 113.623052 
L 199.447132 113.551372 
L 199.612174 113.251612 
L 199.674065 113.454965 
L 199.715325 113.542964 
L 199.756586 113.411569 
L 199.818477 113.152151 
L 199.859737 113.242437 
L 199.962888 113.611445 
L 200.024779 113.589563 
L 200.1073 113.69529 
L 200.14856 113.627081 
L 200.189821 113.569968 
L 200.231081 113.697277 
L 200.313602 114.066519 
L 200.354863 113.894002 
L 200.458014 113.425395 
L 200.499275 113.525748 
L 200.581796 113.681787 
L 200.623056 113.643757 
L 200.726207 113.468253 
L 200.767468 113.543015 
L 200.9944 114.081655 
L 201.015031 114.050336 
L 201.180073 113.274878 
L 201.262594 113.412553 
L 201.345114 113.588066 
L 201.386375 113.491949 
L 201.448266 113.310253 
L 201.510156 113.447563 
L 201.551417 113.516906 
L 201.592677 113.368512 
L 201.695829 112.837895 
L 201.737089 112.957598 
L 201.84024 113.356845 
L 201.902131 113.263267 
L 202.025912 113.025398 
L 202.067173 113.129128 
L 202.170324 113.580683 
L 202.232215 113.451781 
L 202.417887 113.168305 
L 202.500408 113.330395 
L 202.541669 113.239529 
L 202.603559 113.065224 
L 202.64482 113.164894 
L 202.851122 113.582546 
L 203.036794 113.863705 
L 203.098685 113.681306 
L 203.119315 113.650084 
L 203.160576 113.787941 
L 203.222467 114.032995 
L 203.263727 113.820321 
L 203.346248 113.376628 
L 203.408139 113.519671 
L 203.449399 113.505808 
L 203.470029 113.450884 
L 203.55255 113.277685 
L 203.593811 113.367328 
L 203.717592 114.085679 
L 203.758853 113.81069 
L 203.882634 112.992504 
L 203.923895 113.012987 
L 203.985786 113.066545 
L 204.109567 113.541418 
L 204.171458 113.425524 
L 204.35713 113.316231 
L 204.37776 113.352129 
L 204.460281 113.477187 
L 204.501542 113.434909 
L 204.645953 112.94639 
L 204.707844 113.189005 
L 204.934777 113.901613 
L 204.996667 113.576494 
L 205.18234 112.935624 
L 205.2236 112.901846 
L 205.24423 112.966071 
L 205.326751 113.236853 
L 205.368012 113.085371 
L 205.429903 112.885444 
L 205.471163 112.970664 
L 205.533054 113.107664 
L 205.574314 113.035449 
L 205.698096 112.695587 
L 205.739356 112.813984 
L 205.863138 113.497321 
L 205.925028 113.30807 
L 205.966289 113.258009 
L 206.007549 113.380169 
L 206.06944 113.526979 
L 206.110701 113.409465 
L 206.213852 113.067049 
L 206.255112 113.118655 
L 206.420154 113.453968 
L 206.461415 113.374424 
L 206.523305 113.250363 
L 206.564566 113.337203 
L 206.667717 113.76752 
L 206.708978 113.673267 
L 206.812129 113.417427 
L 206.874019 113.457976 
L 206.997801 113.377582 
L 207.121582 113.166195 
L 207.162843 113.212362 
L 207.513557 113.473472 
L 207.534187 113.442445 
L 207.637338 113.037113 
L 207.678599 113.230686 
L 207.76112 113.539798 
L 207.80238 113.457793 
L 207.988053 113.260786 
L 208.008683 113.272519 
L 208.111834 113.387663 
L 208.173725 113.343144 
L 208.256246 113.513455 
L 208.318136 113.638828 
L 208.359397 113.563621 
L 208.441918 113.261423 
L 208.503809 113.404085 
L 208.565699 113.522303 
L 208.60696 113.406391 
L 208.668851 113.310053 
L 208.710111 113.423961 
L 208.854523 113.72221 
L 208.875153 113.700938 
L 208.957674 113.56591 
L 208.998934 113.652973 
L 209.040195 113.758788 
L 209.081455 113.680137 
L 209.163976 113.341335 
L 209.205237 113.535175 
L 209.308388 114.050312 
L 209.349649 113.922921 
L 209.43217 113.729755 
L 209.49406 113.796544 
L 209.659102 113.783501 
L 209.720993 113.663974 
L 209.782884 113.439287 
L 209.824144 113.566818 
L 209.886035 113.888616 
L 209.947926 113.686819 
L 209.989186 113.616716 
L 210.009816 113.707142 
L 210.071707 114.100882 
L 210.133598 113.809777 
L 210.216119 113.407664 
L 210.257379 113.506297 
L 210.443051 113.630469 
L 210.525572 113.554836 
L 210.546203 113.611842 
L 210.628724 113.908596 
L 210.690614 113.744862 
L 210.793766 113.425088 
L 210.835026 113.463315 
L 211.082589 114.090331 
L 211.123849 113.942218 
L 211.20637 113.600466 
L 211.268261 113.656772 
L 211.412673 113.584971 
L 211.660236 113.077579 
L 211.680866 113.1008 
L 211.804647 113.873049 
L 211.887168 113.466465 
L 212.01095 113.158222 
L 212.03158 113.183108 
L 212.134731 113.499511 
L 212.196622 113.317264 
L 212.258513 113.143417 
L 212.299773 113.231486 
L 212.382294 113.441029 
L 212.423555 113.390098 
L 212.588597 112.693009 
L 212.650487 112.927885 
L 212.774269 113.451671 
L 212.83616 113.361735 
L 212.89805 113.288222 
L 212.918681 113.334561 
L 212.980571 113.510619 
L 213.021832 113.438976 
L 213.083723 113.258835 
L 213.124983 113.391592 
L 213.186874 113.587399 
L 213.207504 113.500586 
L 213.290025 112.902053 
L 213.351916 113.209559 
L 213.413806 113.518993 
L 213.475697 113.337023 
L 213.516958 113.275572 
L 213.599479 113.326938 
L 213.661369 113.338867 
L 213.682 113.400484 
L 213.764521 113.639351 
L 213.785151 113.571551 
L 213.908932 112.869479 
L 213.970823 113.091146 
L 214.032714 113.272573 
L 214.094604 113.178586 
L 214.156495 113.113562 
L 214.197756 113.202379 
L 214.259646 113.325587 
L 214.300907 113.253628 
L 214.383428 113.065514 
L 214.424688 113.214794 
L 214.630991 113.906337 
L 214.672251 113.811243 
L 214.796033 112.906158 
L 214.857923 113.311836 
L 214.919814 113.593235 
L 214.981705 113.491168 
L 215.084856 113.301256 
L 215.146747 113.031099 
L 215.188007 113.146331 
L 215.270528 113.460697 
L 215.311789 113.303016 
L 215.497461 112.856351 
L 215.518091 112.886763 
L 215.621242 113.376076 
L 215.683133 113.210772 
L 215.868805 112.770495 
L 215.910066 113.015902 
L 215.992587 113.427761 
L 216.054477 113.398287 
L 216.116368 113.547277 
L 216.157629 113.420297 
L 216.343301 112.795019 
L 216.384561 112.778385 
L 216.405192 112.826638 
L 216.487713 113.077886 
L 216.508343 112.999977 
L 216.590864 112.599678 
L 216.632124 112.793281 
L 216.714645 113.162528 
L 216.776536 113.107342 
L 216.879687 112.937265 
L 217.08599 112.435022 
L 217.10662 112.512065 
L 217.209771 113.098479 
L 217.271662 112.908815 
L 217.312922 113.022045 
L 217.374813 113.331756 
L 217.416073 113.210811 
L 217.601746 112.688829 
L 217.704897 112.383333 
L 217.746157 112.454768 
L 217.849309 112.659307 
L 217.890569 112.589897 
L 217.95246 112.463491 
L 218.01435 112.560457 
L 218.158762 112.668046 
L 218.220653 112.5496 
L 218.509476 111.724027 
L 218.612628 111.964338 
L 218.674518 111.870588 
L 218.81893 111.495901 
L 218.901451 111.272748 
L 218.942711 111.333952 
L 219.087123 111.725739 
L 219.128384 111.60004 
L 219.293426 110.9812 
L 219.355316 110.994854 
L 219.417207 110.853731 
L 219.809182 108.159527 
L 220.098005 102.188843 
L 220.345568 88.879176 
L 220.51061 67.302733 
L 220.675652 35.826163 
L 220.716912 40.37532 
L 221.108887 107.527284 
L 221.294559 110.178633 
L 221.418341 110.457376 
L 221.438971 110.436879 
L 221.665903 109.627337 
L 221.789685 107.514564 
L 222.037248 96.081465 
L 222.20229 77.19558 
L 222.408592 28.422711 
L 222.470483 40.275376 
L 222.759306 100.409816 
L 222.883088 103.963215 
L 222.924348 103.788816 
L 223.006869 103.036642 
L 223.130651 97.27566 
L 223.254432 82.818411 
L 223.398844 37.229329 
L 223.481365 15.746619 
L 223.522625 23.497784 
L 223.832079 99.870808 
L 224.059012 108.595587 
L 224.265314 109.660532 
L 224.368465 109.770543 
L 224.389095 109.746254 
L 224.492247 109.109366 
L 224.616028 107.077287 
L 224.842961 99.655619 
L 224.987372 84.138619 
L 225.193675 36.976933 
L 225.276196 47.489476 
L 225.565019 99.456445 
L 225.812582 108.133201 
L 226.163296 111.446964 
L 226.658422 113.228191 
L 226.699683 113.122124 
L 226.926615 112.694427 
L 226.967876 112.781998 
L 227.215439 113.650605 
L 227.401111 113.534303 
L 227.463002 113.409455 
L 227.483632 113.477959 
L 227.586783 113.92206 
L 227.628044 113.800875 
L 227.669304 113.719672 
L 227.751825 113.76514 
L 227.854976 113.637731 
L 227.916867 113.700644 
L 228.040648 113.856641 
L 228.081909 113.699064 
L 228.1438 113.334206 
L 228.20569 113.611423 
L 228.288211 114.075872 
L 228.350102 114.02527 
L 228.432623 114.130485 
L 228.473883 114.055823 
L 228.721446 113.268903 
L 228.783337 113.49717 
L 228.865858 113.746315 
L 228.907119 113.599694 
L 228.98964 113.1952 
L 229.0309 113.341653 
L 229.092791 113.53032 
L 229.134051 113.33756 
L 229.175312 113.162184 
L 229.216572 113.28649 
L 229.402244 113.904772 
L 229.464135 113.924006 
L 229.505396 113.879933 
L 229.670438 113.798798 
L 229.711698 113.746848 
L 229.773589 113.824438 
L 229.918 114.15862 
L 229.979891 113.996617 
L 230.186194 113.431408 
L 230.206824 113.482949 
L 230.289345 113.788764 
L 230.351236 113.696826 
L 230.516277 113.404506 
L 230.578168 113.50735 
L 230.619429 113.448714 
L 230.70195 112.943005 
L 230.76384 113.252785 
L 230.866992 113.842064 
L 230.908252 113.762545 
L 230.949513 113.746891 
L 230.970143 113.794706 
L 231.114555 114.239624 
L 231.176445 114.169234 
L 231.258966 113.899504 
L 231.341487 113.536796 
L 231.382748 113.752973 
L 231.444638 114.129309 
L 231.506529 113.947655 
L 231.54779 113.844072 
L 231.58905 113.949747 
L 231.650941 114.08594 
L 231.692201 113.96639 
L 231.774722 113.762986 
L 231.815983 113.877365 
L 231.898504 114.242074 
L 231.960394 114.038759 
L 232.022285 113.794747 
L 232.063546 113.96563 
L 232.125436 114.254306 
L 232.187327 114.069651 
L 232.372999 113.545613 
L 232.39363 113.572727 
L 232.579302 114.095949 
L 232.620562 113.956077 
L 232.682453 113.63397 
L 232.723713 113.845058 
L 232.785604 114.305284 
L 232.826865 114.077634 
L 232.888755 113.726042 
L 232.930016 114.131031 
L 232.991907 114.670142 
L 233.033167 114.365782 
L 233.115688 113.782908 
L 233.177579 113.839401 
L 233.2601 113.709454 
L 233.32199 113.809124 
L 233.383881 113.698669 
L 233.445772 113.579902 
L 233.487032 113.729462 
L 233.610814 114.631569 
L 233.672705 114.343896 
L 233.734595 113.905597 
L 233.796486 114.148469 
L 233.858377 114.334916 
L 233.920268 114.227804 
L 234.002788 114.345996 
L 234.023419 114.257141 
L 234.12657 113.550544 
L 234.188461 113.813738 
L 234.229721 113.873108 
L 234.270982 113.773119 
L 234.291612 113.751783 
L 234.312242 113.792786 
L 234.415393 114.377279 
L 234.497914 114.181191 
L 234.539175 114.218626 
L 234.621696 114.400684 
L 234.662956 114.266298 
L 234.745477 114.073482 
L 234.786738 114.158883 
L 234.848628 114.247837 
L 234.889889 114.205868 
L 235.096191 113.586577 
L 235.199343 113.739678 
L 235.570687 114.602525 
L 235.611947 114.460641 
L 235.79762 113.846862 
L 235.880141 113.661692 
L 235.942031 113.7674 
L 236.065813 113.782075 
L 236.251485 113.893599 
L 236.375266 114.112632 
L 236.416527 114.186954 
L 236.457787 114.123296 
L 236.519678 114.012151 
L 236.560939 114.129249 
L 236.602199 114.244416 
L 236.66409 114.087719 
L 236.70535 114.035379 
L 236.725981 114.105468 
L 236.787871 114.386469 
L 236.829132 114.259033 
L 236.911653 113.886258 
L 236.952913 114.021462 
L 236.994174 114.105254 
L 237.035434 114.013713 
L 237.097325 113.908562 
L 237.159216 113.988629 
L 237.303627 114.055874 
L 237.324258 114.008974 
L 237.386148 113.838985 
L 237.427409 113.920766 
L 237.50993 114.225878 
L 237.57182 114.128265 
L 237.736862 113.595969 
L 237.881274 113.464525 
L 237.943165 113.475403 
L 237.963795 113.520583 
L 238.108207 114.150248 
L 238.170097 113.957052 
L 238.211358 113.820613 
L 238.252618 113.9223 
L 238.335139 114.234769 
L 238.3764 114.070499 
L 238.479551 113.721592 
L 238.520812 113.774298 
L 238.644593 114.362749 
L 238.706484 114.080365 
L 238.912786 113.339189 
L 238.974677 113.554911 
L 239.015937 113.675264 
L 239.077828 113.58045 
L 239.119089 113.660302 
L 239.20161 113.954993 
L 239.24287 113.81845 
L 239.284131 113.703195 
L 239.325391 113.801918 
L 239.490433 114.503232 
L 239.531693 114.384008 
L 239.634845 113.973733 
L 239.676105 114.063356 
L 239.717366 114.125833 
L 239.779256 114.05933 
L 239.964929 113.760357 
L 240.026819 113.967563 
L 240.129971 114.394907 
L 240.171231 114.341422 
L 240.295012 114.019993 
L 240.336273 114.095016 
L 240.398164 114.166682 
L 240.418794 114.119281 
L 240.542575 113.612516 
L 240.583836 113.718271 
L 240.769508 114.338017 
L 240.810769 114.300503 
L 240.95518 113.956334 
L 241.017071 114.016685 
L 241.140852 114.036231 
L 241.161483 113.983917 
L 241.285264 113.505077 
L 241.326525 113.631441 
L 241.367785 113.733982 
L 241.429676 113.641762 
L 241.450306 113.622941 
L 241.470936 113.654445 
L 241.574088 114.141804 
L 241.615348 113.963619 
L 241.697869 113.425194 
L 241.739129 113.568816 
L 241.82165 113.935375 
L 241.862911 113.706012 
L 241.945432 113.304691 
L 241.986692 113.413836 
L 242.213625 114.038322 
L 242.254886 113.914087 
L 242.358037 113.311654 
L 242.419927 113.43996 
L 242.62623 113.878928 
L 242.66749 113.673047 
L 242.729381 113.310711 
L 242.791272 113.53715 
L 242.976944 114.360812 
L 242.997574 114.326875 
L 243.100725 113.925844 
L 243.183246 114.029102 
L 243.45144 113.683764 
L 243.4927 113.859606 
L 243.554591 114.11757 
L 243.616482 114.007419 
L 243.657742 114.046583 
L 243.740263 114.317056 
L 243.781523 114.131528 
L 243.905305 113.484761 
L 243.946565 113.536343 
L 244.008456 113.61325 
L 244.049717 113.540418 
L 244.111607 113.374628 
L 244.152868 113.489054 
L 244.276649 114.270994 
L 244.33854 114.176259 
L 244.482952 113.892075 
L 244.524212 113.977883 
L 244.606733 114.231996 
L 244.647994 114.09868 
L 244.689254 113.97965 
L 244.751145 114.141221 
L 244.771775 114.193842 
L 244.813036 114.088775 
L 244.895557 113.505459 
L 244.957447 113.744279 
L 245.019338 114.049261 
L 245.081229 113.869819 
L 245.266901 113.572381 
L 245.328792 113.653844 
L 245.390682 113.73762 
L 245.431943 113.627283 
L 245.617615 113.292292 
L 245.658876 113.335128 
L 245.782657 114.309626 
L 245.844548 113.982637 
L 245.927069 113.632009 
L 245.968329 113.743266 
L 246.03022 113.863146 
L 246.07148 113.782016 
L 246.174632 113.432211 
L 246.215892 113.594841 
L 246.277783 113.859984 
L 246.319043 113.733203 
L 246.380934 113.47658 
L 246.422195 113.586552 
L 246.484085 113.788373 
L 246.545976 113.645373 
L 246.814169 113.216154 
L 246.834799 113.240192 
L 246.979211 113.839647 
L 247.041102 113.571644 
L 247.082362 113.495643 
L 247.123623 113.607035 
L 247.164883 113.679593 
L 247.206144 113.570861 
L 247.371186 113.202944 
L 247.391816 113.226926 
L 247.598118 114.121173 
L 247.680639 113.827741 
L 247.7219 113.756546 
L 247.74253 113.839835 
L 247.845681 114.464952 
L 247.886942 114.298621 
L 247.928202 114.182423 
L 247.969463 114.280884 
L 248.010723 114.364081 
L 248.051984 114.1993 
L 248.134505 113.755166 
L 248.196395 113.897754 
L 248.320177 114.207582 
L 248.361437 114.145979 
L 248.547109 113.878689 
L 248.56774 113.896524 
L 248.650261 114.062392 
L 248.712151 113.973747 
L 248.753412 114.013171 
L 248.856563 114.412472 
L 248.897824 114.280651 
L 249.042235 114.133483 
L 249.083496 114.09196 
L 249.124756 114.189143 
L 249.207277 114.430351 
L 249.248538 114.312234 
L 249.43421 113.768684 
L 249.47547 113.823852 
L 249.516731 113.848442 
L 249.537361 113.810947 
L 249.599252 113.644435 
L 249.640512 113.727286 
L 249.784924 114.439293 
L 249.826185 114.345057 
L 249.908706 114.062715 
L 249.949966 114.154606 
L 250.011857 114.358635 
L 250.053117 114.279905 
L 250.218159 114.017648 
L 250.28005 114.099095 
L 250.341941 114.259082 
L 250.362571 114.178977 
L 250.486352 113.071935 
L 250.548243 113.510427 
L 250.692655 113.917057 
L 250.754545 114.049612 
L 250.898957 114.665478 
L 250.940218 114.542051 
L 251.208411 113.787992 
L 251.352822 114.287287 
L 251.497234 114.138586 
L 251.538495 114.080295 
L 251.641646 113.576415 
L 251.682906 113.727632 
L 251.909839 114.353753 
L 251.930469 114.366203 
L 251.9511 114.324077 
L 252.198662 113.746779 
L 252.363704 113.867218 
L 252.466856 114.009703 
L 252.528746 113.889984 
L 252.570007 113.855923 
L 252.611267 113.962438 
L 252.652528 114.0565 
L 252.693788 113.961132 
L 252.755679 113.712494 
L 252.81757 113.892115 
L 252.87946 114.0695 
L 252.941351 113.970074 
L 253.003242 114.04839 
L 253.044502 114.098206 
L 253.085763 114.006854 
L 253.147654 113.875001 
L 253.188914 113.981455 
L 253.250805 114.142982 
L 253.292065 114.038983 
L 253.374586 113.815915 
L 253.415847 113.89459 
L 253.457107 113.914832 
L 253.477737 113.857831 
L 253.539628 113.615948 
L 253.580889 113.705176 
L 253.66341 114.163475 
L 253.70467 113.994392 
L 253.787191 113.491367 
L 253.849082 113.709429 
L 253.931603 113.981045 
L 253.972863 113.892481 
L 254.055384 113.695718 
L 254.096645 113.84698 
L 254.179166 114.153635 
L 254.241056 114.079872 
L 254.364838 114.198515 
L 254.406098 114.08504 
L 254.57114 113.784067 
L 254.612401 113.900341 
L 254.674292 114.215782 
L 254.715552 114.056495 
L 254.777443 113.630791 
L 254.839333 113.8658 
L 254.880594 114.062226 
L 254.942485 113.854625 
L 255.045636 113.369434 
L 255.086896 113.429201 
L 255.169417 113.833008 
L 255.231308 113.642821 
L 255.272569 113.504259 
L 255.334459 113.682577 
L 255.35509 113.688778 
L 255.37572 113.595333 
L 255.458241 112.972262 
L 255.499501 113.280473 
L 255.582022 113.995926 
L 255.643913 113.89135 
L 255.726434 114.027758 
L 255.747064 113.948995 
L 255.829585 113.569285 
L 255.870846 113.779066 
L 255.912106 113.954004 
L 255.953367 113.822513 
L 256.015257 113.549088 
L 256.077148 113.701971 
L 256.097778 113.73321 
L 256.139039 113.662639 
L 256.180299 113.569194 
L 256.22156 113.643507 
L 256.304081 113.873532 
L 256.345341 113.765613 
L 256.427862 113.576667 
L 256.469123 113.650846 
L 256.551644 113.789081 
L 256.592904 113.688478 
L 256.675425 113.503218 
L 256.716686 113.586137 
L 256.943618 114.289456 
L 257.005509 114.150743 
L 257.046769 114.192904 
L 257.149921 114.679006 
L 257.191181 114.502207 
L 257.294332 113.939305 
L 257.356223 114.057862 
L 257.397484 113.97646 
L 257.500635 113.564787 
L 257.541895 113.70058 
L 257.706937 114.196801 
L 257.727567 114.180727 
L 257.851349 113.418593 
L 257.91324 113.718609 
L 258.098912 114.288292 
L 258.119542 114.314318 
L 258.160803 114.226473 
L 258.305214 113.720047 
L 258.346475 113.794233 
L 258.428996 114.080932 
L 258.490886 113.919822 
L 258.532147 113.860236 
L 258.552777 113.94316 
L 258.655928 114.61914 
L 258.717819 114.450706 
L 258.841601 114.235429 
L 258.944752 113.491558 
L 259.006642 113.686908 
L 259.212945 114.060471 
L 259.316096 114.157618 
L 259.357357 114.088532 
L 259.62555 113.668435 
L 259.64618 113.706572 
L 259.893743 114.298809 
L 259.935003 114.223221 
L 260.079415 113.771412 
L 260.161936 113.816088 
L 260.223827 113.755774 
L 260.265087 113.836166 
L 260.306348 113.921511 
L 260.368238 113.808168 
L 260.409499 113.771096 
L 260.450759 113.86967 
L 260.47139 113.90309 
L 260.51265 113.80662 
L 260.574541 113.592927 
L 260.615801 113.779779 
L 260.657062 113.984032 
L 260.698322 113.823828 
L 260.780843 113.353434 
L 260.822104 113.540001 
L 260.842734 113.60063 
L 260.883995 113.459995 
L 260.945885 113.122391 
L 260.987146 113.307325 
L 261.069667 113.692946 
L 261.131557 113.593224 
L 261.234709 113.418498 
L 261.275969 113.370414 
L 261.296599 113.431587 
L 261.37912 113.760507 
L 261.420381 113.613462 
L 261.502902 113.387888 
L 261.544162 113.458012 
L 261.667944 113.684433 
L 261.709204 113.607994 
L 261.750465 113.505728 
L 261.791725 113.634049 
L 261.874246 114.1777 
L 261.915507 114.015285 
L 262.080549 113.274499 
L 262.101179 113.284419 
L 262.20433 113.819625 
L 262.245591 113.587779 
L 262.307481 113.149439 
L 262.369372 113.467967 
L 262.410633 113.659155 
L 262.472523 113.553509 
L 262.637565 113.398439 
L 262.658195 113.447671 
L 262.761347 114.06204 
L 262.823237 113.793319 
L 262.843868 113.733452 
L 262.885128 113.839759 
L 262.967649 114.294019 
L 263.02954 114.166187 
L 263.091431 114.057442 
L 263.132691 114.156014 
L 263.194582 114.280875 
L 263.235842 114.15739 
L 263.400884 113.32627 
L 263.462775 113.430842 
L 263.565926 113.66662 
L 263.607187 113.618469 
L 263.710338 113.410793 
L 263.792859 112.986438 
L 263.854749 113.196258 
L 263.91664 113.438348 
L 263.999161 113.397381 
L 264.205464 113.812528 
L 264.246724 113.914816 
L 264.287985 113.782808 
L 264.349875 113.575194 
L 264.391136 113.669162 
L 264.432396 113.765866 
L 264.473657 113.688227 
L 264.535547 113.557237 
L 264.556178 113.621192 
L 264.659329 114.16216 
L 264.72122 113.947692 
L 264.927522 113.191543 
L 264.948152 113.233177 
L 265.113194 114.021062 
L 265.195715 113.851324 
L 265.236976 113.859267 
L 265.257606 113.902306 
L 265.422648 114.232116 
L 265.443278 114.204114 
L 265.62895 113.515204 
L 265.711471 113.71252 
L 265.938404 114.131418 
L 265.979664 114.18704 
L 266.020925 114.108074 
L 266.247858 113.465763 
L 266.268488 113.479953 
L 266.330379 113.53917 
L 266.351009 113.495685 
L 266.4129 113.339349 
L 266.45416 113.534887 
L 266.516051 113.949605 
L 266.557311 113.794337 
L 266.619202 113.421686 
L 266.660462 113.622885 
L 266.722353 113.980375 
L 266.763614 113.800282 
L 266.846135 113.489973 
L 266.908025 113.515172 
L 266.969916 113.412237 
L 267.011177 113.484674 
L 267.238109 113.99073 
L 267.25874 113.934871 
L 267.465042 113.23796 
L 267.485672 113.244911 
L 267.712605 113.73578 
L 267.733235 113.696038 
L 267.836386 113.223504 
L 267.898277 113.386799 
L 267.939538 113.462917 
L 268.001428 113.360724 
L 268.042689 113.407903 
L 268.14584 113.772394 
L 268.207731 113.705237 
L 268.269621 113.752682 
L 268.331512 113.840051 
L 268.372773 113.741437 
L 268.455294 113.447648 
L 268.517184 113.593288 
L 268.599705 113.749512 
L 268.640966 113.667389 
L 268.764747 113.32063 
L 268.806008 113.44821 
L 268.888529 113.811244 
L 268.929789 113.668292 
L 268.99168 113.433228 
L 269.053571 113.601895 
L 269.301134 114.107623 
L 269.321764 114.099609 
L 269.404285 114.003409 
L 269.528066 113.270078 
L 269.589957 113.450503 
L 269.651848 113.594466 
L 269.693108 113.515099 
L 269.775629 113.340779 
L 269.81689 113.450081 
L 270.043822 114.063272 
L 270.146973 113.683927 
L 270.229494 113.966965 
L 270.270755 113.890016 
L 270.353276 113.447263 
L 270.394536 113.599809 
L 270.456427 113.822793 
L 270.497688 113.683086 
L 270.642099 113.255691 
L 270.66273 113.28469 
L 270.786511 113.676818 
L 270.869032 113.571535 
L 270.930923 113.608358 
L 271.095965 114.092465 
L 271.157855 113.910614 
L 271.446679 112.988997 
L 271.467309 113.042318 
L 271.59109 113.992618 
L 271.714872 113.970094 
L 271.776763 114.171002 
L 271.838653 114.06232 
L 271.941805 114.13721 
L 271.962435 114.019302 
L 272.065586 113.342105 
L 272.127477 113.469714 
L 272.271888 114.131951 
L 272.354409 113.875512 
L 272.37504 113.836514 
L 272.4163 113.903153 
L 272.457561 114.000557 
L 272.498821 113.937049 
L 272.581342 113.751997 
L 272.622603 113.859378 
L 272.911426 114.476429 
L 272.993947 113.807965 
L 273.055838 113.413119 
L 273.117728 113.548261 
L 273.303401 113.913151 
L 273.324031 113.871501 
L 273.427182 113.434967 
L 273.489073 113.618616 
L 273.633484 113.772508 
L 273.716005 113.872102 
L 273.757266 113.785136 
L 273.839787 113.590865 
L 273.881047 113.741774 
L 273.963568 114.015442 
L 274.004829 113.924158 
L 274.046089 113.858586 
L 274.10798 113.943516 
L 274.169871 113.848469 
L 274.231762 113.705563 
L 274.273022 113.827752 
L 274.334913 114.013106 
L 274.376173 113.925381 
L 274.582476 113.57162 
L 274.603106 113.55104 
L 274.644366 113.648305 
L 274.747518 114.02303 
L 274.809408 113.947361 
L 274.93319 113.872343 
L 274.95382 113.891617 
L 275.283904 114.51572 
L 275.304534 114.466427 
L 275.552097 113.590805 
L 275.593358 113.632678 
L 275.861551 114.225402 
L 275.882181 114.16732 
L 276.005962 113.619593 
L 276.067853 113.705124 
L 276.253525 113.992847 
L 276.294786 113.907169 
L 276.439197 113.493301 
L 276.480458 113.550925 
L 276.66613 114.347352 
L 276.748651 114.035025 
L 276.769281 113.977828 
L 276.810542 114.093161 
L 276.872433 114.471425 
L 276.934323 114.201258 
L 276.996214 113.924009 
L 277.037474 114.098573 
L 277.078735 114.179644 
L 277.099365 114.085875 
L 277.181886 113.569584 
L 277.223147 113.759444 
L 277.305668 114.092027 
L 277.367558 114.070573 
L 277.429449 114.185131 
L 277.47071 114.126563 
L 277.5326 114.008576 
L 277.573861 114.121958 
L 277.635752 114.277666 
L 277.677012 114.174883 
L 277.821424 113.668027 
L 277.862684 113.813688 
L 278.048356 114.288669 
L 278.089617 114.373864 
L 278.130877 114.224426 
L 278.213398 113.765883 
L 278.254659 113.941906 
L 278.31655 114.160184 
L 278.35781 113.98737 
L 278.419701 113.780011 
L 278.460961 113.886477 
L 278.605373 114.150087 
L 278.626003 114.138453 
L 278.708524 113.737808 
L 278.770415 113.473121 
L 278.811675 113.581295 
L 278.894196 113.88898 
L 278.956087 113.749775 
L 278.997348 113.713789 
L 279.017978 113.764838 
L 279.100499 114.057561 
L 279.141759 113.957769 
L 279.22428 113.699228 
L 279.265541 113.788114 
L 279.306801 113.863297 
L 279.348062 113.795547 
L 279.409952 113.644745 
L 279.451213 113.736639 
L 279.574994 114.177158 
L 279.636885 114.098438 
L 279.946339 113.427414 
L 280.008229 113.072312 
L 280.04949 113.249483 
L 280.132011 113.597833 
L 280.173271 113.502903 
L 280.214532 113.476494 
L 280.255792 113.552122 
L 280.297053 113.560872 
L 280.317683 113.516805 
L 280.379574 113.402677 
L 280.441465 113.471142 
L 280.482725 113.391553 
L 280.627137 112.677419 
L 280.689027 112.791923 
L 280.750918 112.896672 
L 280.792179 112.822038 
L 281.101632 111.719309 
L 281.431716 106.535978 
L 281.555498 102.74423 
L 281.72054 90.344688 
L 281.885582 57.918296 
L 282.029993 26.413838 
L 282.071254 30.863608 
L 282.318817 73.944931 
L 282.360077 72.629283 
L 282.463228 58.771359 
L 282.60764 29.123268 
L 282.669531 35.452948 
L 283.040875 102.879665 
L 283.288438 109.49692 
L 283.639152 112.300741 
L 283.783564 113.115092 
L 283.824824 112.879162 
L 283.886715 112.453121 
L 283.948606 112.747334 
L 283.969236 112.849677 
L 284.010496 112.707181 
L 284.31995 107.652708 
L 284.443732 102.30603 
L 284.608774 85.314645 
L 284.856336 30.75763 
L 284.938857 42.675309 
L 285.14516 70.216657 
L 285.16579 70.048708 
L 285.227681 65.659774 
L 285.433983 26.640208 
L 285.495874 35.773503 
L 285.825958 97.118516 
L 286.073521 104.989915 
L 286.403605 108.469409 
L 286.465495 108.92368 
L 286.548016 109.769811 
L 286.609907 109.55099 
L 286.630537 109.491985 
L 286.671798 109.630211 
L 286.919361 110.940377 
L 287.166924 111.323993 
L 287.476377 112.200334 
L 287.497007 112.175799 
L 287.620789 111.689456 
L 287.68268 111.929068 
L 287.888982 112.495525 
L 288.074654 112.868848 
L 288.115915 112.838616 
L 288.466629 112.304984 
L 288.507889 112.457416 
L 288.672931 112.941266 
L 288.693562 112.931579 
L 288.899864 112.598434 
L 288.982385 112.406088 
L 289.023645 112.491249 
L 289.085536 112.602959 
L 289.126797 112.542995 
L 289.168057 112.499767 
L 289.209318 112.593772 
L 289.39499 113.345469 
L 289.43625 113.250095 
L 289.704443 112.305443 
L 289.725074 112.371418 
L 289.931376 112.87621 
L 289.972637 112.982618 
L 290.013897 112.895991 
L 290.096418 112.597325 
L 290.137679 112.686622 
L 290.24083 112.977916 
L 290.28209 112.937627 
L 290.550283 112.26488 
L 290.591544 112.355019 
L 290.839107 113.139511 
L 290.942258 112.770897 
L 291.004149 113.023535 
L 291.08667 113.409906 
L 291.12793 113.303235 
L 291.210451 113.123145 
L 291.251712 113.212179 
L 291.334233 113.363996 
L 291.375493 113.301078 
L 291.623056 112.572264 
L 291.684947 112.838873 
L 291.746837 113.152296 
L 291.808728 112.959976 
L 291.870619 112.788822 
L 291.911879 112.883601 
L 292.035661 113.349029 
L 292.076921 113.16761 
L 292.180073 112.630444 
L 292.221333 112.782506 
L 292.468896 113.432101 
L 292.675198 113.269728 
L 292.757719 112.870078 
L 292.79898 112.991082 
L 292.881501 113.205209 
L 292.943392 113.16285 
L 293.025912 113.227216 
L 293.046543 113.176705 
L 293.108433 112.97682 
L 293.149694 113.10306 
L 293.252845 113.700595 
L 293.294106 113.553611 
L 293.500408 113.071422 
L 293.541669 113.173264 
L 293.62419 113.506105 
L 293.66545 113.350914 
L 293.727341 113.150331 
L 293.789231 113.276677 
L 293.830492 113.283575 
L 293.851122 113.233066 
L 293.974904 113.000745 
L 294.016164 113.028716 
L 294.119315 113.388921 
L 294.222467 113.659321 
L 294.263727 113.633532 
L 294.346248 113.685911 
L 294.449399 113.974831 
L 294.49066 113.906913 
L 294.593811 113.438016 
L 294.635071 113.615987 
L 294.738223 114.177616 
L 294.779483 114.052179 
L 295.068307 113.25857 
L 295.150827 113.376512 
L 295.192088 113.433894 
L 295.233348 113.377804 
L 295.315869 113.174428 
L 295.37776 113.256645 
L 295.419021 113.269476 
L 295.460281 113.202941 
L 295.666584 112.751846 
L 295.707844 112.880402 
L 295.810995 113.423699 
L 295.872886 113.374927 
L 295.976037 113.303717 
L 296.099819 112.86654 
L 296.161709 112.946249 
L 296.388642 113.567071 
L 296.450533 113.371742 
L 296.533054 113.000373 
L 296.574314 113.171452 
L 296.656835 113.557115 
L 296.718726 113.44228 
L 296.759986 113.445007 
L 296.780617 113.489949 
L 296.821877 113.559634 
L 296.863138 113.470448 
L 296.945659 113.145983 
L 297.007549 113.282942 
L 297.04881 113.323813 
L 297.06944 113.264696 
L 297.172591 112.837367 
L 297.234482 112.91097 
L 297.337633 112.959058 
L 297.502675 113.91466 
L 297.564566 113.82486 
L 297.688347 113.328929 
L 297.770868 113.494281 
L 297.89465 113.843169 
L 297.93591 113.985321 
L 297.977171 113.859951 
L 298.059692 113.446591 
L 298.121582 113.540117 
L 298.224734 113.672057 
L 298.307255 114.057601 
L 298.348515 113.852667 
L 298.431036 113.488539 
L 298.492927 113.557407 
L 298.616708 113.03842 
L 298.699229 113.246501 
L 298.78175 113.279407 
L 298.823011 113.233564 
L 298.884901 113.212007 
L 298.905532 113.261393 
L 298.988053 113.519732 
L 299.029313 113.368771 
L 299.132464 112.839912 
L 299.194355 112.893764 
L 299.276876 113.026503 
L 299.400657 113.673454 
L 299.441918 113.486003 
L 299.524439 113.101855 
L 299.58633 113.219378 
L 299.710111 113.536307 
L 299.751372 113.438902 
L 299.854523 112.999653 
L 299.895783 113.141658 
L 299.957674 113.387267 
L 299.998934 113.275742 
L 300.081455 112.964402 
L 300.122716 113.060415 
L 300.184607 113.147502 
L 300.225867 113.055332 
L 300.267128 113.004815 
L 300.308388 113.108874 
L 300.411539 113.43778 
L 300.47343 113.371028 
L 300.514691 113.400416 
L 300.659102 114.077763 
L 300.762253 113.905335 
L 300.968556 114.056088 
L 301.154228 114.275006 
L 301.195489 114.227247 
L 301.236749 114.214674 
L 301.27801 114.302214 
L 301.31927 114.397265 
L 301.36053 114.326801 
L 301.608093 113.483087 
L 301.669984 113.661987 
L 301.773135 113.967275 
L 301.814396 113.908654 
L 302.309522 113.229803 
L 302.350782 113.234298 
L 302.371412 113.283847 
L 302.453933 113.490855 
L 302.495194 113.425982 
L 302.557085 113.347588 
L 302.598345 113.456138 
L 302.742757 113.856891 
L 302.784017 113.803717 
L 302.928429 113.408091 
L 302.99032 113.531462 
L 303.03158 113.539976 
L 303.05221 113.493851 
L 303.134731 113.300857 
L 303.155362 113.357472 
L 303.279143 114.005666 
L 303.320404 113.799305 
L 303.485445 113.389067 
L 303.588597 113.101603 
L 303.629857 113.208413 
L 303.733008 113.462431 
L 303.794899 113.444193 
L 303.939311 113.615706 
L 303.980571 113.517537 
L 304.145613 112.470838 
L 304.207504 112.79113 
L 304.372546 113.621617 
L 304.413806 113.552405 
L 304.496327 113.312022 
L 304.537588 113.397092 
L 304.640739 113.799771 
L 304.70263 113.678928 
L 304.826411 113.478552 
L 304.867672 113.506593 
L 305.073974 113.53934 
L 305.507209 113.354718 
L 305.58973 113.521303 
L 305.630991 113.462548 
L 305.734142 113.190106 
L 305.775402 113.294275 
L 306.022965 113.813012 
L 306.084856 113.645675 
L 306.167377 113.430597 
L 306.208637 113.521029 
L 306.270528 113.628239 
L 306.311789 113.539544 
L 306.373679 113.394626 
L 306.41494 113.509415 
L 306.518091 113.983777 
L 306.559352 113.864596 
L 306.662503 113.53718 
L 306.703763 113.631765 
L 306.786284 113.795612 
L 306.806915 113.738006 
L 306.930696 113.045274 
L 307.013217 113.228778 
L 307.116368 112.818651 
L 307.178259 113.097205 
L 307.24015 113.379138 
L 307.30204 113.223309 
L 307.384561 113.08809 
L 307.425822 113.187466 
L 307.528973 113.809493 
L 307.590864 113.480677 
L 307.652754 113.156442 
L 307.694015 113.425518 
L 307.755906 113.822816 
L 307.797166 113.663159 
L 307.900317 113.218303 
L 307.941578 113.289955 
L 308.08599 114.132814 
L 308.14788 113.83915 
L 308.209771 113.579324 
L 308.271662 113.741057 
L 308.333552 113.901894 
L 308.374813 113.839114 
L 308.477964 113.407596 
L 308.519225 113.602708 
L 308.581115 113.961957 
L 308.643006 113.727622 
L 308.684267 113.569585 
L 308.746157 113.714748 
L 308.911199 113.938524 
L 308.93183 113.916914 
L 309.076241 113.09486 
L 309.158762 113.355363 
L 309.241283 113.568768 
L 309.282544 113.484596 
L 309.365065 113.255739 
L 309.426955 113.354259 
L 309.488846 113.252359 
L 309.612628 113.019367 
L 309.633258 113.043647 
L 309.757039 113.792682 
L 309.83956 113.427563 
L 309.86019 113.384459 
L 309.901451 113.549431 
L 309.963342 113.845248 
L 310.025232 113.691797 
L 310.045863 113.664852 
L 310.087123 113.729596 
L 310.128384 113.763859 
L 310.149014 113.706855 
L 310.355316 113.207426 
L 310.437837 113.424417 
L 310.458467 113.44569 
L 310.499728 113.347193 
L 310.540988 113.273551 
L 310.561619 113.336671 
L 310.64414 113.858221 
L 310.70603 113.647406 
L 310.767921 113.471613 
L 310.829812 113.585806 
L 310.912333 113.508212 
L 311.036114 113.415076 
L 311.077375 113.469393 
L 311.118635 113.487366 
L 311.139265 113.43702 
L 311.221786 113.158395 
L 311.263047 113.378811 
L 311.324938 113.773304 
L 311.366198 113.606621 
L 311.469349 112.986818 
L 311.53124 113.105835 
L 311.675652 113.225304 
L 311.737543 113.508118 
L 311.778803 113.397579 
L 311.881954 112.657034 
L 311.923215 112.910475 
L 311.985105 113.406147 
L 312.046996 113.12946 
L 312.232668 112.334491 
L 312.315189 112.803746 
L 312.37708 113.012592 
L 312.438971 112.915658 
L 312.604013 112.829498 
L 312.727794 112.486397 
L 312.810315 112.017283 
L 312.851576 112.153899 
L 312.954727 112.552708 
L 312.995987 112.446877 
L 313.161029 111.60016 
L 313.22292 111.840967 
L 313.26418 111.924039 
L 313.305441 111.78781 
L 313.614895 110.291556 
L 313.656155 110.424538 
L 313.697416 110.528135 
L 313.738676 110.440514 
L 314.06876 108.398125 
L 314.378214 104.15967 
L 314.667037 96.231341 
L 314.89397 82.030081 
L 315.285944 49.006756 
L 315.347835 50.819805 
L 315.533507 69.945062 
L 315.884221 99.876138 
L 316.214305 108.896799 
L 316.482498 111.001074 
L 316.688801 111.555434 
L 316.771322 111.817794 
L 316.895103 112.163606 
L 316.936364 112.100248 
L 317.142666 111.108933 
L 317.658422 104.702988 
L 317.864725 95.737705 
L 318.112287 72.656445 
L 318.442371 33.973042 
L 318.483632 34.922752 
L 318.607413 46.744838 
L 319.040648 91.880006 
L 319.350102 102.027319 
L 320.134051 109.686811 
L 320.360984 110.260803 
L 320.464135 110.777061 
L 320.526026 111.044904 
L 320.587917 110.861248 
L 320.629177 110.80592 
L 320.670438 110.947796 
L 320.918 111.831311 
L 320.938631 111.799283 
L 321.041782 111.515789 
L 321.083042 111.603662 
L 321.309975 112.075647 
L 321.351236 111.98065 
L 321.413126 111.760225 
L 321.454387 111.88895 
L 321.578168 112.558307 
L 321.640059 112.465121 
L 321.70195 112.432981 
L 321.74321 112.475271 
L 321.866992 112.829238 
L 321.928882 112.97742 
L 321.970143 112.867262 
L 322.217706 112.249474 
L 322.320857 112.650006 
L 322.382748 112.420243 
L 322.403378 112.377578 
L 322.444638 112.456532 
L 322.506529 112.617156 
L 322.56842 112.514418 
L 322.712832 112.286848 
L 322.754092 112.199776 
L 322.795353 112.348094 
L 322.898504 112.728628 
L 322.960394 112.715737 
L 323.042915 112.651828 
L 323.207957 112.510295 
L 323.269848 112.479085 
L 323.290478 112.522247 
L 323.41426 112.88828 
L 323.476151 112.797155 
L 323.517411 112.852297 
L 323.641192 113.630178 
L 323.703083 113.260045 
L 323.785604 112.786626 
L 323.826865 112.918972 
L 323.868125 113.022705 
L 323.930016 112.913196 
L 323.971276 112.867017 
L 324.012537 112.941572 
L 324.198209 113.543903 
L 324.23947 113.402605 
L 324.425142 112.623094 
L 324.466402 112.692563 
L 324.548923 112.867388 
L 324.590184 112.749185 
L 324.652074 112.598112 
L 324.693335 112.688688 
L 324.837747 113.229524 
L 324.899637 113.182303 
L 324.982158 113.235729 
L 325.023419 113.263654 
L 325.064679 113.208679 
L 325.1472 113.122945 
L 325.188461 113.153637 
L 325.312242 113.371481 
L 325.374133 113.44279 
L 325.415393 113.357521 
L 325.642326 112.648925 
L 325.704217 112.887787 
L 325.848628 113.931188 
L 325.910519 113.77366 
L 325.99304 113.546756 
L 326.054931 113.571928 
L 326.219973 113.245751 
L 326.281864 113.134325 
L 326.302494 113.203179 
L 326.385015 113.661808 
L 326.446905 113.428811 
L 326.508796 113.269033 
L 326.570687 113.365283 
L 326.653208 113.154979 
L 326.694468 113.324265 
L 326.776989 113.767622 
L 326.81825 113.551756 
L 326.900771 113.153362 
L 326.942031 113.301387 
L 327.086443 113.890145 
L 327.127703 113.837485 
L 327.416527 113.401215 
L 327.499048 113.557777 
L 327.560939 113.698023 
L 327.602199 113.635422 
L 327.66409 113.531958 
L 327.70535 113.640208 
L 327.787871 113.858471 
L 327.829132 113.739927 
L 327.911653 113.480821 
L 327.973543 113.580037 
L 328.200476 114.280138 
L 328.241737 114.092084 
L 328.324258 113.572315 
L 328.386148 113.708343 
L 328.448039 113.78359 
L 328.489299 113.73834 
L 328.592451 113.502583 
L 328.654341 113.300462 
L 328.695602 113.476711 
L 328.778123 113.934866 
L 328.840014 113.735575 
L 328.881274 113.671341 
L 328.922535 113.750165 
L 328.963795 113.791078 
L 329.005056 113.694149 
L 329.066946 113.555913 
L 329.128837 113.661065 
L 329.170097 113.701648 
L 329.211358 113.636293 
L 329.273249 113.569419 
L 329.293879 113.618033 
L 329.500181 114.244779 
L 329.541442 114.190533 
L 329.685854 113.297219 
L 329.789005 113.559411 
L 329.892156 113.71844 
L 329.933416 113.681857 
L 330.057198 113.353875 
L 330.119089 113.125726 
L 330.160349 113.299579 
L 330.24287 113.955365 
L 330.304761 113.688212 
L 330.490433 113.208231 
L 330.531693 113.380631 
L 330.634845 114.265466 
L 330.676105 113.948137 
L 330.779256 113.326081 
L 330.820517 113.417003 
L 331.026819 113.723892 
L 331.04745 113.702289 
L 331.356903 113.024483 
L 331.377533 113.068395 
L 331.563206 113.372931 
L 331.625096 113.489969 
L 331.666357 113.355568 
L 331.728248 113.138346 
L 331.769508 113.295204 
L 331.89329 114.098571 
L 331.95518 113.942154 
L 332.161483 112.960707 
L 332.202743 113.120195 
L 332.326525 113.949649 
L 332.367785 113.760363 
L 332.491567 113.287362 
L 332.532827 113.342059 
L 332.677239 114.077364 
L 332.739129 113.718757 
L 332.80102 113.443279 
L 332.842281 113.591564 
L 332.904171 113.777675 
L 332.966062 113.690944 
L 333.089844 113.674162 
L 333.151734 113.519699 
L 333.192995 113.711722 
L 333.254886 113.922967 
L 333.296146 113.682622 
L 333.358037 113.409737 
L 333.399297 113.620109 
L 333.461188 113.935961 
L 333.523079 113.772839 
L 333.62623 113.518373 
L 333.66749 113.598072 
L 333.935684 114.41547 
L 333.956314 114.349646 
L 334.018204 114.122901 
L 334.059465 114.244289 
L 334.100725 114.419394 
L 334.141986 114.323401 
L 334.368919 113.414498 
L 334.410179 113.483 
L 334.51333 113.858113 
L 334.554591 113.78816 
L 334.699002 113.370914 
L 334.760893 113.536348 
L 334.822784 113.760895 
L 334.864044 113.664039 
L 334.987826 113.099305 
L 335.049717 113.210624 
L 335.111607 113.049726 
L 335.152868 112.909565 
L 335.194128 113.025209 
L 335.276649 113.458035 
L 335.31791 113.284979 
L 335.35917 113.11773 
L 335.400431 113.262445 
L 335.462321 113.618511 
L 335.524212 113.398788 
L 335.565473 113.302167 
L 335.606733 113.446873 
L 335.647994 113.550313 
L 335.689254 113.376279 
L 335.751145 113.044294 
L 335.813036 113.246147 
L 335.874926 113.431105 
L 335.936817 113.354474 
L 335.998708 113.425722 
L 336.060599 113.544935 
L 336.122489 113.454057 
L 336.16375 113.397292 
L 336.20501 113.498918 
L 336.308161 113.898567 
L 336.349422 113.730104 
L 336.535094 113.113262 
L 336.555724 113.12477 
L 336.823917 113.629141 
L 336.885808 113.510517 
L 336.927069 113.523174 
L 336.947699 113.582632 
L 337.03022 113.807206 
L 337.07148 113.738888 
L 337.215892 113.368948 
L 337.257153 113.439444 
L 337.339674 113.574857 
L 337.380934 113.52785 
L 337.525346 113.332878 
L 337.566606 113.399838 
L 337.711018 113.996958 
L 337.772909 113.900891 
L 337.91732 113.421393 
L 337.979211 113.618233 
L 337.999841 113.639432 
L 338.020472 113.5928 
L 338.123623 113.060782 
L 338.185513 113.205317 
L 338.206144 113.226298 
L 338.247404 113.145181 
L 338.288665 113.053893 
L 338.329925 113.147437 
L 338.515597 114.030332 
L 338.556858 113.876617 
L 338.660009 113.297489 
L 338.7219 113.376398 
L 338.783791 113.276397 
L 338.825051 113.198606 
L 338.886942 113.29669 
L 339.093244 113.530444 
L 339.237656 113.138956 
L 339.299547 113.321291 
L 339.402698 113.926753 
L 339.443958 113.809381 
L 339.56774 113.368139 
L 339.609 113.394931 
L 339.918454 113.916983 
L 339.939084 113.856673 
L 340.124756 113.213272 
L 340.166017 113.266833 
L 340.227908 113.391007 
L 340.269168 113.320217 
L 340.331059 113.210178 
L 340.351689 113.267712 
L 340.43421 113.581103 
L 340.496101 113.463902 
L 340.702403 113.316673 
L 340.723033 113.385047 
L 340.784924 113.548604 
L 340.846815 113.443779 
L 340.888075 113.521877 
L 340.970596 113.859598 
L 341.053117 113.783948 
L 341.383201 114.030674 
L 341.424462 114.051396 
L 341.465722 113.958272 
L 341.651394 113.525327 
L 341.672024 113.537442 
L 341.754545 114.061075 
L 341.754545 114.061075 
" clip-path="url(#pc4b31f513f)" style="fill: none; stroke: #000000; stroke-linecap: square"/>
   </g>
   <g id="patch_5">
    <path d="M 185.4 119.625625 
L 349.2 119.625625 
" style="fill: none; stroke: #000000; stroke-width: 1.3; stroke-linejoin: miter; stroke-linecap: square"/>
   </g>
   <g id="text_13">
    <!-- (13.1) -->
    <g transform="translate(187.298309 108.743062)scale(0.1 -0.1)">
     <defs>
      <path id="FiraSans-Regular-d7" d="M 2381 3110 
L 1600 2323 
L 819 3110 
L 461 2746 
L 1242 1965 
L 461 1184 
L 819 826 
L 1600 1606 
L 2381 826 
L 2739 1184 
L 1958 1965 
L 2739 2746 
L 2381 3110 
z
" transform="scale(0.015625)"/>
     </defs>
     <use xlink:href="#FiraSans-Regular-28"/>
     <use xlink:href="#FiraSans-Regular-31" x="32.399994"/>
     <use xlink:href="#FiraSans-Regular-33" x="75.699982"/>
     <use xlink:href="#FiraSans-Regular-2e" x="125.599976"/>
     <use xlink:href="#FiraSans-Regular-31" x="149.59996"/>
     <use xlink:href="#FiraSans-Regular-d7" x="192.899948"/>
     <use xlink:href="#FiraSans-Regular-29" x="242.899933"/>
    </g>
   </g>
  </g>
 </g>
 <defs>
  <clipPath id="p8224750816">
   <rect x="10.8" y="10.8" width="163.8" height="108.825625"/>
  </clipPath>
  <clipPath id="pc4b31f513f">
   <rect x="185.4" y="10.8" width="163.8" height="108.825625"/>
  </clipPath>
 </defs>
</svg>
