<?xml version="1.0" encoding="utf-8" standalone="no"?>
<!DOCTYPE svg PUBLIC "-//W3C//DTD SVG 1.1//EN"
  "http://www.w3.org/Graphics/SVG/1.1/DTD/svg11.dtd">
<svg height="164.88pt" version="1.1" viewBox="0 0 360 164.88" width="360pt" xmlns="http://www.w3.org/2000/svg" xmlns:xlink="http://www.w3.org/1999/xlink">
 <metadata>
  <rdf:RDF xmlns:cc="http://creativecommons.org/ns#" xmlns:dc="http://purl.org/dc/elements/1.1/" xmlns:rdf="http://www.w3.org/1999/02/22-rdf-syntax-ns#">
   <cc:Work>
    <dc:type rdf:resource="http://purl.org/dc/dcmitype/StillImage"/>
    <dc:date>2022-08-10T18:12:19.574579</dc:date>
    <dc:format>image/svg+xml</dc:format>
    <dc:creator>
     <cc:Agent>
      <dc:title>Matplotlib v3.4.3, https://matplotlib.org/</dc:title>
     </cc:Agent>
    </dc:creator>
   </cc:Work>
  </rdf:RDF>
 </metadata>
 <defs>
  <style type="text/css">*{stroke-linecap:butt;stroke-linejoin:round;}</style>
 </defs>
 <g id="figure_1">
  <g id="patch_1">
   <path d="M 0 164.88 
L 360 164.88 
L 360 0 
L 0 0 
z
" style="fill:none;"/>
  </g>
  <g id="axes_1">
   <g id="patch_2">
    <path d="M 10.8 116.93125 
L 174.6 116.93125 
L 174.6 10.8 
L 10.8 10.8 
z
" style="fill:none;"/>
   </g>
   <g id="matplotlib.axis_1">
    <g id="xtick_1">
     <g id="line2d_1">
      <defs>
       <path d="M 0 0 
L 0 5 
" id="m46e61e260b" style="stroke:#000000;stroke-width:1.3;"/>
      </defs>
      <g>
       <use style="stroke:#000000;stroke-width:1.3;" x="150.218682" xlink:href="#m46e61e260b" y="116.93125"/>
      </g>
     </g>
     <g id="text_1">
      <!-- 3.8 -->
      <g transform="translate(143.768682 132.93125)scale(0.1 -0.1)">
       <defs>
        <path d="M 1440 4346 
C 979 4346 582 4179 218 3840 
L 525 3488 
C 813 3757 1069 3872 1408 3872 
C 1837 3872 2118 3622 2118 3219 
C 2118 2720 1766 2464 1344 2464 
L 1126 2464 
L 1056 2010 
L 1376 2010 
C 1894 2010 2227 1830 2227 1242 
C 2227 736 1901 403 1363 403 
C 1018 403 730 531 448 826 
L 96 499 
C 422 109 870 -77 1382 -77 
C 2272 -77 2842 486 2842 1235 
C 2842 1882 2413 2221 1875 2272 
C 2355 2387 2707 2714 2707 3258 
C 2707 3834 2259 4346 1440 4346 
z
" id="FiraSans-Regular-33" transform="scale(0.015625)"/>
        <path d="M 762 813 
C 512 813 320 614 320 371 
C 320 122 512 -77 762 -77 
C 1018 -77 1210 122 1210 371 
C 1210 614 1018 813 762 813 
z
" id="FiraSans-Regular-2e" transform="scale(0.015625)"/>
        <path d="M 2336 2298 
C 2822 2541 3066 2829 3066 3264 
C 3066 3994 2406 4346 1766 4346 
C 1114 4346 467 3968 467 3245 
C 467 2803 672 2477 1133 2246 
C 608 2016 288 1683 288 1133 
C 288 429 870 -77 1754 -77 
C 2624 -77 3238 429 3238 1146 
C 3238 1683 2925 2061 2336 2298 
z
M 1766 3904 
C 2234 3904 2490 3642 2490 3245 
C 2490 2880 2330 2656 1946 2438 
L 1837 2477 
C 1344 2637 1043 2797 1043 3238 
C 1043 3667 1325 3904 1766 3904 
z
M 1760 390 
C 1229 390 902 666 902 1133 
C 902 1600 1107 1894 1530 2099 
L 1690 2042 
C 2381 1805 2624 1600 2624 1139 
C 2624 691 2298 390 1760 390 
z
" id="FiraSans-Regular-38" transform="scale(0.015625)"/>
       </defs>
       <use xlink:href="#FiraSans-Regular-33"/>
       <use x="49.899994" xlink:href="#FiraSans-Regular-2e"/>
       <use x="73.899979" xlink:href="#FiraSans-Regular-38"/>
      </g>
     </g>
    </g>
    <g id="xtick_2">
     <g id="line2d_2">
      <g>
       <use style="stroke:#000000;stroke-width:1.3;" x="116.375875" xlink:href="#m46e61e260b" y="116.93125"/>
      </g>
     </g>
     <g id="text_2">
      <!-- 4.0 -->
      <g transform="translate(109.725875 132.93125)scale(0.1 -0.1)">
       <defs>
        <path d="M 3213 1523 
L 2656 1523 
L 2656 2675 
L 2144 2675 
L 2093 1523 
L 877 1523 
L 2035 4141 
L 1542 4346 
L 256 1478 
L 256 1056 
L 2086 1056 
L 2086 0 
L 2656 0 
L 2656 1056 
L 3213 1056 
L 3213 1523 
z
" id="FiraSans-Regular-34" transform="scale(0.015625)"/>
        <path d="M 1786 4346 
C 826 4346 352 3558 352 2138 
C 352 717 826 -77 1786 -77 
C 2746 -77 3219 717 3219 2138 
C 3219 3552 2746 4346 1786 4346 
z
M 1786 3878 
C 2317 3878 2605 3392 2605 2138 
C 2605 877 2317 390 1786 390 
C 1248 390 966 877 966 2138 
C 966 3392 1248 3878 1786 3878 
z
" id="FiraSans-Regular-30" transform="scale(0.015625)"/>
       </defs>
       <use xlink:href="#FiraSans-Regular-34"/>
       <use x="53.199997" xlink:href="#FiraSans-Regular-2e"/>
       <use x="77.199982" xlink:href="#FiraSans-Regular-30"/>
      </g>
     </g>
    </g>
    <g id="xtick_3">
     <g id="line2d_3">
      <g>
       <use style="stroke:#000000;stroke-width:1.3;" x="82.533068" xlink:href="#m46e61e260b" y="116.93125"/>
      </g>
     </g>
     <g id="text_3">
      <!-- 4.2 -->
      <g transform="translate(76.197912 132.93125)scale(0.1 -0.1)">
       <defs>
        <path d="M 1459 4346 
C 922 4346 506 4128 160 3699 
L 557 3392 
C 832 3718 1069 3859 1427 3859 
C 1843 3859 2131 3597 2131 3149 
C 2131 2451 1760 2042 250 467 
L 250 0 
L 2778 0 
L 2848 493 
L 922 493 
C 2234 1805 2746 2374 2746 3174 
C 2746 3840 2246 4346 1459 4346 
z
" id="FiraSans-Regular-32" transform="scale(0.015625)"/>
       </defs>
       <use xlink:href="#FiraSans-Regular-34"/>
       <use x="53.199997" xlink:href="#FiraSans-Regular-2e"/>
       <use x="77.199982" xlink:href="#FiraSans-Regular-32"/>
      </g>
     </g>
    </g>
    <g id="xtick_4">
     <g id="line2d_4">
      <g>
       <use style="stroke:#000000;stroke-width:1.3;" x="48.690261" xlink:href="#m46e61e260b" y="116.93125"/>
      </g>
     </g>
     <g id="text_4">
      <!-- 4.4 -->
      <g transform="translate(42.169948 132.93125)scale(0.1 -0.1)">
       <use xlink:href="#FiraSans-Regular-34"/>
       <use x="53.199997" xlink:href="#FiraSans-Regular-2e"/>
       <use x="77.199982" xlink:href="#FiraSans-Regular-34"/>
      </g>
     </g>
    </g>
    <g id="xtick_5">
     <g id="line2d_5">
      <g>
       <use style="stroke:#000000;stroke-width:1.3;" x="14.847454" xlink:href="#m46e61e260b" y="116.93125"/>
      </g>
     </g>
     <g id="text_5">
      <!-- 4.6 -->
      <g transform="translate(8.322454 132.93125)scale(0.1 -0.1)">
       <defs>
        <path d="M 1971 2816 
C 1568 2816 1222 2650 941 2253 
C 973 3232 1344 3878 1965 3878 
C 2202 3878 2426 3814 2624 3693 
L 2854 4083 
C 2605 4250 2317 4346 1971 4346 
C 960 4346 352 3411 352 2010 
C 352 781 749 -77 1792 -77 
C 2547 -77 3155 518 3155 1453 
C 3155 2368 2598 2816 1971 2816 
z
M 1792 390 
C 1222 390 973 826 947 1760 
C 1165 2112 1485 2349 1869 2349 
C 2272 2349 2560 2112 2560 1434 
C 2560 806 2298 390 1792 390 
z
" id="FiraSans-Regular-36" transform="scale(0.015625)"/>
       </defs>
       <use xlink:href="#FiraSans-Regular-34"/>
       <use x="53.199997" xlink:href="#FiraSans-Regular-2e"/>
       <use x="77.199982" xlink:href="#FiraSans-Regular-36"/>
      </g>
     </g>
    </g>
    <g id="xtick_6">
     <g id="line2d_6">
      <defs>
       <path d="M 0 0 
L 0 3 
" id="m7b992f6af8" style="stroke:#000000;stroke-width:1.3;"/>
      </defs>
      <g>
       <use style="stroke:#000000;stroke-width:1.3;" x="167.140085" xlink:href="#m7b992f6af8" y="116.93125"/>
      </g>
     </g>
    </g>
    <g id="xtick_7">
     <g id="line2d_7">
      <g>
       <use style="stroke:#000000;stroke-width:1.3;" x="158.679383" xlink:href="#m7b992f6af8" y="116.93125"/>
      </g>
     </g>
    </g>
    <g id="xtick_8">
     <g id="line2d_8">
      <g>
       <use style="stroke:#000000;stroke-width:1.3;" x="141.75798" xlink:href="#m7b992f6af8" y="116.93125"/>
      </g>
     </g>
    </g>
    <g id="xtick_9">
     <g id="line2d_9">
      <g>
       <use style="stroke:#000000;stroke-width:1.3;" x="133.297278" xlink:href="#m7b992f6af8" y="116.93125"/>
      </g>
     </g>
    </g>
    <g id="xtick_10">
     <g id="line2d_10">
      <g>
       <use style="stroke:#000000;stroke-width:1.3;" x="124.836576" xlink:href="#m7b992f6af8" y="116.93125"/>
      </g>
     </g>
    </g>
    <g id="xtick_11">
     <g id="line2d_11">
      <g>
       <use style="stroke:#000000;stroke-width:1.3;" x="107.915173" xlink:href="#m7b992f6af8" y="116.93125"/>
      </g>
     </g>
    </g>
    <g id="xtick_12">
     <g id="line2d_12">
      <g>
       <use style="stroke:#000000;stroke-width:1.3;" x="99.454471" xlink:href="#m7b992f6af8" y="116.93125"/>
      </g>
     </g>
    </g>
    <g id="xtick_13">
     <g id="line2d_13">
      <g>
       <use style="stroke:#000000;stroke-width:1.3;" x="90.993769" xlink:href="#m7b992f6af8" y="116.93125"/>
      </g>
     </g>
    </g>
    <g id="xtick_14">
     <g id="line2d_14">
      <g>
       <use style="stroke:#000000;stroke-width:1.3;" x="74.072366" xlink:href="#m7b992f6af8" y="116.93125"/>
      </g>
     </g>
    </g>
    <g id="xtick_15">
     <g id="line2d_15">
      <g>
       <use style="stroke:#000000;stroke-width:1.3;" x="65.611664" xlink:href="#m7b992f6af8" y="116.93125"/>
      </g>
     </g>
    </g>
    <g id="xtick_16">
     <g id="line2d_16">
      <g>
       <use style="stroke:#000000;stroke-width:1.3;" x="57.150963" xlink:href="#m7b992f6af8" y="116.93125"/>
      </g>
     </g>
    </g>
    <g id="xtick_17">
     <g id="line2d_17">
      <g>
       <use style="stroke:#000000;stroke-width:1.3;" x="40.229559" xlink:href="#m7b992f6af8" y="116.93125"/>
      </g>
     </g>
    </g>
    <g id="xtick_18">
     <g id="line2d_18">
      <g>
       <use style="stroke:#000000;stroke-width:1.3;" x="31.768857" xlink:href="#m7b992f6af8" y="116.93125"/>
      </g>
     </g>
    </g>
    <g id="xtick_19">
     <g id="line2d_19">
      <g>
       <use style="stroke:#000000;stroke-width:1.3;" x="23.308156" xlink:href="#m7b992f6af8" y="116.93125"/>
      </g>
     </g>
    </g>
    <g id="text_6">
     <!-- $\rm ^{1}H$ (ppm) -->
     <g transform="translate(72.8 147.560937)scale(0.1 -0.1)">
      <defs>
       <path d="M 2067 4282 
L 1549 4282 
L 224 3462 
L 480 3046 
L 1478 3654 
L 1478 0 
L 2067 0 
L 2067 4282 
z
" id="FiraSans-Regular-31" transform="scale(0.015625)"/>
       <path d="M 3104 0 
L 3712 0 
L 3712 4410 
L 3104 4410 
L 3104 2566 
L 1248 2566 
L 1248 4410 
L 640 4410 
L 640 0 
L 1248 0 
L 1248 2067 
L 3104 2067 
L 3104 0 
z
" id="FiraSans-Regular-48" transform="scale(0.015625)"/>
       <path id="FiraSans-Regular-20" transform="scale(0.015625)"/>
       <path d="M 1446 5408 
C 819 4518 256 3757 256 2240 
C 256 723 819 -38 1446 -928 
L 1818 -672 
C 1242 179 870 870 870 2240 
C 870 3616 1242 4301 1818 5152 
L 1446 5408 
z
" id="FiraSans-Regular-28" transform="scale(0.015625)"/>
       <path d="M 2157 3450 
C 1773 3450 1408 3264 1158 2918 
L 1114 3373 
L 608 3373 
L 608 -1363 
L 1197 -1293 
L 1197 307 
C 1414 45 1715 -77 2080 -77 
C 2950 -77 3405 666 3405 1690 
C 3405 2752 3053 3450 2157 3450 
z
M 1939 403 
C 1632 403 1370 550 1197 813 
L 1197 2458 
C 1376 2726 1651 2982 2010 2982 
C 2515 2982 2771 2566 2771 1690 
C 2771 806 2477 403 1939 403 
z
" id="FiraSans-Regular-70" transform="scale(0.015625)"/>
       <path d="M 3994 3450 
C 3539 3450 3232 3206 2989 2842 
C 2861 3226 2554 3450 2138 3450 
C 1696 3450 1389 3219 1165 2880 
L 1114 3373 
L 608 3373 
L 608 0 
L 1197 0 
L 1197 2394 
C 1421 2752 1626 2989 1990 2989 
C 2246 2989 2464 2842 2464 2336 
L 2464 0 
L 3053 0 
L 3053 2394 
C 3283 2752 3482 2989 3846 2989 
C 4102 2989 4320 2842 4320 2336 
L 4320 0 
L 4909 0 
L 4909 2419 
C 4909 3053 4544 3450 3994 3450 
z
" id="FiraSans-Regular-6d" transform="scale(0.015625)"/>
       <path d="M 627 5408 
L 256 5152 
C 832 4301 1203 3616 1203 2240 
C 1203 870 832 179 256 -672 
L 627 -928 
C 1254 -38 1818 723 1818 2240 
C 1818 3757 1254 4518 627 5408 
z
" id="FiraSans-Regular-29" transform="scale(0.015625)"/>
      </defs>
      <use transform="translate(0.922305 37.392187)scale(0.7)" xlink:href="#FiraSans-Regular-31"/>
      <use transform="translate(33.867452 0.5)" xlink:href="#FiraSans-Regular-48"/>
      <use transform="translate(101.867437 0.5)" xlink:href="#FiraSans-Regular-20"/>
      <use transform="translate(128.367422 0.5)" xlink:href="#FiraSans-Regular-28"/>
      <use transform="translate(160.767416 0.5)" xlink:href="#FiraSans-Regular-70"/>
      <use transform="translate(220.16741 0.5)" xlink:href="#FiraSans-Regular-70"/>
      <use transform="translate(279.567404 0.5)" xlink:href="#FiraSans-Regular-6d"/>
      <use transform="translate(365.267385 0.5)" xlink:href="#FiraSans-Regular-29"/>
     </g>
    </g>
   </g>
   <g id="matplotlib.axis_2"/>
   <g id="line2d_20">
    <path clip-path="url(#pb01779035e)" d="M 18.245455 111.624657 
L 19.194446 111.708041 
L 19.483269 111.784334 
L 19.607051 111.891171 
L 19.751462 111.872891 
L 19.957765 111.987563 
L 20.143437 111.983339 
L 20.329109 111.971656 
L 20.43226 112.082913 
L 20.494151 112.092642 
L 20.535411 112.035163 
L 20.741714 111.934622 
L 21.092428 111.797331 
L 21.360621 111.78648 
L 21.525663 111.756097 
L 21.628814 111.830943 
L 21.752596 111.813416 
L 22.08268 111.655805 
L 22.350873 111.699788 
L 22.577805 111.636233 
L 22.887259 111.753477 
L 23.237973 111.73272 
L 23.77436 111.756226 
L 24.063183 111.831583 
L 24.599569 111.85469 
L 25.156586 111.491066 
L 25.239107 111.516045 
L 25.259737 111.553774 
L 25.48667 111.755288 
L 25.734233 111.727721 
L 25.837384 111.843366 
L 25.899275 111.802751 
L 26.807005 111.539816 
L 26.992677 111.483186 
L 27.095829 111.592055 
L 27.260871 111.699351 
L 27.776627 111.572028 
L 27.941669 111.525453 
L 28.147971 111.518576 
L 28.684357 111.815556 
L 28.808139 111.742808 
L 28.89066 111.760922 
L 28.91129 111.79119 
L 28.993811 111.832399 
L 29.035071 111.775507 
L 29.200113 111.734452 
L 29.344525 111.781405 
L 29.550827 111.748512 
L 29.839651 111.571872 
L 30.396667 111.770855 
L 30.912423 111.380857 
L 31.44881 111.479793 
L 32.170868 111.6849 
L 32.33591 111.783218 
L 32.500952 111.817977 
L 32.686624 111.821505 
L 34.00696 111.836897 
L 34.378304 111.811736 
L 34.646497 111.769775 
L 34.811539 111.739066 
L 35.162253 111.767159 
L 35.306665 111.741441 
L 35.389186 111.751307 
L 35.409816 111.780438 
L 35.574858 111.841352 
L 36.214396 111.926665 
L 36.730152 111.813033 
L 36.936454 111.865683 
L 38.029857 111.732897 
L 38.174269 111.755459 
L 38.380571 111.851853 
L 39.061369 111.833609 
L 39.700907 111.596203 
L 40.526117 111.815812 
L 40.773679 111.794384 
L 41.041873 111.925814 
L 41.371956 111.756743 
L 41.495738 111.890476 
L 41.619519 111.957794 
L 41.64015 111.943315 
L 41.970234 111.754926 
L 42.155906 111.837148 
L 42.424099 111.753213 
L 42.630401 111.610827 
L 42.898594 111.574648 
L 43.125527 111.635202 
L 43.476241 111.808476 
L 44.322081 111.255704 
L 44.569644 110.999463 
L 44.693426 110.934073 
L 45.10603 109.835639 
L 45.353593 107.967861 
L 45.518635 104.54451 
L 45.724938 94.752424 
L 45.88998 74.663423 
L 46.075652 36.835284 
L 46.137543 43.467902 
L 46.467626 97.235058 
L 46.694559 104.012267 
L 46.900861 105.406042 
L 47.045273 105.281157 
L 47.189685 103.590118 
L 47.375357 97.606554 
L 47.540399 84.80304 
L 47.705441 48.405528 
L 47.808592 27.820985 
L 47.849853 34.323937 
L 48.159306 93.684074 
L 48.283088 96.898656 
L 48.324348 96.545926 
L 48.44813 93.359669 
L 48.613172 80.442951 
L 48.778214 40.473915 
L 48.881365 15.624148 
L 48.922625 22.33389 
L 49.252709 94.116812 
L 49.479642 101.918886 
L 49.685944 103.284341 
L 49.809726 103.15735 
L 49.912877 102.211051 
L 50.057289 99.010319 
L 50.242961 89.27616 
L 50.408003 67.548297 
L 50.593675 31.787763 
L 50.634935 36.436994 
L 51.02691 98.386798 
L 51.274473 104.422068 
L 51.645817 107.396488 
L 52.120313 108.902751 
L 52.264725 109.134319 
L 52.305985 109.110024 
L 52.388506 109.059363 
L 52.429766 109.127051 
L 52.677329 109.613207 
L 52.69796 109.60535 
L 52.801111 109.470585 
L 52.842371 109.536318 
L 53.069304 109.831591 
L 53.399388 109.982403 
L 53.853253 110.641856 
L 54.45153 110.703879 
L 54.534051 110.683853 
L 54.554681 110.709026 
L 54.760984 110.838414 
L 55.029177 110.806785 
L 55.091068 110.756917 
L 55.132328 110.807573 
L 55.318 110.949866 
L 55.503673 110.959172 
L 55.668715 110.973024 
L 56.225731 111.100775 
L 56.308252 111.151781 
L 56.473294 111.421005 
L 56.514555 111.402477 
L 56.927159 111.465627 
L 57.092201 111.456829 
L 57.463546 111.236271 
L 57.504806 111.344036 
L 57.566697 111.399462 
L 57.607957 111.337286 
L 57.669848 111.29951 
L 57.711109 111.349179 
L 57.917411 111.504379 
L 57.938041 111.484124 
L 58.041192 111.406744 
L 58.082453 111.449445 
L 58.206234 111.407566 
L 58.577579 111.504195 
L 58.804511 111.546126 
L 59.340898 111.394269 
L 60.166107 111.570545 
L 61.073838 111.40482 
L 61.176989 111.455969 
L 61.280141 111.480308 
L 61.300771 111.459187 
L 61.383292 111.441415 
L 61.424552 111.494197 
L 61.568964 111.503187 
L 61.734006 111.531861 
L 61.837157 111.592176 
L 61.878418 111.552593 
L 62.06409 111.519764 
L 62.621106 111.51033 
L 62.765518 111.560119 
L 62.90993 111.551917 
L 63.178123 111.541552 
L 63.343165 111.558348 
L 64.354047 111.49608 
L 64.849173 111.591047 
L 65.055475 111.582129 
L 65.179256 111.696154 
L 65.220517 111.64458 
L 65.406189 111.612925 
L 65.839424 111.607501 
L 66.045727 111.570708 
L 66.272659 111.586636 
L 66.499592 111.635707 
L 66.788415 111.681997 
L 67.056608 111.59724 
L 67.469213 111.474868 
L 67.675516 111.418035 
L 68.273793 111.591874 
L 68.768919 111.573368 
L 68.8927 111.549297 
L 69.511607 111.326783 
L 69.614759 111.325507 
L 69.635389 111.352624 
L 69.944842 111.545404 
L 70.171775 111.569383 
L 70.274926 111.594438 
L 70.295557 111.572189 
L 70.687531 111.222272 
L 70.708161 111.242745 
L 70.893834 111.313053 
L 70.996985 111.420562 
L 71.182657 111.554527 
L 71.203287 111.538007 
L 71.347699 111.559373 
L 72.193539 111.395589 
L 72.420472 111.214048 
L 72.441102 111.234271 
L 72.729925 111.462198 
L 73.018749 111.495987 
L 73.266311 111.516391 
L 73.513874 111.570361 
L 73.699547 111.535693 
L 74.091521 111.448649 
L 74.174042 111.409876 
L 74.215303 111.463169 
L 74.277193 111.478168 
L 74.318454 111.422797 
L 74.400975 111.397229 
L 74.421605 111.422573 
L 74.607277 111.501093 
L 74.87547 111.5113 
L 75.184924 111.496642 
L 75.432487 111.506411 
L 76.133915 111.4058 
L 76.608411 111.417847 
L 76.814713 111.292318 
L 76.897234 111.293345 
L 76.917864 111.316585 
L 77.082906 111.343857 
L 77.557402 111.414118 
L 77.639923 111.429801 
L 77.660553 111.405536 
L 77.908116 111.289219 
L 78.073158 111.254323 
L 78.155679 111.298525 
L 78.2382 111.347049 
L 78.27946 111.30735 
L 78.361981 111.323173 
L 78.382612 111.359138 
L 78.485763 111.477181 
L 78.527023 111.445767 
L 78.733326 111.346876 
L 79.042779 111.26199 
L 79.290342 111.22125 
L 79.847359 111.203965 
L 80.239333 111.106868 
L 80.466266 111.126645 
L 80.858241 111.147914 
L 80.920131 111.179141 
L 80.961392 111.130286 
L 81.085173 111.124547 
L 81.394627 111.011146 
L 81.68345 110.928045 
L 81.827862 110.908167 
L 81.951644 110.925675 
L 82.178576 110.937293 
L 83.519542 110.606733 
L 83.622693 110.509448 
L 83.663954 110.549144 
L 83.808365 110.53348 
L 84.117819 110.461425 
L 84.303491 110.485134 
L 84.509794 110.395917 
L 85.00492 110.203432 
L 85.231852 110.126505 
L 85.685718 109.896007 
L 86.263364 109.273502 
L 86.283995 109.292174 
L 86.428406 109.281522 
L 86.614078 109.198649 
L 86.861641 109.003715 
L 87.274246 109.017435 
L 87.728112 108.704462 
L 87.955044 108.444641 
L 88.161347 108.3444 
L 88.594582 107.916662 
L 89.069077 107.083439 
L 91.00832 104.048638 
L 91.83353 102.02856 
L 92.576219 100.024715 
L 93.690252 97.780042 
L 94.061596 97.352119 
L 94.329789 97.206743 
L 94.515461 97.208632 
L 94.742394 97.160873 
L 94.907436 97.271923 
L 95.072478 97.364892 
L 95.712015 98.156854 
L 96.97046 100.788735 
L 98.187645 103.882989 
L 99.673022 106.331138 
L 101.055248 108.01451 
L 102.829449 109.46809 
L 103.015121 109.728815 
L 103.407096 109.790488 
L 103.592768 109.862697 
L 104.087894 109.641244 
L 104.562389 109.782721 
L 104.727431 109.734411 
L 104.748062 109.776559 
L 104.913104 109.90713 
L 105.098776 109.987668 
L 105.243187 109.955375 
L 105.366969 110.004293 
L 105.758944 109.996618 
L 105.862095 109.900238 
L 106.419111 108.366451 
L 106.666674 105.944394 
L 106.872977 101.43297 
L 107.058649 91.982815 
L 107.223691 70.859536 
L 107.429993 23.008714 
L 107.491884 28.532599 
L 107.718817 63.751889 
L 107.760077 63.11671 
L 107.863228 50.628841 
L 108.00764 22.297643 
L 108.069531 27.800077 
L 108.461505 96.189064 
L 108.709068 102.124606 
L 109.018522 104.680196 
L 109.204194 104.993617 
L 109.266085 104.982264 
L 109.286715 104.937321 
L 109.431127 104.12922 
L 109.616799 101.454159 
L 109.802471 95.109634 
L 109.967513 81.053082 
L 110.132555 44.667868 
L 110.235706 27.185565 
L 110.276967 30.661214 
L 110.52453 66.018828 
L 110.56579 64.794479 
L 110.668941 51.36577 
L 110.813353 29.220831 
L 110.854613 33.902246 
L 111.267218 97.92697 
L 111.514781 103.042892 
L 111.927386 106.369406 
L 112.339991 107.66843 
L 112.505033 107.9282 
L 112.690705 108.460417 
L 112.917638 108.823255 
L 113.10331 109.027078 
L 113.330243 109.360665 
L 114.237973 110.22799 
L 114.464906 110.152464 
L 114.568057 110.186331 
L 114.609318 110.131823 
L 114.753729 110.098224 
L 114.980662 110.349915 
L 115.063183 110.444392 
L 115.104443 110.393986 
L 115.166334 110.344231 
L 115.207595 110.387595 
L 115.599569 110.752719 
L 116.094695 110.967987 
L 116.280367 111.011237 
L 116.837384 111.109266 
L 117.023056 111.168541 
L 117.33251 111.298754 
L 117.580073 111.227028 
L 117.786375 111.240203 
L 117.930787 111.285877 
L 118.549694 111.338254 
L 119.230492 111.372015 
L 119.354273 111.398397 
L 119.478055 111.368863 
L 119.601836 111.372248 
L 119.766878 111.388691 
L 120.076332 111.403768 
L 120.447676 111.410769 
L 120.942802 111.435311 
L 121.417298 111.227943 
L 121.912423 111.402889 
L 122.118726 111.436716 
L 122.304398 111.513355 
L 122.49007 111.524823 
L 123.232759 111.458585 
L 123.377171 111.469501 
L 123.624734 111.564701 
L 124.573725 111.289586 
L 125.811539 111.582404 
L 126.430447 111.614334 
L 129.194899 111.538732 
L 129.29805 111.396722 
L 129.463092 111.307735 
L 130.10263 111.360974 
L 130.350193 111.51962 
L 130.618386 111.596211 
L 130.742167 111.66136 
L 130.94847 111.629387 
L 131.134142 111.614049 
L 132.124394 111.37309 
L 132.248175 111.274434 
L 132.289436 111.310277 
L 132.495738 111.342789 
L 132.66078 111.226996 
L 132.784561 111.160259 
L 132.805192 111.182809 
L 132.990864 111.254788 
L 133.52725 111.656504 
L 133.651032 111.640971 
L 133.671662 111.665386 
L 133.836704 111.7144 
L 134.228678 111.60511 
L 134.476241 111.636127 
L 134.950737 111.589843 
L 135.549014 111.671431 
L 135.631535 111.67067 
L 135.652165 111.692848 
L 135.734686 111.674425 
L 135.755316 111.64372 
L 135.837837 111.604898 
L 135.879098 111.640775 
L 136.209182 111.749154 
L 136.436114 111.697891 
L 136.601156 111.681314 
L 136.91061 111.592463 
L 137.405736 111.219148 
L 137.962752 111.093706 
L 138.519769 110.674016 
L 138.64355 110.491912 
L 138.973634 109.730425 
L 139.344978 108.274308 
L 139.633802 105.837031 
L 139.901995 100.695215 
L 140.128928 91.155167 
L 140.376491 69.123188 
L 140.706574 33.358295 
L 140.747835 33.834505 
L 140.850986 42.07379 
L 141.366742 91.317916 
L 141.676196 99.52285 
L 141.98565 102.736591 
L 142.233212 103.623356 
L 142.336364 103.703425 
L 142.377624 103.664895 
L 142.501406 103.273429 
L 142.728338 101.622664 
L 142.934641 98.43367 
L 143.161573 90.610401 
L 143.388506 73.668435 
L 143.801111 25.838702 
L 143.883632 29.267681 
L 144.131195 62.937437 
L 144.440648 89.335726 
L 144.750102 98.935438 
L 145.080186 103.48259 
L 145.45153 106.111423 
L 145.843505 107.575744 
L 146.359261 108.866169 
L 146.771866 109.647132 
L 146.916277 109.881733 
L 147.12258 110.082458 
L 147.98905 110.330308 
L 148.257243 110.345951 
L 148.546067 110.639481 
L 148.958672 110.829152 
L 149.123713 110.83964 
L 149.433167 111.100513 
L 149.6601 111.323483 
L 151.39304 111.5944 
L 151.743754 111.693262 
L 153.827409 111.629683 
L 154.198753 111.830149 
L 154.322535 111.755472 
L 154.405056 111.733807 
L 154.446316 111.771013 
L 154.81766 111.881995 
L 155.725391 111.792371 
L 156.117366 111.763946 
L 157.231399 111.762638 
L 158.881818 111.768457 
L 159.02623 111.787545 
L 159.191272 111.763035 
L 159.273793 111.713775 
L 159.315053 111.757707 
L 159.480095 111.751666 
L 159.686398 111.764487 
L 160.057742 111.728743 
L 160.264044 111.661638 
L 160.511607 111.566759 
L 160.73854 111.521986 
L 161.274926 111.637414 
L 162.739674 111.798384 
L 162.884085 111.815116 
L 163.007867 111.747817 
L 163.152278 111.726829 
L 163.420472 111.622405 
L 163.956858 111.437415 
L 164.926479 111.82106 
L 165.566017 111.828934 
L 165.85484 111.824742 
L 166.123033 111.836631 
L 166.246815 111.930236 
L 166.288075 111.882946 
L 166.391226 111.845119 
L 166.411857 111.865391 
L 166.576899 111.881419 
L 166.927613 111.860748 
L 167.154545 111.901942 
L 167.154545 111.901942 
" style="fill:none;stroke:#4c72b0;stroke-linecap:square;"/>
   </g>
   <g id="patch_3">
    <path d="M 10.8 116.93125 
L 174.6 116.93125 
" style="fill:none;stroke:#000000;stroke-linecap:square;stroke-linejoin:miter;stroke-width:1.3;"/>
   </g>
  </g>
  <g id="axes_2">
   <g id="patch_4">
    <path d="M 185.4 116.93125 
L 349.2 116.93125 
L 349.2 10.8 
L 185.4 10.8 
z
" style="fill:none;"/>
   </g>
   <g id="matplotlib.axis_3">
    <g id="xtick_20">
     <g id="line2d_21">
      <g>
       <use style="stroke:#000000;stroke-width:1.3;" x="324.818682" xlink:href="#m46e61e260b" y="116.93125"/>
      </g>
     </g>
     <g id="text_7">
      <!-- 3.8 -->
      <g transform="translate(318.368682 132.93125)scale(0.1 -0.1)">
       <use xlink:href="#FiraSans-Regular-33"/>
       <use x="49.899994" xlink:href="#FiraSans-Regular-2e"/>
       <use x="73.899979" xlink:href="#FiraSans-Regular-38"/>
      </g>
     </g>
    </g>
    <g id="xtick_21">
     <g id="line2d_22">
      <g>
       <use style="stroke:#000000;stroke-width:1.3;" x="290.975875" xlink:href="#m46e61e260b" y="116.93125"/>
      </g>
     </g>
     <g id="text_8">
      <!-- 4.0 -->
      <g transform="translate(284.325875 132.93125)scale(0.1 -0.1)">
       <use xlink:href="#FiraSans-Regular-34"/>
       <use x="53.199997" xlink:href="#FiraSans-Regular-2e"/>
       <use x="77.199982" xlink:href="#FiraSans-Regular-30"/>
      </g>
     </g>
    </g>
    <g id="xtick_22">
     <g id="line2d_23">
      <g>
       <use style="stroke:#000000;stroke-width:1.3;" x="257.133068" xlink:href="#m46e61e260b" y="116.93125"/>
      </g>
     </g>
     <g id="text_9">
      <!-- 4.2 -->
      <g transform="translate(250.797912 132.93125)scale(0.1 -0.1)">
       <use xlink:href="#FiraSans-Regular-34"/>
       <use x="53.199997" xlink:href="#FiraSans-Regular-2e"/>
       <use x="77.199982" xlink:href="#FiraSans-Regular-32"/>
      </g>
     </g>
    </g>
    <g id="xtick_23">
     <g id="line2d_24">
      <g>
       <use style="stroke:#000000;stroke-width:1.3;" x="223.290261" xlink:href="#m46e61e260b" y="116.93125"/>
      </g>
     </g>
     <g id="text_10">
      <!-- 4.4 -->
      <g transform="translate(216.769948 132.93125)scale(0.1 -0.1)">
       <use xlink:href="#FiraSans-Regular-34"/>
       <use x="53.199997" xlink:href="#FiraSans-Regular-2e"/>
       <use x="77.199982" xlink:href="#FiraSans-Regular-34"/>
      </g>
     </g>
    </g>
    <g id="xtick_24">
     <g id="line2d_25">
      <g>
       <use style="stroke:#000000;stroke-width:1.3;" x="189.447454" xlink:href="#m46e61e260b" y="116.93125"/>
      </g>
     </g>
     <g id="text_11">
      <!-- 4.6 -->
      <g transform="translate(182.922454 132.93125)scale(0.1 -0.1)">
       <use xlink:href="#FiraSans-Regular-34"/>
       <use x="53.199997" xlink:href="#FiraSans-Regular-2e"/>
       <use x="77.199982" xlink:href="#FiraSans-Regular-36"/>
      </g>
     </g>
    </g>
    <g id="xtick_25">
     <g id="line2d_26">
      <g>
       <use style="stroke:#000000;stroke-width:1.3;" x="341.740085" xlink:href="#m7b992f6af8" y="116.93125"/>
      </g>
     </g>
    </g>
    <g id="xtick_26">
     <g id="line2d_27">
      <g>
       <use style="stroke:#000000;stroke-width:1.3;" x="333.279383" xlink:href="#m7b992f6af8" y="116.93125"/>
      </g>
     </g>
    </g>
    <g id="xtick_27">
     <g id="line2d_28">
      <g>
       <use style="stroke:#000000;stroke-width:1.3;" x="316.35798" xlink:href="#m7b992f6af8" y="116.93125"/>
      </g>
     </g>
    </g>
    <g id="xtick_28">
     <g id="line2d_29">
      <g>
       <use style="stroke:#000000;stroke-width:1.3;" x="307.897278" xlink:href="#m7b992f6af8" y="116.93125"/>
      </g>
     </g>
    </g>
    <g id="xtick_29">
     <g id="line2d_30">
      <g>
       <use style="stroke:#000000;stroke-width:1.3;" x="299.436576" xlink:href="#m7b992f6af8" y="116.93125"/>
      </g>
     </g>
    </g>
    <g id="xtick_30">
     <g id="line2d_31">
      <g>
       <use style="stroke:#000000;stroke-width:1.3;" x="282.515173" xlink:href="#m7b992f6af8" y="116.93125"/>
      </g>
     </g>
    </g>
    <g id="xtick_31">
     <g id="line2d_32">
      <g>
       <use style="stroke:#000000;stroke-width:1.3;" x="274.054471" xlink:href="#m7b992f6af8" y="116.93125"/>
      </g>
     </g>
    </g>
    <g id="xtick_32">
     <g id="line2d_33">
      <g>
       <use style="stroke:#000000;stroke-width:1.3;" x="265.593769" xlink:href="#m7b992f6af8" y="116.93125"/>
      </g>
     </g>
    </g>
    <g id="xtick_33">
     <g id="line2d_34">
      <g>
       <use style="stroke:#000000;stroke-width:1.3;" x="248.672366" xlink:href="#m7b992f6af8" y="116.93125"/>
      </g>
     </g>
    </g>
    <g id="xtick_34">
     <g id="line2d_35">
      <g>
       <use style="stroke:#000000;stroke-width:1.3;" x="240.211664" xlink:href="#m7b992f6af8" y="116.93125"/>
      </g>
     </g>
    </g>
    <g id="xtick_35">
     <g id="line2d_36">
      <g>
       <use style="stroke:#000000;stroke-width:1.3;" x="231.750963" xlink:href="#m7b992f6af8" y="116.93125"/>
      </g>
     </g>
    </g>
    <g id="xtick_36">
     <g id="line2d_37">
      <g>
       <use style="stroke:#000000;stroke-width:1.3;" x="214.829559" xlink:href="#m7b992f6af8" y="116.93125"/>
      </g>
     </g>
    </g>
    <g id="xtick_37">
     <g id="line2d_38">
      <g>
       <use style="stroke:#000000;stroke-width:1.3;" x="206.368857" xlink:href="#m7b992f6af8" y="116.93125"/>
      </g>
     </g>
    </g>
    <g id="xtick_38">
     <g id="line2d_39">
      <g>
       <use style="stroke:#000000;stroke-width:1.3;" x="197.908156" xlink:href="#m7b992f6af8" y="116.93125"/>
      </g>
     </g>
    </g>
    <g id="text_12">
     <!-- $\rm ^{1}H$ (ppm) -->
     <g transform="translate(247.4 147.560937)scale(0.1 -0.1)">
      <use transform="translate(0.922305 37.392187)scale(0.7)" xlink:href="#FiraSans-Regular-31"/>
      <use transform="translate(33.867452 0.5)" xlink:href="#FiraSans-Regular-48"/>
      <use transform="translate(101.867437 0.5)" xlink:href="#FiraSans-Regular-20"/>
      <use transform="translate(128.367422 0.5)" xlink:href="#FiraSans-Regular-28"/>
      <use transform="translate(160.767416 0.5)" xlink:href="#FiraSans-Regular-70"/>
      <use transform="translate(220.16741 0.5)" xlink:href="#FiraSans-Regular-70"/>
      <use transform="translate(279.567404 0.5)" xlink:href="#FiraSans-Regular-6d"/>
      <use transform="translate(365.267385 0.5)" xlink:href="#FiraSans-Regular-29"/>
     </g>
    </g>
   </g>
   <g id="matplotlib.axis_4"/>
   <g id="line2d_40">
    <path clip-path="url(#p627c8d3789)" d="M 192.845455 111.010196 
L 192.927976 111.137124 
L 192.969236 111.216505 
L 193.010496 111.145574 
L 193.175538 110.473356 
L 193.216799 110.55334 
L 193.361211 111.109633 
L 193.423101 110.95552 
L 193.526253 110.612864 
L 193.567513 110.699321 
L 193.732555 110.814389 
L 193.815076 110.837422 
L 193.897597 111.047266 
L 193.938857 110.956914 
L 194.021378 110.662787 
L 194.062639 110.801734 
L 194.227681 111.259471 
L 194.248311 111.247042 
L 194.351462 110.932566 
L 194.392723 111.111138 
L 194.475244 111.543722 
L 194.516504 111.330373 
L 194.722807 110.231665 
L 194.743437 110.2995 
L 194.867218 111.0447 
L 194.929109 110.802357 
L 194.991 110.631527 
L 195.03226 110.782115 
L 195.156042 111.562353 
L 195.217932 111.39761 
L 195.300453 111.129254 
L 195.341714 111.226942 
L 195.403605 111.334648 
L 195.444865 111.187919 
L 195.527386 110.902185 
L 195.568647 110.987889 
L 195.609907 111.06506 
L 195.671798 110.94747 
L 195.713058 110.906813 
L 195.733689 110.971042 
L 195.8781 111.906009 
L 195.919361 111.687313 
L 196.001882 111.223758 
L 196.063772 111.375292 
L 196.105033 111.44859 
L 196.146293 111.338828 
L 196.249445 111.015559 
L 196.290705 111.060292 
L 196.393856 111.130635 
L 196.414487 111.103839 
L 196.517638 110.941247 
L 196.579528 110.99914 
L 196.641419 110.920428 
L 196.70331 110.83121 
L 196.74457 110.955507 
L 196.806461 111.132975 
L 196.847722 111.018273 
L 196.909612 110.801156 
L 196.950873 110.907478 
L 197.033394 111.180553 
L 197.074654 110.991414 
L 197.157175 110.639201 
L 197.198436 110.748497 
L 197.384108 111.38988 
L 197.425368 111.275312 
L 197.507889 110.963924 
L 197.54915 111.115798 
L 197.611041 111.384108 
L 197.672931 111.259452 
L 197.879234 110.921969 
L 197.982385 110.727991 
L 198.085536 110.525545 
L 198.126797 110.549482 
L 198.209318 110.727135 
L 198.333099 111.348281 
L 198.39499 111.247879 
L 198.621922 110.491108 
L 198.683813 110.589669 
L 198.807595 111.162658 
L 198.869485 111.036684 
L 199.075788 110.796837 
L 199.096418 110.865204 
L 199.178939 111.164852 
L 199.2202 111.024912 
L 199.28209 110.864116 
L 199.323351 110.965392 
L 199.385241 111.077293 
L 199.447132 111.007387 
L 199.612174 110.715049 
L 199.674065 110.913367 
L 199.715325 110.999187 
L 199.756586 110.871045 
L 199.818477 110.618051 
L 199.859737 110.706101 
L 199.962888 111.065973 
L 200.024779 111.044632 
L 200.1073 111.147742 
L 200.14856 111.081222 
L 200.189821 111.025523 
L 200.231081 111.14968 
L 200.313602 111.50978 
L 200.354863 111.341534 
L 200.458014 110.884529 
L 200.499275 110.982398 
L 200.581796 111.134573 
L 200.623056 111.097485 
L 200.726207 110.926326 
L 200.767468 110.999237 
L 200.9944 111.524541 
L 201.035661 111.3986 
L 201.180073 110.737739 
L 201.221333 110.782185 
L 201.345114 111.043173 
L 201.386375 110.949435 
L 201.448266 110.772238 
L 201.510156 110.906149 
L 201.551417 110.973775 
L 201.592677 110.829055 
L 201.695829 110.311575 
L 201.737089 110.428315 
L 201.84024 110.817676 
L 201.902131 110.726415 
L 202.025912 110.494436 
L 202.067173 110.595597 
L 202.170324 111.035972 
L 202.232215 110.910262 
L 202.417887 110.633805 
L 202.500408 110.791881 
L 202.541669 110.703265 
L 202.603559 110.533275 
L 202.64482 110.630478 
L 202.851122 111.03779 
L 203.036794 111.311987 
L 203.098685 111.134105 
L 203.119315 111.103655 
L 203.160576 111.238099 
L 203.222467 111.477086 
L 203.263727 111.269678 
L 203.346248 110.83697 
L 203.408139 110.976471 
L 203.449399 110.962952 
L 203.470029 110.909387 
L 203.55255 110.740477 
L 203.593811 110.8279 
L 203.717592 111.528466 
L 203.758853 111.260285 
L 203.882634 110.462356 
L 203.923895 110.482332 
L 203.985786 110.534564 
L 204.109567 110.99768 
L 204.171458 110.884655 
L 204.35713 110.778068 
L 204.37776 110.813077 
L 204.460281 110.935039 
L 204.501542 110.893808 
L 204.645953 110.417383 
L 204.707844 110.653992 
L 204.934777 111.348957 
L 204.996667 111.031888 
L 205.18234 110.406885 
L 205.2236 110.373942 
L 205.24423 110.436577 
L 205.326751 110.700655 
L 205.368012 110.552924 
L 205.429903 110.357947 
L 205.471163 110.441057 
L 205.533054 110.574665 
L 205.574314 110.504238 
L 205.698096 110.17279 
L 205.739356 110.288256 
L 205.863138 110.954674 
L 205.925028 110.77011 
L 205.966289 110.721288 
L 206.007549 110.840423 
L 206.06944 110.983598 
L 206.110701 110.868994 
L 206.213852 110.535055 
L 206.255112 110.585384 
L 206.420154 110.912395 
L 206.461415 110.83482 
L 206.523305 110.713831 
L 206.564566 110.798521 
L 206.667717 111.218184 
L 206.708978 111.126265 
L 206.812129 110.876759 
L 206.874019 110.916304 
L 206.997801 110.8379 
L 207.121582 110.631747 
L 207.183473 110.696182 
L 207.286624 110.82901 
L 207.348515 110.972094 
L 207.410406 110.878848 
L 207.451666 110.849797 
L 207.492927 110.915824 
L 207.513557 110.931416 
L 207.534187 110.901157 
L 207.637338 110.505861 
L 207.678599 110.694641 
L 207.76112 110.9961 
L 207.80238 110.916125 
L 208.008683 110.735438 
L 208.111834 110.847732 
L 208.173725 110.804314 
L 208.256246 110.970409 
L 208.318136 111.092678 
L 208.359397 111.019333 
L 208.441918 110.724617 
L 208.503809 110.863747 
L 208.565699 110.979038 
L 208.60696 110.865996 
L 208.668851 110.772043 
L 208.710111 110.883131 
L 208.854523 111.173996 
L 208.875153 111.15325 
L 208.957674 111.021566 
L 208.998934 111.106472 
L 209.040195 111.209668 
L 209.081455 111.132964 
L 209.163976 110.802551 
L 209.205237 110.991591 
L 209.308388 111.493974 
L 209.349649 111.369737 
L 209.43217 111.181354 
L 209.49406 111.246489 
L 209.659102 111.233769 
L 209.720993 111.117202 
L 209.782884 110.898077 
L 209.824144 111.022451 
L 209.886035 111.336282 
L 209.947926 111.139481 
L 209.989186 111.071113 
L 210.009816 111.1593 
L 210.071707 111.543292 
L 210.133598 111.259395 
L 210.216119 110.867237 
L 210.257379 110.963428 
L 210.443051 111.084526 
L 210.525572 111.010765 
L 210.546203 111.06636 
L 210.628724 111.355767 
L 210.690614 111.196087 
L 210.793766 110.88423 
L 210.835026 110.92151 
L 211.082589 111.533003 
L 211.123849 111.388556 
L 211.20637 111.055266 
L 211.268261 111.110178 
L 211.412673 111.040154 
L 211.660236 110.545325 
L 211.680866 110.567971 
L 211.804647 111.3211 
L 211.887168 110.924583 
L 212.01095 110.623971 
L 212.03158 110.648241 
L 212.134731 110.956811 
L 212.196622 110.779075 
L 212.258513 110.609533 
L 212.299773 110.695421 
L 212.382294 110.899776 
L 212.423555 110.850106 
L 212.588597 110.170276 
L 212.650487 110.399337 
L 212.794899 110.906639 
L 212.83616 110.822445 
L 212.89805 110.750752 
L 212.918681 110.795945 
L 212.980571 110.967643 
L 213.021832 110.897774 
L 213.083723 110.722093 
L 213.124983 110.851563 
L 213.186874 111.042522 
L 213.207504 110.957859 
L 213.290025 110.374144 
L 213.351916 110.674037 
L 213.413806 110.97581 
L 213.475697 110.798345 
L 213.516958 110.738416 
L 213.599479 110.78851 
L 213.661369 110.800144 
L 213.682 110.860235 
L 213.764521 111.093188 
L 213.805781 110.900306 
L 213.908932 110.342377 
L 213.950193 110.463097 
L 214.032714 110.735491 
L 214.094604 110.643831 
L 214.156495 110.580417 
L 214.197756 110.667035 
L 214.259646 110.787192 
L 214.300907 110.717015 
L 214.383428 110.533558 
L 214.424688 110.679143 
L 214.630991 111.353564 
L 214.672251 111.260824 
L 214.796033 110.378148 
L 214.857923 110.773782 
L 214.919814 111.048214 
L 214.981705 110.948674 
L 215.084856 110.763463 
L 215.146747 110.499995 
L 215.188007 110.612375 
L 215.270528 110.918957 
L 215.311789 110.76518 
L 215.497461 110.329574 
L 215.518091 110.359233 
L 215.621242 110.836432 
L 215.683133 110.67522 
L 215.868805 110.245844 
L 215.910066 110.485175 
L 215.992587 110.886836 
L 216.054477 110.858092 
L 216.116368 111.003394 
L 216.157629 110.879557 
L 216.343301 110.269761 
L 216.384561 110.253538 
L 216.405192 110.300597 
L 216.487713 110.545624 
L 216.508343 110.469644 
L 216.590864 110.079256 
L 216.632124 110.268066 
L 216.714645 110.628171 
L 216.776536 110.574351 
L 216.879687 110.408485 
L 217.08599 109.918676 
L 217.10662 109.993812 
L 217.209771 110.565708 
L 217.271662 110.380739 
L 217.312922 110.491165 
L 217.374813 110.793209 
L 217.416073 110.675258 
L 217.601746 110.1662 
L 217.704897 109.868268 
L 217.746157 109.937934 
L 217.849309 110.137408 
L 217.890569 110.069717 
L 217.95246 109.946441 
L 218.01435 110.041006 
L 218.158762 110.145932 
L 218.220653 110.030418 
L 218.509476 109.225285 
L 218.612628 109.459646 
L 218.674518 109.368217 
L 218.81893 109.002807 
L 218.901451 108.785179 
L 218.942711 108.844868 
L 219.087123 109.226955 
L 219.128384 109.104367 
L 219.293426 108.500849 
L 219.355316 108.514165 
L 219.417207 108.376536 
L 219.809182 105.749037 
L 220.098005 99.92618 
L 220.345568 86.946041 
L 220.51061 65.903802 
L 220.675652 35.206549 
L 220.716912 39.643075 
L 221.108887 105.132447 
L 221.294559 107.718152 
L 221.418341 107.989994 
L 221.438971 107.970005 
L 221.665903 107.180506 
L 221.789685 105.120043 
L 222.037248 93.970011 
L 222.20229 75.551715 
L 222.408592 27.986397 
L 222.470483 39.545606 
L 222.759306 98.191199 
L 222.883088 101.65662 
L 222.924348 101.486539 
L 223.006869 100.752988 
L 223.130651 95.13464 
L 223.254432 81.035333 
L 223.398844 36.574974 
L 223.481365 15.624148 
L 223.522625 23.183405 
L 223.832079 97.665536 
L 224.059012 106.174301 
L 224.265314 107.212879 
L 224.368465 107.320167 
L 224.389095 107.296479 
L 224.492247 106.675359 
L 224.616028 104.693592 
L 224.842961 97.455675 
L 224.987372 82.322854 
L 225.193675 36.328828 
L 225.276196 46.581095 
L 225.565019 97.261431 
L 225.812582 105.723363 
L 226.163296 108.955082 
L 226.658422 110.692208 
L 226.699683 110.588767 
L 226.926615 110.17166 
L 226.967876 110.257062 
L 227.215439 111.104164 
L 227.401111 110.990741 
L 227.463002 110.868984 
L 227.483632 110.935792 
L 227.586783 111.368897 
L 227.628044 111.250713 
L 227.669304 111.17152 
L 227.751825 111.215863 
L 227.854976 111.091608 
L 227.916867 111.152963 
L 228.040648 111.305098 
L 228.081909 111.151423 
L 228.1438 110.795598 
L 228.20569 111.065952 
L 228.288211 111.518902 
L 228.350102 111.469553 
L 228.432623 111.572162 
L 228.473883 111.499349 
L 228.721446 110.731912 
L 228.783337 110.954527 
L 228.865858 111.197504 
L 228.907119 111.054513 
L 228.98964 110.660034 
L 229.0309 110.802861 
L 229.092791 110.986856 
L 229.134051 110.798869 
L 229.175312 110.627835 
L 229.216572 110.749063 
L 229.402244 111.352038 
L 229.464135 111.370796 
L 229.505396 111.327813 
L 229.670438 111.248688 
L 229.711698 111.198024 
L 229.773589 111.273693 
L 229.918 111.5996 
L 229.979891 111.441609 
L 230.186194 110.890394 
L 230.206824 110.940658 
L 230.289345 111.238902 
L 230.351236 111.14924 
L 230.516277 110.864157 
L 230.578168 110.964455 
L 230.619429 110.907271 
L 230.70195 110.414083 
L 230.76384 110.716193 
L 230.866992 111.290882 
L 230.908252 111.213332 
L 230.949513 111.198066 
L 230.970143 111.244697 
L 231.114555 111.678599 
L 231.176445 111.609952 
L 231.258966 111.3469 
L 231.341487 110.993172 
L 231.382748 111.203997 
L 231.444638 111.571016 
L 231.506529 111.393859 
L 231.54779 111.292841 
L 231.58905 111.395899 
L 231.650941 111.52872 
L 231.692201 111.41213 
L 231.774722 111.213762 
L 231.815983 111.325309 
L 231.898504 111.680988 
L 231.960394 111.482708 
L 232.022285 111.244737 
L 232.063546 111.411389 
L 232.125436 111.692918 
L 232.187327 111.512834 
L 232.372999 111.001771 
L 232.39363 111.028213 
L 232.579302 111.538481 
L 232.620562 111.402073 
L 232.682453 111.08794 
L 232.723713 111.293802 
L 232.785604 111.742633 
L 232.826865 111.520619 
L 232.888755 111.177733 
L 232.930016 111.572695 
L 232.991907 112.098458 
L 233.033167 111.801634 
L 233.115688 111.233191 
L 233.177579 111.288285 
L 233.2601 111.161555 
L 233.32199 111.258758 
L 233.383881 111.151038 
L 233.445772 111.035211 
L 233.487032 111.181068 
L 233.610814 112.060841 
L 233.672705 111.78029 
L 233.734595 111.352842 
L 233.796486 111.589701 
L 233.858377 111.771532 
L 233.920268 111.667072 
L 234.002788 111.782338 
L 234.023419 111.695682 
L 234.12657 111.00658 
L 234.188461 111.263257 
L 234.229721 111.321157 
L 234.270982 111.223644 
L 234.291612 111.202836 
L 234.312242 111.242824 
L 234.415393 111.812846 
L 234.497914 111.621612 
L 234.539175 111.658121 
L 234.621696 111.835672 
L 234.662956 111.704613 
L 234.745477 111.516571 
L 234.786738 111.599857 
L 234.848628 111.686608 
L 234.889889 111.645679 
L 235.096191 111.041721 
L 235.199343 111.191031 
L 235.570687 112.032515 
L 235.611947 111.894144 
L 235.79762 111.295562 
L 235.880141 111.114976 
L 235.942031 111.218066 
L 236.065813 111.232378 
L 236.251485 111.341141 
L 236.375266 111.554751 
L 236.416527 111.627233 
L 236.457787 111.565151 
L 236.519678 111.456758 
L 236.560939 111.570957 
L 236.602199 111.683273 
L 236.66409 111.530455 
L 236.70535 111.479411 
L 236.725981 111.547764 
L 236.787871 111.821809 
L 236.829132 111.697527 
L 236.911653 111.333982 
L 236.952913 111.465838 
L 236.994174 111.547556 
L 237.035434 111.458281 
L 237.097325 111.355734 
L 237.159216 111.433818 
L 237.303627 111.499399 
L 237.324258 111.453659 
L 237.386148 111.28788 
L 237.427409 111.367636 
L 237.50993 111.665193 
L 237.57182 111.569997 
L 237.736862 111.05088 
L 237.881274 110.92269 
L 237.943165 110.933299 
L 237.963795 110.977361 
L 238.108207 111.591436 
L 238.170097 111.403024 
L 238.211358 111.269962 
L 238.252618 111.369132 
L 238.335139 111.673865 
L 238.3764 111.513662 
L 238.479551 111.173393 
L 238.520812 111.224793 
L 238.644593 111.798676 
L 238.706484 111.523283 
L 238.912786 110.800458 
L 238.974677 111.010839 
L 239.015937 111.128212 
L 239.077828 111.035745 
L 239.119089 111.113621 
L 239.20161 111.401016 
L 239.24287 111.267853 
L 239.284131 111.155451 
L 239.325391 111.25173 
L 239.490433 111.93568 
L 239.531693 111.819408 
L 239.634845 111.419291 
L 239.676105 111.506695 
L 239.737996 111.557856 
L 239.779256 111.502769 
L 239.964929 111.211198 
L 240.026819 111.413274 
L 240.129971 111.830038 
L 240.171231 111.777877 
L 240.295012 111.464406 
L 240.336273 111.537571 
L 240.398164 111.607463 
L 240.418794 111.561236 
L 240.542575 111.067017 
L 240.583836 111.170154 
L 240.769508 111.774556 
L 240.810769 111.73797 
L 240.95518 111.402323 
L 241.017071 111.46118 
L 241.140852 111.480242 
L 241.161483 111.429223 
L 241.285264 110.962239 
L 241.326525 111.085473 
L 241.367785 111.185476 
L 241.429676 111.09554 
L 241.450306 111.077185 
L 241.470936 111.107908 
L 241.574088 111.583201 
L 241.615348 111.409428 
L 241.697869 110.884334 
L 241.739129 111.024399 
L 241.82165 111.381883 
L 241.862911 111.158198 
L 241.945432 110.766814 
L 241.986692 110.873256 
L 242.213625 111.482281 
L 242.254886 111.361122 
L 242.358037 110.773605 
L 242.419927 110.898734 
L 242.62623 111.326834 
L 242.66749 111.12605 
L 242.729381 110.772685 
L 242.791272 110.993517 
L 242.976944 111.796786 
L 242.997574 111.76369 
L 243.100725 111.372588 
L 243.183246 111.473289 
L 243.45144 111.136502 
L 243.4927 111.30799 
L 243.554591 111.559567 
L 243.616482 111.452144 
L 243.657742 111.490337 
L 243.740263 111.754114 
L 243.781523 111.573179 
L 243.905305 110.942425 
L 243.946565 110.992731 
L 244.008456 111.067733 
L 244.049717 110.996704 
L 244.111607 110.835019 
L 244.152868 110.946612 
L 244.276649 111.709193 
L 244.33854 111.616802 
L 244.482952 111.339654 
L 244.524212 111.423338 
L 244.606733 111.67116 
L 244.647994 111.541145 
L 244.689254 111.425062 
L 244.751145 111.582632 
L 244.771775 111.633951 
L 244.813036 111.531485 
L 244.895557 110.962612 
L 244.957447 111.195518 
L 245.019338 111.49295 
L 245.081229 111.31795 
L 245.266901 111.027877 
L 245.349422 111.156506 
L 245.390682 111.189024 
L 245.431943 111.081419 
L 245.617615 110.754722 
L 245.658876 110.796497 
L 245.782657 111.746868 
L 245.844548 111.427975 
L 245.927069 111.086028 
L 245.968329 111.19453 
L 246.03022 111.311442 
L 246.07148 111.232321 
L 246.174632 110.891177 
L 246.215892 111.04978 
L 246.277783 111.308359 
L 246.319043 111.184717 
L 246.380934 110.934447 
L 246.422195 111.041696 
L 246.484085 111.238521 
L 246.545976 111.099061 
L 246.814169 110.680469 
L 246.834799 110.703912 
L 246.979211 111.288525 
L 247.061732 110.961932 
L 247.102993 110.995245 
L 247.164883 111.132433 
L 247.206144 111.026393 
L 247.371186 110.667586 
L 247.391816 110.690974 
L 247.598118 111.563081 
L 247.680639 111.276913 
L 247.7219 111.207482 
L 247.74253 111.288709 
L 247.845681 111.898348 
L 247.886942 111.736136 
L 247.928202 111.622814 
L 247.969463 111.718838 
L 248.010723 111.799975 
L 248.051984 111.639273 
L 248.134505 111.206135 
L 248.196395 111.345194 
L 248.320177 111.64735 
L 248.361437 111.587273 
L 248.547109 111.3266 
L 248.56774 111.343993 
L 248.650261 111.505756 
L 248.712151 111.419305 
L 248.753412 111.457753 
L 248.856563 111.847168 
L 248.897824 111.718611 
L 249.042235 111.575086 
L 249.083496 111.534591 
L 249.124756 111.629368 
L 249.207277 111.864604 
L 249.248538 111.749412 
L 249.43421 111.219319 
L 249.47547 111.273121 
L 249.516731 111.297102 
L 249.557991 111.198614 
L 249.599252 111.098146 
L 249.640512 111.178946 
L 249.784924 111.873324 
L 249.826185 111.781422 
L 249.908706 111.50607 
L 249.949966 111.595686 
L 250.011857 111.794664 
L 250.053117 111.717883 
L 250.218159 111.462119 
L 250.28005 111.54155 
L 250.341941 111.697576 
L 250.362571 111.619454 
L 250.486352 110.53982 
L 250.548243 110.967456 
L 250.692655 111.364019 
L 250.775176 111.589654 
L 250.898957 112.09391 
L 250.940218 111.973538 
L 251.208411 111.238149 
L 251.352822 111.725082 
L 251.497234 111.580062 
L 251.538495 111.523214 
L 251.641646 111.03181 
L 251.682906 111.179283 
L 251.909839 111.789902 
L 251.930469 111.802044 
L 251.9511 111.760961 
L 252.198662 111.197956 
L 252.363704 111.315414 
L 252.466856 111.454371 
L 252.528746 111.337615 
L 252.570007 111.304398 
L 252.611267 111.408276 
L 252.652528 111.500009 
L 252.693788 111.407002 
L 252.755679 111.16452 
L 252.81757 111.339694 
L 252.87946 111.512687 
L 252.941351 111.415722 
L 253.003242 111.4921 
L 253.044502 111.540682 
L 253.085763 111.451593 
L 253.147654 111.323003 
L 253.188914 111.426822 
L 253.250805 111.58435 
L 253.292065 111.482926 
L 253.374586 111.26538 
L 253.415847 111.342107 
L 253.457107 111.361849 
L 253.477737 111.306259 
L 253.539628 111.070364 
L 253.580889 111.157383 
L 253.66341 111.604336 
L 253.70467 111.439439 
L 253.787191 110.948868 
L 253.849082 111.161531 
L 253.931603 111.426422 
L 253.972863 111.340051 
L 254.055384 111.14816 
L 254.096645 111.295676 
L 254.179166 111.594739 
L 254.241056 111.522802 
L 254.364838 111.638508 
L 254.406098 111.527843 
L 254.57114 111.234321 
L 254.612401 111.347716 
L 254.674292 111.655347 
L 254.715552 111.500004 
L 254.777443 111.08484 
L 254.839333 111.31403 
L 254.880594 111.505594 
L 254.942485 111.303132 
L 255.045636 110.829954 
L 255.086896 110.888241 
L 255.169417 111.28205 
L 255.231308 111.096572 
L 255.272569 110.961441 
L 255.334459 111.135344 
L 255.35509 111.141391 
L 255.37572 111.05026 
L 255.458241 110.442615 
L 255.499501 110.743195 
L 255.582022 111.440934 
L 255.643913 111.338948 
L 255.726434 111.471978 
L 255.747064 111.395166 
L 255.829585 111.024856 
L 255.870846 111.229444 
L 255.912106 111.400051 
L 255.953367 111.271816 
L 256.015257 111.00516 
L 256.077148 111.154257 
L 256.097778 111.184723 
L 256.139039 111.115899 
L 256.180299 111.024768 
L 256.22156 111.097241 
L 256.304081 111.321571 
L 256.345341 111.216324 
L 256.427862 111.032056 
L 256.469123 111.104398 
L 256.551644 111.239211 
L 256.592904 111.141098 
L 256.675425 110.960425 
L 256.716686 111.041292 
L 256.943618 111.727197 
L 257.005509 111.591918 
L 257.046769 111.633036 
L 257.149921 112.107102 
L 257.191181 111.93468 
L 257.294332 111.385716 
L 257.356223 111.501337 
L 257.397484 111.421951 
L 257.500635 111.02047 
L 257.541895 111.152901 
L 257.706937 111.636837 
L 257.727567 111.62116 
L 257.851349 110.877896 
L 257.91324 111.170483 
L 258.098912 111.726062 
L 258.119542 111.751443 
L 258.160803 111.665774 
L 258.305214 111.171886 
L 258.346475 111.244235 
L 258.428996 111.523836 
L 258.490886 111.366715 
L 258.532147 111.308604 
L 258.552777 111.389475 
L 258.655928 112.048719 
L 258.717819 111.884455 
L 258.841601 111.674508 
L 258.944752 110.949054 
L 259.006642 111.139568 
L 259.212945 111.503882 
L 259.316096 111.598623 
L 259.357357 111.531248 
L 259.62555 111.121552 
L 259.64618 111.158744 
L 259.893743 111.736319 
L 259.935003 111.662602 
L 260.079415 111.221979 
L 260.161936 111.26555 
L 260.223827 111.206729 
L 260.265087 111.28513 
L 260.306348 111.368363 
L 260.368238 111.257825 
L 260.409499 111.221671 
L 260.450759 111.317804 
L 260.47139 111.350398 
L 260.51265 111.256316 
L 260.574541 111.047913 
L 260.615801 111.230139 
L 260.657062 111.429335 
L 260.698322 111.273098 
L 260.780843 110.81435 
L 260.822104 110.996298 
L 260.842734 111.055425 
L 260.883995 110.918273 
L 260.945885 110.589027 
L 260.987146 110.769383 
L 261.069667 111.145456 
L 261.131557 111.048204 
L 261.234709 110.877803 
L 261.275969 110.83091 
L 261.296599 110.890568 
L 261.37912 111.211344 
L 261.420381 111.06794 
L 261.502902 110.847951 
L 261.544162 110.916339 
L 261.667944 111.137153 
L 261.709204 111.062607 
L 261.750465 110.962873 
L 261.791725 111.088017 
L 261.874246 111.618208 
L 261.915507 111.459814 
L 262.080549 110.737369 
L 262.101179 110.747044 
L 262.20433 111.268999 
L 262.245591 111.042892 
L 262.307481 110.615406 
L 262.369372 110.926047 
L 262.410633 111.112501 
L 262.472523 111.009472 
L 262.637565 110.858241 
L 262.658195 110.906254 
L 262.761347 111.505412 
L 262.823237 111.243344 
L 262.843868 111.18496 
L 262.885128 111.288634 
L 262.967649 111.731647 
L 263.02954 111.60698 
L 263.091431 111.500928 
L 263.132691 111.597059 
L 263.194582 111.718829 
L 263.235842 111.598401 
L 263.400884 110.787859 
L 263.462775 110.889842 
L 263.565926 111.119782 
L 263.607187 111.072823 
L 263.710338 110.870289 
L 263.792859 110.456441 
L 263.854749 110.661066 
L 263.91664 110.897162 
L 263.999161 110.857208 
L 264.205464 111.262077 
L 264.246724 111.361832 
L 264.287985 111.233094 
L 264.349875 111.03062 
L 264.391136 111.122261 
L 264.432396 111.216571 
L 264.473657 111.140854 
L 264.535547 111.013107 
L 264.556178 111.075478 
L 264.659329 111.603053 
L 264.72122 111.393895 
L 264.927522 110.656467 
L 264.948152 110.69707 
L 265.113194 111.465448 
L 265.195715 111.299913 
L 265.257606 111.349632 
L 265.422648 111.671277 
L 265.443278 111.643969 
L 265.62895 110.972114 
L 265.711471 111.164545 
L 265.938404 111.573072 
L 265.979664 111.627317 
L 266.020925 111.550306 
L 266.247858 110.923898 
L 266.268488 110.937736 
L 266.330379 110.995488 
L 266.351009 110.953079 
L 266.4129 110.800614 
L 266.45416 110.991311 
L 266.516051 111.395761 
L 266.557311 111.244336 
L 266.619202 110.880912 
L 266.660462 111.07713 
L 266.722353 111.425769 
L 266.763614 111.250135 
L 266.846135 110.947508 
L 266.908025 110.972083 
L 266.969916 110.871697 
L 267.011177 110.942341 
L 267.238109 111.435867 
L 267.25874 111.381392 
L 267.465042 110.701735 
L 267.485672 110.708514 
L 267.712605 111.187229 
L 267.733235 111.148471 
L 267.836386 110.687637 
L 267.898277 110.846889 
L 267.939538 110.921122 
L 268.001428 110.821459 
L 268.042689 110.86747 
L 268.14584 111.222937 
L 268.207731 111.157443 
L 268.269621 111.203714 
L 268.331512 111.288919 
L 268.372773 111.192746 
L 268.455294 110.906231 
L 268.517184 111.048266 
L 268.599705 111.200621 
L 268.640966 111.120532 
L 268.764747 110.782358 
L 268.806008 110.90678 
L 268.888529 111.260826 
L 268.929789 111.121412 
L 268.99168 110.892169 
L 269.053571 111.056659 
L 269.301134 111.549866 
L 269.321764 111.542051 
L 269.404285 111.448232 
L 269.528066 110.733058 
L 269.589957 110.909016 
L 269.651848 111.049414 
L 269.693108 110.972012 
L 269.775629 110.802008 
L 269.81689 110.908604 
L 270.043822 111.506613 
L 270.146973 111.13666 
L 270.229494 111.412691 
L 270.270755 111.337646 
L 270.353276 110.905856 
L 270.394536 111.054625 
L 270.456427 111.272088 
L 270.497688 111.13584 
L 270.642099 110.719027 
L 270.66273 110.747308 
L 270.786511 111.129727 
L 270.869032 111.027051 
L 270.930923 111.062963 
L 271.095965 111.535083 
L 271.157855 111.357735 
L 271.446679 110.458936 
L 271.467309 110.510936 
L 271.59109 111.437708 
L 271.714872 111.415742 
L 271.776763 111.611676 
L 271.838653 111.505684 
L 271.941805 111.578721 
L 271.962435 111.463732 
L 272.065586 110.803301 
L 272.127477 110.927751 
L 272.271888 111.573592 
L 272.354409 111.323502 
L 272.37504 111.285469 
L 272.4163 111.350459 
L 272.457561 111.445451 
L 272.498821 111.383516 
L 272.581342 111.203045 
L 272.622603 111.307768 
L 272.911426 111.909541 
L 272.993947 111.257627 
L 273.055838 110.872557 
L 273.117728 111.004354 
L 273.303401 111.36021 
L 273.324031 111.31959 
L 273.427182 110.893864 
L 273.489073 111.072967 
L 273.633484 111.223048 
L 273.716005 111.320176 
L 273.757266 111.235363 
L 273.839787 111.045903 
L 273.881047 111.193075 
L 273.963568 111.459967 
L 274.004829 111.370944 
L 274.046089 111.306995 
L 274.10798 111.389823 
L 274.169871 111.297128 
L 274.231762 111.157761 
L 274.273022 111.276925 
L 274.334913 111.457689 
L 274.376173 111.372137 
L 274.582476 111.027134 
L 274.603106 111.007063 
L 274.644366 111.10192 
L 274.747518 111.467368 
L 274.809408 111.393572 
L 274.93319 111.320412 
L 274.95382 111.339208 
L 275.283904 111.947859 
L 275.304534 111.899786 
L 275.552097 111.045844 
L 275.593358 111.08668 
L 275.861551 111.664729 
L 275.882181 111.608085 
L 276.005962 111.073919 
L 276.067853 111.157332 
L 276.253525 111.437932 
L 276.294786 111.354375 
L 276.439197 110.950754 
L 276.480458 111.006951 
L 276.66613 111.78366 
L 276.748651 111.479065 
L 276.769281 111.423285 
L 276.810542 111.535762 
L 276.872433 111.904661 
L 276.934323 111.641183 
L 276.996214 111.370798 
L 277.037474 111.54104 
L 277.078735 111.620104 
L 277.099365 111.528656 
L 277.181886 111.025148 
L 277.223147 111.210307 
L 277.305668 111.534657 
L 277.367558 111.513734 
L 277.429449 111.625455 
L 277.47071 111.568337 
L 277.5326 111.453272 
L 277.573861 111.563846 
L 277.635752 111.715699 
L 277.677012 111.615461 
L 277.821424 111.121154 
L 277.862684 111.263209 
L 278.048356 111.72643 
L 278.089617 111.809515 
L 278.130877 111.663777 
L 278.213398 111.216587 
L 278.254659 111.388252 
L 278.31655 111.601126 
L 278.35781 111.432591 
L 278.419701 111.230365 
L 278.460961 111.334195 
L 278.605373 111.591279 
L 278.626003 111.579933 
L 278.708524 111.189207 
L 278.770415 110.931074 
L 278.811675 111.036569 
L 278.894196 111.336637 
L 278.956087 111.200878 
L 278.997348 111.165783 
L 279.017978 111.215569 
L 279.100499 111.501044 
L 279.141759 111.403723 
L 279.22428 111.151582 
L 279.265541 111.238267 
L 279.306801 111.31159 
L 279.348062 111.245517 
L 279.409952 111.098449 
L 279.451213 111.188067 
L 279.574994 111.61768 
L 279.636885 111.540909 
L 279.946339 110.886499 
L 280.008229 110.540188 
L 280.04949 110.712973 
L 280.132011 111.052698 
L 280.173271 110.960119 
L 280.214532 110.934363 
L 280.255792 111.008119 
L 280.297053 111.016652 
L 280.317683 110.973676 
L 280.379574 110.862374 
L 280.441465 110.929143 
L 280.482725 110.851525 
L 280.627137 110.155072 
L 280.689027 110.266741 
L 280.750918 110.368897 
L 280.792179 110.296111 
L 281.122263 108.983451 
L 281.514237 102.126366 
L 281.679279 92.442037 
L 281.844321 67.867568 
L 282.029993 26.02726 
L 282.071254 30.36686 
L 282.318817 72.381548 
L 282.360077 71.098474 
L 282.463228 57.583653 
L 282.60764 28.669609 
L 282.669531 34.842575 
L 283.040875 100.599897 
L 283.288438 107.053318 
L 283.639152 109.78772 
L 283.783564 110.581909 
L 283.824824 110.35182 
L 283.886715 109.936327 
L 283.948606 110.223256 
L 283.969236 110.323065 
L 284.010496 110.184098 
L 284.31995 105.254766 
L 284.443732 100.040465 
L 284.608774 83.469763 
L 284.856336 30.263506 
L 284.938857 41.886119 
L 285.14516 68.745581 
L 285.16579 68.581791 
L 285.227681 64.301521 
L 285.433983 26.248026 
L 285.495874 35.155193 
L 285.825958 94.981387 
L 286.073521 102.6579 
L 286.403605 106.051247 
L 286.465495 106.494271 
L 286.548016 107.319452 
L 286.609907 107.106049 
L 286.630537 107.048506 
L 286.671798 107.183308 
L 286.919361 108.461037 
L 287.166924 108.835155 
L 287.476377 109.689799 
L 287.497007 109.665871 
L 287.620789 109.19157 
L 287.68268 109.425249 
L 287.888982 109.977682 
L 288.074654 110.341762 
L 288.115915 110.312278 
L 288.466629 109.791858 
L 288.507889 109.940517 
L 288.672931 110.412386 
L 288.693562 110.40294 
L 288.899864 110.078043 
L 288.982385 109.890459 
L 289.023645 109.973511 
L 289.085536 110.082455 
L 289.147427 109.990614 
L 289.188687 110.009368 
L 289.209318 110.073496 
L 289.39499 110.806582 
L 289.43625 110.71357 
L 289.704443 109.792306 
L 289.725074 109.856647 
L 289.931376 110.348941 
L 289.972637 110.452715 
L 290.013897 110.368232 
L 290.096418 110.076961 
L 290.137679 110.164047 
L 290.24083 110.448129 
L 290.28209 110.408838 
L 290.550283 109.752747 
L 290.591544 109.840654 
L 290.839107 110.605724 
L 290.942258 110.246235 
L 291.004149 110.492619 
L 291.08667 110.869424 
L 291.12793 110.765394 
L 291.210451 110.589763 
L 291.251712 110.676593 
L 291.334233 110.82465 
L 291.375493 110.76329 
L 291.623056 110.052521 
L 291.684947 110.312529 
L 291.746837 110.618192 
L 291.808728 110.430633 
L 291.870619 110.263717 
L 291.911879 110.356149 
L 292.035661 110.810054 
L 292.076921 110.633127 
L 292.180073 110.10926 
L 292.221333 110.257557 
L 292.468896 110.891069 
L 292.675198 110.732716 
L 292.757719 110.342961 
L 292.79898 110.460969 
L 292.881501 110.669794 
L 292.943392 110.628485 
L 293.025912 110.691257 
L 293.046543 110.641996 
L 293.108433 110.44706 
L 293.149694 110.570175 
L 293.252845 111.152916 
L 293.294106 111.009571 
L 293.500408 110.53932 
L 293.541669 110.638641 
L 293.62419 110.963241 
L 293.66545 110.811893 
L 293.727341 110.616276 
L 293.789231 110.739493 
L 293.830492 110.74622 
L 293.851122 110.696962 
L 293.974904 110.470393 
L 294.016164 110.497672 
L 294.119315 110.848958 
L 294.222467 111.112663 
L 294.263727 111.087513 
L 294.346248 111.138596 
L 294.449399 111.420362 
L 294.49066 111.354126 
L 294.593811 110.896838 
L 294.635071 111.070403 
L 294.738223 111.618126 
L 294.779483 111.495795 
L 295.068307 110.721835 
L 295.150827 110.836857 
L 295.192088 110.892818 
L 295.233348 110.838117 
L 295.315869 110.639776 
L 295.37776 110.719958 
L 295.419021 110.732471 
L 295.460281 110.667583 
L 295.666584 110.227656 
L 295.707844 110.35303 
L 295.810995 110.882875 
L 295.872886 110.835311 
L 295.976037 110.765864 
L 296.099819 110.339511 
L 296.161709 110.417246 
L 296.388642 111.022698 
L 296.450533 110.832205 
L 296.533054 110.470031 
L 296.574314 110.636873 
L 296.656835 111.012988 
L 296.718726 110.900996 
L 296.759986 110.903656 
L 296.780617 110.947485 
L 296.821877 111.015445 
L 296.863138 110.928466 
L 296.945659 110.612036 
L 297.007549 110.745603 
L 297.04881 110.785462 
L 297.06944 110.727809 
L 297.172591 110.311061 
L 297.234482 110.382841 
L 297.337633 110.429738 
L 297.502675 111.36168 
L 297.564566 111.274104 
L 297.688347 110.790451 
L 297.770868 110.95171 
L 297.89465 111.291959 
L 297.93591 111.430593 
L 297.977171 111.308326 
L 298.059692 110.9052 
L 298.121582 110.996411 
L 298.224734 111.125084 
L 298.307255 111.501083 
L 298.348515 111.301223 
L 298.431036 110.94611 
L 298.492927 111.013273 
L 298.616708 110.507135 
L 298.699229 110.710065 
L 298.78175 110.742156 
L 298.823011 110.697448 
L 298.884901 110.676424 
L 298.905532 110.724588 
L 298.988053 110.976531 
L 299.029313 110.829307 
L 299.132464 110.313542 
L 299.194355 110.366061 
L 299.276876 110.495513 
L 299.400657 111.126447 
L 299.441918 110.943637 
L 299.524439 110.569 
L 299.58633 110.683613 
L 299.710111 110.992696 
L 299.751372 110.897702 
L 299.854523 110.469328 
L 299.895783 110.607818 
L 299.957674 110.847345 
L 299.998934 110.738582 
L 300.081455 110.43495 
L 300.122716 110.528586 
L 300.184607 110.613516 
L 300.225867 110.523629 
L 300.267128 110.474362 
L 300.308388 110.575845 
L 300.411539 110.896607 
L 300.47343 110.831508 
L 300.535321 110.932506 
L 300.659102 111.520745 
L 300.720993 111.409556 
L 300.782884 111.358425 
L 300.824144 111.405634 
L 301.154228 111.713105 
L 301.216119 111.64956 
L 301.27801 111.739639 
L 301.3399 111.825175 
L 301.36053 111.763617 
L 301.608093 110.940793 
L 301.669984 111.115263 
L 301.773135 111.412993 
L 301.814396 111.355823 
L 302.309522 110.69378 
L 302.350782 110.698164 
L 302.371412 110.746486 
L 302.453933 110.948368 
L 302.495194 110.885101 
L 302.557085 110.808648 
L 302.598345 110.914511 
L 302.742757 111.305342 
L 302.784017 111.253484 
L 302.928429 110.867654 
L 302.99032 110.98797 
L 303.03158 110.996273 
L 303.05221 110.95129 
L 303.134731 110.763075 
L 303.155362 110.818288 
L 303.279143 111.450433 
L 303.320404 111.249181 
L 303.485445 110.8491 
L 303.588597 110.568754 
L 303.629857 110.672919 
L 303.733008 110.920649 
L 303.794899 110.902862 
L 303.959941 111.041147 
L 303.980571 110.97439 
L 304.145613 109.953605 
L 304.207504 110.265968 
L 304.372546 111.075893 
L 304.413806 111.008395 
L 304.496327 110.773964 
L 304.537588 110.856927 
L 304.640739 111.249636 
L 304.70263 111.131785 
L 304.826411 110.93637 
L 304.867672 110.963717 
L 305.073974 110.995653 
L 305.507209 110.815602 
L 305.527839 110.858118 
L 305.58973 110.978062 
L 305.630991 110.920762 
L 305.734142 110.655065 
L 305.775402 110.756655 
L 306.022965 111.262549 
L 306.084856 111.099355 
L 306.167377 110.889602 
L 306.208637 110.977796 
L 306.270528 111.082351 
L 306.311789 110.995852 
L 306.373679 110.854522 
L 306.41494 110.966469 
L 306.518091 111.429087 
L 306.559352 111.312856 
L 306.662503 110.993547 
L 306.703763 111.08579 
L 306.786284 111.24558 
L 306.806915 111.189401 
L 306.930696 110.51382 
L 307.013217 110.69278 
L 307.116368 110.292808 
L 307.178259 110.564465 
L 307.24015 110.839418 
L 307.30204 110.687447 
L 307.384561 110.555575 
L 307.425822 110.652491 
L 307.528973 111.259118 
L 307.590864 110.938443 
L 307.652754 110.622235 
L 307.694015 110.884649 
L 307.755906 111.272111 
L 307.797166 111.116406 
L 307.900317 110.682564 
L 307.941578 110.752442 
L 308.08599 111.574433 
L 308.14788 111.28804 
L 308.209771 111.034647 
L 308.271662 111.192376 
L 308.333552 111.349231 
L 308.374813 111.288006 
L 308.477964 110.867171 
L 308.519225 111.057452 
L 308.581115 111.407806 
L 308.643006 111.179273 
L 308.684267 111.025149 
L 308.746157 111.166718 
L 308.911199 111.384954 
L 308.93183 111.363879 
L 309.076241 110.562178 
L 309.158762 110.816232 
L 309.241283 111.024353 
L 309.282544 110.942265 
L 309.365065 110.719074 
L 309.426955 110.815155 
L 309.488846 110.715777 
L 309.612628 110.488554 
L 309.633258 110.512233 
L 309.757039 111.242722 
L 309.83956 110.886643 
L 309.86019 110.844607 
L 309.901451 111.005494 
L 309.963342 111.293987 
L 310.025232 111.144336 
L 310.045863 111.118058 
L 310.107753 111.217825 
L 310.149014 111.159021 
L 310.355316 110.671957 
L 310.582249 110.927525 
L 310.64414 111.306639 
L 310.70603 111.101044 
L 310.767921 110.929603 
L 310.829812 111.040969 
L 310.912333 110.965296 
L 311.036114 110.874466 
L 311.077375 110.927438 
L 311.118635 110.944966 
L 311.139265 110.895867 
L 311.221786 110.62414 
L 311.263047 110.839099 
L 311.324938 111.223825 
L 311.366198 111.061269 
L 311.469349 110.456811 
L 311.53124 110.572881 
L 311.675652 110.689392 
L 311.737543 110.965204 
L 311.778803 110.857402 
L 311.881954 110.135192 
L 311.923215 110.382358 
L 311.985105 110.865758 
L 312.046996 110.595921 
L 312.232668 109.820635 
L 312.315189 110.278272 
L 312.37708 110.481947 
L 312.438971 110.387413 
L 312.604013 110.303386 
L 312.727794 109.96878 
L 312.810315 109.51128 
L 312.851576 109.644514 
L 312.954727 110.033449 
L 312.995987 109.930238 
L 313.161029 109.104484 
L 313.22292 109.339329 
L 313.26418 109.420344 
L 313.305441 109.287488 
L 313.614895 107.828279 
L 313.656155 107.957969 
L 313.697416 108.059001 
L 313.738676 107.97355 
L 314.06876 105.981728 
L 314.378214 101.848211 
L 314.667037 94.116177 
L 314.89397 80.26652 
L 315.285944 48.060809 
L 315.347835 49.828969 
L 315.533507 68.48071 
L 315.884221 97.670734 
L 316.214305 106.468055 
L 316.482498 108.520231 
L 316.688801 109.060866 
L 316.771322 109.31673 
L 316.895103 109.65398 
L 316.936364 109.592192 
L 317.142666 108.62542 
L 317.658422 102.378078 
L 317.864725 93.634763 
L 318.112287 71.124963 
L 318.442371 33.399309 
L 318.483632 34.325505 
L 318.607413 45.854893 
L 319.040648 89.872575 
L 319.350102 99.768654 
L 320.134051 107.238507 
L 320.360984 107.798289 
L 320.464135 108.301765 
L 320.526026 108.562976 
L 320.587917 108.383867 
L 320.629177 108.329909 
L 320.670438 108.468272 
L 320.918 109.329912 
L 320.938631 109.298678 
L 321.041782 109.022203 
L 321.083042 109.1079 
L 321.309975 109.568199 
L 321.351236 109.475554 
L 321.413126 109.260586 
L 321.454387 109.386125 
L 321.578168 110.03891 
L 321.640059 109.94803 
L 321.70195 109.916686 
L 321.74321 109.957929 
L 321.866992 110.303132 
L 321.928882 110.447646 
L 321.970143 110.340215 
L 322.217706 109.737723 
L 322.320857 110.128338 
L 322.382748 109.904264 
L 322.403378 109.862655 
L 322.444638 109.939654 
L 322.506529 110.096301 
L 322.56842 109.996107 
L 322.712832 109.774171 
L 322.754092 109.689255 
L 322.795353 109.833901 
L 322.898504 110.205013 
L 322.960394 110.192441 
L 323.042915 110.130114 
L 323.207957 109.992086 
L 323.269848 109.961649 
L 323.290478 110.003742 
L 323.41426 110.360713 
L 323.476151 110.271844 
L 323.517411 110.32562 
L 323.641192 111.084242 
L 323.703083 110.723273 
L 323.785604 110.261575 
L 323.826865 110.390645 
L 323.868125 110.49181 
L 323.930016 110.385012 
L 323.971276 110.339976 
L 324.012537 110.412686 
L 324.198209 111.000103 
L 324.23947 110.862304 
L 324.425142 110.102092 
L 324.466402 110.169841 
L 324.548923 110.340338 
L 324.590184 110.225061 
L 324.652074 110.077729 
L 324.693335 110.166062 
L 324.837747 110.693508 
L 324.899637 110.647456 
L 324.982158 110.69956 
L 325.044049 110.708475 
L 325.064679 110.673179 
L 325.1472 110.589567 
L 325.209091 110.635163 
L 325.312242 110.831951 
L 325.374133 110.901493 
L 325.415393 110.818336 
L 325.642326 110.127284 
L 325.704217 110.360231 
L 325.848628 111.377799 
L 325.910519 111.224171 
L 325.99304 111.002885 
L 326.054931 111.027434 
L 326.219973 110.709333 
L 326.281864 110.600665 
L 326.302494 110.667815 
L 326.385015 111.115089 
L 326.446905 110.887861 
L 326.508796 110.732038 
L 326.570687 110.825905 
L 326.653208 110.620808 
L 326.694468 110.785903 
L 326.776989 111.218283 
L 326.81825 111.007761 
L 326.900771 110.619231 
L 326.942031 110.763592 
L 327.086443 111.337772 
L 327.127703 111.286416 
L 327.416527 110.860948 
L 327.499048 111.013633 
L 327.560939 111.150407 
L 327.602199 111.089356 
L 327.66409 110.988454 
L 327.70535 111.094024 
L 327.787871 111.306883 
L 327.829132 111.191274 
L 327.911653 110.938583 
L 327.973543 111.035343 
L 328.200476 111.71811 
L 328.241737 111.534712 
L 328.324258 111.027812 
L 328.386148 111.160472 
L 328.448039 111.233856 
L 328.489299 111.189726 
L 328.592451 110.959806 
L 328.654341 110.762689 
L 328.695602 110.934575 
L 328.778123 111.381387 
L 328.840014 111.18703 
L 328.881274 111.124386 
L 328.922535 111.201258 
L 328.963795 111.241158 
L 329.005056 111.146629 
L 329.066946 111.011816 
L 329.128837 111.114365 
L 329.170097 111.153943 
L 329.211358 111.090206 
L 329.273249 111.024987 
L 329.293879 111.072398 
L 329.500181 111.683627 
L 329.541442 111.630724 
L 329.685854 110.759527 
L 329.789005 111.015228 
L 329.892156 111.170319 
L 329.933416 111.134642 
L 330.057198 110.81478 
L 330.119089 110.592279 
L 330.160349 110.761828 
L 330.24287 111.401378 
L 330.304761 111.140839 
L 330.490433 110.672742 
L 330.531693 110.840874 
L 330.634845 111.703802 
L 330.676105 111.394328 
L 330.779256 110.787674 
L 330.820517 110.876345 
L 331.026819 111.175636 
L 331.04745 111.154568 
L 331.356903 110.493544 
L 331.377533 110.536368 
L 331.563206 110.833364 
L 331.625096 110.947505 
L 331.666357 110.816431 
L 331.728248 110.604587 
L 331.769508 110.757562 
L 331.89329 111.541039 
L 331.95518 111.388494 
L 332.161483 110.431346 
L 332.202743 110.586886 
L 332.326525 111.395803 
L 332.367785 111.211203 
L 332.491567 110.749913 
L 332.532827 110.803256 
L 332.677239 111.520356 
L 332.739129 111.170628 
L 332.80102 110.901971 
L 332.842281 111.046584 
L 332.904171 111.228088 
L 332.966062 111.143504 
L 333.089844 111.127137 
L 333.151734 110.976498 
L 333.192995 111.163768 
L 333.254886 111.369782 
L 333.296146 111.135387 
L 333.358037 110.869259 
L 333.399297 111.074422 
L 333.461188 111.382455 
L 333.523079 111.223371 
L 333.62623 110.975206 
L 333.66749 111.052931 
L 333.935684 111.850092 
L 333.956314 111.785897 
L 334.018204 111.564766 
L 334.059465 111.683148 
L 334.100725 111.853918 
L 334.141986 111.760302 
L 334.368919 110.873902 
L 334.410179 110.940708 
L 334.51333 111.306534 
L 334.554591 111.238312 
L 334.699002 110.831397 
L 334.760893 110.992736 
L 334.822784 111.211723 
L 334.864044 111.117265 
L 334.987826 110.566513 
L 335.049717 110.675076 
L 335.111607 110.518161 
L 335.152868 110.381471 
L 335.194128 110.494252 
L 335.276649 110.916361 
L 335.31791 110.74759 
L 335.35917 110.584482 
L 335.400431 110.725614 
L 335.462321 111.072864 
L 335.524212 110.858581 
L 335.565473 110.764352 
L 335.606733 110.905476 
L 335.647994 111.006354 
L 335.689254 110.83663 
L 335.751145 110.512863 
L 335.813036 110.709719 
L 335.874926 110.890098 
L 335.936817 110.815364 
L 335.998708 110.884848 
L 336.060599 111.001109 
L 336.122489 110.912482 
L 336.16375 110.857122 
L 336.20501 110.956232 
L 336.308161 111.345986 
L 336.349422 111.181694 
L 336.535094 110.580124 
L 336.555724 110.591347 
L 336.823917 111.083231 
L 336.885808 110.967544 
L 336.927069 110.979887 
L 336.947699 111.037873 
L 337.03022 111.256887 
L 337.07148 111.190261 
L 337.215892 110.82948 
L 337.257153 110.89823 
L 337.339674 111.030291 
L 337.380934 110.984448 
L 337.525346 110.794303 
L 337.566606 110.859605 
L 337.711018 111.441941 
L 337.772909 111.348252 
L 337.91732 110.880627 
L 337.979211 111.072593 
L 337.999841 111.093267 
L 338.020472 111.04779 
L 338.123623 110.528944 
L 338.185513 110.6699 
L 338.206144 110.690362 
L 338.247404 110.611253 
L 338.288665 110.522226 
L 338.329925 110.613453 
L 338.515597 111.474489 
L 338.556858 111.32458 
L 338.660009 110.75979 
L 338.7219 110.836746 
L 338.783791 110.73922 
L 338.825051 110.663355 
L 338.886942 110.759011 
L 339.093244 110.986977 
L 339.237656 110.605183 
L 339.299547 110.783003 
L 339.402698 111.373474 
L 339.443958 111.259008 
L 339.56774 110.828691 
L 339.609 110.854819 
L 339.918454 111.363946 
L 339.939084 111.305129 
L 340.124756 110.677658 
L 340.166017 110.729893 
L 340.227908 110.850992 
L 340.269168 110.781956 
L 340.331059 110.674641 
L 340.351689 110.730751 
L 340.43421 111.036382 
L 340.496101 110.922083 
L 340.702403 110.778499 
L 340.723033 110.84518 
L 340.784924 111.004688 
L 340.846815 110.902458 
L 340.888075 110.978622 
L 340.970596 111.307982 
L 341.053117 111.234205 
L 341.403831 111.495917 
L 341.465722 111.404213 
L 341.651394 110.981987 
L 341.672024 110.993803 
L 341.754545 111.50447 
L 341.754545 111.50447 
" style="fill:none;stroke:#4c72b0;stroke-linecap:square;"/>
   </g>
   <g id="patch_5">
    <path d="M 185.4 116.93125 
L 349.2 116.93125 
" style="fill:none;stroke:#000000;stroke-linecap:square;stroke-linejoin:miter;stroke-width:1.3;"/>
   </g>
   <g id="text_13">
    <!-- (13.1) -->
    <g transform="translate(187.298309 106.318125)scale(0.1 -0.1)">
     <defs>
      <path d="M 2381 3110 
L 1600 2323 
L 819 3110 
L 461 2746 
L 1242 1965 
L 461 1184 
L 819 826 
L 1600 1606 
L 2381 826 
L 2739 1184 
L 1958 1965 
L 2739 2746 
L 2381 3110 
z
" id="FiraSans-Regular-d7" transform="scale(0.015625)"/>
     </defs>
     <use xlink:href="#FiraSans-Regular-28"/>
     <use x="32.399994" xlink:href="#FiraSans-Regular-31"/>
     <use x="75.699982" xlink:href="#FiraSans-Regular-33"/>
     <use x="125.599976" xlink:href="#FiraSans-Regular-2e"/>
     <use x="149.59996" xlink:href="#FiraSans-Regular-31"/>
     <use x="192.899948" xlink:href="#FiraSans-Regular-d7"/>
     <use x="242.899933" xlink:href="#FiraSans-Regular-29"/>
    </g>
   </g>
  </g>
 </g>
 <defs>
  <clipPath id="pb01779035e">
   <rect height="106.13125" width="163.8" x="10.8" y="10.8"/>
  </clipPath>
  <clipPath id="p627c8d3789">
   <rect height="106.13125" width="163.8" x="185.4" y="10.8"/>
  </clipPath>
 </defs>
</svg>
