<?xml version="1.0" encoding="UTF-8" standalone="no"?>
<!-- Created with Inkscape (http://www.inkscape.org/) -->

<svg
   width="180mm"
   height="134mm"
   viewBox="0 0 180 134"
   version="1.1"
   id="svg5"
   inkscape:version="1.2.1 (9c6d41e4, 2022-07-14)"
   sodipodi:docname="zg_epsi.svg"
   xmlns:inkscape="http://www.inkscape.org/namespaces/inkscape"
   xmlns:sodipodi="http://sodipodi.sourceforge.net/DTD/sodipodi-0.dtd"
   xmlns="http://www.w3.org/2000/svg"
   xmlns:svg="http://www.w3.org/2000/svg">
  <sodipodi:namedview
     id="namedview7"
     pagecolor="#ffffff"
     bordercolor="#666666"
     borderopacity="1.0"
     inkscape:showpageshadow="2"
     inkscape:pageopacity="0.0"
     inkscape:pagecheckerboard="0"
     inkscape:deskcolor="#d1d1d1"
     inkscape:document-units="mm"
     showgrid="true"
     inkscape:zoom="1.4899412"
     inkscape:cx="278.1989"
     inkscape:cy="132.55557"
     inkscape:window-width="1355"
     inkscape:window-height="614"
     inkscape:window-x="2028"
     inkscape:window-y="157"
     inkscape:window-maximized="0"
     inkscape:current-layer="layer1">
    <inkscape:grid
       type="xygrid"
       id="grid1049"
       units="mm"
       spacingx="0.32"
       spacingy="0.32"
       originx="0"
       originy="0" />
  </sodipodi:namedview>
  <defs
     id="defs2">
    <inkscape:path-effect
       effect="mirror_symmetry"
       start_point="48.947914,82.020831"
       end_point="48.947914,87.312499"
       center_point="48.947914,84.666665"
       id="path-effect4739-9"
       is_visible="true"
       lpeversion="1.1"
       mode="free"
       discard_orig_path="false"
       fuse_paths="false"
       oposite_fuse="false"
       split_items="false"
       split_open="false"
       lpesatellites=""
       link_styles="false" />
  </defs>
  <g
     inkscape:label="Layer 1"
     inkscape:groupmode="layer"
     id="layer1">
    <text
       inkscape:export-filename="/Users/yongrenjie/dphil/nbsphinx/sehsqc/spor.png"
       xml:space="preserve"
       style="font-style:normal;font-weight:normal;font-size:3.52777px;line-height:1.25;font-family:'Fira Sans';fill:#000000;fill-opacity:1;stroke:none;stroke-width:0.264583"
       x="107.9533"
       y="15.722919"
       id="text14-2-7-3-1-9"
       inkscape:export-xdpi="500"
       inkscape:export-ydpi="500"><tspan
         sodipodi:role="line"
         id="tspan12-5-03-8-8-0"
         x="107.9533"
         y="15.722919"
         style="font-style:normal;font-variant:normal;font-weight:normal;font-stretch:normal;font-size:3.52777px;font-family:'Fira Sans';-inkscape-font-specification:'Fira Sans';stroke-width:0.264583"><tspan
   style="font-style:normal;font-variant:normal;font-weight:normal;font-stretch:normal;font-size:2.29306px;font-family:'Fira Sans';-inkscape-font-specification:'Fira Sans';baseline-shift:super;stroke-width:0.264583"
   id="tspan16-1-9-0-4-2">1</tspan>H</tspan></text>
    <path
       inkscape:export-filename="/Users/yongrenjie/dphil/nbsphinx/sehsqc/spor.png"
       style="fill:none;stroke:#000000;stroke-width:0.32;stroke-linecap:butt;stroke-linejoin:miter;stroke-dasharray:none;stroke-opacity:1"
       d="m 112,14.4 h 43.16802"
       id="path10-22-2-4-7-3"
       inkscape:export-xdpi="500"
       inkscape:export-ydpi="500" />
    <text
       inkscape:export-filename="/Users/yongrenjie/dphil/nbsphinx/sehsqc/spor.png"
       xml:space="preserve"
       style="font-style:normal;font-weight:normal;font-size:3.52777px;line-height:1.25;font-family:'Fira Sans';fill:#000000;fill-opacity:1;stroke:none;stroke-width:0.264583"
       x="107.7785"
       y="23.720625"
       id="text14-2-7-5-2-2-7-3-9"
       inkscape:export-xdpi="500"
       inkscape:export-ydpi="500"><tspan
         sodipodi:role="line"
         id="tspan12-5-03-5-5-8-0-1-9"
         x="107.7785"
         y="23.720625"
         style="font-style:italic;font-variant:normal;font-weight:normal;font-stretch:normal;font-size:3.52777px;font-family:'Fira Sans';-inkscape-font-specification:'Fira Sans';stroke-width:0.264583">G<tspan
   style="font-size:65%;baseline-shift:sub"
   id="tspan25204-3-0-7">z</tspan></tspan></text>
    <path
       inkscape:export-filename="/Users/yongrenjie/dphil/nbsphinx/sehsqc/spor.png"
       style="fill:none;stroke:#000000;stroke-width:0.32;stroke-linecap:butt;stroke-linejoin:miter;stroke-dasharray:none;stroke-opacity:1"
       d="m 112.03199,22.39771 h 43.16802"
       id="path10-22-2-8-2-9-9-2-0"
       inkscape:export-xdpi="500"
       inkscape:export-ydpi="500" />
    <rect
       style="fill:none;stroke:#000000;stroke-width:0.32;stroke-linecap:square;stroke-dasharray:none;stop-color:#000000"
       id="rect10298-7-2-3"
       width="9.6000004"
       height="3.2000036"
       x="128.04384"
       y="19.197712" />
    <rect
       style="fill:none;stroke:#000000;stroke-width:0.32;stroke-linecap:square;stroke-dasharray:none;stop-color:#000000"
       id="rect10298-7-2-8-2"
       width="9.6000004"
       height="1.6000022"
       x="116.84386"
       y="22.397711" />
    <rect
       style="fill:none;stroke:#000000;stroke-width:0.319999;stroke-linecap:square;stroke-dasharray:none;stop-color:#000000"
       id="rect10298-7-2-7-4"
       width="9.6000004"
       height="3.199996"
       x="137.64388"
       y="-25.597723"
       transform="scale(1,-1)" />
    <path
       style="fill:none;stroke:#000000;stroke-width:0.32;stroke-linecap:round;stop-color:#000000"
       d="m 137.6439,14.333873 c 0.006,-0.008 0.013,-0.016 0.019,-0.024 0.006,-0.008 0.012,-0.016 0.019,-0.024 0.006,-0.009 0.012,-0.017 0.019,-0.025 0.006,-0.008 0.012,-0.016 0.018,-0.024 0.007,-0.008 0.013,-0.016 0.019,-0.024 0.007,-0.008 0.013,-0.016 0.019,-0.024 0.006,-0.008 0.013,-0.016 0.019,-0.023 0.006,-0.008 0.013,-0.016 0.019,-0.023 0.006,-0.008 0.012,-0.016 0.019,-0.023 0.006,-0.007 0.012,-0.015 0.019,-0.022 0.006,-0.007 0.012,-0.014 0.018,-0.021 0.007,-0.007 0.013,-0.014 0.019,-0.02 0.007,-0.007 0.013,-0.013 0.019,-0.02 0.006,-0.006 0.013,-0.012 0.019,-0.018 0.006,-0.006 0.013,-0.012 0.019,-0.017 0.006,-0.006 0.012,-0.011 0.019,-0.017 0.006,-0.005 0.012,-0.01 0.019,-0.015 0.006,-0.005 0.012,-0.009 0.018,-0.014 0.007,-0.004 0.013,-0.008 0.019,-0.012 0.007,-0.004 0.013,-0.008 0.019,-0.011 0.006,-0.004 0.013,-0.007 0.019,-0.01 0.006,-0.003 0.013,-0.005 0.019,-0.008 0.006,-0.002 0.013,-0.005 0.019,-0.007 0.006,-0.001 0.012,-0.003 0.019,-0.005 0.006,-10e-4 0.012,-0.002 0.019,-0.003 0.006,-10e-4 0.012,-0.002 0.018,-0.002 0.007,0 0.013,0 0.019,0 0.007,0 0.013,10e-4 0.019,10e-4 0.006,10e-4 0.013,0.002 0.019,0.004 0.006,0.001 0.013,0.003 0.019,0.005 0.006,10e-4 0.012,0.004 0.019,0.006 0.006,0.002 0.012,0.005 0.019,0.008 0.006,0.003 0.012,0.007 0.018,0.01 0.007,0.004 0.013,0.007 0.019,0.012 0.007,0.004 0.013,0.008 0.019,0.013 0.006,0.004 0.013,0.009 0.019,0.014 0.006,0.005 0.013,0.011 0.019,0.016 0.006,0.006 0.012,0.012 0.019,0.018 0.006,0.006 0.012,0.013 0.019,0.019 0.006,0.007 0.012,0.014 0.018,0.021 0.007,0.007 0.013,0.014 0.019,0.021 0.007,0.008 0.013,0.015 0.019,0.023 0.006,0.008 0.013,0.016 0.019,0.024 0.006,0.009 0.013,0.017 0.019,0.026 0.006,0.008 0.012,0.017 0.019,0.026 0.006,0.009 0.012,0.018 0.019,0.027 0.006,0.009 0.012,0.018 0.018,0.028 0.007,0.009 0.013,0.019 0.019,0.028 0.007,0.01 0.013,0.02 0.019,0.029 0.006,0.01 0.013,0.02 0.019,0.03 0.006,0.01 0.013,0.02 0.019,0.03 0.006,0.01 0.012,0.02 0.019,0.031 0.006,0.01 0.012,0.02 0.019,0.03 0.006,0.01 0.012,0.021 0.018,0.031 0.007,0.01 0.013,0.02 0.019,0.03 0.007,0.011 0.013,0.021 0.019,0.031 0.006,0.01 0.013,0.02 0.019,0.03 0.006,0.01 0.013,0.02 0.019,0.03 0.006,0.009 0.012,0.019 0.019,0.029 0.006,0.009 0.012,0.019 0.019,0.028 0.006,0.01 0.012,0.019 0.018,0.028 0.007,0.009 0.013,0.018 0.019,0.027 0.007,0.009 0.013,0.017 0.019,0.026 0.006,0.008 0.013,0.017 0.019,0.025 0.006,0.008 0.013,0.016 0.019,0.023 0.006,0.008 0.013,0.016 0.019,0.023 0.006,0.007 0.012,0.014 0.019,0.021 0.006,0.007 0.012,0.013 0.019,0.019 0.006,0.007 0.012,0.013 0.018,0.018 0.007,0.006 0.013,0.012 0.019,0.017 0.007,0.005 0.013,0.01 0.019,0.014 0.006,0.005 0.013,0.009 0.019,0.013 0.006,0.004 0.013,0.008 0.019,0.011 0.006,0.003 0.012,0.006 0.019,0.009 0.006,0.002 0.012,0.005 0.019,0.007 0.006,0.002 0.012,0.003 0.018,0.005 0.007,10e-4 0.013,0.002 0.019,0.002 0.007,10e-4 0.013,10e-4 0.019,10e-4 0.006,0 0.013,0 0.019,-10e-4 0.006,-0.001 0.013,-0.002 0.019,-0.004 0.006,-10e-4 0.012,-0.003 0.019,-0.006 0.006,-0.002 0.012,-0.005 0.019,-0.008 0.006,-0.003 0.012,-0.006 0.018,-0.01 0.007,-0.003 0.013,-0.008 0.019,-0.012 0.007,-0.004 0.013,-0.009 0.019,-0.014 0.006,-0.006 0.013,-0.011 0.019,-0.017 0.006,-0.006 0.013,-0.012 0.019,-0.019 0.006,-0.006 0.012,-0.013 0.019,-0.02 0.006,-0.007 0.012,-0.015 0.019,-0.023 0.006,-0.008 0.012,-0.016 0.018,-0.024 0.007,-0.009 0.013,-0.018 0.019,-0.027 0.007,-0.009 0.013,-0.018 0.019,-0.028 0.006,-0.01 0.013,-0.019 0.019,-0.03 0.006,-0.01 0.013,-0.02 0.019,-0.031 0.006,-0.011 0.012,-0.022 0.019,-0.033 0.006,-0.011 0.012,-0.023 0.019,-0.034 0.006,-0.012 0.012,-0.024 0.018,-0.036 0.007,-0.012 0.013,-0.024 0.019,-0.037 0.007,-0.012 0.013,-0.025 0.019,-0.038 0.006,-0.012 0.013,-0.025 0.019,-0.038 0.006,-0.013 0.013,-0.026 0.019,-0.04 0.006,-0.013 0.012,-0.026 0.019,-0.04 0.006,-0.013 0.012,-0.027 0.019,-0.04 0.006,-0.014 0.012,-0.028 0.018,-0.041 0.007,-0.014 0.013,-0.028 0.019,-0.042 0.007,-0.013 0.013,-0.027 0.019,-0.041 0.007,-0.014 0.013,-0.027 0.019,-0.041 0.006,-0.014 0.013,-0.027 0.019,-0.041 0.006,-0.013 0.013,-0.027 0.019,-0.04 0.006,-0.014 0.012,-0.027 0.019,-0.04 0.006,-0.013 0.012,-0.027 0.019,-0.039 0.006,-0.013 0.012,-0.026 0.018,-0.039 0.007,-0.012 0.013,-0.025 0.019,-0.037 0.007,-0.012 0.013,-0.024 0.019,-0.036 0.006,-0.012 0.013,-0.023 0.019,-0.035 0.006,-0.011 0.013,-0.022 0.019,-0.033 0.006,-0.011 0.012,-0.021 0.019,-0.032 0.006,-0.01 0.012,-0.02 0.019,-0.029 0.006,-0.01 0.012,-0.019 0.018,-0.028 0.007,-0.009 0.013,-0.018 0.019,-0.026 0.007,-0.008 0.013,-0.016 0.019,-0.024 0.006,-0.007 0.013,-0.014 0.019,-0.021 0.006,-0.007 0.013,-0.013 0.019,-0.019 0.006,-0.006 0.012,-0.011 0.019,-0.016 0.006,-0.006 0.012,-0.01 0.019,-0.014 0.006,-0.004 0.012,-0.008 0.018,-0.011 0.007,-0.004 0.013,-0.006 0.019,-0.009 0.007,-0.002 0.013,-0.004 0.019,-0.005 0.006,-10e-4 0.013,-0.002 0.019,-0.003 0.006,0 0.013,0 0.019,0.001 0.006,10e-4 0.012,0.002 0.019,0.003 0.006,0.002 0.012,0.004 0.019,0.007 0.006,0.003 0.012,0.006 0.018,0.01 0.007,0.004 0.013,0.008 0.019,0.013 0.007,0.004 0.013,0.01 0.019,0.016 0.006,0.005 0.013,0.012 0.019,0.019 0.006,0.006 0.013,0.014 0.019,0.022 0.006,0.008 0.012,0.016 0.019,0.025 0.006,0.009 0.012,0.018 0.019,0.028 0.006,0.01 0.012,0.021 0.018,0.031 0.007,0.011 0.013,0.023 0.019,0.035 0.007,0.011 0.013,0.024 0.019,0.037 0.006,0.012 0.013,0.026 0.019,0.039 0.006,0.014 0.013,0.028 0.019,0.043 0.006,0.014 0.012,0.029 0.019,0.045 0.006,0.015 0.012,0.031 0.019,0.047 0.006,0.016 0.012,0.033 0.018,0.05 0.007,0.017 0.013,0.034 0.019,0.051 0.007,0.018 0.013,0.036 0.019,0.054 0.007,0.019 0.013,0.037 0.019,0.056 0.006,0.019 0.013,0.038 0.019,0.057 0.006,0.02 0.013,0.039 0.019,0.059 0.006,0.02 0.012,0.04 0.019,0.06 0.006,0.021 0.012,0.041 0.019,0.062 0.006,0.02 0.012,0.041 0.018,0.062 0.007,0.021 0.013,0.042 0.019,0.063 0.007,0.021 0.013,0.042 0.019,0.063 0.006,0.022 0.013,0.043 0.019,0.064 0.006,0.021 0.013,0.043 0.019,0.064 0.006,0.021 0.012,0.043 0.019,0.064 0.006,0.021 0.012,0.042 0.019,0.063 0.006,0.021 0.012,0.042 0.018,0.063 0.007,0.02 0.013,0.041 0.019,0.061 0.007,0.021 0.013,0.041 0.019,0.061 0.006,0.02 0.013,0.04 0.019,0.059 0.006,0.02 0.013,0.039 0.019,0.058 0.006,0.019 0.012,0.037 0.019,0.055 0.006,0.019 0.012,0.036 0.019,0.054 0.006,0.018 0.012,0.035 0.018,0.051 0.007,0.017 0.013,0.033 0.019,0.049 0.007,0.016 0.013,0.031 0.019,0.046 0.006,0.015 0.013,0.029 0.019,0.043 0.006,0.013 0.013,0.027 0.019,0.039 0.006,0.013 0.012,0.025 0.019,0.036 0.006,0.012 0.012,0.023 0.019,0.033 0.006,0.01 0.012,0.019 0.018,0.028 0.007,0.009 0.013,0.017 0.019,0.025 0.007,0.007 0.013,0.014 0.019,0.02 0.006,0.005 0.013,0.011 0.019,0.015 0.006,0.004 0.013,0.008 0.019,0.011 0.006,0.003 0.012,0.005 0.019,0.006 0.006,10e-4 0.012,10e-4 0.019,10e-4 0.006,-10e-4 0.012,-0.002 0.018,-0.004 0.007,-0.003 0.013,-0.006 0.019,-0.01 0.007,-0.004 0.013,-0.009 0.019,-0.014 0.006,-0.006 0.013,-0.013 0.019,-0.021 0.006,-0.007 0.013,-0.016 0.019,-0.026 0.006,-0.009 0.012,-0.02 0.019,-0.031 0.006,-0.012 0.012,-0.024 0.019,-0.037 0.006,-0.014 0.012,-0.028 0.018,-0.043 0.007,-0.016 0.013,-0.032 0.019,-0.049 0.007,-0.017 0.013,-0.036 0.019,-0.055 0.007,-0.019 0.013,-0.039 0.019,-0.06 0.006,-0.021 0.013,-0.043 0.019,-0.066 0.006,-0.023 0.013,-0.048 0.019,-0.072 0.006,-0.025 0.012,-0.051 0.019,-0.078 0.006,-0.027 0.012,-0.055 0.019,-0.084 0.006,-0.029 0.012,-0.058 0.018,-0.089 0.007,-0.031 0.013,-0.062 0.019,-0.095 0.007,-0.032 0.013,-0.065 0.019,-0.1 0.006,-0.034 0.013,-0.069 0.019,-0.105 0.006,-0.036 0.013,-0.073 0.019,-0.111 0.006,-0.037 0.012,-0.076 0.019,-0.115 0.006,-0.039 0.012,-0.08 0.019,-0.121 0.006,-0.04 0.012,-0.082 0.018,-0.125 0.007,-0.042 0.013,-0.085 0.019,-0.129 0.007,-0.044 0.013,-0.089 0.019,-0.134 0.006,-0.045 0.013,-0.091 0.019,-0.138 0.006,-0.047 0.013,-0.094 0.019,-0.142 0.006,-0.048 0.012,-0.096 0.019,-0.145 0.006,-0.049 0.012,-0.099 0.019,-0.149 0.006,-0.05 0.012,-0.1 0.018,-0.151 0.007,-0.051 0.013,-0.103 0.019,-0.155 0.007,-0.052 0.013,-0.104 0.019,-0.157 0.006,-0.052 0.013,-0.105 0.019,-0.159 0.006,-0.053 0.013,-0.107 0.019,-0.161 0.006,-0.054 0.012,-0.108 0.019,-0.162 0.006,-0.055 0.012,-0.11 0.019,-0.164 0.006,-0.055 0.012,-0.11 0.018,-0.165 0.007,-0.055 0.013,-0.11 0.019,-0.166 0.007,-0.055 0.013,-0.11 0.019,-0.165 0.006,-0.055 0.013,-0.111 0.019,-0.166 0.006,-0.055 0.013,-0.11 0.019,-0.165 0.006,-0.055 0.012,-0.11 0.019,-0.164 0.006,-0.055 0.012,-0.109 0.019,-0.164 0.006,-0.054 0.012,-0.108 0.018,-0.161 0.007,-0.054 0.013,-0.107 0.019,-0.16 0.007,-0.053 0.013,-0.106 0.019,-0.158 0.006,-0.053 0.013,-0.104 0.019,-0.156 0.006,-0.051 0.013,-0.102 0.019,-0.152 0.006,-0.051 0.012,-0.101 0.019,-0.15 0.006,-0.049 0.012,-0.098 0.019,-0.1459996 0.006,-0.048 0.012,-0.095 0.018,-0.142 0.007,-0.047 0.013,-0.093 0.019,-0.138 0.007,-0.045 0.013,-0.09 0.019,-0.134 0.007,-0.044 0.013,-0.087 0.019,-0.129 0.006,-0.042 0.013,-0.083 0.019,-0.124 0.006,-0.04 0.013,-0.08 0.019,-0.119 0.006,-0.038 0.012,-0.076 0.019,-0.113 0.006,-0.037 0.012,-0.073 0.019,-0.107 0.006,-0.035 0.012,-0.069 0.018,-0.102 0.007,-0.033 0.013,-0.064 0.019,-0.095 0.007,-0.031 0.013,-0.06 0.019,-0.089 0.006,-0.028 0.013,-0.056 0.019,-0.082 0.006,-0.026 0.013,-0.051 0.019,-0.075 0.006,-0.024 0.012,-0.047 0.019,-0.068 0.006,-0.022 0.012,-0.042 0.019,-0.061 0.006,-0.019 0.012,-0.037 0.018,-0.054 0.007,-0.017 0.013,-0.032 0.019,-0.046 0.007,-0.014 0.013,-0.027 0.019,-0.039 0.006,-0.011 0.013,-0.022 0.019,-0.031 0.006,-0.009 0.013,-0.017 0.019,-0.023 0.006,-0.007 0.012,-0.012 0.019,-0.016 0.006,-0.004 0.012,-0.006 0.019,-0.008 0.006,-10e-4 0.012,-10e-4 0.018,0 0.007,0.002 0.013,0.004 0.019,0.008 0.007,0.004 0.013,0.009 0.019,0.016 0.006,0.006 0.013,0.014 0.019,0.023 0.006,0.009 0.013,0.02 0.019,0.031 0.006,0.012 0.012,0.025 0.019,0.039 0.006,0.014 0.012,0.029 0.019,0.046 0.006,0.017 0.012,0.035 0.018,0.054 0.007,0.019 0.013,0.039 0.019,0.061 0.007,0.021 0.013,0.044 0.019,0.068 0.006,0.024 0.013,0.049 0.019,0.075 0.006,0.026 0.013,0.054 0.019,0.082 0.006,0.029 0.012,0.058 0.019,0.089 0.006,0.031 0.012,0.062 0.019,0.095 0.006,0.033 0.012,0.067 0.018,0.102 0.007,0.034 0.013,0.07 0.019,0.107 0.007,0.037 0.013,0.075 0.019,0.113 0.006,0.039 0.013,0.079 0.019,0.119 0.006,0.041 0.013,0.082 0.019,0.124 0.006,0.042 0.012,0.085 0.019,0.129 0.006,0.044 0.012,0.089 0.019,0.134 0.006,0.045 0.012,0.091 0.019,0.138 0.006,0.047 0.012,0.094 0.018,0.142 0.007,0.048 0.013,0.097 0.019,0.1459996 0.007,0.049 0.013,0.099 0.019,0.15 0.006,0.05 0.013,0.101 0.019,0.152 0.006,0.052 0.013,0.103 0.019,0.156 0.006,0.052 0.012,0.105 0.019,0.158 0.006,0.053 0.012,0.106 0.019,0.16 0.006,0.053 0.012,0.107 0.018,0.161 0.007,0.055 0.013,0.109 0.019,0.164 0.007,0.054 0.013,0.109 0.019,0.164 0.006,0.055 0.013,0.11 0.019,0.165 0.006,0.055 0.013,0.111 0.019,0.166 0.006,0.055 0.012,0.11 0.019,0.165 0.006,0.056 0.012,0.111 0.019,0.166 0.006,0.055 0.012,0.11 0.018,0.165 0.007,0.054 0.013,0.109 0.019,0.164 0.007,0.054 0.013,0.108 0.019,0.162 0.006,0.054 0.013,0.108 0.019,0.161 0.006,0.054 0.013,0.107 0.019,0.159 0.006,0.053 0.012,0.105 0.019,0.157 0.006,0.052 0.012,0.104 0.019,0.155 0.006,0.051 0.012,0.101 0.018,0.151 0.007,0.05 0.013,0.1 0.019,0.149 0.007,0.049 0.013,0.097 0.019,0.145 0.006,0.048 0.013,0.095 0.019,0.142 0.006,0.047 0.013,0.093 0.019,0.138 0.006,0.045 0.012,0.09 0.019,0.134 0.006,0.044 0.012,0.087 0.019,0.129 0.006,0.043 0.012,0.085 0.018,0.125 0.007,0.041 0.013,0.082 0.019,0.121 0.007,0.039 0.013,0.078 0.019,0.115 0.006,0.038 0.013,0.075 0.019,0.111 0.006,0.036 0.013,0.071 0.019,0.105 0.006,0.035 0.012,0.068 0.019,0.1 0.006,0.033 0.012,0.064 0.019,0.095 0.006,0.031 0.012,0.06 0.018,0.089 0.007,0.029 0.013,0.057 0.019,0.084 0.007,0.027 0.013,0.053 0.019,0.078 0.006,0.024 0.013,0.049 0.019,0.072 0.006,0.023 0.013,0.045 0.019,0.066 0.006,0.021 0.012,0.041 0.019,0.06 0.006,0.019 0.012,0.038 0.019,0.055 0.006,0.017 0.012,0.033 0.019,0.049 0.006,0.015 0.012,0.029 0.018,0.043 0.007,0.013 0.013,0.025 0.019,0.037 0.007,0.011 0.013,0.022 0.019,0.031 0.006,0.01 0.013,0.019 0.019,0.026 0.006,0.008 0.013,0.015 0.019,0.021 0.006,0.005 0.012,0.01 0.019,0.014 0.006,0.004 0.012,0.007 0.019,0.01 0.006,0.002 0.012,0.003 0.018,0.004 0.007,0 0.013,0 0.019,-10e-4 0.007,-0.001 0.013,-0.003 0.019,-0.006 0.006,-0.003 0.013,-0.007 0.019,-0.011 0.006,-0.004 0.013,-0.01 0.019,-0.015 0.006,-0.006 0.012,-0.013 0.019,-0.02 0.006,-0.008 0.012,-0.016 0.019,-0.025 0.006,-0.009 0.012,-0.018 0.018,-0.028 0.007,-0.01 0.013,-0.021 0.019,-0.033 0.007,-0.011 0.013,-0.023 0.019,-0.036 0.006,-0.012 0.013,-0.026 0.019,-0.039 0.006,-0.014 0.013,-0.028 0.019,-0.043 0.006,-0.015 0.012,-0.03 0.019,-0.046 0.006,-0.016 0.012,-0.032 0.019,-0.049 0.006,-0.016 0.012,-0.033 0.018,-0.051 0.007,-0.018 0.013,-0.035 0.019,-0.054 0.007,-0.018 0.013,-0.036 0.019,-0.055 0.006,-0.019 0.013,-0.038 0.019,-0.058 0.006,-0.019 0.013,-0.039 0.019,-0.059 0.006,-0.02 0.012,-0.04 0.019,-0.061 0.006,-0.02 0.012,-0.041 0.019,-0.061 0.006,-0.021 0.012,-0.042 0.018,-0.063 0.007,-0.021 0.013,-0.042 0.019,-0.063 0.007,-0.021 0.013,-0.043 0.019,-0.064 0.006,-0.021 0.013,-0.043 0.019,-0.064 0.006,-0.021 0.013,-0.042 0.019,-0.064 0.006,-0.021 0.012,-0.042 0.019,-0.063 0.006,-0.021 0.012,-0.042 0.019,-0.063 0.006,-0.021 0.012,-0.042 0.018,-0.062 0.007,-0.021 0.013,-0.041 0.019,-0.062 0.007,-0.02 0.013,-0.04 0.019,-0.06 0.006,-0.02 0.013,-0.039 0.019,-0.059 0.006,-0.019 0.013,-0.038 0.019,-0.057 0.006,-0.019 0.012,-0.037 0.019,-0.056 0.006,-0.018 0.012,-0.036 0.019,-0.054 0.006,-0.017 0.012,-0.034 0.019,-0.051 0.006,-0.017 0.012,-0.034 0.018,-0.05 0.007,-0.016 0.013,-0.032 0.019,-0.047 0.007,-0.016 0.013,-0.031 0.019,-0.045 0.006,-0.015 0.013,-0.029 0.019,-0.043 0.006,-0.013 0.013,-0.027 0.019,-0.039 0.006,-0.013 0.012,-0.026 0.019,-0.037 0.006,-0.012 0.012,-0.024 0.019,-0.035 0.006,-0.01 0.012,-0.021 0.018,-0.031 0.007,-0.01 0.013,-0.019 0.019,-0.028 0.007,-0.009 0.013,-0.017 0.019,-0.025 0.006,-0.008 0.013,-0.016 0.019,-0.022 0.006,-0.007 0.013,-0.014 0.019,-0.019 0.006,-0.006 0.012,-0.012 0.019,-0.016 0.006,-0.005 0.012,-0.009 0.019,-0.013 0.006,-0.004 0.012,-0.007 0.018,-0.01 0.007,-0.003 0.013,-0.005 0.019,-0.007 0.007,-10e-4 0.013,-0.002 0.019,-0.003 0.006,-0.001 0.013,-0.001 0.019,-0.001 0.006,0.001 0.013,0.002 0.019,0.003 0.006,10e-4 0.012,0.003 0.019,0.005 0.006,0.003 0.012,0.005 0.019,0.009 0.006,0.003 0.012,0.007 0.018,0.011 0.007,0.004 0.013,0.008 0.019,0.014 0.007,0.005 0.013,0.01 0.019,0.016 0.006,0.006 0.013,0.012 0.019,0.019 0.006,0.007 0.013,0.014 0.019,0.021 0.006,0.008 0.012,0.016 0.019,0.024 0.006,0.008 0.012,0.017 0.019,0.026 0.006,0.009 0.012,0.018 0.018,0.028 0.007,0.009 0.013,0.019 0.019,0.029 0.007,0.011 0.013,0.021 0.019,0.032 0.006,0.011 0.013,0.022 0.019,0.033 0.006,0.012 0.013,0.023 0.019,0.035 0.006,0.012 0.012,0.024 0.019,0.036 0.006,0.012 0.012,0.025 0.019,0.037 0.006,0.013 0.012,0.026 0.018,0.039 0.007,0.012 0.013,0.026 0.019,0.039 0.007,0.013 0.013,0.026 0.019,0.04 0.006,0.013 0.013,0.027 0.019,0.04 0.006,0.014 0.013,0.027 0.019,0.041 0.006,0.014 0.012,0.027 0.019,0.041 0.006,0.014 0.012,0.028 0.019,0.041 0.006,0.014 0.012,0.028 0.019,0.042 0.006,0.013 0.012,0.027 0.018,0.041 0.007,0.013 0.013,0.027 0.019,0.04 0.007,0.014 0.013,0.027 0.019,0.04 0.006,0.014 0.013,0.027 0.019,0.04 0.006,0.013 0.013,0.026 0.019,0.038 0.006,0.013 0.012,0.026 0.019,0.038 0.006,0.013 0.012,0.025 0.019,0.037 0.006,0.012 0.012,0.024 0.018,0.036 0.007,0.011 0.013,0.023 0.019,0.034 0.007,0.011 0.013,0.022 0.019,0.033 0.006,0.011 0.013,0.021 0.019,0.031 0.006,0.011 0.013,0.02 0.019,0.03 0.006,0.01 0.012,0.019 0.019,0.028 0.006,0.009 0.012,0.018 0.019,0.027 0.006,0.008 0.012,0.016 0.018,0.024 0.007,0.008 0.013,0.016 0.019,0.023 0.007,0.007 0.013,0.014 0.019,0.02 0.006,0.007 0.013,0.013 0.019,0.019 0.006,0.006 0.013,0.011 0.019,0.017 0.006,0.005 0.012,0.01 0.019,0.014 0.006,0.004 0.012,0.009 0.019,0.012 0.006,0.004 0.012,0.007 0.018,0.01 0.007,0.003 0.013,0.006 0.019,0.008 0.007,0.003 0.013,0.005 0.019,0.006 0.006,0.002 0.013,0.003 0.019,0.004 0.006,10e-4 0.013,10e-4 0.019,10e-4 0.006,0 0.012,0 0.019,-10e-4 0.006,0 0.012,-0.001 0.019,-0.002 0.006,-0.002 0.012,-0.003 0.018,-0.005 0.007,-0.002 0.013,-0.005 0.019,-0.007 0.007,-0.003 0.013,-0.006 0.019,-0.009 0.006,-0.003 0.013,-0.007 0.019,-0.011 0.006,-0.004 0.013,-0.008 0.019,-0.013 0.006,-0.004 0.012,-0.009 0.019,-0.014 0.006,-0.005 0.012,-0.011 0.019,-0.017 0.006,-0.005 0.012,-0.011 0.018,-0.018 0.007,-0.006 0.013,-0.012 0.019,-0.019 0.007,-0.007 0.013,-0.014 0.019,-0.021 0.006,-0.007 0.013,-0.015 0.019,-0.023 0.006,-0.007 0.013,-0.015 0.019,-0.023 0.006,-0.008 0.013,-0.017 0.019,-0.025 0.006,-0.009 0.012,-0.017 0.019,-0.026 0.006,-0.009 0.012,-0.018 0.019,-0.027 0.006,-0.009 0.012,-0.018 0.018,-0.028 0.007,-0.009 0.013,-0.019 0.019,-0.028 0.007,-0.01 0.013,-0.02 0.019,-0.029 0.006,-0.01 0.013,-0.02 0.019,-0.03 0.006,-0.01 0.013,-0.02 0.019,-0.03 0.006,-0.01 0.012,-0.02 0.019,-0.031 0.006,-0.01 0.012,-0.02 0.019,-0.03 0.006,-0.01 0.012,-0.021 0.018,-0.031 0.007,-0.01 0.013,-0.02 0.019,-0.03 0.007,-0.011 0.013,-0.021 0.019,-0.031 0.006,-0.01 0.013,-0.02 0.019,-0.03 0.006,-0.01 0.013,-0.02 0.019,-0.03 0.006,-0.009 0.012,-0.019 0.019,-0.029 0.006,-0.009 0.012,-0.019 0.019,-0.028 0.006,-0.01 0.012,-0.019 0.018,-0.028 0.007,-0.009 0.013,-0.018 0.019,-0.027 0.007,-0.009 0.013,-0.018 0.019,-0.026 0.006,-0.009 0.013,-0.017 0.019,-0.026 0.006,-0.008 0.013,-0.016 0.019,-0.024 0.006,-0.008 0.012,-0.015 0.019,-0.023 0.006,-0.007 0.012,-0.014 0.019,-0.021 0.006,-0.007 0.012,-0.014 0.018,-0.021 0.007,-0.006 0.013,-0.013 0.019,-0.019 0.007,-0.006 0.013,-0.012 0.019,-0.018 0.006,-0.005 0.013,-0.011 0.019,-0.016 0.006,-0.005 0.013,-0.01 0.019,-0.014 0.006,-0.005 0.012,-0.009 0.019,-0.013 0.006,-0.005 0.012,-0.008 0.019,-0.012 0.006,-0.003 0.012,-0.007 0.018,-0.01 0.007,-0.003 0.013,-0.005 0.019,-0.008 0.007,-0.002 0.013,-0.005 0.019,-0.006 0.006,-0.002 0.013,-0.004 0.019,-0.005 0.006,-0.002 0.013,-0.003 0.019,-0.004 0.006,0 0.012,-10e-4 0.019,-10e-4 0.006,0 0.012,0 0.019,0 0.006,0 0.012,10e-4 0.018,0.002 0.007,0.001 0.013,0.002 0.019,0.003 0.007,0.002 0.013,0.004 0.019,0.005 0.006,0.002 0.013,0.005 0.019,0.007 0.006,0.003 0.013,0.005 0.019,0.008 0.006,0.003 0.013,0.006 0.019,0.01 0.006,0.003 0.012,0.007 0.019,0.011 0.006,0.004 0.012,0.008 0.019,0.012 0.006,0.005 0.012,0.009 0.018,0.014 0.007,0.005 0.013,0.01 0.019,0.015 0.007,0.006 0.013,0.011 0.019,0.017 0.006,0.005 0.013,0.011 0.019,0.017 0.006,0.006 0.013,0.012 0.019,0.018 0.006,0.007 0.012,0.013 0.019,0.02 0.006,0.006 0.012,0.013 0.019,0.02 0.006,0.007 0.012,0.014 0.018,0.021 0.007,0.007 0.013,0.015 0.019,0.022 0.007,0.007 0.013,0.015 0.019,0.023 0.006,0.007 0.013,0.015 0.019,0.023 0.006,0.007 0.013,0.015 0.019,0.023 0.006,0.008 0.012,0.016 0.019,0.024 0.006,0.008 0.012,0.016 0.019,0.024 0.006,0.008 0.012,0.016 0.018,0.024 0.007,0.008 0.013,0.016 0.019,0.025 0.007,0.008 0.013,0.016 0.019,0.024 0.006,0.008 0.013,0.016 0.019,0.024"
       title="sin(x) / x"
       id="path23973-1" />
    <path
       style="fill:none;stroke:#000000;stroke-width:0.32;stroke-linecap:round;stop-color:#000000"
       d="m 128.04389,14.333873 c 0.006,-0.008 0.013,-0.016 0.019,-0.024 0.006,-0.008 0.012,-0.016 0.019,-0.024 0.006,-0.009 0.012,-0.017 0.019,-0.025 0.006,-0.008 0.012,-0.016 0.018,-0.024 0.007,-0.008 0.013,-0.016 0.019,-0.024 0.007,-0.008 0.013,-0.016 0.019,-0.024 0.006,-0.008 0.013,-0.016 0.019,-0.023 0.006,-0.008 0.013,-0.016 0.019,-0.023 0.006,-0.008 0.012,-0.016 0.019,-0.023 0.006,-0.007 0.012,-0.015 0.019,-0.022 0.006,-0.007 0.012,-0.014 0.018,-0.021 0.007,-0.007 0.013,-0.014 0.019,-0.02 0.007,-0.007 0.013,-0.013 0.019,-0.02 0.006,-0.006 0.013,-0.012 0.019,-0.018 0.006,-0.006 0.013,-0.012 0.019,-0.017 0.006,-0.006 0.012,-0.011 0.019,-0.017 0.006,-0.005 0.012,-0.01 0.019,-0.015 0.006,-0.005 0.012,-0.009 0.018,-0.014 0.007,-0.004 0.013,-0.008 0.019,-0.012 0.007,-0.004 0.013,-0.008 0.019,-0.011 0.006,-0.004 0.013,-0.007 0.019,-0.01 0.006,-0.003 0.013,-0.005 0.019,-0.008 0.006,-0.002 0.013,-0.005 0.019,-0.007 0.006,-0.001 0.012,-0.003 0.019,-0.005 0.006,-10e-4 0.012,-0.002 0.019,-0.003 0.006,-10e-4 0.012,-0.002 0.018,-0.002 0.007,0 0.013,0 0.019,0 0.007,0 0.013,10e-4 0.019,10e-4 0.006,10e-4 0.013,0.002 0.019,0.004 0.006,0.001 0.013,0.003 0.019,0.005 0.006,10e-4 0.012,0.004 0.019,0.006 0.006,0.002 0.012,0.005 0.019,0.008 0.006,0.003 0.012,0.007 0.018,0.01 0.007,0.004 0.013,0.007 0.019,0.012 0.007,0.004 0.013,0.008 0.019,0.013 0.006,0.004 0.013,0.009 0.019,0.014 0.006,0.005 0.013,0.011 0.019,0.016 0.006,0.006 0.012,0.012 0.019,0.018 0.006,0.006 0.012,0.013 0.019,0.019 0.006,0.007 0.012,0.014 0.018,0.021 0.007,0.007 0.013,0.014 0.019,0.021 0.007,0.008 0.013,0.015 0.019,0.023 0.006,0.008 0.013,0.016 0.019,0.024 0.006,0.009 0.013,0.017 0.019,0.026 0.006,0.008 0.012,0.017 0.019,0.026 0.006,0.009 0.012,0.018 0.019,0.027 0.006,0.009 0.012,0.018 0.018,0.028 0.007,0.009 0.013,0.019 0.019,0.028 0.007,0.01 0.013,0.02 0.019,0.029 0.006,0.01 0.013,0.02 0.019,0.03 0.006,0.01 0.013,0.02 0.019,0.03 0.006,0.01 0.012,0.02 0.019,0.031 0.006,0.01 0.012,0.02 0.019,0.03 0.006,0.01 0.012,0.021 0.018,0.031 0.007,0.01 0.013,0.02 0.019,0.03 0.007,0.011 0.013,0.021 0.019,0.031 0.006,0.01 0.013,0.02 0.019,0.03 0.006,0.01 0.013,0.02 0.019,0.03 0.006,0.009 0.012,0.019 0.019,0.029 0.006,0.009 0.012,0.019 0.019,0.028 0.006,0.01 0.012,0.019 0.018,0.028 0.007,0.009 0.013,0.018 0.019,0.027 0.007,0.009 0.013,0.017 0.019,0.026 0.006,0.008 0.013,0.017 0.019,0.025 0.006,0.008 0.013,0.016 0.019,0.023 0.006,0.008 0.013,0.016 0.019,0.023 0.006,0.007 0.012,0.014 0.019,0.021 0.006,0.007 0.012,0.013 0.019,0.019 0.006,0.007 0.012,0.013 0.018,0.018 0.007,0.006 0.013,0.012 0.019,0.017 0.007,0.005 0.013,0.01 0.019,0.014 0.006,0.005 0.013,0.009 0.019,0.013 0.006,0.004 0.013,0.008 0.019,0.011 0.006,0.003 0.012,0.006 0.019,0.009 0.006,0.002 0.012,0.005 0.019,0.007 0.006,0.002 0.012,0.003 0.018,0.005 0.007,10e-4 0.013,0.002 0.019,0.002 0.007,10e-4 0.013,10e-4 0.019,10e-4 0.006,0 0.013,0 0.019,-10e-4 0.006,-0.001 0.013,-0.002 0.019,-0.004 0.006,-10e-4 0.012,-0.003 0.019,-0.006 0.006,-0.002 0.012,-0.005 0.019,-0.008 0.006,-0.003 0.012,-0.006 0.018,-0.01 0.007,-0.003 0.013,-0.008 0.019,-0.012 0.007,-0.004 0.013,-0.009 0.019,-0.014 0.006,-0.006 0.013,-0.011 0.019,-0.017 0.006,-0.006 0.013,-0.012 0.019,-0.019 0.006,-0.006 0.012,-0.013 0.019,-0.02 0.006,-0.007 0.012,-0.015 0.019,-0.023 0.006,-0.008 0.012,-0.016 0.018,-0.024 0.007,-0.009 0.013,-0.018 0.019,-0.027 0.007,-0.009 0.013,-0.018 0.019,-0.028 0.006,-0.01 0.013,-0.019 0.019,-0.03 0.006,-0.01 0.013,-0.02 0.019,-0.031 0.006,-0.011 0.012,-0.022 0.019,-0.033 0.006,-0.011 0.012,-0.023 0.019,-0.034 0.006,-0.012 0.012,-0.024 0.018,-0.036 0.007,-0.012 0.013,-0.024 0.019,-0.037 0.007,-0.012 0.013,-0.025 0.019,-0.038 0.006,-0.012 0.013,-0.025 0.019,-0.038 0.006,-0.013 0.013,-0.026 0.019,-0.04 0.006,-0.013 0.012,-0.026 0.019,-0.04 0.006,-0.013 0.012,-0.027 0.019,-0.04 0.006,-0.014 0.012,-0.028 0.018,-0.041 0.007,-0.014 0.013,-0.028 0.019,-0.042 0.007,-0.013 0.013,-0.027 0.019,-0.041 0.007,-0.014 0.013,-0.027 0.019,-0.041 0.006,-0.014 0.013,-0.027 0.019,-0.041 0.006,-0.013 0.013,-0.027 0.019,-0.04 0.006,-0.014 0.012,-0.027 0.019,-0.04 0.006,-0.013 0.012,-0.027 0.019,-0.039 0.006,-0.013 0.012,-0.026 0.018,-0.039 0.007,-0.012 0.013,-0.025 0.019,-0.037 0.007,-0.012 0.013,-0.024 0.019,-0.036 0.006,-0.012 0.013,-0.023 0.019,-0.035 0.006,-0.011 0.013,-0.022 0.019,-0.033 0.006,-0.011 0.012,-0.021 0.019,-0.032 0.006,-0.01 0.012,-0.02 0.019,-0.029 0.006,-0.01 0.012,-0.019 0.018,-0.028 0.007,-0.009 0.013,-0.018 0.019,-0.026 0.007,-0.008 0.013,-0.016 0.019,-0.024 0.006,-0.007 0.013,-0.014 0.019,-0.021 0.006,-0.007 0.013,-0.013 0.019,-0.019 0.006,-0.006 0.012,-0.011 0.019,-0.016 0.006,-0.006 0.012,-0.01 0.019,-0.014 0.006,-0.004 0.012,-0.008 0.018,-0.011 0.007,-0.004 0.013,-0.006 0.019,-0.009 0.007,-0.002 0.013,-0.004 0.019,-0.005 0.006,-10e-4 0.013,-0.002 0.019,-0.003 0.006,0 0.013,0 0.019,0.001 0.006,10e-4 0.012,0.002 0.019,0.003 0.006,0.002 0.012,0.004 0.019,0.007 0.006,0.003 0.012,0.006 0.018,0.01 0.007,0.004 0.013,0.008 0.019,0.013 0.007,0.004 0.013,0.01 0.019,0.016 0.006,0.005 0.013,0.012 0.019,0.019 0.006,0.006 0.013,0.014 0.019,0.022 0.006,0.008 0.012,0.016 0.019,0.025 0.006,0.009 0.012,0.018 0.019,0.028 0.006,0.01 0.012,0.021 0.018,0.031 0.007,0.011 0.013,0.023 0.019,0.035 0.007,0.011 0.013,0.024 0.019,0.037 0.006,0.012 0.013,0.026 0.019,0.039 0.006,0.014 0.013,0.028 0.019,0.043 0.006,0.014 0.012,0.029 0.019,0.045 0.006,0.015 0.012,0.031 0.019,0.047 0.006,0.016 0.012,0.033 0.018,0.05 0.007,0.017 0.013,0.034 0.019,0.051 0.007,0.018 0.013,0.036 0.019,0.054 0.007,0.019 0.013,0.037 0.019,0.056 0.006,0.019 0.013,0.038 0.019,0.057 0.006,0.02 0.013,0.039 0.019,0.059 0.006,0.02 0.012,0.04 0.019,0.06 0.006,0.021 0.012,0.041 0.019,0.062 0.006,0.02 0.012,0.041 0.018,0.062 0.007,0.021 0.013,0.042 0.019,0.063 0.007,0.021 0.013,0.042 0.019,0.063 0.006,0.022 0.013,0.043 0.019,0.064 0.006,0.021 0.013,0.043 0.019,0.064 0.006,0.021 0.012,0.043 0.019,0.064 0.006,0.021 0.012,0.042 0.019,0.063 0.006,0.021 0.012,0.042 0.018,0.063 0.007,0.02 0.013,0.041 0.019,0.061 0.007,0.021 0.013,0.041 0.019,0.061 0.006,0.02 0.013,0.04 0.019,0.059 0.006,0.02 0.013,0.039 0.019,0.058 0.006,0.019 0.012,0.037 0.019,0.055 0.006,0.019 0.012,0.036 0.019,0.054 0.006,0.018 0.012,0.035 0.018,0.051 0.007,0.017 0.013,0.033 0.019,0.049 0.007,0.016 0.013,0.031 0.019,0.046 0.006,0.015 0.013,0.029 0.019,0.043 0.006,0.013 0.013,0.027 0.019,0.039 0.006,0.013 0.012,0.025 0.019,0.036 0.006,0.012 0.012,0.023 0.019,0.033 0.006,0.01 0.012,0.019 0.018,0.028 0.007,0.009 0.013,0.017 0.019,0.025 0.007,0.007 0.013,0.014 0.019,0.02 0.006,0.005 0.013,0.011 0.019,0.015 0.006,0.004 0.013,0.008 0.019,0.011 0.006,0.003 0.012,0.005 0.019,0.006 0.006,10e-4 0.012,10e-4 0.019,10e-4 0.006,-10e-4 0.012,-0.002 0.018,-0.004 0.007,-0.003 0.013,-0.006 0.019,-0.01 0.007,-0.004 0.013,-0.009 0.019,-0.014 0.006,-0.006 0.013,-0.013 0.019,-0.021 0.006,-0.007 0.013,-0.016 0.019,-0.026 0.006,-0.009 0.012,-0.02 0.019,-0.031 0.006,-0.012 0.012,-0.024 0.019,-0.037 0.006,-0.014 0.012,-0.028 0.018,-0.043 0.007,-0.016 0.013,-0.032 0.019,-0.049 0.007,-0.017 0.013,-0.036 0.019,-0.055 0.007,-0.019 0.013,-0.039 0.019,-0.06 0.006,-0.021 0.013,-0.043 0.019,-0.066 0.006,-0.023 0.013,-0.048 0.019,-0.072 0.006,-0.025 0.012,-0.051 0.019,-0.078 0.006,-0.027 0.012,-0.055 0.019,-0.084 0.006,-0.029 0.012,-0.058 0.018,-0.089 0.007,-0.031 0.013,-0.062 0.019,-0.095 0.007,-0.032 0.013,-0.065 0.019,-0.1 0.006,-0.034 0.013,-0.069 0.019,-0.105 0.006,-0.036 0.013,-0.073 0.019,-0.111 0.006,-0.037 0.012,-0.076 0.019,-0.115 0.006,-0.039 0.012,-0.08 0.019,-0.121 0.006,-0.04 0.012,-0.082 0.018,-0.125 0.007,-0.042 0.013,-0.085 0.019,-0.129 0.007,-0.044 0.013,-0.089 0.019,-0.134 0.006,-0.045 0.013,-0.091 0.019,-0.138 0.006,-0.047 0.013,-0.094 0.019,-0.142 0.006,-0.048 0.012,-0.096 0.019,-0.145 0.006,-0.049 0.012,-0.099 0.019,-0.149 0.006,-0.05 0.012,-0.1 0.018,-0.151 0.007,-0.051 0.013,-0.103 0.019,-0.155 0.007,-0.052 0.013,-0.104 0.019,-0.157 0.006,-0.052 0.013,-0.105 0.019,-0.159 0.006,-0.053 0.013,-0.107 0.019,-0.161 0.006,-0.054 0.012,-0.108 0.019,-0.162 0.006,-0.055 0.012,-0.11 0.019,-0.164 0.006,-0.055 0.012,-0.11 0.018,-0.165 0.007,-0.055 0.013,-0.11 0.019,-0.166 0.007,-0.055 0.013,-0.11 0.019,-0.165 0.006,-0.055 0.013,-0.111 0.019,-0.166 0.006,-0.055 0.013,-0.11 0.019,-0.165 0.006,-0.055 0.012,-0.11 0.019,-0.164 0.006,-0.055 0.012,-0.109 0.019,-0.164 0.006,-0.054 0.012,-0.108 0.018,-0.161 0.007,-0.054 0.013,-0.107 0.019,-0.16 0.007,-0.053 0.013,-0.106 0.019,-0.158 0.006,-0.053 0.013,-0.104 0.019,-0.156 0.006,-0.051 0.013,-0.102 0.019,-0.152 0.006,-0.051 0.012,-0.101 0.019,-0.15 0.006,-0.049 0.012,-0.098 0.019,-0.1459996 0.006,-0.048 0.012,-0.095 0.018,-0.142 0.007,-0.047 0.013,-0.093 0.019,-0.138 0.007,-0.045 0.013,-0.09 0.019,-0.134 0.007,-0.044 0.013,-0.087 0.019,-0.129 0.006,-0.042 0.013,-0.083 0.019,-0.124 0.006,-0.04 0.013,-0.08 0.019,-0.119 0.006,-0.038 0.012,-0.076 0.019,-0.113 0.006,-0.037 0.012,-0.073 0.019,-0.107 0.006,-0.035 0.012,-0.069 0.018,-0.102 0.007,-0.033 0.013,-0.064 0.019,-0.095 0.007,-0.031 0.013,-0.06 0.019,-0.089 0.006,-0.028 0.013,-0.056 0.019,-0.082 0.006,-0.026 0.013,-0.051 0.019,-0.075 0.006,-0.024 0.012,-0.047 0.019,-0.068 0.006,-0.022 0.012,-0.042 0.019,-0.061 0.006,-0.019 0.012,-0.037 0.018,-0.054 0.007,-0.017 0.013,-0.032 0.019,-0.046 0.007,-0.014 0.013,-0.027 0.019,-0.039 0.006,-0.011 0.013,-0.022 0.019,-0.031 0.006,-0.009 0.013,-0.017 0.019,-0.023 0.006,-0.007 0.012,-0.012 0.019,-0.016 0.006,-0.004 0.012,-0.006 0.019,-0.008 0.006,-10e-4 0.012,-10e-4 0.018,0 0.007,0.002 0.013,0.004 0.019,0.008 0.007,0.004 0.013,0.009 0.019,0.016 0.006,0.006 0.013,0.014 0.019,0.023 0.006,0.009 0.013,0.02 0.019,0.031 0.006,0.012 0.012,0.025 0.019,0.039 0.006,0.014 0.012,0.029 0.019,0.046 0.006,0.017 0.012,0.035 0.018,0.054 0.007,0.019 0.013,0.039 0.019,0.061 0.007,0.021 0.013,0.044 0.019,0.068 0.006,0.024 0.013,0.049 0.019,0.075 0.006,0.026 0.013,0.054 0.019,0.082 0.006,0.029 0.012,0.058 0.019,0.089 0.006,0.031 0.012,0.062 0.019,0.095 0.006,0.033 0.012,0.067 0.018,0.102 0.007,0.034 0.013,0.07 0.019,0.107 0.007,0.037 0.013,0.075 0.019,0.113 0.006,0.039 0.013,0.079 0.019,0.119 0.006,0.041 0.013,0.082 0.019,0.124 0.006,0.042 0.012,0.085 0.019,0.129 0.006,0.044 0.012,0.089 0.019,0.134 0.006,0.045 0.012,0.091 0.019,0.138 0.006,0.047 0.012,0.094 0.018,0.142 0.007,0.048 0.013,0.097 0.019,0.1459996 0.007,0.049 0.013,0.099 0.019,0.15 0.006,0.05 0.013,0.101 0.019,0.152 0.006,0.052 0.013,0.103 0.019,0.156 0.006,0.052 0.012,0.105 0.019,0.158 0.006,0.053 0.012,0.106 0.019,0.16 0.006,0.053 0.012,0.107 0.018,0.161 0.007,0.055 0.013,0.109 0.019,0.164 0.007,0.054 0.013,0.109 0.019,0.164 0.006,0.055 0.013,0.11 0.019,0.165 0.006,0.055 0.013,0.111 0.019,0.166 0.006,0.055 0.012,0.11 0.019,0.165 0.006,0.056 0.012,0.111 0.019,0.166 0.006,0.055 0.012,0.11 0.018,0.165 0.007,0.054 0.013,0.109 0.019,0.164 0.007,0.054 0.013,0.108 0.019,0.162 0.006,0.054 0.013,0.108 0.019,0.161 0.006,0.054 0.013,0.107 0.019,0.159 0.006,0.053 0.012,0.105 0.019,0.157 0.006,0.052 0.012,0.104 0.019,0.155 0.006,0.051 0.012,0.101 0.018,0.151 0.007,0.05 0.013,0.1 0.019,0.149 0.007,0.049 0.013,0.097 0.019,0.145 0.006,0.048 0.013,0.095 0.019,0.142 0.006,0.047 0.013,0.093 0.019,0.138 0.006,0.045 0.012,0.09 0.019,0.134 0.006,0.044 0.012,0.087 0.019,0.129 0.006,0.043 0.012,0.085 0.018,0.125 0.007,0.041 0.013,0.082 0.019,0.121 0.007,0.039 0.013,0.078 0.019,0.115 0.006,0.038 0.013,0.075 0.019,0.111 0.006,0.036 0.013,0.071 0.019,0.105 0.006,0.035 0.012,0.068 0.019,0.1 0.006,0.033 0.012,0.064 0.019,0.095 0.006,0.031 0.012,0.06 0.018,0.089 0.007,0.029 0.013,0.057 0.019,0.084 0.007,0.027 0.013,0.053 0.019,0.078 0.006,0.024 0.013,0.049 0.019,0.072 0.006,0.023 0.013,0.045 0.019,0.066 0.006,0.021 0.012,0.041 0.019,0.06 0.006,0.019 0.012,0.038 0.019,0.055 0.006,0.017 0.012,0.033 0.019,0.049 0.006,0.015 0.012,0.029 0.018,0.043 0.007,0.013 0.013,0.025 0.019,0.037 0.007,0.011 0.013,0.022 0.019,0.031 0.006,0.01 0.013,0.019 0.019,0.026 0.006,0.008 0.013,0.015 0.019,0.021 0.006,0.005 0.012,0.01 0.019,0.014 0.006,0.004 0.012,0.007 0.019,0.01 0.006,0.002 0.012,0.003 0.018,0.004 0.007,0 0.013,0 0.019,-10e-4 0.007,-0.001 0.013,-0.003 0.019,-0.006 0.006,-0.003 0.013,-0.007 0.019,-0.011 0.006,-0.004 0.013,-0.01 0.019,-0.015 0.006,-0.006 0.012,-0.013 0.019,-0.02 0.006,-0.008 0.012,-0.016 0.019,-0.025 0.006,-0.009 0.012,-0.018 0.018,-0.028 0.007,-0.01 0.013,-0.021 0.019,-0.033 0.007,-0.011 0.013,-0.023 0.019,-0.036 0.006,-0.012 0.013,-0.026 0.019,-0.039 0.006,-0.014 0.013,-0.028 0.019,-0.043 0.006,-0.015 0.012,-0.03 0.019,-0.046 0.006,-0.016 0.012,-0.032 0.019,-0.049 0.006,-0.016 0.012,-0.033 0.018,-0.051 0.007,-0.018 0.013,-0.035 0.019,-0.054 0.007,-0.018 0.013,-0.036 0.019,-0.055 0.006,-0.019 0.013,-0.038 0.019,-0.058 0.006,-0.019 0.013,-0.039 0.019,-0.059 0.006,-0.02 0.012,-0.04 0.019,-0.061 0.006,-0.02 0.012,-0.041 0.019,-0.061 0.006,-0.021 0.012,-0.042 0.018,-0.063 0.007,-0.021 0.013,-0.042 0.019,-0.063 0.007,-0.021 0.013,-0.043 0.019,-0.064 0.006,-0.021 0.013,-0.043 0.019,-0.064 0.006,-0.021 0.013,-0.042 0.019,-0.064 0.006,-0.021 0.012,-0.042 0.019,-0.063 0.006,-0.021 0.012,-0.042 0.019,-0.063 0.006,-0.021 0.012,-0.042 0.018,-0.062 0.007,-0.021 0.013,-0.041 0.019,-0.062 0.007,-0.02 0.013,-0.04 0.019,-0.06 0.006,-0.02 0.013,-0.039 0.019,-0.059 0.006,-0.019 0.013,-0.038 0.019,-0.057 0.006,-0.019 0.012,-0.037 0.019,-0.056 0.006,-0.018 0.012,-0.036 0.019,-0.054 0.006,-0.017 0.012,-0.034 0.019,-0.051 0.006,-0.017 0.012,-0.034 0.018,-0.05 0.007,-0.016 0.013,-0.032 0.019,-0.047 0.007,-0.016 0.013,-0.031 0.019,-0.045 0.006,-0.015 0.013,-0.029 0.019,-0.043 0.006,-0.013 0.013,-0.027 0.019,-0.039 0.006,-0.013 0.012,-0.026 0.019,-0.037 0.006,-0.012 0.012,-0.024 0.019,-0.035 0.006,-0.01 0.012,-0.021 0.018,-0.031 0.007,-0.01 0.013,-0.019 0.019,-0.028 0.007,-0.009 0.013,-0.017 0.019,-0.025 0.006,-0.008 0.013,-0.016 0.019,-0.022 0.006,-0.007 0.013,-0.014 0.019,-0.019 0.006,-0.006 0.012,-0.012 0.019,-0.016 0.006,-0.005 0.012,-0.009 0.019,-0.013 0.006,-0.004 0.012,-0.007 0.018,-0.01 0.007,-0.003 0.013,-0.005 0.019,-0.007 0.007,-10e-4 0.013,-0.002 0.019,-0.003 0.006,-0.001 0.013,-0.001 0.019,-0.001 0.006,0.001 0.013,0.002 0.019,0.003 0.006,10e-4 0.012,0.003 0.019,0.005 0.006,0.003 0.012,0.005 0.019,0.009 0.006,0.003 0.012,0.007 0.018,0.011 0.007,0.004 0.013,0.008 0.019,0.014 0.007,0.005 0.013,0.01 0.019,0.016 0.006,0.006 0.013,0.012 0.019,0.019 0.006,0.007 0.013,0.014 0.019,0.021 0.006,0.008 0.012,0.016 0.019,0.024 0.006,0.008 0.012,0.017 0.019,0.026 0.006,0.009 0.012,0.018 0.018,0.028 0.007,0.009 0.013,0.019 0.019,0.029 0.007,0.011 0.013,0.021 0.019,0.032 0.006,0.011 0.013,0.022 0.019,0.033 0.006,0.012 0.013,0.023 0.019,0.035 0.006,0.012 0.012,0.024 0.019,0.036 0.006,0.012 0.012,0.025 0.019,0.037 0.006,0.013 0.012,0.026 0.018,0.039 0.007,0.012 0.013,0.026 0.019,0.039 0.007,0.013 0.013,0.026 0.019,0.04 0.006,0.013 0.013,0.027 0.019,0.04 0.006,0.014 0.013,0.027 0.019,0.041 0.006,0.014 0.012,0.027 0.019,0.041 0.006,0.014 0.012,0.028 0.019,0.041 0.006,0.014 0.012,0.028 0.019,0.042 0.006,0.013 0.012,0.027 0.018,0.041 0.007,0.013 0.013,0.027 0.019,0.04 0.007,0.014 0.013,0.027 0.019,0.04 0.006,0.014 0.013,0.027 0.019,0.04 0.006,0.013 0.013,0.026 0.019,0.038 0.006,0.013 0.012,0.026 0.019,0.038 0.006,0.013 0.012,0.025 0.019,0.037 0.006,0.012 0.012,0.024 0.018,0.036 0.007,0.011 0.013,0.023 0.019,0.034 0.007,0.011 0.013,0.022 0.019,0.033 0.006,0.011 0.013,0.021 0.019,0.031 0.006,0.011 0.013,0.02 0.019,0.03 0.006,0.01 0.012,0.019 0.019,0.028 0.006,0.009 0.012,0.018 0.019,0.027 0.006,0.008 0.012,0.016 0.018,0.024 0.007,0.008 0.013,0.016 0.019,0.023 0.007,0.007 0.013,0.014 0.019,0.02 0.006,0.007 0.013,0.013 0.019,0.019 0.006,0.006 0.013,0.011 0.019,0.017 0.006,0.005 0.012,0.01 0.019,0.014 0.006,0.004 0.012,0.009 0.019,0.012 0.006,0.004 0.012,0.007 0.018,0.01 0.007,0.003 0.013,0.006 0.019,0.008 0.007,0.003 0.013,0.005 0.019,0.006 0.006,0.002 0.013,0.003 0.019,0.004 0.006,10e-4 0.013,10e-4 0.019,10e-4 0.006,0 0.012,0 0.019,-10e-4 0.006,0 0.012,-0.001 0.019,-0.002 0.006,-0.002 0.012,-0.003 0.018,-0.005 0.007,-0.002 0.013,-0.005 0.019,-0.007 0.007,-0.003 0.013,-0.006 0.019,-0.009 0.006,-0.003 0.013,-0.007 0.019,-0.011 0.006,-0.004 0.013,-0.008 0.019,-0.013 0.006,-0.004 0.012,-0.009 0.019,-0.014 0.006,-0.005 0.012,-0.011 0.019,-0.017 0.006,-0.005 0.012,-0.011 0.018,-0.018 0.007,-0.006 0.013,-0.012 0.019,-0.019 0.007,-0.007 0.013,-0.014 0.019,-0.021 0.006,-0.007 0.013,-0.015 0.019,-0.023 0.006,-0.007 0.013,-0.015 0.019,-0.023 0.006,-0.008 0.013,-0.017 0.019,-0.025 0.006,-0.009 0.012,-0.017 0.019,-0.026 0.006,-0.009 0.012,-0.018 0.019,-0.027 0.006,-0.009 0.012,-0.018 0.018,-0.028 0.007,-0.009 0.013,-0.019 0.019,-0.028 0.007,-0.01 0.013,-0.02 0.019,-0.029 0.006,-0.01 0.013,-0.02 0.019,-0.03 0.006,-0.01 0.013,-0.02 0.019,-0.03 0.006,-0.01 0.012,-0.02 0.019,-0.031 0.006,-0.01 0.012,-0.02 0.019,-0.03 0.006,-0.01 0.012,-0.021 0.018,-0.031 0.007,-0.01 0.013,-0.02 0.019,-0.03 0.007,-0.011 0.013,-0.021 0.019,-0.031 0.006,-0.01 0.013,-0.02 0.019,-0.03 0.006,-0.01 0.013,-0.02 0.019,-0.03 0.006,-0.009 0.012,-0.019 0.019,-0.029 0.006,-0.009 0.012,-0.019 0.019,-0.028 0.006,-0.01 0.012,-0.019 0.018,-0.028 0.007,-0.009 0.013,-0.018 0.019,-0.027 0.007,-0.009 0.013,-0.018 0.019,-0.026 0.006,-0.009 0.013,-0.017 0.019,-0.026 0.006,-0.008 0.013,-0.016 0.019,-0.024 0.006,-0.008 0.012,-0.015 0.019,-0.023 0.006,-0.007 0.012,-0.014 0.019,-0.021 0.006,-0.007 0.012,-0.014 0.018,-0.021 0.007,-0.006 0.013,-0.013 0.019,-0.019 0.007,-0.006 0.013,-0.012 0.019,-0.018 0.006,-0.005 0.013,-0.011 0.019,-0.016 0.006,-0.005 0.013,-0.01 0.019,-0.014 0.006,-0.005 0.012,-0.009 0.019,-0.013 0.006,-0.005 0.012,-0.008 0.019,-0.012 0.006,-0.003 0.012,-0.007 0.018,-0.01 0.007,-0.003 0.013,-0.005 0.019,-0.008 0.007,-0.002 0.013,-0.005 0.019,-0.006 0.006,-0.002 0.013,-0.004 0.019,-0.005 0.006,-0.002 0.013,-0.003 0.019,-0.004 0.006,0 0.012,-10e-4 0.019,-10e-4 0.006,0 0.012,0 0.019,0 0.006,0 0.012,10e-4 0.018,0.002 0.007,0.001 0.013,0.002 0.019,0.003 0.007,0.002 0.013,0.004 0.019,0.005 0.006,0.002 0.013,0.005 0.019,0.007 0.006,0.003 0.013,0.005 0.019,0.008 0.006,0.003 0.013,0.006 0.019,0.01 0.006,0.003 0.012,0.007 0.019,0.011 0.006,0.004 0.012,0.008 0.019,0.012 0.006,0.005 0.012,0.009 0.018,0.014 0.007,0.005 0.013,0.01 0.019,0.015 0.007,0.006 0.013,0.011 0.019,0.017 0.006,0.005 0.013,0.011 0.019,0.017 0.006,0.006 0.013,0.012 0.019,0.018 0.006,0.007 0.012,0.013 0.019,0.02 0.006,0.006 0.012,0.013 0.019,0.02 0.006,0.007 0.012,0.014 0.018,0.021 0.007,0.007 0.013,0.015 0.019,0.022 0.007,0.007 0.013,0.015 0.019,0.023 0.006,0.007 0.013,0.015 0.019,0.023 0.006,0.007 0.013,0.015 0.019,0.023 0.006,0.008 0.012,0.016 0.019,0.024 0.006,0.008 0.012,0.016 0.019,0.024 0.006,0.008 0.012,0.016 0.018,0.024 0.007,0.008 0.013,0.016 0.019,0.025 0.007,0.008 0.013,0.016 0.019,0.024 0.006,0.008 0.013,0.016 0.019,0.024"
       title="sin(x) / x"
       id="path23973-6-3" />
    <path
       style="fill:none;stroke:#000000;stroke-width:0.264583px;stroke-linecap:butt;stroke-linejoin:miter;stroke-opacity:1"
       d="m 128.86073,6.3977134 h -1.6 V 27.197713 h 1.6"
       id="path24198-7" />
    <path
       style="fill:none;stroke:#000000;stroke-width:0.264583px;stroke-linecap:butt;stroke-linejoin:miter;stroke-opacity:1"
       d="m 146.45607,6.3977134 h 1.6 V 27.197713 h -1.6"
       id="path24198-2-8" />
    <text
       xml:space="preserve"
       style="font-size:3.52777px;line-height:1.25;font-family:'Fira Sans';-inkscape-font-specification:'Fira Sans, Normal';word-spacing:0px;stroke-width:0.264583"
       x="148.84389"
       y="27.197721"
       id="text24276-8"><tspan
         sodipodi:role="line"
         id="tspan24274-3"
         style="font-style:italic;stroke-width:0.264583"
         x="148.84389"
         y="27.197721">N<tspan
   style="font-style:normal;font-size:65%;baseline-shift:sub"
   id="tspan24328-8">2</tspan></tspan></text>
    <rect
       inkscape:export-filename="/Users/yongrenjie/dphil/nbsphinx/sehsqc/spor.png"
       style="fill:#000000;stroke:#000000;stroke-width:0.32;stroke-miterlimit:4;stroke-dasharray:none"
       id="rect1348-2-65-7-52"
       width="1.5999991"
       height="6.3999987"
       x="115.2"
       y="8.000001"
       inkscape:export-xdpi="500"
       inkscape:export-ydpi="500" />
  </g>
</svg>
